<svg width="20" height="20" viewBox="0 0 20 20" fill="none" xmlns="http://www.w3.org/2000/svg">
<path d="M5.45995 13.52C5.45995 12.1507 6.01462 11.102 7.12395 10.374C8.23329 9.646 9.87129 9.26467 12.038 9.23C13.2166 9.21267 14.248 9.1 15.132 8.892C16.016 8.66667 16.7526 8.38067 17.342 8.034C17.9486 7.68734 18.3993 7.28867 18.694 6.838C18.9886 6.38734 19.136 5.91934 19.136 5.434C19.136 4.654 18.772 4.02134 18.044 3.536C17.316 3.05067 16.354 2.73867 15.158 2.6L17.29 1.326C17.9486 1.69 18.4686 2.22734 18.85 2.938C19.2486 3.64867 19.448 4.368 19.448 5.096C19.448 5.616 19.3266 6.136 19.084 6.656C18.8413 7.176 18.4426 7.644 17.888 8.06C17.3333 8.476 16.5966 8.82267 15.678 9.1C14.7766 9.37734 13.65 9.53334 12.298 9.568C13.4246 9.86267 14.326 10.4087 15.002 11.206C15.6953 11.986 16.042 12.9133 16.042 13.988C16.042 14.7507 15.86 15.444 15.496 16.068C15.132 16.692 14.612 17.2293 13.936 17.68C13.26 18.1133 12.4453 18.4513 11.492 18.694C10.5386 18.9367 9.48129 19.058 8.31995 19.058C7.07195 19.058 5.93662 18.9193 4.91395 18.642C3.89129 18.3473 3.01595 17.94 2.28795 17.42C1.55995 16.9 0.99662 16.276 0.597953 15.548C0.199286 14.82 -4.68642e-05 14.0053 -4.68642e-05 13.104C-4.68642e-05 12.2373 0.19062 11.4487 0.571953 10.738C0.953287 10.0273 1.48195 9.412 2.15795 8.892C2.85129 8.372 3.68329 7.96467 4.65395 7.67C5.62462 7.37534 6.69929 7.21934 7.87795 7.202C6.36995 7.01134 5.16529 6.56934 4.26395 5.876C3.36262 5.18267 2.91195 4.342 2.91195 3.354C2.91195 2.85134 3.03329 2.40067 3.27595 2.002C3.51862 1.586 3.86529 1.23067 4.31595 0.936003C4.76662 0.641336 5.30395 0.416003 5.92795 0.260003C6.56929 0.0866694 7.27995 2.86102e-06 8.05995 2.86102e-06C8.97862 2.86102e-06 9.73262 0.11267 10.322 0.338003C10.9113 0.546004 11.3706 0.832004 11.7 1.196V3.952C11.1626 2.87734 10.53 2.01934 9.80195 1.378C9.09129 0.719337 8.30262 0.390004 7.43595 0.390004C6.63862 0.390004 5.97995 0.676004 5.45995 1.248C4.93995 1.80267 4.67995 2.522 4.67995 3.406C4.67995 4.53267 5.09595 5.434 5.92795 6.11C6.77729 6.76867 7.90395 7.098 9.30795 7.098V7.384C8.31995 7.384 7.41862 7.52267 6.60395 7.8C5.80662 8.07734 5.12195 8.476 4.54995 8.996C3.97795 9.49867 3.53595 10.114 3.22395 10.842C2.91195 11.5527 2.75595 12.35 2.75595 13.234C2.75595 14.066 2.89462 14.8287 3.17195 15.522C3.44929 16.198 3.83929 16.7787 4.34195 17.264C4.84462 17.7493 5.44262 18.1307 6.13595 18.408C6.84662 18.668 7.63529 18.798 8.50195 18.798C9.33395 18.798 10.088 18.6767 10.764 18.434C11.4573 18.1913 12.038 17.8533 12.506 17.42C12.9913 16.9693 13.364 16.432 13.624 15.808C13.9013 15.184 14.04 14.4993 14.04 13.754C14.04 12.506 13.6846 11.5267 12.974 10.816C12.2806 10.088 11.336 9.724 10.14 9.724C9.65462 9.724 9.15195 9.802 8.63195 9.958C8.11195 10.0967 7.63529 10.3133 7.20195 10.608C6.78595 10.9027 6.43929 11.2667 6.16195 11.7C5.88462 12.1333 5.74595 12.6273 5.74595 13.182C5.74595 14.0487 6.10995 14.742 6.83795 15.262C7.56595 15.7647 8.52795 16.0767 9.72395 16.198L7.59195 17.498C6.93329 17.134 6.41329 16.588 6.03195 15.86C5.65062 15.132 5.45995 14.352 5.45995 13.52Z" fill="#4A4A4A"/>
</svg>
