<svg width="74" height="49" viewBox="0 0 74 49" fill="none" xmlns="http://www.w3.org/2000/svg">
<path d="M13.5753 24.1134C11.4508 24.6245 9.72528 26.2769 8.84751 28.1519C8.02606 29.9066 8.71384 28.6146 9.40755 29.0009C9.6126 27.7415 11.0077 26.1968 12.1362 25.3748C12.6828 24.9768 14.5181 24.5618 14.5181 24.5618C14.5181 24.5618 13.6818 24.0876 13.5753 24.1134Z" fill="#C5B39A"/>
<path d="M16.3399 37.5306C13.2779 37.5677 11.9369 37.9203 8.55424 36.7145C7.38846 36.2987 5.61597 35.4537 4.98926 34.4535C4.37457 33.4726 8.00161 29.4626 9.37599 29.1148C9.55079 28.9266 8.80312 28.5236 8.5939 28.683C1.91037 33.7789 3.89139 35.3859 7.44446 36.8151C10.9429 38.2225 13.1596 38.0661 16.3328 38.0589C16.6726 38.0579 16.6802 37.5266 16.3399 37.5306Z" fill="#C5B39A"/>
<path d="M25.2322 39.2474C25.092 39.2792 25.1061 39.2808 25.1132 39.2794C25.2538 39.2475 25.2394 39.246 25.2322 39.2474Z" fill="#C5B39A"/>
<path d="M12.9201 23.8853C11.9988 23.8306 14.8606 24.2771 19.0111 28.8932C22.7295 33.0287 23.6054 35.6714 25.1827 39.5911C25.321 39.9351 25.9203 39.8696 25.8615 39.4583C25.5191 37.0646 17.9225 24.1824 12.9201 23.8849L12.9201 23.8853Z" fill="#C5B39A"/>
<path d="M22.7578 33.7732C19.5679 22.2485 14.3628 20.9394 14.7554 21.2747C19.4127 25.2548 20.6513 29.6279 22.7578 33.7732Z" fill="#C5B39A"/>
<path d="M14.8956 37.1019C14.8947 37.1066 14.8923 37.1155 14.8927 37.1196C14.8933 37.1168 14.8949 37.1058 14.8956 37.1019Z" fill="#C5B39A"/>
<path d="M15.5235 36.2006C14.8874 34.4761 13.1334 31.6581 11.2961 30.1816C9.10944 28.4245 8.70289 28.8232 8.91638 28.9252C11.8958 30.3471 13.8072 33.6902 14.6663 35.7592C15.033 36.6424 15.193 37.6771 15.2187 37.7535C15.3955 38.2788 16.1886 38.0026 15.5235 36.2006Z" fill="#C5B39A"/>
<path d="M25.1576 38.8787C23.9113 39.2064 20.878 40.083 18.1162 39.4607C15.8511 38.9503 12.3998 37.5354 13.2003 38.1451C16.8214 40.9041 24.207 40.3054 25.4356 39.6568C26.1766 39.2657 25.3647 38.8242 25.158 38.8786L25.1576 38.8787Z" fill="#C5B39A"/>
<path d="M45.739 38.3928C43.8788 39.6696 38.9951 41.1606 37.792 41.39C36.3929 41.6567 33.4845 42.5977 25.0362 39.271C24.6517 39.1194 24.8463 39.5028 25.6257 40.0203C33.1909 45.0404 47.7207 39.9067 45.739 38.3928Z" fill="#C5B39A"/>
<path d="M55.3821 26.9823C54.6811 31.042 54.8505 30.3912 54.7329 31.0666C53.676 37.1402 48.0057 37.6374 46.1303 38.5511C41.3251 40.8911 54.1622 38.558 55.2695 31.2848C55.3776 30.5749 55.5549 25.9838 55.3821 26.9823Z" fill="#C5B39A"/>
<path d="M69.8803 17.5314C69.3798 15.292 58.5191 13.6531 61.8161 15.3181C62.8796 15.8551 68.3531 16.5137 68.9763 17.4978C69.9404 19.0206 63.6697 24.3579 61.7199 24.375C61.3372 24.6621 61.3007 25.1981 61.8083 25.1C64.815 24.5185 70.1406 18.697 69.88 17.5314L69.8803 17.5314Z" fill="#C5B39A"/>
<path d="M53.8333 14.2333C52.4359 11.5334 47.8832 10.4636 44.84 12.1949C44.7676 12.2362 44.7558 13.0574 44.8287 13.0351C46.254 12.596 49.7935 11.4195 51.7605 12.837C52.0373 13.0365 54.2843 15.1045 53.8333 14.2333Z" fill="#C5B39A"/>
<path d="M27.5194 11.9865C27.5034 11.4539 27.7665 11.363 27.0935 11.62C24.6561 12.55 22.5529 15.3331 22.5397 16.726C22.5321 17.5606 23.6251 15.6198 23.8311 15.3439C26.103 12.3024 27.5436 12.7771 27.5194 11.9865Z" fill="#C5B39A"/>
<path d="M44.8851 12.2913C43.7881 10.3219 42.5634 8.05955 40.1983 8.4093C40.4579 6.56302 33.4863 6.31255 29.7968 7.54285C28.2977 8.04276 26.8848 10.8157 27.2249 12.2954C27.2739 12.5089 27.8197 12.1162 27.8078 11.8783C27.4728 4.9668 38.9272 7.68797 39.5394 8.12809C39.6002 8.1721 39.7895 8.90998 39.9786 8.92945C44.405 9.70446 43.9759 13.6052 44.8715 14.3336C45.1208 14.5363 45.8414 14.0079 44.8855 12.2916L44.8851 12.2913Z" fill="#C5B39A"/>
<path d="M54.0833 16.3027C54.0394 16.1314 53.7717 16.1637 53.8054 16.3452C55.2307 23.9986 54.7423 22.2204 55.2627 26.6891C55.3582 27.5071 56.5865 26.081 54.0833 16.3027Z" fill="#C5B39A"/>
<path d="M23.0117 16.1007C18.5267 14.532 12.4078 20.07 11.0955 25.7133C10.9895 26.1691 11.6898 25.6336 11.798 25.3824C12.327 24.1541 12.7921 22.029 14.5581 20.3038C16.8424 18.0724 20.3269 16.5003 22.7435 16.8769C22.9478 16.9086 23.2025 16.1675 23.0117 16.1007Z" fill="#C5B39A"/>
<path d="M61.9569 15.2535C60.3325 11.4683 55.2172 11.362 52.585 13.1227C53.1141 13.9284 53.566 12.5917 56.8316 12.8157C60.5792 13.0727 60.8961 14.7059 61.424 16.9368C62.8286 22.8732 60.3036 30.5783 53.7757 34.3985C53.5455 34.801 53.2636 35.1754 52.9539 35.5246C62.3145 31.3154 64.0489 20.1283 61.9565 15.2532L61.9569 15.2535Z" fill="#C5B39A"/>
<path d="M38.9503 10.8918C38.6035 9.40299 40.3864 21.3973 39.2521 29.2499C38.5508 34.1062 39.1979 35.0204 36.4 29.6684C31.4324 20.1655 31.663 12.1755 28.5125 10.1899C28.1532 9.96341 27.9732 9.81301 27.7156 10.0397C27.6217 10.1225 27.7003 10.2046 27.8982 10.337C32.2549 13.251 31.2425 22.1002 36.1602 30.6647C36.8498 31.8661 38.3933 34.1652 38.6906 34.1321C40.5326 33.9257 40.1848 16.1895 38.9503 10.8918Z" fill="#C5B39A"/>
<path d="M39.0092 8.24684C38.5425 9.42357 39.2314 10.4615 39.3241 9.99835C39.8564 7.34453 39.3247 7.45046 39.0092 8.24684Z" fill="#C5B39A"/>
<path d="M38.2116 41.5028C34.7448 40.0121 25.959 28.6732 23.3066 17.166C22.9207 15.4909 22.143 15.8882 22.6302 17.9605C23.5521 21.8806 34.1283 43.0094 37.9052 41.6114C38.077 41.5476 38.3512 41.5627 38.2116 41.5028Z" fill="#C5B39A"/>
<path d="M45.7158 18.5028C49.1084 39.0296 41.9739 40.8762 45.9632 38.8139C50.3335 31.8099 42.5644 -0.564595 45.7158 18.5028Z" fill="#C5B39A"/>
<path d="M49.6349 11.6534C51.1978 16.5767 54.8732 19.6411 54.5376 29.3256C54.3839 33.7632 54.1697 35.0777 54.4223 34.5342C58.2158 26.3664 48.6377 8.51369 49.6349 11.6534Z" fill="#C5B39A"/>
<path d="M54.8631 24.0901C54.1527 19.0336 52.3833 14.088 50.8871 12.1147C50.8002 12.0003 50.6229 12.1333 50.7088 12.2485C54.0319 16.7157 55.871 31.2611 54.8635 24.0901L54.8631 24.0901Z" fill="#C5B39A"/>
<path d="M52.3314 12.6876C52.261 12.5183 52.0172 12.631 52.0737 12.8001C52.4486 13.9195 52.9465 14.3203 53.3752 15.8537C53.6557 16.8568 54.2294 19.8487 54.1716 19.1597C53.7507 14.1424 53.3354 15.102 52.3314 12.688L52.3314 12.6876Z" fill="#C5B39A"/>
<path d="M58.4084 12.7411C57.9462 12.0853 58.9808 14.0802 59.5687 16.9814C61.2346 25.2028 59.3003 28.221 58.7122 30.3331C58.6091 30.7031 59.6374 30.022 60.2666 27.2443C60.9569 24.1972 60.3253 15.4603 58.4084 12.7411Z" fill="#C5B39A"/>
<path d="M61.09 19.7586C60.906 17.7462 60.6115 14.5779 59.335 13.0113C59.0742 12.6914 59.9028 13.9101 60.3922 16.3205C61.3141 20.8604 61.1746 21.1082 60.5036 26.829C60.434 27.4241 61.6494 25.8755 61.09 19.7586Z" fill="#C5B39A"/>
<path d="M60.9107 14.0629C60.7838 13.564 61.7055 17.1467 61.4044 23.4465C61.373 24.1098 62.4895 20.2509 60.9107 14.0629Z" fill="#C5B39A"/>
<path d="M64.3889 15.7444C63.1282 15.0194 60.9094 15.965 61.6753 15.8509C63.2639 15.6144 64.9148 16.0466 64.3889 15.7444Z" fill="#C5B39A"/>
<path d="M40.3619 8.66338C40.3834 8.58132 40.0074 8.09993 39.8219 9.36775C39.6664 10.4283 40.3357 15.2531 40.3295 10.4944C40.3295 10.4572 40.3242 8.80598 40.3619 8.66338Z" fill="#C5B39A"/>
<path d="M41.0155 20.4448C39.9035 4.34624 41.1093 22.1568 40.5255 28.0011C39.0904 42.3707 39.1211 35.9855 32.9566 26.0192C31.4924 23.6518 30.7146 20.3235 28.9735 14.9187C28.0959 12.1945 26.7846 11.1236 26.9905 11.841C27.2871 12.8722 29.1967 15.5378 30.1414 19.0757C31.7077 24.9403 33.4418 29.5306 36.1325 33.5558C40.3812 39.912 39.6874 37.385 40.4599 32.8832C41.7447 25.3982 41.2343 23.6196 41.0148 20.4449L41.0155 20.4448Z" fill="#C5B39A"/>
<path d="M12.5295 28.6488C10.9684 26.5925 9.48028 26.6341 9.94268 26.9204C11.2671 27.7408 12.9128 29.1537 12.5295 28.6488Z" fill="#C5B39A"/>
<path d="M9.47926 27.8194C9.38696 27.8397 9.39432 27.9733 9.49391 27.969C9.99439 27.947 10.4399 28.5023 10.7727 28.8142C16.1778 33.8789 14.7318 35.3124 15.6669 37.7283C15.68 37.7621 15.8874 37.5417 15.8816 37.5019C15.0524 31.8493 10.5964 27.5714 9.47926 27.8194Z" fill="#C5B39A"/>
<path d="M15.499 24.2695C13.3491 22.6981 12.2104 23.3276 12.5743 23.3497C18.326 23.6972 22.5051 33.8525 22.1586 33.0367C20.5738 29.3013 19.0492 26.8638 15.499 24.2695Z" fill="#C5B39A"/>
<path d="M21.649 30.4459C20.3352 26.093 14.7759 21.3769 12.8476 22.1996C12.634 22.2907 12.7415 22.5806 12.9346 22.6067C13.1866 22.6411 13.4381 22.6039 13.6928 22.6475C16.7904 23.1777 20.2518 27.535 21.4774 30.5126C21.523 30.6233 21.6831 30.5585 21.6494 30.4458L21.649 30.4459Z" fill="#C5B39A"/>
<path d="M15.9363 22.4019C14.7434 20.9744 13.1609 21.0065 13.6795 21.1849C14.9558 21.6235 16.3177 22.858 15.9363 22.4019Z" fill="#C5B39A"/>
<path d="M29.7949 15.1744C28.3175 10.7943 27.0565 11.5383 27.4109 11.8648C30.7222 14.9168 30.5468 20.5393 33.9876 28.3603C35.5297 31.8655 36.5638 32.86 36.4351 32.6313C32.2973 25.2692 33.118 25.0269 29.7949 15.1748L29.7949 15.1744Z" fill="#C5B39A"/>
<path d="M40.6063 20.2703C40.2837 16.9414 40.0526 15.7227 39.9653 14.7405C39.7946 12.8225 40.0284 7.18351 39.8131 8.45318C39.0172 13.1472 41.5684 22.8958 40.1448 30.3379C39.6891 32.7201 38.8581 35.4615 38.7936 35.7992C31.4191 26.0856 32.6642 13.5048 27.6723 10.8785C26.889 10.4666 29.0443 12.182 29.5931 13.0031C31.2432 15.4725 32.1914 23.4898 35.9703 31.7329C38.1064 36.3928 39.6424 36.9555 39.2482 36.4096C38.6751 35.6161 41.635 30.8949 40.6063 20.2703Z" fill="#C5B39A"/>
<path d="M40.3833 26.192C40.0712 28.2821 39.4859 31.1042 38.777 33.5914C39.8234 33.2385 40.5597 25.0108 40.3833 26.192Z" fill="#C5B39A"/>
<path d="M33.6797 6.96665C33.6563 6.75294 33.3048 6.7741 33.301 6.98953C33.2959 7.28187 33.8701 10.4757 34.0557 9.56014C34.285 8.43091 33.7578 7.67577 33.6801 6.96694L33.6797 6.96665Z" fill="#C5B39A"/>
<path d="M34.9416 7.27931C34.9603 7.10481 34.7017 7.07467 34.6724 7.24646C34.3206 9.30873 35.0415 10.2405 35.0278 9.66401C35.0132 9.05528 34.8209 8.41699 34.9416 7.27931Z" fill="#C5B39A"/>
<path d="M38.3609 12.3059C38.0144 6.1724 37.8892 13.5583 38.2678 14.5884C38.5617 15.3883 38.3739 12.5343 38.3609 12.3059Z" fill="#C5B39A"/>
<path d="M38.7062 15.9498C38.7004 15.9133 38.7592 27.9838 38.8986 26.6995C39.4223 21.8683 39.4719 20.6295 38.7062 15.9498Z" fill="#C5B39A"/>
<path d="M34.3297 39.0198C28.6039 27.6286 27.2207 22.9938 25.3053 13.5481C25.2982 13.5131 24.8992 13.0914 24.9028 13.1263C26.4508 27.5539 35.2726 40.8961 34.3297 39.0198Z" fill="#C5B39A"/>
<path d="M31.1982 34.4382C29.0766 31.3488 24.9455 18.4728 24.0264 14.6243C24.0178 14.5888 23.1947 13.5387 26.4851 23.3985C27.7335 27.1394 28.4614 30.1324 29.573 32.1808C30.0342 33.0306 34.5594 39.3326 31.1982 34.4382Z" fill="#C5B39A"/>
<path d="M30.1209 33.2889C31.9122 35.8673 29.5456 32.5702 26.0256 19.0593C25.5036 17.0553 25.613 16.4746 24.7944 13.7613C24.736 13.5676 24.4356 13.6042 24.4743 13.8163C24.6073 14.545 28.5514 28.9712 30.1209 33.2889Z" fill="#C5B39A"/>
<path d="M42.4484 10.0301C42.4565 10.0706 46.0523 23.3446 46.5171 29.409C46.7511 32.4606 46.2273 35.7281 46.4089 35.0961C48.528 27.7159 41.8982 7.36918 42.4484 10.0301Z" fill="#C5B39A"/>
<path d="M46.5225 24.0848C44.9406 11.3468 43.4741 10.4651 43.7058 10.978C45.3955 14.7192 48.2974 38.3781 46.5225 24.0848Z" fill="#C5B39A"/>
<path d="M46.492 26.1299C45.8582 21.8491 46.6435 22.8405 44.49 14.5061C43.2579 9.73731 43.1618 10.5166 43.1738 10.5711C43.572 12.3912 44.1851 13.7515 45.152 18.1701C46.1845 22.8895 45.7784 22.6928 46.194 25.7892C46.7621 30.0226 47.1489 30.3288 47.1191 30.0215C46.9909 28.7141 46.6845 27.4293 46.492 26.1299Z" fill="#C5B39A"/>
<path d="M14.7553 37.5418C14.6626 36.3058 14.141 36.2125 14.2697 36.4212C14.5048 36.8024 14.2256 38.4111 14.6845 38.0285C14.8204 37.9154 14.7671 37.6975 14.7553 37.5418Z" fill="#C5B39A"/>
<path d="M14.1901 37.54C14.1295 37.2276 14.0981 36.8846 13.8911 36.9453C13.7052 37 13.8455 37.1583 13.801 37.6148C13.7672 37.9646 14.2781 37.993 14.1901 37.54Z" fill="#C5B39A"/>
<path d="M20.5717 32.5527C22.8678 35.6519 22.8242 36.2339 22.6594 39.6164C22.556 39.9388 23.2038 40.1344 23.2087 39.6844C23.2657 34.5194 20.5468 32.5194 20.5717 32.5527Z" fill="#C5B39A"/>
<path d="M23.9652 38.5513C23.88 37.563 23.4983 37.3603 23.5284 37.6136C23.5833 38.0722 23.5439 38.6455 23.5244 39.0505C23.479 39.9808 24.0735 39.8076 23.9652 38.5513Z" fill="#C5B39A"/>
<path d="M29.5626 41.0851C29.3773 40.7405 29.0917 40.741 28.2899 39.9482C26.4285 38.1078 26.8409 37.9881 26.1959 36.5951C25.8347 35.8153 25.1819 34.1396 25.2329 34.789C25.3708 36.545 26.484 37.6339 26.9341 38.586C28.4637 41.8224 29.8691 41.6541 29.5629 41.0847L29.5626 41.0851Z" fill="#C5B39A"/>
<path d="M29.3855 39.9489C28.903 39.3537 28.0933 38.2458 27.8888 37.5192C27.8002 37.2043 27.5737 37.878 28.4369 39.3133C29.54 41.1476 30.4448 41.2557 29.3855 39.9489Z" fill="#C5B39A"/>
<path d="M30.2394 40.6489C30.1324 40.5271 29.9609 40.6592 30.0466 40.7957C30.7044 41.8414 31.1068 41.6359 30.2394 40.6489Z" fill="#C5B39A"/>
<path d="M28.6688 37.5573C28.6353 37.4885 28.522 37.5264 28.5546 37.5984C29.1313 38.8697 30.0362 39.7558 30.6704 40.7112C30.8019 40.9093 31.601 42.3251 31.526 41.7233C31.3644 40.4199 29.4008 39.0602 28.6688 37.5573Z" fill="#C5B39A"/>
<path d="M38.3483 41.114C38.1579 41.0661 37.5 40.2895 37.421 40.1996C35.3853 37.8874 35.9615 39.4613 37.7074 41.2804C38.4672 42.0717 38.715 41.2066 38.3483 41.114Z" fill="#C5B39A"/>
<path d="M38.9088 41.0881C38.9079 41.0499 38.1114 40.1087 38.0134 40.1658C37.8665 40.2518 38.1555 40.8038 38.2049 40.8873C38.566 41.4929 38.9134 41.262 38.9088 41.0881Z" fill="#C5B39A"/>
<path d="M45.4654 30.7522C45.4235 30.0236 45.4165 33.1089 45.0277 35.1592C44.7508 36.6179 43.4613 40.3038 43.9753 39.4543C45.2768 37.3037 45.62 33.4436 45.4654 30.7522Z" fill="#C5B39A"/>
<path d="M43.509 38.196C43.2851 39.1006 43.0124 39.2831 43.1763 39.5632C43.8163 40.6574 44.5672 33.9187 43.509 38.196Z" fill="#C5B39A"/>
<path d="M48.9919 32.4426C48.5114 36.1948 46.3856 38.9024 47.1127 38.5271C47.5197 38.3169 47.7106 37.6976 47.8871 37.3018C49.0542 34.6837 49.0433 32.0391 48.9919 32.4426Z" fill="#C5B39A"/>
<path d="M48.9322 36.3101C48.7166 37.2732 47.901 38.3277 48.5183 38.2036C48.7748 38.1523 48.9989 37.5684 49.0853 37.3215C49.5914 35.8724 48.9706 36.1394 48.9322 36.3101Z" fill="#C5B39A"/>
<path d="M55.8361 30.1331C55.7617 32.2024 55.2162 33.3648 55.138 33.8388C55.1147 33.9792 55.6545 34.9037 56.0132 32.0368C56.3116 29.6515 55.8432 29.9342 55.8361 30.1331Z" fill="#C5B39A"/>
<path d="M56.1864 31.5211C56.0938 32.3175 55.518 33.2508 56.0525 33.1662C56.3006 33.127 56.4168 32.5283 56.4501 32.3322C56.6668 31.0433 56.2057 31.3554 56.1864 31.5211Z" fill="#C5B39A"/>
<path d="M57.4647 29.7855C57.3842 32.4141 56.8706 31.993 56.8122 32.7298C56.7935 32.969 57.083 33.0774 57.2637 32.9799C57.787 32.6982 57.4392 31.934 57.7759 29.7568C58.2046 26.983 57.6469 23.8124 57.4642 29.7852L57.4647 29.7855Z" fill="#C5B39A"/>
<path d="M58.2571 29.7518C58.1847 29.5126 57.8767 29.589 57.9045 29.8175C57.9842 30.4746 57.674 30.9533 57.7463 31.2331C57.8581 31.6673 58.6227 30.9608 58.2571 29.7518Z" fill="#C5B39A"/>
<path d="M16.3188 21.9735C14.7121 20.147 13.1187 20.3874 13.6433 20.9031C14.157 21.4083 14.7848 20.8229 18.188 24.7499C18.458 25.0616 17.0121 22.7613 16.3188 21.9732L16.3188 21.9735Z" fill="#C5B39A"/>
<path d="M16.5827 37.8518C16.495 36.3804 16.7415 35.3541 16.0782 33.689C15.3736 31.9198 13.2457 29.5003 13.6667 30.117C16.8744 34.8152 15.6604 36.9249 15.9651 37.822C16.0837 38.1714 16.7388 37.7949 16.5828 37.8521L16.5827 37.8518Z" fill="#C5B39A"/>
<path d="M17.8154 19.8784C17.5888 19.6774 17.3657 19.9661 17.5157 20.1396C17.7414 20.3401 17.9659 20.0526 17.8154 19.8784Z" fill="#C5B39A"/>
<path d="M19.2419 23.2058C19.054 23.0324 18.8874 23.0813 18.7384 23.289C18.4356 24.0854 19.8085 23.6948 19.2419 23.2058Z" fill="#C5B39A"/>
<path d="M20.6228 20.5654C20.5489 20.0326 19.9332 20.5646 20.1201 20.4111C19.5083 20.8493 20.78 21.3015 20.6228 20.5654Z" fill="#C5B39A"/>
<path d="M16.6733 26.6423C16.5837 26.2982 15.966 26.0277 15.9426 26.4041C15.936 26.4694 15.8756 26.9659 15.9255 27.1148C15.9936 27.5692 16.9265 27.6126 16.6733 26.6423Z" fill="#C5B39A"/>
<path d="M16.346 29.7246C16.346 29.7246 16.347 29.7232 16.3474 29.7211C16.3494 29.715 16.3492 29.7163 16.346 29.7246Z" fill="#C5B39A"/>
<path d="M14.8788 29.7091C14.6443 29.3256 14.057 29.6313 14.305 30.1591C14.5473 30.5336 15.1461 30.1472 14.8788 29.7091Z" fill="#C5B39A"/>
<path d="M7.47528 32.5991C7.05947 31.9392 6.54104 33.1981 7.22089 33.1522C7.56518 33.0953 7.57651 32.763 7.47528 32.5991Z" fill="#C5B39A"/>
<path d="M11.2666 33.047C10.6117 32.3844 10.0471 33.8251 10.9559 33.8376C11.3534 33.7886 11.4317 33.2476 11.2666 33.047Z" fill="#C5B39A"/>
<path d="M8.44231 29.5465C7.70452 29.2524 7.48081 30.3292 8.17046 30.2114C8.27013 30.1796 8.21405 30.1596 8.26585 30.2214C8.51568 30.5182 8.94614 29.7479 8.44231 29.5465Z" fill="#C5B39A"/>
<path d="M7.69382 31.5258C7.61526 31.3878 7.34438 31.3802 7.30438 31.6472C7.28361 32.0531 7.95094 31.8405 7.69382 31.5258Z" fill="#C5B39A"/>
<path d="M5.85496 33.562C5.65505 33.567 5.61989 33.8806 5.82237 33.8754C6.02228 33.8704 6.05744 33.5568 5.85496 33.562Z" fill="#C5B39A"/>
<path d="M8.08866 34.6325C7.92395 34.6367 7.96107 34.8912 8.12499 34.8867C8.28969 34.8825 8.25257 34.628 8.08866 34.6325Z" fill="#C5B39A"/>
<path d="M28.1336 20.1428C27.4092 19.977 27.5608 21.0237 28.0662 20.7232C28.4177 20.5142 28.3565 20.1823 28.1336 20.1428Z" fill="#C5B39A"/>
<path d="M26.1224 12.9919C26.3474 12.8353 25.9157 12.4476 25.6104 12.6962C25.2359 12.9087 25.9137 13.2527 26.1224 12.9919Z" fill="#C5B39A"/>
<path d="M32.0999 13.1602C32.664 13.3934 32.6032 12.4922 32.227 12.5458C31.9212 12.5887 31.8603 13.0206 32.0999 13.1602Z" fill="#C5B39A"/>
<path d="M35.1977 16.6847C35.001 16.3297 34.5313 16.4872 34.5058 17.0664C34.5759 17.8247 35.6621 17.2042 35.1977 16.6847Z" fill="#C5B39A"/>
<path d="M30.7037 9.39332C30.7657 9.38538 30.4878 8.80289 30.1778 9.09665C29.6664 9.41173 30.7751 10.0889 30.7037 9.39332Z" fill="#C5B39A"/>
<path d="M34.4326 10.4938C34.8752 10.7926 35.2171 10.2365 34.903 9.95849C34.4536 9.65546 34.1239 10.221 34.4326 10.4938Z" fill="#C5B39A"/>
<path d="M35.8215 14.6329C35.8321 14.6346 35.8283 14.6346 35.8391 14.6332C35.8331 14.6336 35.8274 14.6336 35.8215 14.6329Z" fill="#C5B39A"/>
<path d="M35.8854 14.6357C35.7507 14.5968 35.43 14.7606 35.5747 15.0189C35.9488 15.5189 36.3481 14.6463 35.8854 14.6357Z" fill="#C5B39A"/>
<path d="M35.9255 14.6446C35.9294 14.6459 35.9328 14.6505 35.9365 14.6509C35.9325 14.6489 35.9287 14.6464 35.9255 14.6446Z" fill="#C5B39A"/>
<path d="M35.8307 14.6341C35.8208 14.6352 35.8274 14.6356 35.8353 14.6348C35.8337 14.6347 35.832 14.6342 35.8307 14.6341Z" fill="#C5B39A"/>
<path d="M32.7366 14.1528C32.5354 13.3436 31.896 14.0347 32.3022 14.2783C32.5853 14.4475 32.8337 14.5433 32.7366 14.1528Z" fill="#C5B39A"/>
<path d="M36.7834 23.8434C37.0697 23.6976 36.825 23.2499 36.5696 23.3902C36.2919 23.4733 36.3903 23.9987 36.7834 23.8434Z" fill="#C5B39A"/>
<path d="M37.0599 17.1264C36.7682 17.1337 36.7462 17.589 37.0401 17.5816C37.3318 17.5743 37.3539 17.1189 37.0599 17.1264Z" fill="#C5B39A"/>
<path d="M34.335 22.6211C34.4564 22.8562 34.8019 22.7436 34.8152 22.533C34.9184 22.106 34.1458 22.1493 34.335 22.6211Z" fill="#C5B39A"/>
<path d="M23.722 28.0188C23.4316 27.7814 23.1662 28.1496 23.3628 28.3588C23.6537 28.5964 23.9181 28.2277 23.722 28.0188Z" fill="#C5B39A"/>
<path d="M25.1186 26.733C25.3932 26.6609 25.3684 26.2764 25.363 26.372C25.3928 25.645 24.1317 26.1553 24.7452 26.6651C24.8501 26.7524 24.9901 26.7787 25.1186 26.733Z" fill="#C5B39A"/>
<path d="M22.1678 26.5984C21.5176 26.2789 21.406 27.1588 21.9552 27.1204C22.3178 27.0956 22.3908 26.735 22.1678 26.5984Z" fill="#C5B39A"/>
<path d="M37.2606 27.7124C37.5473 27.6302 37.6216 27.1086 37.2135 27.1087C36.505 27.0558 36.6931 27.8754 37.2606 27.7124Z" fill="#C5B39A"/>
<path d="M42.8922 13.4632C42.8922 13.4632 42.8903 13.464 42.8901 13.4648C42.8856 13.4681 42.8765 13.4763 42.8922 13.4632Z" fill="#C5B39A"/>
<path d="M43.5338 18.3696C43.8569 18.3612 43.8707 17.8573 43.5454 17.8658C43.2223 17.8742 43.2085 18.3781 43.5338 18.3696Z" fill="#C5B39A"/>
<path d="M41.5881 10.677C41.4385 10.2118 40.7433 10.5364 41.0045 10.9496C41.2732 11.3926 41.7327 11.201 41.5881 10.677Z" fill="#C5B39A"/>
<path d="M42.3324 17.9119C42.4749 17.9228 42.5959 17.7855 42.484 17.5928C42.2785 17.1882 41.7969 17.8831 42.3324 17.9119Z" fill="#C5B39A"/>
<path d="M41.8081 28.9736C41.5734 28.9796 41.5412 29.3469 41.7785 29.3408C42.0131 29.3348 42.0453 28.9675 41.8081 28.9736Z" fill="#C5B39A"/>
<path d="M43.7257 23.3464C43.342 23.0667 43.0336 23.5507 43.296 23.8007C43.6802 24.0807 43.9881 23.5961 43.7257 23.3464Z" fill="#C5B39A"/>
<path d="M44.1311 22.0734C43.8299 21.6217 43.2098 22.4823 43.8821 22.5604C44.1134 22.5859 44.2992 22.2385 44.1311 22.0734Z" fill="#C5B39A"/>
<path d="M34.5096 18.8211C34.3304 18.6877 34.0421 18.7494 33.993 18.8928C33.7696 19.5413 34.9812 19.4103 34.5096 18.8211Z" fill="#C5B39A"/>
<path d="M31.9405 8.72597C32.1335 8.60291 32.1559 8.3648 32.0123 8.22535C31.453 7.69093 31.2449 9.16974 31.9405 8.72597Z" fill="#C5B39A"/>
<path d="M28.7122 9.00986C28.7248 9.01988 28.7204 9.01695 28.7325 9.02214C28.7253 9.01863 28.7188 9.01461 28.7122 9.00986Z" fill="#C5B39A"/>
<path d="M28.629 8.96661C28.1821 8.84688 28.1672 9.57052 28.559 9.51859C28.9475 9.46695 28.9517 9.05649 28.629 8.96661Z" fill="#C5B39A"/>
<path d="M28.7228 9.01771C28.6775 8.99775 28.7148 9.00963 28.7374 9.02931C28.7325 9.02544 28.7277 9.02157 28.7228 9.01771Z" fill="#C5B39A"/>
<path d="M31.4218 6.99366C31.0732 7.00273 31.0679 7.54549 31.418 7.53649C31.7667 7.52743 31.772 6.98466 31.4218 6.99366Z" fill="#C5B39A"/>
<path d="M37.3155 7.60842C36.8394 7.76315 37.1187 8.47707 37.5732 8.31439C38.3299 8.143 38.0502 7.28964 37.3155 7.60842Z" fill="#C5B39A"/>
<path d="M21.3437 17.693C21.3437 17.693 21.3217 17.6889 21.317 17.6876C21.272 17.6787 21.2809 17.6803 21.3437 17.693Z" fill="#C5B39A"/>
<path d="M17.3266 21.6925C17.0721 21.4747 16.8284 21.7984 16.9996 21.9885C17.2537 22.2063 17.4975 21.883 17.3266 21.6925Z" fill="#C5B39A"/>
<path d="M22.5711 21.0931C22.9266 21.6058 23.7575 20.905 23.0723 20.5576C22.7231 20.3276 22.3057 20.7109 22.5711 21.0931Z" fill="#C5B39A"/>
<path d="M31.1344 26.4349C31.4131 26.4279 31.4383 25.9921 31.157 25.9992C30.8783 26.0062 30.853 26.4421 31.1344 26.4349Z" fill="#C5B39A"/>
<path d="M32.8673 32.1743C32.7428 31.9867 32.5894 31.7257 32.5081 32.1583C32.3187 32.8394 33.1651 32.614 32.8673 32.1743Z" fill="#C5B39A"/>
<path d="M27.4825 14.5675C27.635 14.8908 28.1712 14.7776 28.1128 14.3462C28.0202 13.9592 27.347 14.1875 27.4825 14.5675Z" fill="#C5B39A"/>
<path d="M27.8053 14.143C27.7693 14.1435 27.7391 14.1544 27.8288 14.1416C27.8212 14.1424 27.8131 14.1429 27.8053 14.143Z" fill="#C5B39A"/>
<path d="M27.7522 14.1524C27.7766 14.1491 27.7689 14.1502 27.767 14.1502C27.7622 14.1512 27.7575 14.1521 27.7522 14.1524Z" fill="#C5B39A"/>
<path d="M26.4458 13.6476C26.6903 13.6594 26.9322 13.291 26.6808 13.0645C26.2057 12.6364 25.7344 13.6102 26.4458 13.6476Z" fill="#C5B39A"/>
<path d="M46.7156 14.6547C46.5275 13.9501 45.6845 14.8675 46.3676 15.0055C46.6029 15.053 46.788 14.9256 46.7156 14.6547Z" fill="#C5B39A"/>
<path d="M47.5965 18.4196C47.3518 17.9194 46.7636 18.8179 46.9799 19.1315C47.3111 19.6512 47.8217 18.8813 47.5965 18.4196Z" fill="#C5B39A"/>
<path d="M49.7012 13.4375C49.6259 13.1017 49.7125 13.7377 49.9098 13.7998C50.0679 13.8906 50.3229 13.7054 50.3835 13.5582C50.7207 12.7385 49.5076 12.59 49.7012 13.4375Z" fill="#C5B39A"/>
<path d="M50.1434 17.9063C50.0882 17.3157 49.0839 17.1155 49.5148 17.907C49.6929 18.4179 50.1708 18.2014 50.1434 17.9063Z" fill="#C5B39A"/>
<path d="M48.8837 15.0189C48.777 15.5175 49.8848 15.4106 49.547 14.9309C49.2796 14.6633 48.8933 14.7543 48.8837 15.0189Z" fill="#C5B39A"/>
<path d="M51.9457 16.7714C51.6993 16.5304 51.2393 16.7883 51.4199 17.2489C51.6073 17.7435 52.3286 17.1212 51.9457 16.7714Z" fill="#C5B39A"/>
<path d="M47.737 22.722C47.4897 22.7283 47.4592 23.1153 47.709 23.1089C47.9563 23.1026 47.9868 22.7156 47.737 22.722Z" fill="#C5B39A"/>
<path d="M49.4027 24.4966C49.754 24.2586 49.2109 23.8683 49.0295 24.245C48.9793 24.3811 49.0904 24.6071 49.4027 24.4966Z" fill="#C5B39A"/>
<path d="M52.6891 26.2869C52.404 26.2941 52.3804 26.7397 52.6677 26.7324C52.9527 26.7253 52.9763 26.2797 52.6891 26.2869Z" fill="#C5B39A"/>
<path d="M53.4501 25.6293C53.3224 25.6325 53.3459 25.8302 53.4732 25.8267C53.6009 25.8235 53.5774 25.6258 53.4501 25.6293Z" fill="#C5B39A"/>
<path d="M28.2779 33.4728C28.0394 33.2645 27.8061 33.5678 27.9659 33.749C28.2036 33.9575 28.4377 33.6543 28.2779 33.4728Z" fill="#C5B39A"/>
<path d="M17.6174 34.4926C17.5323 34.3887 17.3704 34.3716 17.2578 34.5229C16.9977 35.07 17.9986 34.8788 17.6174 34.4926Z" fill="#C5B39A"/>
<path d="M19.783 30.9232C19.5328 30.9297 19.5024 31.3212 19.7552 31.3149C20.0054 31.3084 20.0358 30.9169 19.783 30.9232Z" fill="#C5B39A"/>
<path d="M56.3198 13.8265C56.4936 13.65 56.5206 13.1041 56.0533 13.0762C55.4094 13.0379 55.7316 14.3236 56.3198 13.8265Z" fill="#C5B39A"/>
<path d="M57.6285 18.4484C56.8669 17.9477 56.6728 19.3753 57.4255 19.1095C57.8294 18.9636 57.8283 18.6212 57.6285 18.4484Z" fill="#C5B39A"/>
<path d="M57.315 13.6341C57.2247 13.3705 56.7354 13.3887 56.7472 13.7863C56.7634 14.3196 57.5581 14.0796 57.315 13.6341Z" fill="#C5B39A"/>
<path d="M58.3928 14.8074C58.0537 14.816 58.0452 15.3445 58.3857 15.3356C58.7247 15.327 58.7333 14.7985 58.3928 14.8074Z" fill="#C5B39A"/>
<path d="M54.9076 14.771C54.4508 14.4419 54.2715 15.4112 54.8233 15.2648C55.1628 15.124 55.1092 14.916 54.9076 14.771Z" fill="#C5B39A"/>
<path d="M54.9045 15.2493C54.8943 15.2498 54.8977 15.2495 54.8884 15.2525C54.8937 15.2507 54.8988 15.2493 54.9045 15.2493Z" fill="#C5B39A"/>
<path d="M54.9064 15.2489C54.9285 15.2444 54.9546 15.2277 54.8968 15.2496C54.9001 15.249 54.9035 15.2494 54.9064 15.2489Z" fill="#C5B39A"/>
<path d="M54.9452 15.2317C54.9433 15.2321 54.932 15.2362 54.9307 15.2373C54.9357 15.2355 54.9406 15.2338 54.9452 15.2317Z" fill="#C5B39A"/>
<path d="M58.9301 17.48C58.6196 17.4881 58.6023 17.9726 58.915 17.9644C59.2255 17.9563 59.2428 17.4718 58.9301 17.48Z" fill="#C5B39A"/>
<path d="M56.7588 21.884C56.4386 21.8922 56.4242 22.3914 56.7462 22.3832C57.0664 22.375 57.0808 21.8758 56.7588 21.884Z" fill="#C5B39A"/>
<path d="M58.6748 23.7966C58.4309 23.803 58.3998 24.185 58.6463 24.1785C58.8902 24.1721 58.9213 23.7901 58.6748 23.7966Z" fill="#C5B39A"/>
<path d="M56.5715 25.6754C56.3882 25.6801 56.4332 25.9627 56.6153 25.958C56.7986 25.9533 56.7536 25.6706 56.5715 25.6754Z" fill="#C5B39A"/>
<path d="M66.346 16.8476C66.0901 16.411 65.5032 16.7468 65.7069 17.0997C65.8576 17.5071 66.5959 17.2028 66.346 16.8476Z" fill="#C5B39A"/>
<path d="M64.2272 16.7912C64.8558 16.837 64.3772 15.2789 63.7811 16.0172C63.5297 16.4291 63.9063 16.8464 64.2272 16.7912Z" fill="#C5B39A"/>
<path d="M68.1718 17.1212C67.9078 16.5955 67.3265 17.0283 67.4989 17.3748C67.7322 17.8439 68.3151 17.5402 68.1718 17.1212Z" fill="#C5B39A"/>
<path d="M64.3483 18.0471C64.1316 17.7109 63.8752 18.2935 63.9447 18.1386C63.6996 18.4383 64.1822 18.7585 64.3746 18.441C64.4435 18.281 64.4686 18.1611 64.3483 18.0471Z" fill="#C5B39A"/>
<path d="M63.0741 16.3856C62.874 16.0732 62.5649 16.3114 62.6762 16.5332C62.8279 16.8288 63.216 16.6076 63.0741 16.3856Z" fill="#C5B39A"/>
<path d="M63.058 21.0461C62.6097 20.7149 62.5547 21.6493 62.9811 21.4261C63.1492 21.3794 63.2111 21.1509 63.058 21.0461Z" fill="#C5B39A"/>
<path d="M68.4178 18.0759C68.1739 18.0823 68.1427 18.4643 68.3892 18.4578C68.6331 18.4514 68.6642 18.0694 68.4178 18.0759Z" fill="#C5B39A"/>
<path d="M48.8921 32.0605C48.5225 31.7862 48.2201 32.2533 48.472 32.4973C48.8415 32.7712 49.1445 32.3048 48.8921 32.0605Z" fill="#C5B39A"/>
<path d="M51.9617 19.8714C51.8886 19.6022 51.5275 19.4824 51.4372 19.7579C50.9269 20.3191 52.1774 20.6636 51.9617 19.8714Z" fill="#C5B39A"/>
<path d="M48.7355 12.2916C49.1293 12.0019 48.7529 11.3234 48.2371 11.6669C47.5984 12.0919 48.3474 12.5723 48.7355 12.2916Z" fill="#C5B39A"/>
<path d="M46.3395 13.0939C46.3248 13.1359 46.302 13.2023 46.3171 13.1606C46.5671 12.4721 45.8064 12.3553 45.6419 12.7367C45.3205 13.3007 46.2492 13.6343 46.3395 13.0939Z" fill="#C5B39A"/>
<path d="M45.1305 26.63C44.874 26.6366 44.8445 27.038 45.104 27.0315C45.3605 27.0249 45.39 26.6235 45.1305 26.63Z" fill="#C5B39A"/>
<path d="M42.8234 32.2835C42.5825 32.2896 42.5511 32.6668 42.7946 32.6605C43.0356 32.6544 43.067 32.2772 42.8234 32.2835Z" fill="#C5B39A"/>
<path d="M30.0116 22.0085C30.482 22.1638 30.6347 21.3367 30.0887 21.3506C29.7109 21.37 29.6485 21.9026 30.0116 22.0085Z" fill="#C5B39A"/>
<path d="M28.5122 18.2661C28.276 18.0782 27.9699 18.2652 28.1003 18.5918C28.278 18.9369 28.7813 18.5457 28.5122 18.2661Z" fill="#C5B39A"/>
<path d="M20.3835 17.7825C20.7152 17.3724 19.9368 16.7672 19.5009 17.2949C19.0342 17.8596 20.1525 18.1922 20.3835 17.7825Z" fill="#C5B39A"/>
<path d="M16.427 19.9713C16.5418 19.4491 15.8418 19.1746 15.6355 19.589C15.3266 20.0146 16.2772 20.7978 16.427 19.9713Z" fill="#C5B39A"/>
<path d="M12.2091 26.0353C12.0888 25.3387 11.2924 25.3064 11.2814 25.9563C11.3438 26.4732 12.4221 26.5389 12.2091 26.0353Z" fill="#C5B39A"/>
<path d="M18.7356 28.8156C18.4836 28.4408 17.9219 28.9902 18.3248 29.2412C18.589 29.4945 18.9578 29.0316 18.7356 28.8156Z" fill="#C5B39A"/>
<path d="M18.2595 29.1753C18.2639 29.1817 18.2731 29.1901 18.2554 29.1678C18.2573 29.1701 18.2576 29.1731 18.2595 29.1753Z" fill="#C5B39A"/>
<path d="M18.2532 29.1656C18.2575 29.1708 18.2553 29.1679 18.2553 29.1679C18.2551 29.1669 18.2539 29.1666 18.2532 29.1656Z" fill="#C5B39A"/>
<path d="M18.2912 29.2128C18.2874 29.2079 18.2889 29.2092 18.2847 29.2064C18.2871 29.2083 18.2891 29.2104 18.2912 29.2128Z" fill="#C5B39A"/>
<path d="M18.2656 29.181C18.292 29.2141 18.2822 29.2045 18.3103 29.2257C18.2936 29.213 18.278 29.1982 18.2656 29.181Z" fill="#C5B39A"/>
</svg>
