<svg xmlns="http://www.w3.org/2000/svg" width="35" height="56" viewBox="0 0 35 56" fill="none">
	<mask id="path-1-inside-1_34_276" fill="white">
		<path d="M17.4327 55.2C2.05053 55.2088 -5.78999 36.5568 4.9951 25.5432C11.5963 18.652 23.2779 18.652 29.8791 25.5432C40.6642 36.5568 32.8149 55.2176 17.4415 55.2H17.4327ZM17.4327 55.2C32.6303 55.1033 40.128 36.7326 29.3429 26.0706C23.0582 19.6101 11.8072 19.6101 5.5225 26.0706C-5.2626 36.7326 2.23511 55.1033 17.4327 55.2Z" />
	</mask>
	<path d="M17.4327 55.2C2.05053 55.2088 -5.78999 36.5568 4.9951 25.5432C11.5963 18.652 23.2779 18.652 29.8791 25.5432C40.6642 36.5568 32.8149 55.2176 17.4415 55.2H17.4327ZM17.4327 55.2C32.6303 55.1033 40.128 36.7326 29.3429 26.0706C23.0582 19.6101 11.8072 19.6101 5.5225 26.0706C-5.2626 36.7326 2.23511 55.1033 17.4327 55.2Z" fill="#4A4A4A" />
	<path d="M4.9951 25.5432L5.70963 26.2429L5.71725 26.2349L4.9951 25.5432ZM29.8791 25.5432L29.1569 26.235L29.1646 26.2428L29.8791 25.5432ZM17.4415 55.2L17.4426 54.2H17.4415V55.2ZM29.3429 26.0706L28.6261 26.7679L28.6329 26.7749L28.6398 26.7817L29.3429 26.0706ZM5.5225 26.0706L6.22554 26.7817L6.23248 26.7749L6.23929 26.7679L5.5225 26.0706ZM17.4327 55.2L17.4321 54.2C2.93885 54.2083 -4.45746 36.6253 5.70958 26.2428L4.9951 25.5432L4.28062 24.8435C-7.12253 36.4883 1.1622 56.2093 17.4333 56.2L17.4327 55.2ZM4.9951 25.5432L5.71725 26.2349C11.9247 19.7547 22.9495 19.7547 29.1569 26.2349L29.8791 25.5432L30.6012 24.8514C23.6063 17.5492 11.2678 17.5492 4.27296 24.8514L4.9951 25.5432ZM29.8791 25.5432L29.1646 26.2428C39.3319 36.6256 31.9261 54.2166 17.4426 54.2L17.4415 55.2L17.4403 56.2C33.7036 56.2186 41.9964 36.488 30.5935 24.8435L29.8791 25.5432ZM17.4415 55.2V54.2H17.4327V55.2V56.2H17.4415V55.2ZM17.4327 55.2L17.4391 56.2C33.5229 56.0977 41.4674 36.6506 30.0459 25.3594L29.3429 26.0706L28.6398 26.7817C38.7885 36.8146 31.7376 54.109 17.4263 54.2001L17.4327 55.2ZM29.3429 26.0706L30.0597 25.3733C23.3823 18.5092 11.4831 18.5092 4.80571 25.3733L5.5225 26.0706L6.23929 26.7679C12.1314 20.711 22.734 20.711 28.6261 26.7679L29.3429 26.0706ZM5.5225 26.0706L4.81946 25.3594C-6.60205 36.6506 1.34247 56.0977 17.4263 56.2L17.4327 55.2L17.4391 54.2001C3.12775 54.109 -3.92315 36.8146 6.22554 26.7817L5.5225 26.0706Z" fill="#C5B39A" mask="url(#path-1-inside-1_34_276)" />
	<mask id="path-3-inside-2_34_276" fill="white">
		<path d="M31.5491 37.9809C31.5666 50.603 16.2548 57.0636 7.18371 48.2298C1.50549 42.8329 1.50549 33.1289 7.18371 27.7407C16.246 18.8982 31.5666 25.3675 31.5491 37.9897V37.9809ZM31.5491 37.9809C31.4612 25.5345 16.4306 19.4256 7.71989 28.2681C2.46358 33.4014 2.46358 42.5691 7.71989 47.7024C16.4218 56.5449 31.4612 50.4272 31.5491 37.9897V37.9809Z" />
	</mask>
	<path d="M31.5491 37.9809C31.5666 50.603 16.2548 57.0636 7.18371 48.2298C1.50549 42.8329 1.50549 33.1289 7.18371 27.7407C16.246 18.8982 31.5666 25.3675 31.5491 37.9897V37.9809ZM31.5491 37.9809C31.4612 25.5345 16.4306 19.4256 7.71989 28.2681C2.46358 33.4014 2.46358 42.5691 7.71989 47.7024C16.4218 56.5449 31.4612 50.4272 31.5491 37.9897V37.9809Z" fill="#4A4A4A" />
	<path d="M31.5491 37.9897H32.0491V37.9809H31.5491H31.0491V37.9897H31.5491ZM31.5491 37.9809L32.5491 37.9795L32.549 37.9738L31.5491 37.9809ZM7.18371 48.2298L7.88144 47.5133L7.87264 47.505L7.18371 48.2298ZM7.18371 27.7407L7.87212 28.4662L7.88209 28.4564L7.18371 27.7407ZM31.5491 37.9897L32.5491 37.9967L32.5491 37.991L31.5491 37.9897ZM7.71989 28.2681L8.41857 28.9836L8.4255 28.9768L8.43229 28.9699L7.71989 28.2681ZM7.71989 47.7024L8.43264 47.001L8.42568 46.9939L8.41857 46.9869L7.71989 47.7024ZM31.5491 37.9809L30.5491 37.9822C30.5654 49.7143 16.3218 55.733 7.88139 47.5134L7.18371 48.2298L6.48604 48.9462C16.1878 58.3941 32.5679 51.4917 32.5491 37.9795L31.5491 37.9809ZM7.18371 48.2298L7.87264 47.505C2.60885 42.5019 2.60972 33.4596 7.87205 28.4661L7.18371 27.7407L6.49538 27.0153C0.401268 32.7981 0.402142 43.1638 6.49479 48.9546L7.18371 48.2298ZM7.18371 27.7407L7.88209 28.4564C16.3125 20.2304 30.5654 26.2546 30.5491 37.9883L31.5491 37.9897L32.5491 37.991C32.5679 24.4804 16.1795 17.5659 6.48534 27.025L7.18371 27.7407ZM31.5491 37.9809L32.549 37.9738C32.4549 24.6406 16.3466 18.0859 7.00749 27.5663L7.71989 28.2681L8.43229 28.9699C16.5146 20.7653 30.4675 26.4283 30.5491 37.9879L31.5491 37.9809ZM7.71989 28.2681L7.02121 27.5527C1.36315 33.0783 1.36315 42.8922 7.02121 48.4178L7.71989 47.7024L8.41857 46.9869C3.56402 42.246 3.56402 33.7245 8.41857 28.9836L7.71989 28.2681ZM7.71989 47.7024L7.00714 48.4038C16.3382 57.8857 32.4549 51.32 32.549 37.9967L31.5491 37.9897L30.5491 37.9826C30.4675 49.5344 16.5054 55.2042 8.43264 47.001L7.71989 47.7024Z" fill="#C5B39A" mask="url(#path-3-inside-2_34_276)" />
	<mask id="path-5-inside-3_34_276" fill="white">
		<path d="M22.2054 15.9886L17.582 20.911L17.4414 21.0604C15.7537 19.4606 14.0309 17.896 12.3784 16.2699L12.2642 16.1556V15.9799C12.229 14.3186 12.2378 12.6573 12.2202 10.996L12.3872 10.8642L15.2351 8.60522L15.3582 8.50854H15.5076L19.34 8.54368H19.4806C20.509 9.37872 21.5374 10.2137 22.557 11.0576C22.4779 12.4991 22.39 14.5823 22.2142 15.9799L22.2054 15.9886ZM22.2054 15.9886C22.056 14.5647 21.933 12.6485 21.8714 11.2158L22.0033 11.4795C21.0276 10.7499 20.0607 10.0028 19.0939 9.24686L19.34 9.33479L15.5076 9.36993L15.7713 9.27325L12.941 11.5586L13.108 11.2158C13.0904 12.8067 13.108 14.3977 13.0728 15.9886L12.9586 15.7074C14.5319 17.3159 16.0526 18.9772 17.5996 20.6121H17.3007L22.223 15.9886H22.2054Z" />
	</mask>
	<path d="M22.2054 15.9886L17.582 20.911L17.4414 21.0604C15.7537 19.4606 14.0309 17.896 12.3784 16.2699L12.2642 16.1556V15.9799C12.229 14.3186 12.2378 12.6573 12.2202 10.996L12.3872 10.8642L15.2351 8.60522L15.3582 8.50854H15.5076L19.34 8.54368H19.4806C20.509 9.37872 21.5374 10.2137 22.557 11.0576C22.4779 12.4991 22.39 14.5823 22.2142 15.9799L22.2054 15.9886ZM22.2054 15.9886C22.056 14.5647 21.933 12.6485 21.8714 11.2158L22.0033 11.4795C21.0276 10.7499 20.0607 10.0028 19.0939 9.24686L19.34 9.33479L15.5076 9.36993L15.7713 9.27325L12.941 11.5586L13.108 11.2158C13.0904 12.8067 13.108 14.3977 13.0728 15.9886L12.9586 15.7074C14.5319 17.3159 16.0526 18.9772 17.5996 20.6121H17.3007L22.223 15.9886H22.2054Z" fill="#4A4A4A" />
	<path d="M17.582 20.911L18.3102 21.5964L18.3109 21.5956L17.582 20.911ZM17.4414 21.0604L16.7534 21.7861L17.4817 22.4765L18.1695 21.7458L17.4414 21.0604ZM12.3784 16.2699L11.6713 16.977L11.677 16.9827L12.3784 16.2699ZM12.2642 16.1556H11.2642V16.5698L11.5571 16.8627L12.2642 16.1556ZM12.2642 15.9799H13.2642V15.9693L13.2639 15.9587L12.2642 15.9799ZM12.2202 10.996L11.6007 10.2111L11.2151 10.5154L11.2203 11.0066L12.2202 10.996ZM12.3872 10.8642L13.0068 11.6492L13.0087 11.6477L12.3872 10.8642ZM15.2351 8.60522L14.6173 7.81885L14.6137 7.82176L15.2351 8.60522ZM15.3582 8.50854V7.50854H15.0124L14.7404 7.72219L15.3582 8.50854ZM15.5076 8.50854L15.5168 7.50854H15.5076V8.50854ZM19.34 8.54368L19.3308 9.54368H19.34V8.54368ZM19.4806 8.54368L20.1109 7.76737L19.8355 7.54368H19.4806V8.54368ZM22.557 11.0576L23.5555 11.1124L23.5832 10.6087L23.1946 10.2872L22.557 11.0576ZM22.2142 15.9799L22.9197 16.6886L23.1635 16.446L23.2064 16.1047L22.2142 15.9799ZM21.8714 11.2158L22.7658 10.7685L20.8723 11.2587L21.8714 11.2158ZM22.0033 11.4795L21.4044 12.2803L22.8977 11.0322L22.0033 11.4795ZM19.0939 9.24686L19.4303 8.30516L18.4779 10.0347L19.0939 9.24686ZM19.34 9.33479L19.3491 10.3347L19.6764 8.39309L19.34 9.33479ZM15.5076 9.36993L15.1634 8.43104L15.5168 10.3699L15.5076 9.36993ZM15.7713 9.27325L16.3995 10.0513L15.4271 8.33436L15.7713 9.27325ZM12.941 11.5586L12.042 11.1206L13.5692 12.3366L12.941 11.5586ZM13.108 11.2158L14.1079 11.2268L12.209 10.7778L13.108 11.2158ZM13.0728 15.9886L12.1464 16.3651L14.0726 16.0107L13.0728 15.9886ZM12.9586 15.7074L13.6734 15.0082L12.0321 16.0838L12.9586 15.7074ZM17.5996 20.6121V21.6121H19.9225L18.3259 19.9248L17.5996 20.6121ZM17.3007 20.6121L16.6161 19.8832L14.7755 21.6121H17.3007V20.6121ZM22.223 15.9886L22.9077 16.7175L24.7483 14.9886H22.223V15.9886ZM22.2054 15.9886L21.4765 15.304L16.8531 20.2263L17.582 20.911L18.3109 21.5956L22.9343 16.6733L22.2054 15.9886ZM17.582 20.911L16.8538 20.2255L16.7132 20.375L17.4414 21.0604L18.1695 21.7458L18.3102 21.5964L17.582 20.911ZM17.4414 21.0604L18.1293 20.3346C16.4191 18.7134 14.7253 17.1763 13.0798 15.5571L12.3784 16.2699L11.677 16.9827C13.3366 18.6157 15.0884 20.2078 16.7534 21.7861L17.4414 21.0604ZM12.3784 16.2699L13.0855 15.5628L12.9713 15.4485L12.2642 16.1556L11.5571 16.8627L11.6713 16.977L12.3784 16.2699ZM12.2642 16.1556H13.2642V15.9799H12.2642H11.2642V16.1556H12.2642ZM12.2642 15.9799L13.2639 15.9587C13.2289 14.301 13.238 12.6714 13.2202 10.9854L12.2202 10.996L11.2203 11.0066C11.2376 12.6432 11.2292 14.3362 11.2644 16.001L12.2642 15.9799ZM12.2202 10.996L12.8398 11.781L13.0068 11.6492L12.3872 10.8642L11.7677 10.0792L11.6007 10.2111L12.2202 10.996ZM12.3872 10.8642L13.0087 11.6477L15.8566 9.38868L15.2351 8.60522L14.6137 7.82176L11.7658 10.0808L12.3872 10.8642ZM15.2351 8.60522L15.8529 9.39158L15.976 9.2949L15.3582 8.50854L14.7404 7.72219L14.6174 7.81886L15.2351 8.60522ZM15.3582 8.50854V9.50854H15.5076V8.50854V7.50854H15.3582V8.50854ZM15.5076 8.50854L15.4984 9.5085L19.3308 9.54364L19.34 8.54368L19.3491 7.54373L15.5168 7.50859L15.5076 8.50854ZM19.34 8.54368V9.54368H19.4806V8.54368V7.54368H19.34V8.54368ZM19.4806 8.54368L18.8503 9.32C19.8793 10.1555 20.9041 10.9876 21.9195 11.828L22.557 11.0576L23.1946 10.2872C22.1708 9.43986 21.1387 8.6019 20.1109 7.76737L19.4806 8.54368ZM22.557 11.0576L21.5585 11.0028C21.4778 12.4744 21.3921 14.5032 21.222 15.8551L22.2142 15.9799L23.2064 16.1047C23.388 14.6614 23.4781 12.5238 23.5555 11.1124L22.557 11.0576ZM22.2142 15.9799L21.5087 15.2712L21.5 15.2799L22.2054 15.9886L22.9109 16.6974L22.9197 16.6886L22.2142 15.9799ZM22.2054 15.9886L23.2 15.8843C23.0534 14.4874 22.9315 12.5931 22.8705 11.1729L21.8714 11.2158L20.8723 11.2587C20.9344 12.7039 21.0586 14.642 21.2109 16.093L22.2054 15.9886ZM21.8714 11.2158L20.977 11.663L21.1089 11.9267L22.0033 11.4795L22.8977 11.0322L22.7658 10.7685L21.8714 11.2158ZM22.0033 11.4795L22.6021 10.6786C21.6346 9.95512 20.674 9.21291 19.7098 8.45905L19.0939 9.24686L18.4779 10.0347C19.4475 10.7927 20.4206 11.5447 21.4044 12.2803L22.0033 11.4795ZM19.0939 9.24686L18.7574 10.1886L19.0035 10.2765L19.34 9.33479L19.6764 8.39309L19.4303 8.30516L19.0939 9.24686ZM19.34 9.33479L19.3308 8.33483L15.4984 8.36997L15.5076 9.36993L15.5168 10.3699L19.3491 10.3347L19.34 9.33479ZM15.5076 9.36993L15.8518 10.3088L16.1155 10.2121L15.7713 9.27325L15.4271 8.33436L15.1634 8.43104L15.5076 9.36993ZM15.7713 9.27325L15.1431 8.49522L12.3128 10.7805L12.941 11.5586L13.5692 12.3366L16.3995 10.0513L15.7713 9.27325ZM12.941 11.5586L13.84 11.9965L14.007 11.6537L13.108 11.2158L12.209 10.7778L12.042 11.1206L12.941 11.5586ZM13.108 11.2158L12.1081 11.2047C12.0901 12.8334 12.1083 14.3747 12.0731 15.9665L13.0728 15.9886L14.0726 16.0107C14.1077 14.4207 14.0908 12.78 14.1079 11.2268L13.108 11.2158ZM13.0728 15.9886L13.9993 15.6122L13.885 15.331L12.9586 15.7074L12.0321 16.0838L12.1464 16.3651L13.0728 15.9886ZM12.9586 15.7074L12.2437 16.4067C13.8103 18.0083 15.3101 19.6475 16.8732 21.2994L17.5996 20.6121L18.3259 19.9248C16.795 18.3069 15.2536 16.6236 13.6734 15.0082L12.9586 15.7074ZM17.5996 20.6121V19.6121H17.3007V20.6121V21.6121H17.5996V20.6121ZM17.3007 20.6121L17.9854 21.341L22.9077 16.7175L22.223 15.9886L21.5384 15.2597L16.6161 19.8832L17.3007 20.6121ZM22.223 15.9886V14.9886H22.2054V15.9886V16.9886H22.223V15.9886Z" fill="#C5B39A" mask="url(#path-5-inside-3_34_276)" />
	<mask id="path-7-inside-4_34_276" fill="white">
		<path d="M12.6599 11.207C13.996 11.4795 15.2705 11.9014 16.5186 12.3849L16.3516 12.3497C17.4416 12.3234 18.5315 12.3322 19.6214 12.3937L19.4281 12.4464C20.3246 11.9894 21.2388 11.541 22.2056 11.207C21.4585 11.9102 20.6411 12.5079 19.8148 13.0881L19.7533 13.132C18.593 13.2111 17.424 13.2111 16.2637 13.1847C15.0244 12.6134 13.8114 11.9893 12.6687 11.207H12.6599Z" />
	</mask>
	<path d="M12.6599 11.207C13.996 11.4795 15.2705 11.9014 16.5186 12.3849L16.3516 12.3497C17.4416 12.3234 18.5315 12.3322 19.6214 12.3937L19.4281 12.4464C20.3246 11.9894 21.2388 11.541 22.2056 11.207C21.4585 11.9102 20.6411 12.5079 19.8148 13.0881L19.7533 13.132C18.593 13.2111 17.424 13.2111 16.2637 13.1847C15.0244 12.6134 13.8114 11.9893 12.6687 11.207H12.6599Z" fill="#4A4A4A" />
	<path d="M12.6599 11.207V10.207L12.4601 12.1869L12.6599 11.207ZM16.5186 12.3849L16.3127 13.3635L16.8798 11.4524L16.5186 12.3849ZM16.3516 12.3497L16.3274 11.35L16.1457 13.3283L16.3516 12.3497ZM19.6214 12.3937L19.8845 13.3585L19.6778 11.3953L19.6214 12.3937ZM19.4281 12.4464L18.9739 11.5555L19.6912 13.4112L19.4281 12.4464ZM22.2056 11.207L22.891 11.9352L21.8791 10.2618L22.2056 11.207ZM19.8148 13.0881L19.2402 12.2696L19.2336 12.2743L19.8148 13.0881ZM19.7533 13.132L19.8213 14.1297L20.104 14.1104L20.3345 13.9458L19.7533 13.132ZM16.2637 13.1847L15.8451 14.0929L16.0336 14.1798L16.241 14.1845L16.2637 13.1847ZM12.6687 11.207L13.2336 10.3819L12.9782 10.207H12.6687V11.207ZM12.6599 11.207L12.4601 12.1869C13.7213 12.4441 14.9387 12.8453 16.1575 13.3174L16.5186 12.3849L16.8798 11.4524C15.6023 10.9576 14.2706 10.5149 12.8597 10.2272L12.6599 11.207ZM16.5186 12.3849L16.7245 11.4063L16.5575 11.3712L16.3516 12.3497L16.1457 13.3283L16.3127 13.3635L16.5186 12.3849ZM16.3516 12.3497L16.3758 13.3495C17.4445 13.3236 18.507 13.3324 19.5651 13.3921L19.6214 12.3937L19.6778 11.3953C18.556 11.3319 17.4386 11.3232 16.3274 11.35L16.3516 12.3497ZM19.6214 12.3937L19.3583 11.4289L19.165 11.4817L19.4281 12.4464L19.6912 13.4112L19.8845 13.3585L19.6214 12.3937ZM19.4281 12.4464L19.8823 13.3373C20.7755 12.8819 21.6363 12.4617 22.5322 12.1522L22.2056 11.207L21.8791 10.2618C20.8412 10.6204 19.8737 11.0968 18.9739 11.5555L19.4281 12.4464ZM22.2056 11.207L21.5203 10.4788C20.8285 11.13 20.0607 11.6935 19.2402 12.2697L19.8148 13.0881L20.3894 13.9065C21.2214 13.3224 22.0886 12.6905 22.891 11.9352L22.2056 11.207ZM19.8148 13.0881L19.2336 12.2743L19.1721 12.3182L19.7533 13.132L20.3345 13.9458L20.396 13.9018L19.8148 13.0881ZM19.7533 13.132L19.6853 12.1343C18.5685 12.2105 17.4335 12.2111 16.2865 12.185L16.2637 13.1847L16.241 14.1845C17.4145 14.2112 18.6176 14.2118 19.8213 14.1297L19.7533 13.132ZM16.2637 13.1847L16.6824 12.2766C15.4666 11.7161 14.3104 11.119 13.2336 10.3819L12.6687 11.207L12.1038 12.0322C13.3124 12.8596 14.5821 13.5107 15.8451 14.0929L16.2637 13.1847ZM12.6687 11.207V10.207H12.6599V11.207V12.207H12.6687V11.207Z" fill="#C5B39A" mask="url(#path-7-inside-4_34_276)" />
	<mask id="path-9-inside-5_34_276" fill="white">
		<path d="M19.3312 8.93921C19.7531 10.2137 19.9289 11.5058 20.052 12.8067C19.3312 15.5052 18.5313 18.1773 17.4238 20.7527C17.7842 18.0015 18.4522 15.3206 19.1906 12.6573C19.0675 12.1914 19.1291 9.9852 19.3224 8.93921H19.3312Z" />
	</mask>
	<path d="M19.3312 8.93921C19.7531 10.2137 19.9289 11.5058 20.052 12.8067C19.3312 15.5052 18.5313 18.1773 17.4238 20.7527C17.7842 18.0015 18.4522 15.3206 19.1906 12.6573C19.0675 12.1914 19.1291 9.9852 19.3224 8.93921H19.3312Z" fill="#4A4A4A" />
	<path d="M19.3312 8.93921L20.2806 8.62495L20.0535 7.93921H19.3312V8.93921ZM20.052 12.8067L21.0181 13.0647L21.0645 12.8913L21.0475 12.7125L20.052 12.8067ZM17.4238 20.7527L16.4323 20.6228L18.3425 21.1478L17.4238 20.7527ZM19.1906 12.6573L20.1542 12.9244L20.2266 12.6636L20.1574 12.4019L19.1906 12.6573ZM19.3224 8.93921V7.93921H18.4904L18.3391 8.75742L19.3224 8.93921ZM19.3312 8.93921L18.3819 9.25347C18.7677 10.419 18.9354 11.621 19.0564 12.9009L20.052 12.8067L21.0475 12.7125C20.9225 11.3906 20.7386 10.0085 20.2806 8.62495L19.3312 8.93921ZM20.052 12.8067L19.0859 12.5486C18.3692 15.2319 17.584 17.849 16.5052 20.3577L17.4238 20.7527L18.3425 21.1478C19.4787 18.5056 20.2933 15.7785 21.0181 13.0647L20.052 12.8067ZM17.4238 20.7527L18.4154 20.8826C18.7665 18.2022 19.4194 15.5752 20.1542 12.9244L19.1906 12.6573L18.2269 12.3901C17.4851 15.0659 16.802 17.8008 16.4323 20.6228L17.4238 20.7527ZM19.1906 12.6573L20.1574 12.4019C20.1602 12.4123 20.1405 12.2978 20.1316 11.9974C20.1239 11.7347 20.1257 11.4041 20.1373 11.0484C20.161 10.3242 20.2227 9.57005 20.3058 9.121L19.3224 8.93921L18.3391 8.75742C18.2287 9.35435 18.1631 10.2263 18.1384 10.9832C18.1258 11.368 18.1232 11.7417 18.1325 12.0564C18.1407 12.3334 18.1595 12.6693 18.2238 12.9127L19.1906 12.6573ZM19.3224 8.93921V9.93921H19.3312V8.93921V7.93921H19.3224V8.93921Z" fill="#C5B39A" mask="url(#path-9-inside-5_34_276)" />
	<mask id="path-11-inside-6_34_276" fill="white">
		<path d="M17.4326 20.7614C16.6767 17.474 16.2372 14.1515 15.5428 10.9432C15.0242 6.53069 16.6152 11.2508 16.7382 12.6923C17.0546 15.3732 17.3096 18.063 17.4326 20.7614Z" />
	</mask>
	<path d="M17.4326 20.7614C16.6767 17.474 16.2372 14.1515 15.5428 10.9432C15.0242 6.53069 16.6152 11.2508 16.7382 12.6923C17.0546 15.3732 17.3096 18.063 17.4326 20.7614Z" fill="#4A4A4A" />
	<path d="M17.4326 20.7614L16.458 20.9855L18.4316 20.7159L17.4326 20.7614ZM15.5428 10.9432L14.5496 11.0599L14.5552 11.1077L14.5654 11.1547L15.5428 10.9432ZM16.7382 12.6923L15.7418 12.7774L15.7432 12.7935L15.7451 12.8096L16.7382 12.6923ZM17.4326 20.7614L18.4072 20.5373C18.0355 18.9211 17.7406 17.2914 17.4493 15.6481C17.1593 14.0124 16.8723 12.3584 16.5202 10.7316L15.5428 10.9432L14.5654 11.1547C14.9077 12.7363 15.1876 14.3477 15.48 15.9972C15.771 17.6391 16.0738 19.3143 16.458 20.9855L17.4326 20.7614ZM15.5428 10.9432L16.536 10.8265C16.4728 10.2887 16.445 9.91602 16.44 9.67207C16.4375 9.54935 16.4413 9.47826 16.4447 9.44503C16.4507 9.38705 16.4515 9.47305 16.387 9.60136C16.3518 9.6714 16.2639 9.8211 16.0816 9.94284C15.8708 10.0836 15.6181 10.13 15.3835 10.0866C15.182 10.0493 15.0495 9.95702 14.993 9.91265C14.931 9.86402 14.8952 9.82116 14.8838 9.80705C14.8597 9.77739 14.8968 9.82145 14.9815 10.0181C15.1304 10.3639 15.3105 10.9028 15.4623 11.4553C15.617 12.0184 15.7191 12.5116 15.7418 12.7774L16.7382 12.6923L17.7346 12.6073C17.6957 12.1523 17.5528 11.5149 17.3908 10.9254C17.226 10.3254 17.0177 9.68975 16.8183 9.22693C16.7289 9.01922 16.6018 8.75042 16.4376 8.54786C16.3882 8.48692 16.1582 8.19598 15.7474 8.11997C15.4846 8.07135 15.2058 8.12277 14.9709 8.27963C14.7645 8.41744 14.6548 8.59423 14.6 8.70315C14.4964 8.90919 14.4676 9.12003 14.4553 9.24007C14.4403 9.38485 14.437 9.54494 14.4404 9.71262C14.4473 10.0495 14.4832 10.4945 14.5496 11.0599L15.5428 10.9432ZM16.7382 12.6923L15.7451 12.8096C16.0598 15.476 16.312 18.1403 16.4337 20.807L17.4326 20.7614L18.4316 20.7159C18.3071 17.9856 18.0495 15.2705 17.7313 12.5751L16.7382 12.6923Z" fill="#C5B39A" mask="url(#path-11-inside-6_34_276)" />
	<mask id="path-13-inside-7_34_276" fill="white">
		<path d="M12.6599 15.9885C13.4862 14.4679 14.7343 13.3868 16.3516 12.7803C15.5254 14.3009 14.2772 15.382 12.6599 15.9885Z" />
	</mask>
	<path d="M12.6599 15.9885C13.4862 14.4679 14.7343 13.3868 16.3516 12.7803C15.5254 14.3009 14.2772 15.382 12.6599 15.9885Z" fill="#4A4A4A" />
	<path d="M12.6599 15.9885L11.7812 15.5111L10.5018 17.8658L13.011 16.9249L12.6599 15.9885ZM16.3516 12.7803L17.2303 13.2577L18.5097 10.903L16.0005 11.8439L16.3516 12.7803ZM12.6599 15.9885L13.5386 16.466C14.2493 15.1579 15.3096 14.239 16.7028 13.7166L16.3516 12.7803L16.0005 11.8439C14.159 12.5345 12.723 13.7779 11.7812 15.5111L12.6599 15.9885ZM16.3516 12.7803L15.473 12.3028C14.7622 13.6109 13.702 14.5298 12.3088 15.0522L12.6599 15.9885L13.011 16.9249C14.8525 16.2343 16.2886 14.9909 17.2303 13.2577L16.3516 12.7803Z" fill="#C5B39A" mask="url(#path-13-inside-7_34_276)" />
	<mask id="path-15-inside-8_34_276" fill="white">
		<path d="M19.6213 12.7717C20.9486 13.4573 21.8276 14.5385 22.2055 15.98C20.8783 15.2944 20.0081 14.2045 19.6213 12.7717Z" />
	</mask>
	<path d="M19.6213 12.7717C20.9486 13.4573 21.8276 14.5385 22.2055 15.98C20.8783 15.2944 20.0081 14.2045 19.6213 12.7717Z" fill="#4A4A4A" />
	<path d="M19.6213 12.7717L20.0803 11.8833L18.0647 10.8421L18.6559 13.0323L19.6213 12.7717ZM22.2055 15.98L21.7466 16.8685L23.7426 17.8996L23.1728 15.7264L22.2055 15.98ZM19.6213 12.7717L19.1624 13.6602C20.2431 14.2185 20.9336 15.0718 21.2382 16.2337L22.2055 15.98L23.1728 15.7264C22.7215 14.0052 21.6541 12.6962 20.0803 11.8833L19.6213 12.7717ZM22.2055 15.98L22.6645 15.0916C21.5891 14.5361 20.9011 13.6753 20.5868 12.5111L19.6213 12.7717L18.6559 13.0323C19.1151 14.7336 20.1675 16.0528 21.7466 16.8685L22.2055 15.98Z" fill="#C5B39A" mask="url(#path-15-inside-8_34_276)" />
	<mask id="path-17-inside-9_34_276" fill="white">
		<path d="M17.4328 0C18.0305 2.04803 18.0393 4.13124 17.4328 6.17926C16.8263 4.13124 16.8351 2.04803 17.4328 0Z" />
	</mask>
	<path d="M17.4328 0C18.0305 2.04803 18.0393 4.13124 17.4328 6.17926C16.8263 4.13124 16.8351 2.04803 17.4328 0Z" fill="#4A4A4A" />
	<path d="M17.4328 0L18.3927 -0.280158L17.4328 -3.56941L16.4728 -0.280158L17.4328 0ZM17.4328 6.17926L16.4739 6.46321L17.4328 9.70103L18.3916 6.46321L17.4328 6.17926ZM17.4328 0L16.4728 0.280158C17.018 2.14801 17.0247 4.03535 16.4739 5.89531L17.4328 6.17926L18.3916 6.46321C19.0538 4.22712 19.043 1.94804 18.3927 -0.280158L17.4328 0ZM17.4328 6.17926L18.3916 5.89531C17.8408 4.03535 17.8476 2.14801 18.3927 0.280158L17.4328 0L16.4728 -0.280158C15.8225 1.94804 15.8118 4.22712 16.4739 6.46321L17.4328 6.17926Z" fill="#C5B39A" mask="url(#path-17-inside-9_34_276)" />
	<mask id="path-19-inside-10_34_276" fill="white">
		<path d="M20.2717 6.82087C20.6936 5.22991 21.6166 3.96419 23.0141 3.09399C22.5922 4.68495 21.6693 5.94188 20.2717 6.82087Z" />
	</mask>
	<path d="M20.2717 6.82087C20.6936 5.22991 21.6166 3.96419 23.0141 3.09399C22.5922 4.68495 21.6693 5.94188 20.2717 6.82087Z" fill="#4A4A4A" />
	<path d="M20.2717 6.82087L19.3051 6.56453L18.6541 9.01959L20.8041 7.66736L20.2717 6.82087ZM23.0141 3.09399L23.9807 3.35033L24.6275 0.911448L22.4856 2.2451L23.0141 3.09399ZM20.2717 6.82087L21.2383 7.0772C21.5962 5.72776 22.3652 4.67605 23.5427 3.94289L23.0141 3.09399L22.4856 2.2451C20.8679 3.25233 19.7911 4.73206 19.3051 6.56453L20.2717 6.82087ZM23.0141 3.09399L22.0476 2.83766C21.6904 4.18429 20.9225 5.23023 19.7393 5.97437L20.2717 6.82087L20.8041 7.66736C22.4161 6.65354 23.494 5.18561 23.9807 3.35033L23.0141 3.09399Z" fill="#C5B39A" mask="url(#path-19-inside-10_34_276)" />
	<mask id="path-21-inside-11_34_276" fill="white">
		<path d="M14.5056 6.82087C13.1168 5.94188 12.1851 4.68495 11.7632 3.09399C13.1608 3.97298 14.0837 5.22991 14.5056 6.82087Z" />
	</mask>
	<path d="M14.5056 6.82087C13.1168 5.94188 12.1851 4.68495 11.7632 3.09399C13.1608 3.97298 14.0837 5.22991 14.5056 6.82087Z" fill="#4A4A4A" />
	<path d="M14.5056 6.82087L13.9708 7.66585L16.126 9.02988L15.4722 6.56453L14.5056 6.82087ZM11.7632 3.09399L12.2956 2.24749L10.1455 0.895266L10.7966 3.35033L11.7632 3.09399ZM14.5056 6.82087L15.0404 5.97588C13.8617 5.22986 13.0862 4.18169 12.7298 2.83766L11.7632 3.09399L10.7966 3.35033C11.284 5.18821 12.372 6.65391 13.9708 7.66585L14.5056 6.82087ZM11.7632 3.09399L11.2308 3.94049C12.414 4.68464 13.1819 5.73057 13.539 7.0772L14.5056 6.82087L15.4722 6.56453C14.9855 4.72925 13.9075 3.26131 12.2956 2.24749L11.7632 3.09399Z" fill="#C5B39A" mask="url(#path-21-inside-11_34_276)" />
</svg>
