<svg xmlns="http://www.w3.org/2000/svg" width="36" height="49" viewBox="0 0 36 49" fill="none">
	<mask id="path-1-inside-1_34_280" fill="white">
		<path d="M24.0193 5.18593C26.9587 5.14708 31.0765 4.99817 33.977 4.9917H34.1907L34.1713 5.20533C33.8216 9.15476 33.3749 13.0977 32.7534 17.0148C32.4426 18.9765 32.1059 20.9319 31.6656 22.8742C31.2319 24.577 30.8887 26.3963 29.8463 27.8595C26.0458 31.9579 24.2135 7.30956 24.0193 5.18593C24.8092 11.0648 25.5861 16.9565 26.9134 22.7382C27.263 24.1561 27.6126 25.5999 28.2536 26.9013C28.4154 27.2056 28.6939 27.6912 28.9982 27.7365C29.3025 27.6847 29.5744 27.1991 29.7362 26.9013C30.3642 25.5935 30.6945 24.1497 31.0441 22.7318C32.3455 16.9565 33.0641 11.0453 33.7828 5.16648L33.977 5.38015C31.0959 5.33483 26.9458 5.27009 24.0193 5.18593Z" />
	</mask>
	<path d="M24.0193 5.18593C26.9587 5.14708 31.0765 4.99817 33.977 4.9917H34.1907L34.1713 5.20533C33.8216 9.15476 33.3749 13.0977 32.7534 17.0148C32.4426 18.9765 32.1059 20.9319 31.6656 22.8742C31.2319 24.577 30.8887 26.3963 29.8463 27.8595C26.0458 31.9579 24.2135 7.30956 24.0193 5.18593C24.8092 11.0648 25.5861 16.9565 26.9134 22.7382C27.263 24.1561 27.6126 25.5999 28.2536 26.9013C28.4154 27.2056 28.6939 27.6912 28.9982 27.7365C29.3025 27.6847 29.5744 27.1991 29.7362 26.9013C30.3642 25.5935 30.6945 24.1497 31.0441 22.7318C32.3455 16.9565 33.0641 11.0453 33.7828 5.16648L33.977 5.38015C31.0959 5.33483 26.9458 5.27009 24.0193 5.18593Z" fill="#4A4A4A" />
	<path d="M24.0193 5.18593L24.0061 4.18601L22.925 4.2003L23.0234 5.27701L24.0193 5.18593ZM33.977 4.9917V3.9917L33.9748 3.9917L33.977 4.9917ZM34.1907 4.9917L35.1866 5.08215L35.2856 3.9917H34.1907V4.9917ZM34.1713 5.20533L33.1754 5.11488L33.1752 5.11715L34.1713 5.20533ZM32.7534 17.0148L31.7657 16.8581L31.7657 16.8583L32.7534 17.0148ZM31.6656 22.8742L32.6347 23.1211L32.638 23.1082L32.6409 23.0953L31.6656 22.8742ZM29.8463 27.8595L30.5796 28.5395L30.6234 28.4922L30.6608 28.4397L29.8463 27.8595ZM26.9134 22.7382L25.9387 22.962L25.9405 22.9698L25.9424 22.9776L26.9134 22.7382ZM28.2536 26.9013L27.3565 27.3432L27.3634 27.3572L27.3707 27.3709L28.2536 26.9013ZM28.9982 27.7365L28.8509 28.7256L29.0087 28.7491L29.166 28.7223L28.9982 27.7365ZM29.7362 26.9013L30.6148 27.3788L30.6268 27.3568L30.6377 27.3342L29.7362 26.9013ZM31.0441 22.7318L32.015 22.9712L32.0174 22.9614L32.0196 22.9516L31.0441 22.7318ZM33.7828 5.16648L34.5227 4.49377L33.0549 2.87941L32.7902 5.04514L33.7828 5.16648ZM33.977 5.38015L33.9613 6.38003L36.2707 6.41636L34.7169 4.70744L33.977 5.38015ZM24.0193 5.18593L24.0325 6.18584C27.0241 6.1463 31.0709 5.99819 33.9793 5.9917L33.977 4.9917L33.9748 3.9917C31.082 3.99816 26.8933 4.14786 24.0061 4.18601L24.0193 5.18593ZM33.977 4.9917V5.9917H34.1907V4.9917V3.9917H33.977V4.9917ZM34.1907 4.9917L33.1948 4.90125L33.1754 5.11488L34.1713 5.20533L35.1672 5.29578L35.1866 5.08215L34.1907 4.9917ZM34.1713 5.20533L33.1752 5.11715C32.8269 9.05078 32.3827 12.9699 31.7657 16.8581L32.7534 17.0148L33.741 17.1715C34.3671 13.2256 34.8164 9.25874 35.1674 5.29351L34.1713 5.20533ZM32.7534 17.0148L31.7657 16.8583C31.456 18.8131 31.1234 20.743 30.6904 22.6532L31.6656 22.8742L32.6409 23.0953C33.0885 21.1208 33.4292 19.14 33.741 17.1712L32.7534 17.0148ZM31.6656 22.8742L30.6966 22.6273C30.2367 24.4325 29.9369 26.0089 29.0319 27.2793L29.8463 27.8595L30.6608 28.4397C31.8405 26.7837 32.227 24.7215 32.6347 23.1211L31.6656 22.8742ZM29.8463 27.8595L29.1131 27.1796C28.9571 27.3478 28.9034 27.3344 28.9621 27.3227C29.0539 27.3045 29.1102 27.3463 29.0808 27.3261C28.9324 27.2236 28.6381 26.8447 28.2879 25.972C27.6237 24.3166 27.0457 21.6503 26.5676 18.6962C25.6173 12.8246 25.1142 6.17804 25.0151 5.09484L24.0193 5.18593L23.0234 5.27701C23.1186 6.31745 23.6288 13.0568 24.5933 19.0157C25.0726 21.9768 25.6775 24.837 26.4317 26.7168C26.7908 27.6118 27.2646 28.5026 27.9447 28.972C28.3295 29.2377 28.815 29.3909 29.3513 29.2845C29.8545 29.1847 30.2605 28.8835 30.5796 28.5395L29.8463 27.8595ZM24.0193 5.18593L23.0282 5.31909C23.8167 11.1878 24.5992 17.1271 25.9387 22.962L26.9134 22.7382L27.888 22.5145C26.573 16.786 25.8016 10.9417 25.0104 5.05276L24.0193 5.18593ZM26.9134 22.7382L25.9424 22.9776C26.2862 24.3718 26.6588 25.9267 27.3565 27.3432L28.2536 26.9013L29.1507 26.4595C28.5664 25.2732 28.2397 23.9404 27.8843 22.4988L26.9134 22.7382ZM28.2536 26.9013L27.3707 27.3709C27.4546 27.5286 27.598 27.791 27.7819 28.0284C27.8747 28.1482 27.9986 28.2893 28.1548 28.4132C28.3075 28.5343 28.5423 28.6796 28.8509 28.7256L28.9982 27.7365L29.1455 26.7474C29.3019 26.7707 29.3878 26.8384 29.3976 26.8462C29.411 26.8568 29.3981 26.849 29.363 26.8037C29.3305 26.7616 29.2931 26.706 29.252 26.6379C29.2116 26.5708 29.1733 26.501 29.1365 26.4317L28.2536 26.9013ZM28.9982 27.7365L29.166 28.7223C29.7278 28.6267 30.0764 28.1998 30.215 28.0186C30.3943 27.7841 30.5359 27.5241 30.6148 27.3788L29.7362 26.9013L28.8576 26.4238C28.8182 26.4963 28.7795 26.5665 28.7383 26.6351C28.6967 26.7043 28.6591 26.7607 28.6262 26.8037C28.5909 26.8499 28.5773 26.859 28.589 26.8495C28.5973 26.8428 28.6791 26.7764 28.8304 26.7507L28.9982 27.7365ZM29.7362 26.9013L30.6377 27.3342C31.3203 25.9126 31.6742 24.3535 32.015 22.9712L31.0441 22.7318L30.0732 22.4923C29.7148 23.9459 29.4082 25.2743 28.8348 26.4684L29.7362 26.9013ZM31.0441 22.7318L32.0196 22.9516C33.3339 17.1191 34.0578 11.1575 34.7754 5.28783L33.7828 5.16648L32.7902 5.04514C32.0704 10.9331 31.357 16.7939 30.0685 22.5119L31.0441 22.7318ZM33.7828 5.16648L33.0429 5.8392L33.2371 6.05287L33.977 5.38015L34.7169 4.70744L34.5227 4.49377L33.7828 5.16648ZM33.977 5.38015L33.9928 4.38028C31.1092 4.33492 26.9665 4.27028 24.048 4.18634L24.0193 5.18593L23.9905 6.18551C26.925 6.26991 31.0826 6.33474 33.9613 6.38003L33.977 5.38015Z" fill="#C5B39A" mask="url(#path-1-inside-1_34_280)" />
	<mask id="path-3-inside-2_34_280" fill="white">
		<path d="M29.5161 28.0407C29.7621 33.9648 29.8074 39.9343 29.8333 45.8714C29.8916 46.7648 28.6356 47.1274 28.2277 46.2987C28.1047 46.0656 28.1435 45.8131 28.1435 45.58C28.1694 39.8631 28.2212 33.7576 28.4608 28.0407C28.6809 33.3497 28.7456 39.0991 28.7715 44.4081C28.7909 44.6218 28.7456 45.8649 28.8039 46.0073C28.914 46.2081 29.2377 46.1174 29.1989 45.8649C29.2312 39.9343 29.2701 33.9648 29.5161 28.0342V28.0407Z" />
	</mask>
	<path d="M29.5161 28.0407C29.7621 33.9648 29.8074 39.9343 29.8333 45.8714C29.8916 46.7648 28.6356 47.1274 28.2277 46.2987C28.1047 46.0656 28.1435 45.8131 28.1435 45.58C28.1694 39.8631 28.2212 33.7576 28.4608 28.0407C28.6809 33.3497 28.7456 39.0991 28.7715 44.4081C28.7909 44.6218 28.7456 45.8649 28.8039 46.0073C28.914 46.2081 29.2377 46.1174 29.1989 45.8649C29.2312 39.9343 29.2701 33.9648 29.5161 28.0342V28.0407Z" fill="#4A4A4A" />
	<path d="M29.5161 28.0407H28.5161V28.0614L28.517 28.0822L29.5161 28.0407ZM29.8333 45.8714L28.8334 45.8757L28.8335 45.9061L28.8355 45.9364L29.8333 45.8714ZM28.2277 46.2987L29.1249 45.8571L29.1187 45.8444L29.1121 45.8319L28.2277 46.2987ZM28.1435 45.58L27.1435 45.5755V45.58H28.1435ZM28.4608 28.0407L29.4599 27.9992L27.4616 27.9988L28.4608 28.0407ZM28.7715 44.4081L27.7715 44.413L27.7717 44.4559L27.7756 44.4987L28.7715 44.4081ZM28.8039 46.0073L27.8783 46.386L27.8998 46.4385L27.9271 46.4882L28.8039 46.0073ZM29.1989 45.8649L28.1989 45.8594L28.1984 45.9386L28.2105 46.0169L29.1989 45.8649ZM29.5161 28.0342H30.5161L28.517 27.9927L29.5161 28.0342ZM29.5161 28.0407L28.517 28.0822C28.7621 33.9858 28.8075 39.9386 28.8334 45.8757L29.8333 45.8714L30.8333 45.867C30.8074 39.9299 30.7621 33.9438 30.5152 27.9992L29.5161 28.0407ZM29.8333 45.8714L28.8355 45.9364C28.8349 45.9277 28.8355 45.9069 28.8441 45.8796C28.8525 45.853 28.8655 45.8297 28.8798 45.8116C28.9063 45.778 28.9302 45.7694 28.9392 45.7669C28.9486 45.7643 28.9787 45.7584 29.0252 45.7767C29.0497 45.7864 29.074 45.8013 29.0946 45.8202C29.1154 45.8394 29.1239 45.855 29.1249 45.8571L28.2277 46.2987L27.3305 46.7403C27.7813 47.6563 28.7314 47.8991 29.4714 47.6948C30.1996 47.4938 30.8967 46.8103 30.8312 45.8063L29.8333 45.8714ZM28.2277 46.2987L29.1121 45.8319C29.1437 45.8919 29.1402 45.9311 29.1384 45.8927C29.1374 45.8712 29.1374 45.8414 29.139 45.7865C29.1402 45.7431 29.1435 45.6573 29.1435 45.58H28.1435H27.1435C27.1435 45.6193 27.142 45.6525 27.1398 45.7293C27.1379 45.7945 27.1359 45.8861 27.1406 45.986C27.1501 46.1904 27.1886 46.4724 27.3433 46.7655L28.2277 46.2987ZM28.1435 45.58L29.1435 45.5846C29.1694 39.8679 29.2212 33.779 29.4599 28.0825L28.4608 28.0407L27.4616 27.9988C27.2212 33.7363 27.1694 39.8583 27.1435 45.5755L28.1435 45.58ZM28.4608 28.0407L27.4616 28.0821C27.681 33.3721 27.7456 39.1065 27.7715 44.413L28.7715 44.4081L29.7715 44.4032C29.7456 39.0916 29.6808 33.3273 29.4599 27.9992L28.4608 28.0407ZM28.7715 44.4081L27.7756 44.4987C27.7752 44.4934 27.7773 44.5543 27.7766 44.724C27.7758 44.9049 27.7741 45.0105 27.7731 45.2299C27.7723 45.4088 27.7726 45.5991 27.7774 45.7578C27.7798 45.836 27.7837 45.92 27.7907 45.9972C27.7932 46.0245 27.8056 46.2081 27.8783 46.386L28.8039 46.0073L29.7294 45.6287C29.7685 45.7241 29.7796 45.7985 29.7801 45.8014C29.7831 45.8188 29.7833 45.8255 29.7824 45.8158C29.7807 45.7969 29.7784 45.7588 29.7765 45.6971C29.7728 45.5759 29.7723 45.4154 29.7731 45.239C29.7737 45.1031 29.7761 44.849 29.7766 44.7322C29.7771 44.6043 29.7776 44.4297 29.7674 44.3176L28.7715 44.4081ZM28.8039 46.0073L27.9271 46.4882C28.2471 47.0718 28.8901 47.2116 29.3657 47.0573C29.8801 46.8905 30.2877 46.3661 30.1872 45.7128L29.1989 45.8649L28.2105 46.0169C28.1853 45.853 28.2148 45.6548 28.331 45.4763C28.4406 45.308 28.5965 45.2042 28.7487 45.1549C29.0447 45.0588 29.4707 45.1436 29.6807 45.5265L28.8039 46.0073ZM29.1989 45.8649L30.1988 45.8703C30.2312 39.9377 30.2701 33.9856 30.5152 28.0756L29.5161 28.0342L28.517 27.9927C28.2701 33.944 28.2312 39.9308 28.1989 45.8594L29.1989 45.8649ZM29.5161 28.0342H28.5161V28.0407H29.5161H30.5161V28.0342H29.5161Z" fill="#C5B39A" mask="url(#path-3-inside-2_34_280)" />
	<mask id="path-5-inside-3_34_280" fill="white">
		<path d="M29.516 45.0884C31.3677 45.0884 33.5172 44.9071 35.1164 45.9948C36.0552 47.2638 33.2194 47.7364 32.436 47.8789C30.4289 48.1832 28.3959 48.1896 26.3824 47.9371C25.3464 47.7558 24.3235 47.6523 23.4106 47.0178C22.6855 46.4351 23.3135 45.7941 23.9609 45.5934C25.4047 45.0819 26.9521 45.056 28.4542 45.0819C26.991 45.2502 25.4824 45.4056 24.1228 45.9689C23.8379 46.1113 23.307 46.3574 23.7214 46.6228C25.4241 47.4645 27.5284 47.4256 29.406 47.4645C31.0893 47.4192 32.8569 47.3803 34.4237 46.7523C34.6179 46.6682 34.8057 46.5127 34.8121 46.448C34.8704 46.4092 34.715 46.2279 34.5273 46.1178C32.9863 45.3603 31.1994 45.2567 29.5095 45.0819L29.516 45.0884Z" />
	</mask>
	<path d="M29.516 45.0884C31.3677 45.0884 33.5172 44.9071 35.1164 45.9948C36.0552 47.2638 33.2194 47.7364 32.436 47.8789C30.4289 48.1832 28.3959 48.1896 26.3824 47.9371C25.3464 47.7558 24.3235 47.6523 23.4106 47.0178C22.6855 46.4351 23.3135 45.7941 23.9609 45.5934C25.4047 45.0819 26.9521 45.056 28.4542 45.0819C26.991 45.2502 25.4824 45.4056 24.1228 45.9689C23.8379 46.1113 23.307 46.3574 23.7214 46.6228C25.4241 47.4645 27.5284 47.4256 29.406 47.4645C31.0893 47.4192 32.8569 47.3803 34.4237 46.7523C34.6179 46.6682 34.8057 46.5127 34.8121 46.448C34.8704 46.4092 34.715 46.2279 34.5273 46.1178C32.9863 45.3603 31.1994 45.2567 29.5095 45.0819L29.516 45.0884Z" fill="#4A4A4A" />
	<path d="M29.516 45.0884L28.8089 45.7955L29.1018 46.0884H29.516V45.0884ZM35.1164 45.9948L35.9203 45.4L35.8193 45.2635L35.6788 45.1679L35.1164 45.9948ZM32.436 47.8789L32.5859 48.8676L32.6004 48.8654L32.6149 48.8627L32.436 47.8789ZM26.3824 47.9371L26.21 48.9222L26.2339 48.9263L26.2579 48.9293L26.3824 47.9371ZM23.4106 47.0178L22.7842 47.7973L22.8113 47.819L22.8399 47.8389L23.4106 47.0178ZM23.9609 45.5934L24.257 46.5485L24.276 46.5426L24.2948 46.536L23.9609 45.5934ZM28.4542 45.0819L28.5685 46.0753L28.4714 44.082L28.4542 45.0819ZM24.1228 45.9689L23.74 45.045L23.7073 45.0586L23.6756 45.0745L24.1228 45.9689ZM23.7214 46.6228L23.1819 47.4649L23.2286 47.4947L23.2782 47.5193L23.7214 46.6228ZM29.406 47.4645L29.3853 48.4643L29.4091 48.4648L29.4329 48.4641L29.406 47.4645ZM34.4237 46.7523L34.7957 47.6805L34.8086 47.6754L34.8213 47.6699L34.4237 46.7523ZM34.8121 46.448L34.2574 45.6159L33.8641 45.8781L33.8171 46.3485L34.8121 46.448ZM34.5273 46.1178L35.033 45.2551L35.0013 45.2365L34.9684 45.2204L34.5273 46.1178ZM29.5095 45.0819L29.6124 44.0872L26.8108 43.7974L28.8024 45.789L29.5095 45.0819ZM29.516 45.0884V46.0884C30.5041 46.0884 31.411 46.0445 32.3178 46.1293C33.2019 46.2121 33.9501 46.4109 34.554 46.8216L35.1164 45.9948L35.6788 45.1679C34.6836 44.491 33.5574 44.2366 32.5041 44.138C31.4734 44.0416 30.3796 44.0884 29.516 44.0884V45.0884ZM35.1164 45.9948L34.3125 46.5895C34.3518 46.6426 34.3141 46.6143 34.3061 46.514C34.297 46.4005 34.3345 46.3071 34.3651 46.2599C34.389 46.2231 34.3356 46.3088 34.0292 46.4397C33.4642 46.6811 32.6817 46.8178 32.2571 46.895L32.436 47.8789L32.6149 48.8627C32.9738 48.7975 34.0008 48.6267 34.8149 48.2789C35.198 48.1152 35.7265 47.8359 36.0426 47.349C36.2193 47.0769 36.3304 46.7373 36.2997 46.3545C36.2702 45.9849 36.1158 45.6642 35.9203 45.4L35.1164 45.9948ZM32.436 47.8789L32.2861 46.8902C30.3762 47.1797 28.4358 47.1868 26.5068 46.9449L26.3824 47.9371L26.2579 48.9293C28.3561 49.1925 30.4816 49.1866 32.5859 48.8676L32.436 47.8789ZM26.3824 47.9371L26.5547 46.9521C25.4154 46.7527 24.6684 46.6741 23.9813 46.1966L23.4106 47.0178L22.8399 47.8389C23.9786 48.6304 25.2775 48.759 26.21 48.9222L26.3824 47.9371ZM23.4106 47.0178L24.037 46.2382C23.9771 46.1901 24.0442 46.2216 24.0748 46.356C24.1075 46.5003 24.0647 46.6139 24.0396 46.6579C24.0214 46.6898 24.0209 46.6747 24.0749 46.6368C24.1247 46.6017 24.1905 46.5691 24.257 46.5485L23.9609 45.5934L23.6648 44.6382C23.1932 44.7844 22.617 45.1154 22.3024 45.6668C22.1301 45.9689 22.0257 46.3645 22.1245 46.7991C22.221 47.224 22.4815 47.5541 22.7842 47.7973L23.4106 47.0178ZM23.9609 45.5934L24.2948 46.536C25.5517 46.0907 26.9359 46.0559 28.437 46.0817L28.4542 45.0819L28.4714 44.082C26.9684 44.0561 25.2577 44.0731 23.627 44.6508L23.9609 45.5934ZM28.4542 45.0819L28.3399 44.0884C26.9156 44.2523 25.2549 44.4175 23.74 45.045L24.1228 45.9689L24.5055 46.8927C25.71 46.3938 27.0663 46.2482 28.5685 46.0753L28.4542 45.0819ZM24.1228 45.9689L23.6756 45.0745C23.6185 45.103 23.5007 45.1602 23.3885 45.2238C23.2825 45.2839 23.1152 45.3856 22.9653 45.5302C22.8377 45.6535 22.5385 45.9853 22.5713 46.4932C22.6057 47.026 22.9731 47.3311 23.1819 47.4649L23.7214 46.6228L24.2608 45.7808C24.2624 45.7818 24.5408 45.9566 24.5671 46.3642C24.5918 46.7468 24.3655 46.9585 24.3544 46.9692C24.3211 47.0013 24.3139 46.9982 24.3747 46.9638C24.4292 46.9329 24.4846 46.906 24.57 46.8633L24.1228 45.9689ZM23.7214 46.6228L23.2782 47.5193C25.2284 48.4832 27.6053 48.4275 29.3853 48.4643L29.406 47.4645L29.4267 46.4647C27.4514 46.4238 25.6199 46.4458 24.1645 45.7264L23.7214 46.6228ZM29.406 47.4645L29.4329 48.4641C31.0745 48.4199 33.0321 48.3874 34.7957 47.6805L34.4237 46.7523L34.0516 45.8241C32.6816 46.3732 31.1042 46.4184 29.3791 46.4649L29.406 47.4645ZM34.4237 46.7523L34.8213 47.6699C35.0065 47.5896 35.1773 47.4821 35.312 47.3746C35.3789 47.3212 35.4589 47.2504 35.5334 47.164C35.5704 47.1211 35.6204 47.0578 35.6673 46.9766C35.7075 46.9071 35.7864 46.7555 35.8072 46.5475L34.8121 46.448L33.8171 46.3485C33.8363 46.1567 33.9079 46.0241 33.9358 45.9758C33.9704 45.9159 34.0032 45.876 34.0187 45.858C34.0362 45.8376 34.0495 45.8248 34.0553 45.8194C34.0587 45.8163 34.0611 45.8142 34.0625 45.813C34.0633 45.8123 34.0638 45.8119 34.0641 45.8116C34.0643 45.8115 34.0644 45.8114 34.0645 45.8113C34.0646 45.8112 34.0646 45.8112 34.0646 45.8112C34.0646 45.8112 34.0646 45.8112 34.0645 45.8113C34.0645 45.8113 34.0643 45.8114 34.0642 45.8115C34.0639 45.8118 34.0635 45.8121 34.063 45.8125C34.0619 45.8133 34.0604 45.8144 34.0585 45.8157C34.0547 45.8183 34.0502 45.8213 34.0452 45.8243C34.0403 45.8273 34.0357 45.8299 34.0319 45.8319C34.0281 45.8339 34.026 45.8348 34.0261 45.8348L34.4237 46.7523ZM34.8121 46.448L35.3668 47.28C35.646 47.094 35.7891 46.8068 35.8185 46.5346C35.8433 46.3056 35.7861 46.1251 35.7519 46.0363C35.6822 45.8553 35.577 45.7237 35.5199 45.6572C35.3887 45.5048 35.2161 45.3625 35.033 45.2551L34.5273 46.1178L34.0215 46.9805C34.0187 46.9788 34.02 46.9795 34.0224 46.9814C34.0258 46.9842 34.019 46.9793 34.0041 46.962C34.0019 46.9595 33.9364 46.8873 33.8854 46.7547C33.8605 46.6901 33.8073 46.531 33.8301 46.3197C33.8576 46.0653 33.9929 45.7923 34.2574 45.6159L34.8121 46.448ZM34.5273 46.1178L34.9684 45.2204C33.2272 44.3644 31.2176 44.2532 29.6124 44.0872L29.5095 45.0819L29.4066 46.0766C31.1812 46.2602 32.7455 46.3562 34.0861 47.0152L34.5273 46.1178ZM29.5095 45.0819L28.8024 45.789L28.8089 45.7955L29.516 45.0884L30.2231 44.3813L30.2166 44.3748L29.5095 45.0819Z" fill="#C5B39A" mask="url(#path-5-inside-3_34_280)" />
	<mask id="path-7-inside-4_34_280" fill="white">
		<path d="M25.1328 14.3151C27.7032 13.8748 30.2865 13.8683 32.8633 14.3151C30.293 14.7618 27.7097 14.7553 25.1328 14.3151Z" />
	</mask>
	<path d="M25.1328 14.3151C27.7032 13.8748 30.2865 13.8683 32.8633 14.3151C30.293 14.7618 27.7097 14.7553 25.1328 14.3151Z" fill="#4A4A4A" />
	<path d="M25.1328 14.3151L24.964 13.3294L24.9644 15.3008L25.1328 14.3151ZM32.8633 14.3151L33.0346 15.3003L33.0342 13.3298L32.8633 14.3151ZM25.1328 14.3151L25.3016 15.3007C27.7618 14.8793 30.2302 14.8735 32.6925 15.3004L32.8633 14.3151L33.0342 13.3298C30.3428 12.8632 27.6446 12.8703 24.964 13.3294L25.1328 14.3151ZM32.8633 14.3151L32.6921 13.3298C30.2368 13.7566 27.7684 13.7509 25.3012 13.3293L25.1328 14.3151L24.9644 15.3008C27.6509 15.7598 30.3491 15.767 33.0346 15.3003L32.8633 14.3151Z" fill="#C5B39A" mask="url(#path-7-inside-4_34_280)" />
	<mask id="path-9-inside-5_34_280" fill="white">
		<path d="M28.2602 16.7624C28.2602 17.8824 26.5639 17.9731 26.5186 16.7624C26.5639 15.5452 28.2602 15.6423 28.2602 16.7624ZM28.2602 16.7624C28.2213 15.9725 27.153 16.0566 27.1595 16.7624C27.1336 17.4551 28.2084 17.5781 28.2602 16.7624Z" />
	</mask>
	<path d="M28.2602 16.7624C28.2602 17.8824 26.5639 17.9731 26.5186 16.7624C26.5639 15.5452 28.2602 15.6423 28.2602 16.7624ZM28.2602 16.7624C28.2213 15.9725 27.153 16.0566 27.1595 16.7624C27.1336 17.4551 28.2084 17.5781 28.2602 16.7624Z" fill="#4A4A4A" />
	<path d="M26.5186 16.7624L25.5192 16.7252L25.5179 16.7625L25.5193 16.7998L26.5186 16.7624ZM27.1595 16.7624L28.1588 16.7997L28.1597 16.7765L28.1595 16.7532L27.1595 16.7624ZM28.2602 16.7624H27.2602C27.2602 16.7741 27.2585 16.7618 27.2696 16.7362C27.2805 16.7109 27.2976 16.6874 27.317 16.6695C27.3521 16.6372 27.3771 16.6368 27.38 16.6368C27.3842 16.6366 27.421 16.6368 27.4671 16.677C27.4911 16.6979 27.5075 16.7218 27.5162 16.7409C27.5247 16.7594 27.5191 16.7583 27.5179 16.725L26.5186 16.7624L25.5193 16.7998C25.5399 17.3521 25.7603 17.8422 26.1525 18.1843C26.5294 18.513 26.9988 18.6475 27.4327 18.6361C28.3004 18.6132 29.2602 17.9627 29.2602 16.7624H28.2602ZM26.5186 16.7624L27.5179 16.7996C27.5192 16.7647 27.525 16.7626 27.5169 16.7806C27.5084 16.7992 27.4921 16.8231 27.4679 16.8443C27.4211 16.8852 27.3831 16.8856 27.3781 16.8855C27.3745 16.8854 27.35 16.8848 27.3158 16.8531C27.2968 16.8355 27.2801 16.8125 27.2693 16.7877C27.2585 16.7626 27.2602 16.7507 27.2602 16.7624H28.2602H29.2602C29.2602 15.5642 28.3031 14.9108 27.4346 14.8863C26.9999 14.874 26.5294 15.0083 26.1517 15.3384C25.7591 15.6816 25.5398 16.1728 25.5192 16.7252L26.5186 16.7624ZM28.2602 16.7624L29.259 16.7132C29.2375 16.2768 29.0619 15.8677 28.7287 15.5767C28.4088 15.2973 28.0138 15.1883 27.6541 15.2023C26.9377 15.2301 26.1505 15.7875 26.1596 16.7715L27.1595 16.7624L28.1595 16.7532C28.1604 16.8488 28.117 16.9789 28.0118 17.0788C27.9211 17.1649 27.8181 17.1974 27.7316 17.2008C27.643 17.2042 27.5219 17.1781 27.4131 17.083C27.2909 16.9764 27.2634 16.853 27.2614 16.8115L28.2602 16.7624ZM27.1595 16.7624L26.1602 16.725C26.1231 17.717 26.9153 18.2864 27.6243 18.3265C27.9861 18.3469 28.3871 18.2433 28.7139 17.9628C29.0531 17.6718 29.2305 17.2613 29.2582 16.8257L28.2602 16.7624L27.2622 16.699C27.264 16.6713 27.2877 16.5513 27.4115 16.445C27.5231 16.3493 27.6473 16.3246 27.7372 16.3297C27.8239 16.3346 27.9254 16.3689 28.0141 16.456C28.1175 16.5576 28.1628 16.6928 28.1588 16.7997L27.1595 16.7624Z" fill="#C5B39A" mask="url(#path-9-inside-5_34_280)" />
	<path d="M28.9895 19.3149L29.1008 19.3218L29.1663 19.3267C29.164 19.3307 29.1596 19.3341 29.1555 19.3394L28.9661 19.3735C28.9594 19.3685 28.9511 19.3648 28.9446 19.3579C28.9392 19.3522 28.9371 19.3443 28.9329 19.3384M28.9329 19.3384L29.1008 19.3218M28.9329 19.3384L29.1008 19.3218M28.9895 19.3149L28.9153 19.3091C28.9166 19.3121 28.9186 19.3148 28.9202 19.3179C28.9237 19.3248 28.9278 19.3314 28.9329 19.3384M28.9895 19.3149L28.9202 19.3179M28.9895 19.3149L28.9202 19.3179M29.1379 19.3638C29.1009 19.396 29.0598 19.4037 29.0325 19.4019C29.0167 19.4008 28.9988 19.3943 28.9797 19.3833L29.1536 19.3423C29.1488 19.3481 29.1454 19.3572 29.1379 19.3638ZM29.0354 19.1831C29.062 19.1813 29.1016 19.189 29.1379 19.2202C29.1527 19.2329 29.16 19.2457 29.1653 19.2544L28.9163 19.2739C28.9233 19.2587 28.9328 19.2426 28.9465 19.228C28.9772 19.1953 29.0112 19.1848 29.0354 19.1831Z" fill="#4A4A4A" stroke="#C5B39A" />
	<path d="M31.1702 16.2229L31.0491 16.2405M31.0442 16.2131L31.0627 16.2141L31.1702 16.2229M31.1702 16.2229L31.0491 16.2405M30.929 16.2239C30.9297 16.2342 30.9304 16.2442 30.9319 16.2542L31.0491 16.2405L31.1868 16.2239L31.1702 16.2229M30.929 16.2239L31.0627 16.2141M30.929 16.2239L31.0627 16.2141M30.929 16.2239C30.9288 16.2222 30.9281 16.2206 30.928 16.219M30.928 16.219L31.0442 16.2131M30.928 16.219L31.0442 16.2131M30.928 16.219C30.9277 16.2151 30.9271 16.2112 30.927 16.2073C30.927 16.206 30.927 16.2047 30.927 16.2034L31.0442 16.2131M31.2473 16.2288C31.2502 16.2412 31.2552 16.2514 31.262 16.26C31.254 16.2735 31.2432 16.2912 31.2239 16.3079C31.1777 16.3475 31.1237 16.3588 31.0813 16.3557C31.0415 16.3527 30.9883 16.3352 30.9436 16.2844C30.9397 16.2799 30.9373 16.2744 30.9338 16.2698L31.1985 16.2249L31.2473 16.2288ZM31.2766 16.2317C31.276 16.2338 31.2738 16.2372 31.2717 16.2424C31.2667 16.2387 31.2619 16.235 31.2581 16.2297L31.2766 16.2317ZM31.1165 16.1653L30.928 16.1799C30.9284 16.1718 30.929 16.1637 30.9299 16.1555L31.1165 16.1653ZM31.0793 16.0286C31.123 16.0254 31.1782 16.0379 31.2249 16.0784C31.2435 16.0945 31.2551 16.1111 31.2629 16.1243C31.2561 16.1328 31.2512 16.143 31.2483 16.1555L31.1575 16.1624L30.9309 16.136C30.9326 16.1251 30.9361 16.1145 30.9387 16.1038C30.9399 16.1024 30.9414 16.1012 30.9426 16.0999C30.9862 16.0507 31.0382 16.0316 31.0793 16.0286ZM31.2766 16.1536L31.2561 16.1545C31.2603 16.1487 31.2661 16.1448 31.2717 16.1409C31.2743 16.1468 31.2759 16.1511 31.2766 16.1536Z" fill="#4A4A4A" stroke="#C5B39A" />
	<mask id="path-13-inside-6_34_280" fill="white">
		<path d="M29.8332 21.7865C29.8591 22.3951 28.9268 22.5052 28.875 21.7865C28.9203 21.0614 29.8591 21.1779 29.8332 21.7865ZM29.8332 21.7865C29.8397 21.5987 29.5937 21.521 29.516 21.6311C29.4318 21.7412 29.5289 21.8059 29.5224 21.7865C29.5224 21.7671 29.4318 21.8318 29.516 21.9419C29.5937 22.052 29.8397 21.9743 29.8332 21.7865Z" />
	</mask>
	<path d="M29.8332 21.7865C29.8591 22.3951 28.9268 22.5052 28.875 21.7865C28.9203 21.0614 29.8591 21.1779 29.8332 21.7865ZM29.8332 21.7865C29.8397 21.5987 29.5937 21.521 29.516 21.6311C29.4318 21.7412 29.5289 21.8059 29.5224 21.7865C29.5224 21.7671 29.4318 21.8318 29.516 21.9419C29.5937 22.052 29.8397 21.9743 29.8332 21.7865Z" fill="#4A4A4A" />
	<path d="M29.8332 21.7865L28.8338 21.752L28.8326 21.7865L28.8338 21.821L29.8332 21.7865ZM28.875 21.7865L27.8769 21.7241L27.8728 21.7913L27.8776 21.8584L28.875 21.7865ZM29.516 21.6311L30.3103 22.2385L30.3219 22.2234L30.3329 22.2078L29.516 21.6311ZM29.5224 21.7865H28.5224V21.9488L28.5738 22.1027L29.5224 21.7865ZM29.516 21.9419L30.3329 21.3652L30.3219 21.3496L30.3103 21.3344L29.516 21.9419ZM29.8332 21.7865L28.8341 21.829C28.8289 21.7054 28.8784 21.5536 28.9942 21.4376C29.0958 21.3359 29.2171 21.2922 29.3251 21.2859C29.4367 21.2794 29.5792 21.3111 29.7029 21.4177C29.8376 21.5337 29.869 21.6673 29.8724 21.7146L28.875 21.7865L27.8776 21.8584C27.9069 22.265 28.0743 22.6544 28.3975 22.9329C28.7098 23.2019 29.0935 23.3028 29.4414 23.2825C30.1277 23.2426 30.8723 22.6846 30.8323 21.744L29.8332 21.7865ZM28.875 21.7865L29.8731 21.8489C29.8702 21.8941 29.8405 22.0309 29.7028 22.1503C29.5762 22.2602 29.4307 22.2913 29.3195 22.2845C29.212 22.2779 29.0929 22.2342 28.9933 22.1345C28.8795 22.0206 28.8288 21.8698 28.8341 21.744L29.8332 21.7865L30.8323 21.829C30.8724 20.887 30.125 20.3302 29.4421 20.2882C29.0938 20.2668 28.7067 20.3667 28.3921 20.6397C28.0665 20.9222 27.9024 21.3163 27.8769 21.7241L28.875 21.7865ZM29.8332 21.7865L30.8326 21.821C30.8534 21.2183 30.4519 20.8235 30.0886 20.6731C29.8037 20.5552 29.1229 20.4539 28.699 21.0544L29.516 21.6311L30.3329 22.2078C29.9867 22.6982 29.4678 22.5807 29.3237 22.5211C29.1012 22.429 28.8195 22.167 28.8338 21.752L29.8332 21.7865ZM29.516 21.6311L28.7216 21.0236C28.4778 21.3425 28.3964 21.7817 28.5852 22.1831C28.6598 22.3417 28.7737 22.484 28.9197 22.5914C28.9588 22.6201 29.0134 22.6561 29.0826 22.6895C29.1372 22.7159 29.2705 22.7752 29.4527 22.7876C29.6248 22.7993 30.1037 22.77 30.3828 22.2989C30.612 21.9122 30.4969 21.5475 30.4711 21.4703L29.5224 21.7865L28.5738 22.1027C28.5488 22.028 28.4337 21.665 28.6622 21.2794C28.9407 20.8094 29.4182 20.7806 29.5885 20.7922C29.7688 20.8045 29.8996 20.8631 29.9515 20.8881C30.0179 20.9201 30.0693 20.9542 30.1049 20.9804C30.2372 21.0777 30.3332 21.2005 30.3949 21.3316C30.5579 21.678 30.47 22.0297 30.3103 22.2385L29.516 21.6311ZM29.5224 21.7865H30.5224C30.5224 21.5929 30.4608 21.2783 30.1819 21.033C29.9171 20.8 29.6208 20.776 29.4642 20.7846C29.1816 20.8 28.9907 20.9295 28.9339 20.9695C28.7663 21.0874 28.6461 21.2457 28.5728 21.4119C28.3908 21.8243 28.494 22.2517 28.7216 22.5493L29.516 21.9419L30.3103 21.3344C30.4538 21.522 30.5602 21.862 30.4025 22.2193C30.3413 22.3581 30.2385 22.4969 30.0853 22.6048C30.0357 22.6397 29.8512 22.7664 29.5732 22.7816C29.4189 22.79 29.1245 22.7665 28.861 22.5347C28.5834 22.2905 28.5224 21.9776 28.5224 21.7865H29.5224ZM29.516 21.9419L28.699 22.5186C29.1228 23.119 29.8035 23.0178 30.0885 22.8999C30.4518 22.7496 30.8534 22.3548 30.8326 21.752L29.8332 21.7865L28.8338 21.821C28.8195 21.406 29.1013 21.1439 29.3238 21.0519C29.468 20.9922 29.9868 20.8749 30.3329 21.3652L29.516 21.9419Z" fill="#C5B39A" mask="url(#path-13-inside-6_34_280)" />
	<mask id="path-15-inside-7_34_280" fill="white">
		<path d="M31.9181 18.7567C31.9375 19.3912 30.9663 19.5077 30.9146 18.7567C30.9663 17.9991 31.9375 18.1222 31.9181 18.7567ZM31.9181 18.7567C31.9246 18.556 31.6721 18.4653 31.5814 18.5819C31.4843 18.6919 31.5685 18.7696 31.562 18.7567C31.562 18.7502 31.4778 18.8279 31.5814 18.938C31.6721 19.0545 31.931 18.9574 31.9181 18.7567Z" />
	</mask>
	<path d="M31.9181 18.7567C31.9375 19.3912 30.9663 19.5077 30.9146 18.7567C30.9663 17.9991 31.9375 18.1222 31.9181 18.7567ZM31.9181 18.7567C31.9246 18.556 31.6721 18.4653 31.5814 18.5819C31.4843 18.6919 31.5685 18.7696 31.562 18.7567C31.562 18.7502 31.4778 18.8279 31.5814 18.938C31.6721 19.0545 31.931 18.9574 31.9181 18.7567Z" fill="#4A4A4A" />
	<path d="M31.9181 18.7567L30.9186 18.7261L30.9176 18.7567L30.9186 18.7873L31.9181 18.7567ZM30.9146 18.7567L29.9169 18.6884L29.9122 18.757L29.9169 18.8255L30.9146 18.7567ZM31.5814 18.5819L32.3313 19.2435L32.3518 19.2203L32.3708 19.1958L31.5814 18.5819ZM31.562 18.7567H30.562V18.9927L30.6676 19.2039L31.562 18.7567ZM31.5814 18.938L32.3708 18.324L32.3419 18.2869L32.3096 18.2526L31.5814 18.938ZM31.9181 18.7567L30.9186 18.7873C30.915 18.6708 30.9634 18.5283 31.0725 18.42C31.1679 18.3253 31.2815 18.284 31.3841 18.278C31.4903 18.2717 31.629 18.3017 31.7501 18.4064C31.8818 18.5203 31.9095 18.6495 31.9122 18.6879L30.9146 18.7567L29.9169 18.8255C29.9455 19.2393 30.114 19.6356 30.4418 19.9191C30.7589 20.1933 31.1489 20.2953 31.5019 20.2745C32.1963 20.2335 32.9466 19.6726 32.9176 18.7261L31.9181 18.7567ZM30.9146 18.7567L31.9122 18.8249C31.9099 18.8592 31.8838 18.9882 31.7514 19.1031C31.6291 19.2092 31.4884 19.2394 31.3809 19.2327C31.2771 19.2263 31.1644 19.1841 31.0705 19.0904C30.9632 18.9833 30.915 18.8423 30.9186 18.7261L31.9181 18.7567L32.9176 18.7873C32.9465 17.8443 32.2008 17.2799 31.5052 17.2366C31.1508 17.2145 30.7588 17.3164 30.4405 17.5926C30.112 17.8777 29.9451 18.2754 29.9169 18.6884L30.9146 18.7567ZM31.9181 18.7567L32.9176 18.7889C32.9363 18.2092 32.5669 17.8052 32.1969 17.6386C31.8894 17.5 31.2298 17.4052 30.7921 17.9679L31.5814 18.5819L32.3708 19.1958C32.0238 19.642 31.5357 19.5343 31.3754 19.4621C31.1528 19.3617 30.9064 19.1034 30.9186 18.7244L31.9181 18.7567ZM31.5814 18.5819L30.8316 17.9203C30.5827 18.2023 30.4719 18.5847 30.569 18.9637C30.6097 19.1222 30.6807 19.2538 30.7582 19.3557C30.786 19.3923 30.8554 19.4798 30.9674 19.5624C30.9963 19.5836 31.0652 19.6326 31.1633 19.6752C31.2122 19.6964 31.3025 19.7313 31.4216 19.7482C31.5342 19.7641 31.7568 19.7758 32.0006 19.6568C32.2791 19.521 32.4461 19.2837 32.5173 19.0547C32.5784 18.8579 32.5635 18.6923 32.5518 18.6126C32.5286 18.4543 32.4721 18.3409 32.4564 18.3094L31.562 18.7567L30.6676 19.2039C30.6523 19.1733 30.5961 19.0605 30.5729 18.9026C30.5613 18.8231 30.5463 18.6577 30.6074 18.4611C30.6785 18.2322 30.8455 17.995 31.1238 17.8593C31.3675 17.7404 31.59 17.752 31.7024 17.768C31.8213 17.7848 31.9114 17.8196 31.96 17.8407C32.0576 17.8831 32.1259 17.9317 32.154 17.9524C32.263 18.0327 32.3277 18.1155 32.35 18.1449C32.4166 18.2325 32.4739 18.3401 32.5064 18.4671C32.5874 18.783 32.483 19.0715 32.3313 19.2435L31.5814 18.5819ZM31.562 18.7567H32.562C32.562 18.63 32.5372 18.4171 32.3947 18.2029C32.2395 17.9693 32.0148 17.8394 31.807 17.7868C31.478 17.7036 31.2193 17.8159 31.1843 17.8301C31.0405 17.8886 30.9455 17.9676 30.9246 17.9847C30.8505 18.0455 30.7965 18.1072 30.7599 18.1544C30.6815 18.2556 30.605 18.3918 30.5627 18.5612C30.4609 18.9689 30.6018 19.3562 30.8532 19.6233L31.5814 18.938L32.3096 18.2526C32.4575 18.4097 32.5887 18.7031 32.5031 19.046C32.4688 19.1831 32.4069 19.2942 32.341 19.3792C32.3108 19.4183 32.2625 19.4741 32.1925 19.5315C32.1738 19.5468 32.0805 19.6247 31.9379 19.6827C31.9034 19.6967 31.6452 19.8089 31.3165 19.7258C31.1089 19.6732 30.8843 19.5434 30.7291 19.31C30.5868 19.0958 30.562 18.8831 30.562 18.7567H31.562ZM31.5814 18.938L30.7921 19.5519C31.2435 20.1323 31.921 20.0083 32.2121 19.8722C32.5722 19.7038 32.9547 19.2919 32.916 18.6923L31.9181 18.7567L30.9202 18.821C30.8944 18.4221 31.1539 18.1591 31.3651 18.0604C31.5074 17.9939 32.01 17.8601 32.3708 18.324L31.5814 18.938Z" fill="#C5B39A" mask="url(#path-15-inside-7_34_280)" />
	<mask id="path-17-inside-8_34_280" fill="white">
		<path d="M14.8644 0C17.6419 0.958223 21.572 2.20779 24.2977 3.18543L24.4984 3.25664L24.4078 3.45091C22.7438 7.05072 20.9893 10.6052 19.0793 14.0885C18.1275 15.8301 17.1434 17.5588 16.0751 19.2357C15.091 20.6925 14.1522 22.2852 12.676 23.3146C7.71656 25.885 14.327 2.07184 14.8579 0.0064808C13.6083 5.80762 12.3523 11.6152 11.6466 17.507C11.4976 18.9573 11.3358 20.4334 11.4977 21.8773C11.543 22.2139 11.6466 22.7708 11.9185 22.9132C12.2228 22.965 12.6437 22.6024 12.8962 22.3758C13.9321 21.3593 14.7284 20.1097 15.5377 18.899C18.7167 13.9007 21.3907 8.58514 24.0517 3.29549L24.1617 3.56096C21.4683 2.54447 17.5837 1.07478 14.8579 0.0129616L14.8644 0Z" />
	</mask>
	<path d="M14.8644 0C17.6419 0.958223 21.572 2.20779 24.2977 3.18543L24.4984 3.25664L24.4078 3.45091C22.7438 7.05072 20.9893 10.6052 19.0793 14.0885C18.1275 15.8301 17.1434 17.5588 16.0751 19.2357C15.091 20.6925 14.1522 22.2852 12.676 23.3146C7.71656 25.885 14.327 2.07184 14.8579 0.0064808C13.6083 5.80762 12.3523 11.6152 11.6466 17.507C11.4976 18.9573 11.3358 20.4334 11.4977 21.8773C11.543 22.2139 11.6466 22.7708 11.9185 22.9132C12.2228 22.965 12.6437 22.6024 12.8962 22.3758C13.9321 21.3593 14.7284 20.1097 15.5377 18.899C18.7167 13.9007 21.3907 8.58514 24.0517 3.29549L24.1617 3.56096C21.4683 2.54447 17.5837 1.07478 14.8579 0.0129616L14.8644 0Z" fill="#4A4A4A" />
	<path d="M14.8644 0L15.1905 -0.945326L14.3619 -1.23117L13.97 -0.447214L14.8644 0ZM24.2977 3.18543L23.9601 4.12673L23.9633 4.12787L24.2977 3.18543ZM24.4984 3.25664L25.4046 3.67951L25.87 2.6822L24.8328 2.3142L24.4984 3.25664ZM24.4078 3.45091L23.5016 3.02804L23.5 3.03133L24.4078 3.45091ZM19.0793 14.0885L18.2024 13.6077L18.2018 13.6089L19.0793 14.0885ZM16.0751 19.2357L16.9037 19.7955L16.9113 19.7843L16.9185 19.773L16.0751 19.2357ZM12.676 23.3146L13.1362 24.2025L13.1943 24.1723L13.248 24.1349L12.676 23.3146ZM14.8579 0.0064808L15.8355 0.217053L13.8894 -0.242479L14.8579 0.0064808ZM11.6466 17.507L10.6536 17.3881L10.6526 17.3964L10.6518 17.4048L11.6466 17.507ZM11.4977 21.8773L10.5039 21.9887L10.5051 21.9997L10.5066 22.0107L11.4977 21.8773ZM11.9185 22.9132L11.4545 23.799L11.5947 23.8725L11.7507 23.899L11.9185 22.9132ZM12.8962 22.3758L13.5641 23.12L13.5806 23.1052L13.5965 23.0896L12.8962 22.3758ZM15.5377 18.899L16.3691 19.4547L16.3754 19.4453L16.3815 19.4357L15.5377 18.899ZM24.0517 3.29549L24.9754 2.91253L24.1394 0.895873L23.1583 2.84609L24.0517 3.29549ZM24.1617 3.56096L23.8086 4.49655L25.9703 5.31238L25.0855 3.17801L24.1617 3.56096ZM14.8579 0.0129616L13.9635 -0.434252L13.473 0.546675L14.4949 0.944758L14.8579 0.0129616ZM14.8644 0L14.5383 0.945326C17.3675 1.92137 21.2277 3.1467 23.9601 4.12672L24.2977 3.18543L24.6353 2.24415C21.9162 1.26888 17.9164 -0.00492139 15.1905 -0.945326L14.8644 0ZM24.2977 3.18543L23.9633 4.12787L24.164 4.19908L24.4984 3.25664L24.8328 2.3142L24.6321 2.24299L24.2977 3.18543ZM24.4984 3.25664L23.5922 2.83378L23.5016 3.02804L24.4078 3.45091L25.314 3.87377L25.4046 3.67951L24.4984 3.25664ZM24.4078 3.45091L23.5 3.03133C21.8431 6.616 20.0988 10.1492 18.2024 13.6077L19.0793 14.0885L19.9561 14.5693C21.8797 11.0612 23.6445 7.48545 25.3155 3.87049L24.4078 3.45091ZM19.0793 14.0885L18.2018 13.6089C17.255 15.3415 16.2829 17.0484 15.2317 18.6984L16.0751 19.2357L16.9185 19.773C18.0039 18.0693 19.0001 16.3187 19.9568 14.568L19.0793 14.0885ZM16.0751 19.2357L15.2465 18.6759C14.2046 20.2182 13.3873 21.5994 12.104 22.4944L12.676 23.3146L13.248 24.1349C14.9171 22.9709 15.9774 21.1667 16.9037 19.7955L16.0751 19.2357ZM12.676 23.3146L12.2159 22.4268C12.0124 22.5322 11.9667 22.5013 12.0263 22.5103C12.1192 22.5243 12.1581 22.5829 12.1373 22.5538C12.0323 22.4071 11.8836 21.9508 11.8493 21.0111C11.7843 19.2285 12.1422 16.524 12.6911 13.5824C13.7822 7.73495 15.5549 1.3119 15.8264 0.25544L14.8579 0.0064808L13.8894 -0.242479C13.6301 0.766418 11.8321 7.28262 10.725 13.2155C10.1749 16.164 9.77687 19.06 9.85067 21.084C9.8858 22.0476 10.0302 23.0461 10.5109 23.7178C10.7829 24.0979 11.1878 24.4065 11.7284 24.488C12.2358 24.5644 12.7197 24.4183 13.1362 24.2025L12.676 23.3146ZM14.8579 0.0064808L13.8803 -0.204091C12.6326 5.58856 11.3659 11.4421 10.6536 17.3881L11.6466 17.507L12.6395 17.6259C13.3387 11.7883 14.5841 6.02667 15.8355 0.217053L14.8579 0.0064808ZM11.6466 17.507L10.6518 17.4048C10.5056 18.8284 10.3278 20.4177 10.5039 21.9887L11.4977 21.8773L12.4914 21.7658C12.3438 20.4492 12.4897 19.0861 12.6413 17.6091L11.6466 17.507ZM11.4977 21.8773L10.5066 22.0107C10.5315 22.1959 10.5783 22.4925 10.6733 22.7808C10.721 22.9258 10.7912 23.101 10.8975 23.2704C11.0012 23.4354 11.1755 23.6529 11.4545 23.799L11.9185 22.9132L12.3825 22.0274C12.5255 22.1023 12.585 22.1968 12.5913 22.2068C12.6003 22.2212 12.5908 22.2094 12.5729 22.1553C12.5564 22.1052 12.54 22.0409 12.5249 21.9652C12.51 21.8907 12.4983 21.815 12.4887 21.7438L11.4977 21.8773ZM11.9185 22.9132L11.7507 23.899C12.3065 23.9936 12.7747 23.7142 12.9679 23.5898C13.2168 23.4297 13.4376 23.2336 13.5641 23.12L12.8962 22.3758L12.2283 21.6316C12.1685 21.6852 12.1087 21.7379 12.0474 21.7879C11.9855 21.8384 11.9312 21.8786 11.8856 21.908C11.8368 21.9394 11.8201 21.9439 11.833 21.9394C11.8416 21.9363 11.9382 21.9022 12.0863 21.9274L11.9185 22.9132ZM12.8962 22.3758L13.5965 23.0896C14.7233 21.9839 15.5831 20.6306 16.3691 19.4547L15.5377 18.899L14.7064 18.3433C13.8737 19.5889 13.1408 20.7347 12.1958 21.662L12.8962 22.3758ZM15.5377 18.899L16.3815 19.4357C19.592 14.3879 22.2878 9.0269 24.945 3.74489L24.0517 3.29549L23.1583 2.84609C20.4935 8.14338 17.8414 13.4135 14.6939 18.3623L15.5377 18.899ZM24.0517 3.29549L23.1279 3.67844L23.238 3.94392L24.1617 3.56096L25.0855 3.17801L24.9754 2.91253L24.0517 3.29549ZM24.1617 3.56096L24.5148 2.62538C21.8207 1.60859 17.9409 0.140744 15.2209 -0.918835L14.8579 0.0129616L14.4949 0.944758C17.2264 2.00881 21.116 3.48035 23.8086 4.49655L24.1617 3.56096ZM14.8579 0.0129616L15.7523 0.460175L15.7588 0.447214L14.8644 0L13.97 -0.447214L13.9635 -0.434252L14.8579 0.0129616Z" fill="#C5B39A" mask="url(#path-17-inside-8_34_280)" />
	<mask id="path-19-inside-9_34_280" fill="white">
		<path d="M12.3068 23.3663C10.5393 29.025 8.55813 34.6578 6.57694 40.2518C6.46687 40.6856 5.91006 40.9899 5.47627 40.8086C5.17844 40.705 4.95185 40.4202 4.91947 40.1094C4.88063 39.8439 5.01012 39.6238 5.08134 39.4036C7.03663 34.0298 9.14731 28.3064 11.3098 23.0103C9.72353 28.0798 7.83944 33.5119 6.06543 38.5166C6.00716 38.7303 5.55396 39.8763 5.55396 40.0317C5.56691 40.1094 5.61872 40.1741 5.68994 40.2C5.8259 40.2388 5.9295 40.1871 5.97482 40.0317C8.0078 34.4572 10.0667 28.8567 12.3004 23.3599L12.3068 23.3663Z" />
	</mask>
	<path d="M12.3068 23.3663C10.5393 29.025 8.55813 34.6578 6.57694 40.2518C6.46687 40.6856 5.91006 40.9899 5.47627 40.8086C5.17844 40.705 4.95185 40.4202 4.91947 40.1094C4.88063 39.8439 5.01012 39.6238 5.08134 39.4036C7.03663 34.0298 9.14731 28.3064 11.3098 23.0103C9.72353 28.0798 7.83944 33.5119 6.06543 38.5166C6.00716 38.7303 5.55396 39.8763 5.55396 40.0317C5.56691 40.1094 5.61872 40.1741 5.68994 40.2C5.8259 40.2388 5.9295 40.1871 5.97482 40.0317C8.0078 34.4572 10.0667 28.8567 12.3004 23.3599L12.3068 23.3663Z" fill="#4A4A4A" />
	<path d="M5.47627 40.8086L5.88546 40.5213L5.67179 40.217L5.2626 40.5043L4.85341 40.7917L5.06708 41.0959L5.47627 40.8086ZM5.68994 40.2L5.2807 40.4873L5.49433 40.7916L5.90357 40.5043L6.3128 40.217L6.09917 39.9127L5.68994 40.2ZM12.3068 23.3663L13.2614 23.6645L13.4424 23.085L13.0118 22.6571L12.3068 23.3663ZM6.57694 40.2518L5.63431 39.918L5.61896 39.9613L5.60765 40.0059L6.57694 40.2518ZM5.47627 40.8086L5.86186 39.8859L5.83366 39.8741L5.80479 39.8641L5.47627 40.8086ZM4.91947 40.1094L5.91409 40.0058L5.91194 39.9851L5.90893 39.9646L4.91947 40.1094ZM5.08134 39.4036L4.14161 39.0617L4.13544 39.0787L4.12989 39.0958L5.08134 39.4036ZM11.3098 23.0103L12.2642 23.3089L10.384 22.6322L11.3098 23.0103ZM6.06543 38.5166L5.12289 38.1825L5.11046 38.2176L5.10067 38.2535L6.06543 38.5166ZM5.55396 40.0317H4.55396V40.1145L4.56757 40.1961L5.55396 40.0317ZM5.68994 40.2L5.3482 41.1398L5.38132 41.1518L5.41522 41.1615L5.68994 40.2ZM5.97482 40.0317L5.03534 39.6891L5.02405 39.72L5.01482 39.7517L5.97482 40.0317ZM12.3004 23.3599L13.0053 22.6506L11.9396 21.5914L11.3739 22.9834L12.3004 23.3599ZM12.3068 23.3663L11.3523 23.0682C9.59111 28.7066 7.61586 34.323 5.63431 39.918L6.57694 40.2518L7.51957 40.5856C9.5004 34.9927 11.4875 29.3434 13.2614 23.6645L12.3068 23.3663ZM6.57694 40.2518L5.60765 40.0059C5.62278 39.9462 5.64793 39.9109 5.6609 39.8958C5.67363 39.8809 5.68274 39.8757 5.68699 39.8735C5.6913 39.8712 5.70461 39.8649 5.73071 39.8627C5.75855 39.8603 5.80603 39.8626 5.86186 39.8859L5.47627 40.8086L5.09068 41.7313C5.6374 41.9597 6.19829 41.8616 6.60901 41.6482C7.01587 41.4369 7.40745 41.0447 7.54622 40.4977L6.57694 40.2518ZM5.47627 40.8086L5.80479 39.8641C5.84826 39.8792 5.87019 39.9007 5.88069 39.9139C5.8911 39.9269 5.90883 39.9553 5.91409 40.0058L4.91947 40.1094L3.92485 40.213C3.9978 40.9133 4.48723 41.5233 5.14775 41.7531L5.47627 40.8086ZM4.91947 40.1094L5.90893 39.9646C5.91959 40.0374 5.90086 40.0783 5.91302 40.0397C5.92031 40.0165 5.93081 39.9881 5.95327 39.93C5.97194 39.8817 6.00461 39.7985 6.03278 39.7115L5.08134 39.4036L4.12989 39.0958C4.12245 39.1188 4.11223 39.1457 4.0878 39.2089C4.06717 39.2623 4.03436 39.3468 4.00524 39.4394C3.94456 39.6322 3.88051 39.9159 3.93001 40.2542L4.91947 40.1094ZM5.08134 39.4036L6.02106 39.7456C7.97618 34.3722 10.0811 28.6648 12.2356 23.3883L11.3098 23.0103L10.384 22.6322C8.21351 27.9479 6.09707 33.6874 4.14161 39.0617L5.08134 39.4036ZM11.3098 23.0103L10.3554 22.7116C8.77494 27.7627 6.89595 33.1805 5.12289 38.1825L6.06543 38.5166L7.00797 38.8507C8.78293 33.8433 10.6721 28.3969 12.2642 23.3089L11.3098 23.0103ZM6.06543 38.5166L5.10067 38.2535C5.10293 38.2452 5.09925 38.2588 5.08139 38.3106C5.06594 38.3554 5.04552 38.4126 5.02072 38.4811C4.95155 38.672 4.92946 38.7297 4.84771 38.9552C4.78701 39.1227 4.72392 39.2998 4.67527 39.4485C4.65124 39.5219 4.62698 39.5997 4.60769 39.6717C4.5996 39.7018 4.55396 39.8605 4.55396 40.0317H5.55396H6.55396C6.55396 40.1207 6.54051 40.1831 6.54034 40.184C6.53773 40.1973 6.53649 40.2007 6.53941 40.1898C6.54513 40.1685 6.55673 40.1296 6.5761 40.0704C6.61424 39.9539 6.6681 39.802 6.72797 39.6368C6.75751 39.5554 6.78759 39.4732 6.81705 39.3927C6.84627 39.3129 6.87511 39.2341 6.90114 39.1622C6.94598 39.0385 7.00238 38.8818 7.03019 38.7798L6.06543 38.5166ZM5.55396 40.0317L4.56757 40.1961C4.6359 40.6061 4.91612 40.9827 5.3482 41.1398L5.68994 40.2L6.03168 39.2602C6.32131 39.3655 6.49792 39.6127 6.54035 39.8673L5.55396 40.0317ZM5.68994 40.2L5.41522 41.1615C5.65625 41.2304 6.01054 41.2563 6.35927 41.0588C6.70435 40.8633 6.86535 40.5499 6.93482 40.3117L5.97482 40.0317L5.01482 39.7517C5.03896 39.6689 5.12551 39.4591 5.37347 39.3186C5.62507 39.1761 5.85959 39.2085 5.96466 39.2385L5.68994 40.2ZM5.97482 40.0317L6.91429 40.3743C8.94746 34.7993 11.0007 29.2144 13.2268 23.7364L12.3004 23.3599L11.3739 22.9834C9.13261 28.499 7.06814 34.1151 5.03534 39.6891L5.97482 40.0317ZM12.3004 23.3599L11.5954 24.0692L11.6019 24.0756L12.3068 23.3663L13.0118 22.6571L13.0053 22.6506L12.3004 23.3599Z" fill="#C5B39A" mask="url(#path-19-inside-9_34_280)" />
	<mask id="path-21-inside-10_34_280" fill="white">
		<path d="M6.54466 39.4101C8.2863 40.0317 10.3711 40.5885 11.5106 42.1618C11.9638 43.6768 9.13444 43.1589 8.35103 43.0294C6.35689 42.6344 4.44691 41.9546 2.63405 41.0417C1.72115 40.5173 0.795323 40.077 0.147875 39.177C-0.337711 38.3807 0.471585 37.9922 1.14493 38.0246C2.67938 38.031 4.14261 38.5296 5.54757 39.067C4.11023 38.7303 2.64052 38.3677 1.17081 38.4325C0.853565 38.4648 0.270866 38.5231 0.568692 38.9116C1.88301 40.2777 3.88363 40.951 5.63174 41.6244C7.23094 42.1553 8.90782 42.7121 10.5977 42.6474C10.8113 42.6344 11.0379 42.5567 11.0703 42.492C11.1351 42.4726 11.0509 42.2524 10.9149 42.0841C9.72364 40.8475 8.07912 40.1482 6.54466 39.4101Z" />
	</mask>
	<path d="M6.54466 39.4101C8.2863 40.0317 10.3711 40.5885 11.5106 42.1618C11.9638 43.6768 9.13444 43.1589 8.35103 43.0294C6.35689 42.6344 4.44691 41.9546 2.63405 41.0417C1.72115 40.5173 0.795323 40.077 0.147875 39.177C-0.337711 38.3807 0.471585 37.9922 1.14493 38.0246C2.67938 38.031 4.14261 38.5296 5.54757 39.067C4.11023 38.7303 2.64052 38.3677 1.17081 38.4325C0.853565 38.4648 0.270866 38.5231 0.568692 38.9116C1.88301 40.2777 3.88363 40.951 5.63174 41.6244C7.23094 42.1553 8.90782 42.7121 10.5977 42.6474C10.8113 42.6344 11.0379 42.5567 11.0703 42.492C11.1351 42.4726 11.0509 42.2524 10.9149 42.0841C9.72364 40.8475 8.07912 40.1482 6.54466 39.4101Z" fill="#4A4A4A" />
	<path d="M6.54466 39.4101L6.88078 38.4683L6.11119 40.3113L6.54466 39.4101ZM11.5106 42.1618L12.4686 41.8752L12.42 41.7126L12.3205 41.5752L11.5106 42.1618ZM8.35103 43.0294L8.15675 44.0103L8.17231 44.0134L8.18795 44.016L8.35103 43.0294ZM2.63405 41.0417L2.13593 41.9088L2.15975 41.9225L2.18429 41.9349L2.63405 41.0417ZM0.147875 39.177L-0.705921 39.6977L-0.686107 39.7302L-0.663881 39.761L0.147875 39.177ZM1.14493 38.0246L1.09691 39.0234L1.1188 39.0245L1.14071 39.0246L1.14493 38.0246ZM5.54757 39.067L5.31951 40.0406L5.90482 38.1329L5.54757 39.067ZM1.17081 38.4325L1.1268 37.4334L1.09799 37.4347L1.0693 37.4376L1.17081 38.4325ZM0.568692 38.9116L-0.224914 39.52L-0.190808 39.5645L-0.151944 39.6049L0.568692 38.9116ZM5.63174 41.6244L5.2723 42.5576L5.29429 42.566L5.31667 42.5735L5.63174 41.6244ZM10.5977 42.6474L10.6359 43.6466L10.6471 43.6462L10.6582 43.6455L10.5977 42.6474ZM11.0703 42.492L10.783 41.5342L10.3691 41.6583L10.1759 42.0448L11.0703 42.492ZM10.9149 42.0841L11.6929 41.4557L11.6654 41.4218L11.6351 41.3903L10.9149 42.0841ZM6.54466 39.4101L6.20855 40.3519C7.13638 40.6831 8.00522 40.948 8.82862 41.3343C9.63192 41.7113 10.2697 42.1533 10.7007 42.7484L11.5106 42.1618L12.3205 41.5752C11.612 40.597 10.6376 39.9739 9.67822 39.5238C8.73895 39.083 7.69458 38.7587 6.88078 38.4683L6.54466 39.4101ZM11.5106 42.1618L10.5525 42.4484C10.5716 42.5121 10.5459 42.4733 10.5721 42.3769C10.6019 42.2676 10.6684 42.1926 10.7132 42.1586C10.7481 42.132 10.6689 42.1945 10.3363 42.214C9.72255 42.2498 8.94106 42.1133 8.51411 42.0428L8.35103 43.0294L8.18795 44.016C8.54441 44.0749 9.56931 44.2622 10.4528 44.2106C10.8688 44.1863 11.4609 44.1023 11.9234 43.7508C12.1819 43.5544 12.4012 43.2723 12.502 42.9018C12.5993 42.5442 12.5629 42.1902 12.4686 41.8752L11.5106 42.1618ZM8.35103 43.0294L8.54531 42.0484C6.64694 41.6725 4.82254 41.0241 3.08382 40.1486L2.63405 41.0417L2.18429 41.9349C4.07128 42.8851 6.06684 43.5964 8.15675 44.0103L8.35103 43.0294ZM2.63405 41.0417L3.13218 40.1746C2.12384 39.5953 1.44874 39.2729 0.959631 38.5931L0.147875 39.177L-0.663881 39.761C0.141906 40.8811 1.31846 41.4392 2.13593 41.9088L2.63405 41.0417ZM0.147875 39.177L1.00167 38.6564C0.961065 38.5898 1.01342 38.6415 0.996708 38.778C0.988661 38.8437 0.966681 38.9054 0.936709 38.9569C0.907962 39.0063 0.877881 39.0363 0.860811 39.0508C0.832314 39.0751 0.836248 39.0611 0.899156 39.044C0.957123 39.0282 1.029 39.0202 1.09691 39.0234L1.14493 38.0246L1.19295 37.0257C0.700537 37.0021 0.0459963 37.117 -0.437205 37.5293C-0.702157 37.7553 -0.934295 38.0924 -0.98847 38.5349C-1.04139 38.9672 -0.908108 39.3661 -0.705921 39.6977L0.147875 39.177ZM1.14493 38.0246L1.14071 39.0246C2.47611 39.0302 3.78885 39.4649 5.19032 40.001L5.54757 39.067L5.90482 38.1329C4.49637 37.5942 2.88266 37.0319 1.14915 37.0246L1.14493 38.0246ZM5.54757 39.067L5.77563 38.0933C4.37588 37.7654 2.76182 37.3614 1.1268 37.4334L1.17081 38.4325L1.21482 39.4315C2.51923 39.374 3.84459 39.6951 5.31951 40.0406L5.54757 39.067ZM1.17081 38.4325L1.0693 37.4376C0.968175 37.448 0.555694 37.4783 0.226052 37.6278C0.0624456 37.702 -0.326034 37.9132 -0.46736 38.397C-0.616608 38.9078 -0.378573 39.3196 -0.224914 39.52L0.568692 38.9116L1.3623 38.3031C1.36704 38.3093 1.56623 38.5681 1.45239 38.9578C1.34647 39.3204 1.06765 39.4422 1.05215 39.4492C1.00927 39.4686 1.00296 39.4634 1.06865 39.4522C1.12503 39.4426 1.18804 39.4359 1.27233 39.4273L1.17081 38.4325ZM0.568692 38.9116L-0.151944 39.6049C1.35392 41.1701 3.62002 41.9211 5.2723 42.5576L5.63174 41.6244L5.99118 40.6912C4.14724 39.981 2.4121 39.3853 1.28933 38.2183L0.568692 38.9116ZM5.63174 41.6244L5.31667 42.5735C6.88084 43.0927 8.73319 43.7195 10.6359 43.6466L10.5977 42.6474L10.5594 41.6481C9.08244 41.7047 7.58103 41.2178 5.94682 40.6753L5.63174 41.6244ZM10.5977 42.6474L10.6582 43.6455C10.8543 43.6336 11.0503 43.5937 11.2182 43.5378C11.3012 43.5101 11.4042 43.4697 11.5076 43.4108C11.564 43.3787 11.8151 43.2384 11.9647 42.9392L11.0703 42.492L10.1759 42.0448C10.2529 41.8907 10.3514 41.7981 10.3977 41.7583C10.4504 41.713 10.4953 41.6857 10.5181 41.6727C10.5432 41.6584 10.5617 41.6501 10.5705 41.6464C10.58 41.6423 10.5853 41.6406 10.5858 41.6404C10.586 41.6403 10.5785 41.6427 10.5654 41.6453C10.5526 41.6478 10.5423 41.6489 10.5372 41.6492L10.5977 42.6474ZM11.0703 42.492L11.3577 43.4498C11.6855 43.3514 11.8985 43.1151 12.0024 42.8802C12.0909 42.68 12.0951 42.5001 12.0919 42.4088C12.0853 42.2222 12.0331 42.0683 12.0022 41.9875C11.9321 41.8036 11.822 41.6156 11.6929 41.4557L10.9149 42.0841L10.137 42.7124C10.1368 42.7122 10.1392 42.7153 10.1417 42.7196C10.1448 42.725 10.141 42.7196 10.1336 42.7003C10.1327 42.6979 10.0978 42.6132 10.0931 42.4787C10.0908 42.4134 10.0919 42.2552 10.1733 42.0713C10.2698 41.8529 10.4713 41.6277 10.783 41.5342L11.0703 42.492ZM10.9149 42.0841L11.6351 41.3903C10.288 39.9919 8.4346 39.2095 6.97814 38.509L6.54466 39.4101L6.11119 40.3113C7.72363 41.0869 9.15928 41.703 10.1948 42.7779L10.9149 42.0841Z" fill="#C5B39A" mask="url(#path-21-inside-10_34_280)" />
	<mask id="path-23-inside-11_34_280" fill="white">
		<path d="M12.4751 10.7023C15.0649 10.5534 17.6094 10.8448 20.0956 11.5829C17.5058 11.7318 14.9613 11.4404 12.4751 10.7023Z" />
	</mask>
	<path d="M12.4751 10.7023C15.0649 10.5534 17.6094 10.8448 20.0956 11.5829C17.5058 11.7318 14.9613 11.4404 12.4751 10.7023Z" fill="#4A4A4A" />
	<path d="M12.4751 10.7023L12.4177 9.70394L12.1905 11.6609L12.4751 10.7023ZM20.0956 11.5829L20.153 12.5812L20.3802 10.6242L20.0956 11.5829ZM12.4751 10.7023L12.5325 11.7006C15.0079 11.5583 17.4366 11.8366 19.811 12.5415L20.0956 11.5829L20.3802 10.6242C17.7821 9.8529 15.1219 9.54845 12.4177 9.70394L12.4751 10.7023ZM20.0956 11.5829L20.0382 10.5845C17.5627 10.7268 15.134 10.4485 12.7597 9.74365L12.4751 10.7023L12.1905 11.6609C14.7886 12.4322 17.4488 12.7367 20.153 12.5812L20.0956 11.5829Z" fill="#C5B39A" mask="url(#path-23-inside-11_34_280)" />
	<mask id="path-25-inside-12_34_280" fill="white">
		<path d="M14.9354 12.3337C14.5534 13.3891 12.9283 12.897 13.2909 11.7446C13.7441 10.618 15.3109 11.2784 14.9354 12.3337ZM14.9354 12.3337C15.1685 11.5762 14.1326 11.2913 13.8995 11.9647C13.6405 12.6057 14.6117 13.0848 14.9354 12.3337Z" />
	</mask>
	<path d="M14.9354 12.3337C14.5534 13.3891 12.9283 12.897 13.2909 11.7446C13.7441 10.618 15.3109 11.2784 14.9354 12.3337ZM14.9354 12.3337C15.1685 11.5762 14.1326 11.2913 13.8995 11.9647C13.6405 12.6057 14.6117 13.0848 14.9354 12.3337Z" fill="#4A4A4A" />
	<path d="M14.9354 12.3337L15.8757 12.6741L15.8775 12.669L14.9354 12.3337ZM13.2909 11.7446L12.3632 11.3714L12.3487 11.4074L12.337 11.4445L13.2909 11.7446ZM13.8995 11.9647L14.8267 12.3393L14.8362 12.3158L14.8445 12.2918L13.8995 11.9647ZM14.9354 12.3337L13.9951 11.9934C13.9909 12.005 13.9932 11.9933 14.012 11.9733C14.0307 11.9535 14.0544 11.9374 14.0787 11.9272C14.1225 11.9087 14.1457 11.9169 14.1479 11.9176C14.1512 11.9187 14.1846 11.9307 14.2137 11.9827C14.2289 12.0099 14.2363 12.0374 14.2381 12.0582C14.2398 12.0784 14.235 12.0758 14.2448 12.0447L13.2909 11.7446L12.337 11.4445C12.1712 11.9716 12.2149 12.5067 12.4686 12.9598C12.7124 13.3952 13.108 13.6803 13.52 13.8165C14.3447 14.0893 15.4672 13.8026 15.8757 12.6741L14.9354 12.3337ZM13.2909 11.7446L14.2186 12.1178C14.2313 12.0863 14.2371 12.0868 14.2232 12.1012C14.2087 12.116 14.1854 12.1328 14.1559 12.1444C14.0991 12.1666 14.0647 12.1542 14.0613 12.1529C14.0591 12.152 14.0367 12.1439 14.0152 12.1028C14.0032 12.08 13.9952 12.0528 13.9934 12.0257C13.9915 11.9983 13.9972 11.9876 13.9933 11.9985L14.9354 12.3337L15.8775 12.669C16.2796 11.539 15.5951 10.6036 14.7865 10.289C14.3817 10.1315 13.8942 10.0993 13.4279 10.2816C12.9428 10.4711 12.5696 10.8583 12.3632 11.3714L13.2909 11.7446ZM14.9354 12.3337L15.8912 12.6278C16.0198 12.2098 15.9941 11.7647 15.7794 11.3772C15.5732 11.005 15.2378 10.7678 14.8933 10.659C14.204 10.4415 13.2764 10.7078 12.9545 11.6376L13.8995 11.9647L14.8445 12.2918C14.8145 12.3785 14.7319 12.4863 14.5988 12.5455C14.484 12.5966 14.3749 12.5927 14.2913 12.5663C14.2057 12.5393 14.1001 12.4732 14.0299 12.3464C13.9512 12.2043 13.9675 12.079 13.9796 12.0397L14.9354 12.3337ZM13.8995 11.9647L12.9723 11.5901C12.5993 12.5133 13.1573 13.3166 13.8097 13.5923C14.1432 13.7333 14.5555 13.7709 14.9578 13.6171C15.3752 13.4574 15.6808 13.1307 15.8537 12.7296L14.9354 12.3337L14.0171 11.9379C14.0281 11.9123 14.0909 11.8073 14.2433 11.749C14.3805 11.6966 14.5055 11.7152 14.5882 11.7501C14.6678 11.7837 14.7522 11.8502 14.8067 11.9627C14.8703 12.0942 14.8675 12.2384 14.8267 12.3393L13.8995 11.9647Z" fill="#C5B39A" mask="url(#path-25-inside-12_34_280)" />
	<path d="M14.6953 14.95L14.8594 15.0222L14.6992 14.9783C14.6967 14.9685 14.696 14.959 14.6953 14.95ZM14.9473 14.9763C14.9483 14.9801 14.9506 14.983 14.9512 14.9861L14.7061 14.9167C14.7183 14.904 14.734 14.8921 14.7529 14.8826C14.7564 14.8808 14.7603 14.8801 14.7637 14.8787L14.9473 14.9763ZM14.8496 14.8708C14.8753 14.8781 14.9122 14.8988 14.9365 14.9421C14.9432 14.9541 14.9447 14.9655 14.9473 14.9744L14.7803 14.8738C14.8083 14.8655 14.8317 14.8658 14.8496 14.8708Z" fill="#4A4A4A" stroke="#C5B39A" />
	<path d="M17.6396 12.709C17.6388 12.712 17.6375 12.7148 17.6367 12.7178C17.6341 12.7277 17.6298 12.7371 17.6279 12.7471L17.8613 12.8018L17.7402 12.748M17.7402 12.748L17.6367 12.7178M17.7402 12.748L17.6572 12.7109M17.7402 12.748L17.6367 12.7178M17.6572 12.7109L17.6396 12.709M17.6572 12.7109L17.7578 12.7256L17.6689 12.6914M17.6572 12.7109L17.6416 12.7041M17.6396 12.709C17.6401 12.7073 17.6411 12.7058 17.6416 12.7041M17.6396 12.709H17.6377C17.6382 12.7073 17.6391 12.7058 17.6396 12.7041H17.6416M17.6689 12.6914L17.8145 12.7334L17.8711 12.7412L17.6621 12.6504C17.6567 12.6611 17.6529 12.6724 17.6484 12.6836L17.6689 12.6914ZM17.6689 12.6914L17.6475 12.6855V12.6865C17.6454 12.6924 17.6434 12.6982 17.6416 12.7041M17.877 12.9023C17.8221 12.9207 17.7704 12.9153 17.7324 12.8984C17.7172 12.8917 17.702 12.8805 17.6865 12.8672L17.877 12.9023ZM17.9434 12.8389H17.9404L17.9385 12.8369L17.9434 12.8389ZM17.877 12.8086L17.9316 12.834C17.9315 12.8356 17.9317 12.8372 17.9316 12.8389H17.6582C17.6461 12.8234 17.6345 12.8048 17.626 12.7832C17.6266 12.777 17.6261 12.7708 17.627 12.7646L17.877 12.8086ZM17.8389 12.5879C17.8799 12.5991 17.929 12.6297 17.9609 12.6865C17.9715 12.7054 17.9769 12.7227 17.9805 12.7373C17.9728 12.7414 17.9661 12.7466 17.96 12.7539L17.8887 12.7441L17.6738 12.6289C17.6778 12.622 17.6831 12.616 17.6875 12.6094L17.6895 12.6084C17.7464 12.5773 17.8004 12.5774 17.8389 12.5879ZM17.6387 12.7031L17.6367 12.709L17.6104 12.7051C17.6102 12.7001 17.6102 12.6952 17.6104 12.6904L17.6387 12.7031ZM17.6455 12.6826L17.6445 12.6846L17.6123 12.6748C17.6134 12.6733 17.6151 12.6723 17.6162 12.6709L17.6455 12.6826Z" fill="#4A4A4A" stroke="#C5B39A" />
	<mask id="path-29-inside-13_34_280" fill="white">
		<path d="M14.7218 17.5845C14.5405 18.1607 13.6276 17.96 13.8219 17.2607C14.1068 16.5939 14.9549 17.0277 14.7218 17.5845ZM14.7218 17.5845C14.793 17.4097 14.5924 17.2543 14.4758 17.332C14.3593 17.4032 14.4305 17.5003 14.4305 17.4809C14.4434 17.4615 14.3269 17.4938 14.3722 17.6233C14.411 17.7593 14.6635 17.7593 14.7218 17.5845Z" />
	</mask>
	<path d="M14.7218 17.5845C14.5405 18.1607 13.6276 17.96 13.8219 17.2607C14.1068 16.5939 14.9549 17.0277 14.7218 17.5845ZM14.7218 17.5845C14.793 17.4097 14.5924 17.2543 14.4758 17.332C14.3593 17.4032 14.4305 17.5003 14.4305 17.4809C14.4434 17.4615 14.3269 17.4938 14.3722 17.6233C14.411 17.7593 14.6635 17.7593 14.7218 17.5845Z" fill="#4A4A4A" />
	<path d="M14.7218 17.5845L13.7957 17.2072L13.7834 17.2373L13.7731 17.2682L14.7218 17.5845ZM13.8219 17.2607L12.9023 16.8679L12.8762 16.929L12.8584 16.9931L13.8219 17.2607ZM14.4758 17.332L14.9973 18.1853L15.0141 18.175L15.0305 18.164L14.4758 17.332ZM14.4305 17.4809L13.5984 16.9262L13.4305 17.1781V17.4809H14.4305ZM14.3722 17.6233L15.3337 17.3486L15.3257 17.3205L15.3161 17.293L14.3722 17.6233ZM14.7218 17.5845L13.7679 17.2844C13.8055 17.1647 13.9037 17.0407 14.0485 16.9719C14.1759 16.9115 14.3037 16.9099 14.4089 16.9403C14.518 16.9718 14.644 17.0509 14.7257 17.1955C14.814 17.3517 14.7968 17.4873 14.7854 17.5284L13.8219 17.2607L12.8584 16.9931C12.7498 17.3838 12.774 17.8068 12.9844 18.1793C13.1883 18.5401 13.5175 18.7644 13.8531 18.8615C14.5117 19.0521 15.3953 18.7758 15.6757 17.8846L14.7218 17.5845ZM13.8219 17.2607L14.7415 17.6536C14.7226 17.6979 14.6461 17.8193 14.4732 17.8855C14.315 17.9461 14.1681 17.9245 14.0685 17.8813C13.9721 17.8395 13.8754 17.7596 13.8151 17.6317C13.7458 17.4848 13.748 17.321 13.7994 17.1983L14.7218 17.5845L15.6442 17.9706C16.0128 17.0901 15.482 16.3141 14.8637 16.0462C14.5455 15.9083 14.1477 15.8685 13.7577 16.0179C13.3529 16.173 13.0636 16.4902 12.9023 16.8679L13.8219 17.2607ZM14.7218 17.5845L15.6479 17.9618C15.8717 17.4125 15.6453 16.9006 15.3435 16.6251C15.0933 16.3967 14.5041 16.1113 13.9211 16.4999L14.4758 17.332L15.0305 18.164C14.564 18.475 14.1334 18.2285 13.9949 18.102C13.8048 17.9284 13.6432 17.5816 13.7957 17.2072L14.7218 17.5845ZM14.4758 17.332L13.9544 16.4787C13.7984 16.574 13.6391 16.7198 13.531 16.9294C13.4221 17.1403 13.3952 17.3577 13.4149 17.5451C13.4331 17.7178 13.492 17.8809 13.5822 18.0201C13.6064 18.0574 13.6405 18.1047 13.6864 18.1549C13.7226 18.1945 13.8104 18.2856 13.9498 18.3614C14.0384 18.4096 14.509 18.6415 14.9955 18.3078C15.4316 18.0086 15.4305 17.5442 15.4305 17.4809H14.4305H13.4305C13.4305 17.42 13.4288 16.9572 13.8639 16.6586C14.3494 16.3256 14.8187 16.5573 14.9055 16.6046C15.0432 16.6795 15.129 16.7688 15.163 16.806C15.2066 16.8538 15.2383 16.898 15.2601 16.9316C15.3407 17.0558 15.389 17.1938 15.404 17.3358C15.4204 17.4924 15.3976 17.6734 15.3082 17.8467C15.2194 18.0186 15.095 18.1256 14.9973 18.1853L14.4758 17.332ZM14.4305 17.4809L15.2625 18.0356C15.3186 17.9514 15.479 17.6851 15.4182 17.3156C15.3435 16.8616 15.0106 16.6288 14.7915 16.5438C14.5997 16.4694 14.4346 16.4732 14.3636 16.4777C14.2764 16.4831 14.2044 16.4989 14.1537 16.513C13.9652 16.5652 13.8049 16.6664 13.6822 16.789C13.5466 16.9246 13.4326 17.111 13.3849 17.3402C13.3375 17.5685 13.3678 17.7807 13.4283 17.9537L14.3722 17.6233L15.3161 17.293C15.3539 17.4012 15.3818 17.5608 15.3431 17.7472C15.3041 17.9345 15.2099 18.0898 15.0962 18.2035C14.9954 18.3042 14.8589 18.393 14.6873 18.4405C14.6407 18.4534 14.5725 18.4685 14.4885 18.4738C14.4206 18.478 14.2581 18.4821 14.0682 18.4084C13.851 18.3242 13.5191 18.0926 13.4447 17.6402C13.3842 17.2723 13.5439 17.0079 13.5984 16.9262L14.4305 17.4809ZM14.3722 17.6233L13.4107 17.898C13.6093 18.5934 14.2688 18.74 14.6041 18.7184C14.9994 18.6929 15.4875 18.4498 15.6705 17.9007L14.7218 17.5845L13.7731 17.2682C13.8979 16.894 14.2306 16.7383 14.4753 16.7225C14.6601 16.7106 15.1739 16.7892 15.3337 17.3486L14.3722 17.6233Z" fill="#C5B39A" mask="url(#path-29-inside-13_34_280)" />
	<mask id="path-31-inside-14_34_280" fill="white">
		<path d="M17.7066 15.4416C17.5124 16.0502 16.5541 15.8301 16.7613 15.1049C17.0592 14.4121 17.9462 14.8589 17.7066 15.4416ZM17.7066 15.4416C17.7843 15.2603 17.5706 15.0855 17.4476 15.1632C17.3181 15.2344 17.3764 15.3315 17.3699 15.325C17.3699 15.325 17.2663 15.3639 17.3246 15.4998C17.3764 15.6358 17.6484 15.6358 17.7066 15.448V15.4416Z" />
	</mask>
	<path d="M17.7066 15.4416C17.5124 16.0502 16.5541 15.8301 16.7613 15.1049C17.0592 14.4121 17.9462 14.8589 17.7066 15.4416ZM17.7066 15.4416C17.7843 15.2603 17.5706 15.0855 17.4476 15.1632C17.3181 15.2344 17.3764 15.3315 17.3699 15.325C17.3699 15.325 17.2663 15.3639 17.3246 15.4998C17.3764 15.6358 17.6484 15.6358 17.7066 15.448V15.4416Z" fill="#4A4A4A" />
	<path d="M17.7066 15.4416L16.7817 15.0613L16.7663 15.0989L16.754 15.1375L17.7066 15.4416ZM16.7613 15.1049L15.8426 14.71L15.8174 14.7687L15.7998 14.8302L16.7613 15.1049ZM17.4476 15.1632L17.9295 16.0394L17.956 16.0248L17.9816 16.0087L17.4476 15.1632ZM17.3699 15.325L18.077 14.6179L17.6217 14.1626L17.0187 14.3887L17.3699 15.325ZM17.3246 15.4998L18.2591 15.1439L18.2518 15.1247L18.2438 15.1059L17.3246 15.4998ZM17.7066 15.448L18.6617 15.7444L18.7066 15.5996V15.448H17.7066ZM17.7066 15.4416L16.754 15.1375C16.7891 15.0275 16.882 14.9088 17.022 14.8429C17.1443 14.7853 17.2656 14.7848 17.3642 14.8136C17.4661 14.8434 17.5868 14.9184 17.6655 15.0581C17.7514 15.2104 17.7336 15.3422 17.7229 15.3796L16.7613 15.1049L15.7998 14.8302C15.6855 15.2302 15.7098 15.6614 15.9231 16.04C16.1293 16.4059 16.4628 16.6338 16.8027 16.7332C17.4724 16.929 18.3702 16.6513 18.6593 15.7456L17.7066 15.4416ZM16.7613 15.1049L17.68 15.4999C17.6634 15.5384 17.5914 15.6539 17.4259 15.7172C17.2754 15.7748 17.1363 15.7546 17.0424 15.7144C16.9517 15.6757 16.8588 15.6005 16.8 15.4777C16.732 15.3359 16.7338 15.1779 16.7817 15.0613L17.7066 15.4416L18.6315 15.8218C18.9995 14.9267 18.4571 14.1442 17.8286 13.8754C17.5056 13.7374 17.1039 13.6989 16.7108 13.8494C16.3028 14.0056 16.0081 14.325 15.8426 14.71L16.7613 15.1049ZM17.7066 15.4416L18.6258 15.8355C18.8677 15.2709 18.6259 14.7532 18.3445 14.4834C18.1185 14.2668 17.5281 13.9296 16.9136 14.3177L17.4476 15.1632L17.9816 16.0087C17.4901 16.3191 17.0681 16.0304 16.9603 15.9271C16.7971 15.7706 16.6232 15.4309 16.7875 15.0476L17.7066 15.4416ZM17.4476 15.1632L16.9657 14.2869C16.8206 14.3667 16.6702 14.4863 16.5531 14.6596C16.4335 14.8367 16.3784 15.026 16.3654 15.1985C16.3531 15.3629 16.3801 15.4955 16.4016 15.5747C16.4119 15.6125 16.4241 15.648 16.4206 15.6375C16.4204 15.6367 16.4156 15.6226 16.4103 15.6043C16.4102 15.6042 16.3864 15.5281 16.376 15.4305C16.3732 15.4034 16.3511 15.2266 16.4194 15.0163C16.4586 14.8956 16.5483 14.7001 16.7511 14.5402C16.9698 14.3676 17.2174 14.317 17.4176 14.3264C17.5961 14.3349 17.7297 14.3891 17.7973 14.4211C17.8709 14.4558 17.9253 14.4926 17.9568 14.5154C18.0184 14.56 18.061 14.6018 18.077 14.6179L17.3699 15.325L16.6628 16.0321C16.6791 16.0484 16.7218 16.0904 16.7836 16.1351C16.8151 16.158 16.8697 16.1948 16.9433 16.2296C17.0109 16.2615 17.1446 16.3158 17.3231 16.3242C17.5233 16.3337 17.771 16.283 17.9898 16.1104C18.1925 15.9505 18.2823 15.755 18.3215 15.6342C18.3899 15.4238 18.3678 15.2469 18.3649 15.2197C18.3545 15.1216 18.3305 15.045 18.3302 15.0441C18.3247 15.0251 18.3196 15.0101 18.319 15.0082C18.3141 14.9934 18.3239 15.0218 18.3316 15.0502C18.3481 15.1108 18.3698 15.2159 18.3599 15.348C18.3494 15.4881 18.3043 15.6402 18.2104 15.7792C18.119 15.9145 18.0099 15.9952 17.9295 16.0394L17.4476 15.1632ZM17.3699 15.325C17.0187 14.3887 17.0181 14.389 17.0175 14.3892C17.0173 14.3893 17.0167 14.3895 17.0163 14.3897C17.0154 14.39 17.0146 14.3903 17.0138 14.3906C17.0121 14.3912 17.0104 14.3919 17.0087 14.3925C17.0053 14.3938 17.0019 14.3952 16.9983 14.3966C16.9912 14.3995 16.9839 14.4025 16.9762 14.4058C16.9609 14.4123 16.9443 14.4198 16.9267 14.4284C16.8918 14.4455 16.8508 14.4678 16.8066 14.4968C16.7208 14.553 16.6053 14.6458 16.505 14.7897C16.2592 15.1424 16.2622 15.5595 16.4055 15.8938L17.3246 15.4998L18.2438 15.1059C18.2781 15.1862 18.3159 15.3165 18.3049 15.4817C18.2935 15.6532 18.2329 15.8083 18.1458 15.9332C18.0642 16.0504 17.9709 16.125 17.9027 16.1696C17.8674 16.1928 17.834 16.2111 17.8045 16.2255C17.7896 16.2328 17.7752 16.2393 17.7614 16.2452C17.7545 16.2482 17.7476 16.251 17.741 16.2536C17.7376 16.255 17.7343 16.2563 17.731 16.2576C17.7293 16.2582 17.7277 16.2588 17.726 16.2595C17.7252 16.2598 17.7244 16.2601 17.7236 16.2604C17.7232 16.2606 17.7226 16.2608 17.7224 16.2609C17.7218 16.2611 17.7211 16.2613 17.3699 15.325ZM17.3246 15.4998L16.3901 15.8558C16.6374 16.505 17.2749 16.6174 17.5922 16.5922C17.9791 16.5616 18.4834 16.3188 18.6617 15.7444L17.7066 15.448L16.7516 15.1516C16.8716 14.765 17.2108 14.6162 17.4342 14.5985C17.588 14.5863 18.0636 14.6307 18.2591 15.1439L17.3246 15.4998ZM17.7066 15.448H18.7066V15.4416H17.7066H16.7066V15.448H17.7066Z" fill="#C5B39A" mask="url(#path-31-inside-14_34_280)" />
	<mask id="path-33-inside-15_34_280" fill="white">
		<path d="M27.5735 8.55269C28.2922 8.31961 28.9007 8.52029 29.341 9.12889C28.6223 9.36197 28.0138 9.1613 27.5735 8.55269Z" />
	</mask>
	<path d="M27.5735 8.55269C28.2922 8.31961 28.9007 8.52029 29.341 9.12889C28.6223 9.36197 28.0138 9.1613 27.5735 8.55269Z" fill="#4A4A4A" />
	<path d="M27.5735 8.55269L27.265 7.60147L25.9578 8.02541L26.7633 9.13881L27.5735 8.55269ZM29.341 9.12889L29.6495 10.0801L30.9567 9.65617L30.1512 8.54277L29.341 9.12889ZM27.5735 8.55269L27.882 9.50392C28.0792 9.43995 28.1909 9.45605 28.2509 9.47565C28.311 9.4953 28.4102 9.54828 28.5308 9.71501L29.341 9.12889L30.1512 8.54277C29.8316 8.1009 29.4063 7.74924 28.8724 7.57468C28.3383 7.40006 27.7864 7.43236 27.265 7.60147L27.5735 8.55269ZM29.341 9.12889L29.0325 8.17767C28.8353 8.24164 28.7236 8.22554 28.6636 8.20594C28.6035 8.18629 28.5043 8.13331 28.3837 7.96657L27.5735 8.55269L26.7633 9.13881C27.0829 9.58068 27.5082 9.93234 28.0421 10.1069C28.5762 10.2815 29.1281 10.2492 29.6495 10.0801L29.341 9.12889Z" fill="#C5B39A" mask="url(#path-33-inside-15_34_280)" />
	<mask id="path-35-inside-16_34_280" fill="white">
		<path d="M28.752 7.95703C28.9851 8.6757 28.7843 9.28429 28.1757 9.73103C27.9427 9.01237 28.1434 8.40377 28.752 7.95703Z" />
	</mask>
	<path d="M28.752 7.95703C28.9851 8.6757 28.7843 9.28429 28.1757 9.73103C27.9427 9.01237 28.1434 8.40377 28.752 7.95703Z" fill="#4A4A4A" />
	<path d="M28.752 7.95703L29.7032 7.64853L29.2761 6.33178L28.1602 7.1509L28.752 7.95703ZM28.1757 9.73103L27.2245 10.0395L27.6516 11.3563L28.7675 10.5372L28.1757 9.73103ZM28.752 7.95703L27.8007 8.26554C27.8646 8.4624 27.8488 8.5745 27.8288 8.63598C27.8084 8.69827 27.7537 8.80031 27.584 8.9249L28.1757 9.73103L28.7675 10.5372C29.2063 10.215 29.5563 9.78939 29.7302 9.25603C29.9044 8.72186 29.8724 8.17033 29.7032 7.64853L28.752 7.95703ZM28.1757 9.73103L29.127 9.42253C29.0631 9.22566 29.0789 9.11356 29.0989 9.05209C29.1193 8.98979 29.174 8.88775 29.3437 8.76316L28.752 7.95703L28.1602 7.1509C27.7214 7.47305 27.3714 7.89868 27.1975 8.43203C27.0233 8.96621 27.0553 9.51774 27.2245 10.0395L28.1757 9.73103Z" fill="#C5B39A" mask="url(#path-35-inside-16_34_280)" />
	<mask id="path-37-inside-17_34_280" fill="white">
		<path d="M33.5364 11.8029C34.255 11.5698 34.8637 11.7706 35.3039 12.3792C34.5853 12.6123 33.9766 12.4115 33.5364 11.8029Z" />
	</mask>
	<path d="M33.5364 11.8029C34.255 11.5698 34.8637 11.7706 35.3039 12.3792C34.5853 12.6123 33.9766 12.4115 33.5364 11.8029Z" fill="#4A4A4A" />
	<path d="M33.5364 11.8029L33.2279 10.8517L31.9207 11.2757L32.7262 12.3891L33.5364 11.8029ZM35.3039 12.3792L35.6124 13.3304L36.9196 12.9064L36.1142 11.793L35.3039 12.3792ZM33.5364 11.8029L33.8449 12.7542C34.0421 12.6902 34.1538 12.7063 34.2138 12.7259C34.2739 12.7456 34.3731 12.7986 34.4937 12.9653L35.3039 12.3792L36.1142 11.793C35.7945 11.3512 35.3693 10.9995 34.8353 10.8249C34.3013 10.6503 33.7493 10.6826 33.2279 10.8517L33.5364 11.8029ZM35.3039 12.3792L34.9954 11.4279C34.7982 11.4919 34.6865 11.4758 34.6265 11.4562C34.5664 11.4365 34.4672 11.3835 34.3466 11.2168L33.5364 11.8029L32.7262 12.3891C33.0458 12.8309 33.4711 13.1826 34.005 13.3572C34.5391 13.5318 35.091 13.4995 35.6124 13.3304L35.3039 12.3792Z" fill="#C5B39A" mask="url(#path-37-inside-17_34_280)" />
	<mask id="path-39-inside-18_34_280" fill="white">
		<path d="M34.7148 11.2073C34.9479 11.9259 34.7472 12.5345 34.1386 12.9748C33.9056 12.2561 34.1062 11.6475 34.7148 11.2073Z" />
	</mask>
	<path d="M34.7148 11.2073C34.9479 11.9259 34.7472 12.5345 34.1386 12.9748C33.9056 12.2561 34.1062 11.6475 34.7148 11.2073Z" fill="#4A4A4A" />
	<path d="M34.7148 11.2073L35.6661 10.8988L35.2421 9.59161L34.1287 10.3971L34.7148 11.2073ZM34.1386 12.9748L33.1874 13.2833L33.6114 14.5905L34.7248 13.785L34.1386 12.9748ZM34.7148 11.2073L33.7636 11.5158C33.8276 11.713 33.8115 11.8247 33.7919 11.8847C33.7722 11.9448 33.7192 12.044 33.5525 12.1646L34.1386 12.9748L34.7248 13.785C35.1666 13.4654 35.5183 13.0401 35.6928 12.5062C35.8675 11.9721 35.8352 11.4202 35.6661 10.8988L34.7148 11.2073ZM34.1386 12.9748L35.0899 12.6663C35.0259 12.4691 35.042 12.3573 35.0616 12.2974C35.0812 12.2373 35.1342 12.1381 35.3009 12.0175L34.7148 11.2073L34.1287 10.3971C33.6868 10.7167 33.3352 11.1419 33.1606 11.6759C32.986 12.21 33.0183 12.7619 33.1874 13.2833L34.1386 12.9748Z" fill="#C5B39A" mask="url(#path-39-inside-18_34_280)" />
	<mask id="path-41-inside-19_34_280" fill="white">
		<path d="M30.9661 7.05715C31.9567 6.91472 32.8307 7.19959 33.5429 7.89883C32.5523 8.04774 31.6783 7.7564 30.9661 7.05715Z" />
	</mask>
	<path d="M30.9661 7.05715C31.9567 6.91472 32.8307 7.19959 33.5429 7.89883C32.5523 8.04774 31.6783 7.7564 30.9661 7.05715Z" fill="#4A4A4A" />
	<path d="M30.9661 7.05715L30.8237 6.06734L28.8235 6.35495L30.2655 7.77072L30.9661 7.05715ZM33.5429 7.89883L33.6916 8.88772L35.6739 8.58971L34.2435 7.18527L33.5429 7.89883ZM30.9661 7.05715L31.1084 8.04697C31.792 7.94867 32.3539 8.13284 32.8423 8.61239L33.5429 7.89883L34.2435 7.18527C33.3075 6.26633 32.1213 5.88076 30.8237 6.06734L30.9661 7.05715ZM33.5429 7.89883L33.3942 6.90994C32.7197 7.01134 32.1587 6.82669 31.6667 6.34359L30.9661 7.05715L30.2655 7.77072C31.1978 8.68611 32.3849 9.08415 33.6916 8.88772L33.5429 7.89883Z" fill="#C5B39A" mask="url(#path-41-inside-19_34_280)" />
	<mask id="path-43-inside-20_34_280" fill="white">
		<path d="M32.6755 6.1897C32.8179 7.18029 32.5331 8.05433 31.8338 8.76653C31.6849 7.77593 31.9763 6.90189 32.6755 6.1897Z" />
	</mask>
	<path d="M32.6755 6.1897C32.8179 7.18029 32.5331 8.05433 31.8338 8.76653C31.6849 7.77593 31.9763 6.90189 32.6755 6.1897Z" fill="#4A4A4A" />
	<path d="M32.6755 6.1897L33.6653 6.04737L33.3777 4.04712L31.9619 5.48911L32.6755 6.1897ZM31.8338 8.76653L30.8449 8.91518L31.143 10.8976L32.5474 9.46712L31.8338 8.76653ZM32.6755 6.1897L31.6857 6.33202C31.784 7.01565 31.5998 7.5775 31.1203 8.06594L31.8338 8.76653L32.5474 9.46712C33.4663 8.53117 33.8519 7.34493 33.6653 6.04737L32.6755 6.1897ZM31.8338 8.76653L32.8227 8.61787C32.7213 7.94337 32.906 7.38233 33.3891 6.89029L32.6755 6.1897L31.9619 5.48911C31.0466 6.42145 30.6485 7.6085 30.8449 8.91518L31.8338 8.76653Z" fill="#C5B39A" mask="url(#path-43-inside-20_34_280)" />
	<mask id="path-45-inside-21_34_280" fill="white">
		<path d="M13.4851 2.47334C14.2038 2.24026 14.8124 2.44098 15.2526 3.04958C14.534 3.28266 13.9254 3.08194 13.4851 2.47334Z" />
	</mask>
	<path d="M13.4851 2.47334C14.2038 2.24026 14.8124 2.44098 15.2526 3.04958C14.534 3.28266 13.9254 3.08194 13.4851 2.47334Z" fill="#4A4A4A" />
	<path d="M13.4851 2.47334L13.1766 1.52212L11.8694 1.94606L12.6749 3.05946L13.4851 2.47334ZM15.2526 3.04958L15.5611 4.0008L16.8683 3.57686L16.0629 2.46346L15.2526 3.04958ZM13.4851 2.47334L13.7936 3.42456C13.9908 3.3606 14.1025 3.37671 14.1625 3.39631C14.2226 3.41596 14.3218 3.46896 14.4424 3.6357L15.2526 3.04958L16.0629 2.46346C15.7432 2.0216 15.318 1.66994 14.7841 1.49535C14.25 1.32071 13.6981 1.353 13.1766 1.52212L13.4851 2.47334ZM15.2526 3.04958L14.9441 2.09836C14.7469 2.16232 14.6352 2.14622 14.5753 2.12661C14.5151 2.10696 14.416 2.05396 14.2953 1.88722L13.4851 2.47334L12.6749 3.05946C12.9945 3.50132 13.4198 3.85299 13.9537 4.02757C14.4878 4.20221 15.0397 4.16992 15.5611 4.0008L15.2526 3.04958Z" fill="#C5B39A" mask="url(#path-45-inside-21_34_280)" />
	<mask id="path-47-inside-22_34_280" fill="white">
		<path d="M14.6633 1.87744C14.8964 2.59611 14.6957 3.2047 14.0871 3.64496C13.854 2.92629 14.0547 2.31771 14.6633 1.87744Z" />
	</mask>
	<path d="M14.6633 1.87744C14.8964 2.59611 14.6957 3.2047 14.0871 3.64496C13.854 2.92629 14.0547 2.31771 14.6633 1.87744Z" fill="#4A4A4A" />
	<path d="M14.6633 1.87744L15.6146 1.56894L15.1906 0.261779L14.0772 1.06722L14.6633 1.87744ZM14.0871 3.64496L13.1359 3.95347L13.5598 5.26062L14.6732 4.45519L14.0871 3.64496ZM14.6633 1.87744L13.7121 2.18595C13.7761 2.38316 13.76 2.49486 13.7404 2.55481C13.7207 2.61492 13.6677 2.71411 13.501 2.83474L14.0871 3.64496L14.6732 4.45519C15.1151 4.13554 15.4668 3.71031 15.6413 3.1764C15.816 2.64231 15.7837 2.09039 15.6146 1.56894L14.6633 1.87744ZM14.0871 3.64496L15.0383 3.33646C14.9744 3.13924 14.9905 3.02754 15.0101 2.96759C15.0297 2.90748 15.0827 2.80829 15.2495 2.68767L14.6633 1.87744L14.0772 1.06722C13.6354 1.38686 13.2837 1.81209 13.1091 2.34601C12.9345 2.88009 12.9668 3.43202 13.1359 3.95347L14.0871 3.64496Z" fill="#C5B39A" mask="url(#path-47-inside-22_34_280)" />
	<mask id="path-49-inside-23_34_280" fill="white">
		<path d="M17.2598 0.925978C17.9784 0.692897 18.587 0.893615 19.0273 1.50222C18.3086 1.7353 17.7 1.53458 17.2598 0.925978Z" />
	</mask>
	<path d="M17.2598 0.925978C17.9784 0.692897 18.587 0.893615 19.0273 1.50222C18.3086 1.7353 17.7 1.53458 17.2598 0.925978Z" fill="#4A4A4A" />
	<path d="M17.2598 0.925978L16.9513 -0.025245L15.6441 0.398698L16.4495 1.5121L17.2598 0.925978ZM19.0273 1.50222L19.3358 2.45344L20.6429 2.0295L19.8375 0.916096L19.0273 1.50222ZM17.2598 0.925978L17.5683 1.8772C17.7655 1.81324 17.8772 1.82934 17.9371 1.84894C17.9972 1.8686 18.0964 1.92159 18.2171 2.08834L19.0273 1.50222L19.8375 0.916096C19.5179 0.474239 19.0926 0.122572 18.5587 -0.0520113C18.0246 -0.226649 17.4727 -0.194364 16.9513 -0.025245L17.2598 0.925978ZM19.0273 1.50222L18.7188 0.550993C18.5216 0.614955 18.4099 0.598852 18.3499 0.579251C18.2898 0.559595 18.1906 0.506602 18.07 0.339858L17.2598 0.925978L16.4495 1.5121C16.7692 1.95396 17.1944 2.30562 17.7283 2.48021C18.2624 2.65484 18.8143 2.62256 19.3358 2.45344L19.0273 1.50222Z" fill="#C5B39A" mask="url(#path-49-inside-23_34_280)" />
	<mask id="path-51-inside-24_34_280" fill="white">
		<path d="M18.4317 0.330322C18.6647 1.04899 18.464 1.65758 17.8554 2.09784C17.6223 1.37918 17.8231 0.770587 18.4317 0.330322Z" />
	</mask>
	<path d="M18.4317 0.330322C18.6647 1.04899 18.464 1.65758 17.8554 2.09784C17.6223 1.37918 17.8231 0.770587 18.4317 0.330322Z" fill="#4A4A4A" />
	<path d="M18.4317 0.330322L19.3829 0.0218175L18.9589 -1.28534L17.8455 -0.479902L18.4317 0.330322ZM17.8554 2.09784L16.9042 2.40635L17.3281 3.71351L18.4415 2.90807L17.8554 2.09784ZM18.4317 0.330322L17.4804 0.638827C17.5444 0.836043 17.5283 0.947745 17.5087 1.00769C17.489 1.0678 17.436 1.167 17.2693 1.28762L17.8554 2.09784L18.4415 2.90807C18.8834 2.58843 19.2351 2.16319 19.4096 1.62928C19.5843 1.09519 19.552 0.543268 19.3829 0.0218175L18.4317 0.330322ZM17.8554 2.09784L18.8066 1.78934C18.7427 1.59212 18.7588 1.48042 18.7784 1.42048C18.798 1.36036 18.851 1.26117 19.0178 1.14055L18.4317 0.330322L17.8455 -0.479902C17.4037 -0.160261 17.052 0.264972 16.8774 0.798888C16.7028 1.33297 16.7351 1.8849 16.9042 2.40635L17.8554 2.09784Z" fill="#C5B39A" mask="url(#path-51-inside-24_34_280)" />
	<mask id="path-53-inside-25_34_280" fill="white">
		<path d="M15.6538 4.48049C16.6444 4.33806 17.5185 4.62293 18.2307 5.32217C17.2401 5.47108 16.366 5.17974 15.6538 4.48049Z" />
	</mask>
	<path d="M15.6538 4.48049C16.6444 4.33806 17.5185 4.62293 18.2307 5.32217C17.2401 5.47108 16.366 5.17974 15.6538 4.48049Z" fill="#4A4A4A" />
	<path d="M15.6538 4.48049L15.5115 3.49067L13.5112 3.77829L14.9532 5.19406L15.6538 4.48049ZM18.2307 5.32217L18.3793 6.31106L20.3617 6.01305L18.9313 4.60861L18.2307 5.32217ZM15.6538 4.48049L15.7961 5.47031C16.4798 5.37201 17.0417 5.55619 17.5301 6.03573L18.2307 5.32217L18.9313 4.60861C17.9953 3.68966 16.809 3.3041 15.5115 3.49067L15.6538 4.48049ZM18.2307 5.32217L18.082 4.33328C17.4075 4.43468 16.8464 4.25002 16.3544 3.76693L15.6538 4.48049L14.9532 5.19406C15.8856 6.10946 17.0727 6.50749 18.3793 6.31106L18.2307 5.32217Z" fill="#C5B39A" mask="url(#path-53-inside-25_34_280)" />
	<mask id="path-55-inside-26_34_280" fill="white">
		<path d="M17.3569 3.61279C17.4993 4.60339 17.2145 5.47743 16.5152 6.18962C16.3663 5.19903 16.6577 4.32499 17.3569 3.61279Z" />
	</mask>
	<path d="M17.3569 3.61279C17.4993 4.60339 17.2145 5.47743 16.5152 6.18962C16.3663 5.19903 16.6577 4.32499 17.3569 3.61279Z" fill="#4A4A4A" />
	<path d="M17.3569 3.61279L18.3467 3.47047L18.0591 1.47022L16.6433 2.9122L17.3569 3.61279ZM16.5152 6.18962L15.5263 6.33828L15.8243 8.32067L17.2288 6.89021L16.5152 6.18962ZM17.3569 3.61279L16.3671 3.75512C16.4654 4.43875 16.2812 5.0006 15.8017 5.48903L16.5152 6.18962L17.2288 6.89021C18.1477 5.95426 18.5333 4.76803 18.3467 3.47047L17.3569 3.61279ZM16.5152 6.18962L17.5041 6.04097C17.4027 5.36646 17.5874 4.80543 18.0705 4.31338L17.3569 3.61279L16.6433 2.9122C15.7279 3.84455 15.3299 5.03159 15.5263 6.33828L16.5152 6.18962Z" fill="#C5B39A" mask="url(#path-55-inside-26_34_280)" />
</svg>
