<svg width="53" height="34" viewBox="0 0 53 34" fill="none" xmlns="http://www.w3.org/2000/svg">
<mask id="path-1-inside-1_113_9" fill="white">
<path d="M31.9839 19.0183C32.0396 22.4036 27.7941 24.2602 25.3433 21.8775C23.7218 20.4108 23.7218 17.6196 25.3433 16.1529C27.7941 13.7763 32.0458 15.633 31.9839 19.0183ZM31.9839 19.0183C31.823 14.2034 24.873 14.2405 24.7306 19.0183C24.873 23.8022 31.823 23.8332 31.9839 19.0183Z"/>
</mask>
<path d="M31.9839 19.0183C32.0396 22.4036 27.7941 24.2602 25.3433 21.8775C23.7218 20.4108 23.7218 17.6196 25.3433 16.1529C27.7941 13.7763 32.0458 15.633 31.9839 19.0183ZM31.9839 19.0183C31.823 14.2034 24.873 14.2405 24.7306 19.0183C24.873 23.8022 31.823 23.8332 31.9839 19.0183Z" fill="#4A4A4A"/>
<path d="M25.3433 21.8775L26.0404 21.1605L26.0275 21.148L26.0141 21.1359L25.3433 21.8775ZM25.3433 16.1529L26.0141 16.8945L26.027 16.8828L26.0394 16.8708L25.3433 16.1529ZM24.7306 19.0183L23.7311 18.9885L23.7302 19.0183L23.7311 19.048L24.7306 19.0183ZM31.9839 19.0183L30.9841 19.0347C31.0251 21.531 27.8495 22.9194 26.0404 21.1605L25.3433 21.8775L24.6462 22.5945C27.7387 25.601 33.0541 23.2761 32.9838 19.0018L31.9839 19.0183ZM25.3433 21.8775L26.0141 21.1359C24.8316 20.0662 24.8316 17.9642 26.0141 16.8945L25.3433 16.1529L24.6725 15.4113C22.6121 17.275 22.6121 20.7554 24.6725 22.6191L25.3433 21.8775ZM25.3433 16.1529L26.0394 16.8708C27.8508 15.1143 31.0296 16.5085 30.9841 19L31.9839 19.0183L32.9838 19.0366C33.062 14.7575 27.7373 12.4384 24.6472 15.435L25.3433 16.1529ZM31.9839 19.0183L32.9834 18.9849C32.7782 12.845 23.9109 12.9533 23.7311 18.9885L24.7306 19.0183L25.7302 19.0481C25.8351 15.5277 30.8679 15.5618 30.9845 19.0517L31.9839 19.0183ZM24.7306 19.0183L23.7311 19.048C23.9114 25.1086 32.7788 25.1724 32.9834 19.0517L31.9839 19.0183L30.9845 18.9849C30.8672 22.4939 25.8345 22.4959 25.7302 18.9885L24.7306 19.0183Z" fill="#C5B39A" mask="url(#path-1-inside-1_113_9)"/>
<mask id="path-3-inside-2_113_9" fill="white">
<path d="M44.9245 18.6654C44.9802 22.0445 40.7409 23.9012 38.284 21.5309C36.6625 20.0703 36.6563 17.273 38.2716 15.8124C40.7533 13.4173 44.9183 15.2925 44.9183 18.6716L44.9245 18.6654ZM44.9245 18.6654C44.677 13.8567 37.8631 13.8567 37.6713 18.6654C37.8198 23.4432 44.7698 23.4679 44.9245 18.6654Z"/>
</mask>
<path d="M44.9245 18.6654C44.9802 22.0445 40.7409 23.9012 38.284 21.5309C36.6625 20.0703 36.6563 17.273 38.2716 15.8124C40.7533 13.4173 44.9183 15.2925 44.9183 18.6716L44.9245 18.6654ZM44.9245 18.6654C44.677 13.8567 37.8631 13.8567 37.6713 18.6654C37.8198 23.4432 44.7698 23.4679 44.9245 18.6654Z" fill="#4A4A4A"/>
<path d="M44.9245 18.6654L45.9244 18.6489L45.9241 18.6315L45.9232 18.614L44.9245 18.6654ZM38.284 21.5309L38.9783 20.8112L38.9659 20.7993L38.9532 20.7878L38.284 21.5309ZM38.2716 15.8124L38.9423 16.5541L38.9543 16.5432L38.966 16.5319L38.2716 15.8124ZM44.9183 18.6716H43.9183V21.0858L45.6255 19.3787L44.9183 18.6716ZM37.6713 18.6654L36.6721 18.6256L36.6706 18.661L36.6717 18.6965L37.6713 18.6654ZM44.9245 18.6654L43.9247 18.6819C43.9657 21.1694 40.7956 22.5645 38.9783 20.8112L38.284 21.5309L37.5896 22.2505C40.6862 25.2379 45.9948 22.9196 45.9244 18.6489L44.9245 18.6654ZM38.284 21.5309L38.9532 20.7878C37.7703 19.7223 37.7684 17.6155 38.9423 16.5541L38.2716 15.8124L37.6009 15.0707C35.5441 16.9304 35.5546 20.4182 37.6147 22.2739L38.284 21.5309ZM38.2716 15.8124L38.966 16.5319C40.7855 14.776 43.9183 16.1367 43.9183 18.6716H44.9183H45.9183C45.9183 14.4483 40.7211 12.0586 37.5771 15.0928L38.2716 15.8124ZM44.9183 18.6716L45.6255 19.3787L45.6316 19.3725L44.9245 18.6654L44.2174 17.9583L44.2112 17.9645L44.9183 18.6716ZM44.9245 18.6654L45.9232 18.614C45.769 15.6179 43.5054 14.0589 41.277 14.0589C40.1757 14.0589 39.0533 14.4349 38.1827 15.2164C37.2988 16.0098 36.7301 17.1719 36.6721 18.6256L37.6713 18.6654L38.6705 18.7053C38.7084 17.7546 39.0633 17.1135 39.5187 16.7047C39.9874 16.284 40.62 16.0589 41.277 16.0589C42.5654 16.0589 43.8325 16.9042 43.9259 18.7168L44.9245 18.6654ZM37.6713 18.6654L36.6717 18.6965C36.8589 24.7158 45.7261 24.841 45.924 18.6976L44.9245 18.6654L43.9251 18.6332C43.8135 22.0949 38.7807 22.1706 38.6708 18.6344L37.6713 18.6654Z" fill="#C5B39A" mask="url(#path-3-inside-2_113_9)"/>
<mask id="path-5-inside-3_113_9" fill="white">
<path d="M30.0281 15.7072C29.8734 11.4803 29.8053 7.25946 29.762 3.0325V2.80971L29.9848 2.76638C34.4469 1.9247 40.5738 0.767413 44.9926 0C44.9741 5.80511 44.8875 11.6102 44.7142 17.4091C44.5409 11.7154 44.4542 6.02789 44.4357 0.334183L44.7636 0.612687C40.5243 1.42342 34.3974 2.53742 30.0838 3.29245L30.3004 3.0325C30.2571 7.25946 30.1828 11.4803 30.0343 15.7072H30.0281Z"/>
</mask>
<path d="M30.0281 15.7072C29.8734 11.4803 29.8053 7.25946 29.762 3.0325V2.80971L29.9848 2.76638C34.4469 1.9247 40.5738 0.767413 44.9926 0C44.9741 5.80511 44.8875 11.6102 44.7142 17.4091C44.5409 11.7154 44.4542 6.02789 44.4357 0.334183L44.7636 0.612687C40.5243 1.42342 34.3974 2.53742 30.0838 3.29245L30.3004 3.0325C30.2571 7.25946 30.1828 11.4803 30.0343 15.7072H30.0281Z" fill="#4A4A4A"/>
<path d="M30.0281 15.7072L29.0287 15.7438L29.064 16.7072H30.0281V15.7072ZM29.762 3.0325H28.7619L28.762 3.04275L29.762 3.0325ZM29.762 2.80971L29.5711 1.8281L28.762 1.98545V2.80971H29.762ZM29.9848 2.76638L29.7994 1.7837L29.7939 1.78477L29.9848 2.76638ZM44.9926 0L45.9926 0.00319828L45.9964 -1.1893L44.8215 -0.985252L44.9926 0ZM44.7142 17.4091L43.7146 17.4396L45.7137 17.439L44.7142 17.4091ZM44.4357 0.334183L45.0829 -0.428084L43.4286 -1.83283L43.4357 0.337443L44.4357 0.334183ZM44.7636 0.612687L44.9515 1.59489L47.0032 1.20251L45.4109 -0.14958L44.7636 0.612687ZM30.0838 3.29245L29.3155 2.65234L27.5697 4.74772L30.2562 4.27748L30.0838 3.29245ZM30.3004 3.0325L31.3003 3.04275L31.3291 0.23561L29.5321 2.39238L30.3004 3.0325ZM30.0343 15.7072V16.7072H30.9998L31.0337 15.7423L30.0343 15.7072ZM30.0281 15.7072L31.0274 15.6706C30.8732 11.4566 30.8052 7.24596 30.7619 3.02225L29.762 3.0325L28.762 3.04275C28.8054 7.27296 28.8736 11.5039 29.0287 15.7438L30.0281 15.7072ZM29.762 3.0325H30.762V2.80971H29.762H28.762V3.0325H29.762ZM29.762 2.80971L29.9529 3.79132L30.1756 3.74799L29.9848 2.76638L29.7939 1.78477L29.5711 1.8281L29.762 2.80971ZM29.9848 2.76638L30.1701 3.74905C34.6349 2.90687 40.7537 1.75114 45.1637 0.985252L44.9926 0L44.8215 -0.985252C40.3939 -0.216317 34.2588 0.942542 29.7994 1.78371L29.9848 2.76638ZM44.9926 0L43.9926 -0.00319828C43.9741 5.79413 43.8876 11.5903 43.7146 17.3793L44.7142 17.4091L45.7137 17.439C45.8873 11.6302 45.974 5.81609 45.9926 0.00319828L44.9926 0ZM44.7142 17.4091L45.7137 17.3787C45.5407 11.6951 45.4542 6.01668 45.4357 0.330922L44.4357 0.334183L43.4357 0.337443C43.4543 6.03911 43.541 11.7358 43.7146 17.4396L44.7142 17.4091ZM44.4357 0.334183L43.7884 1.09645L44.1164 1.37495L44.7636 0.612687L45.4109 -0.14958L45.0829 -0.428084L44.4357 0.334183ZM44.7636 0.612687L44.5758 -0.369513C40.3426 0.440057 34.2209 1.55311 29.9114 2.30743L30.0838 3.29245L30.2562 4.27748C34.5739 3.52173 40.7061 2.40679 44.9515 1.59489L44.7636 0.612687ZM30.0838 3.29245L30.8521 3.93257L31.0687 3.67262L30.3004 3.0325L29.5321 2.39238L29.3155 2.65234L30.0838 3.29245ZM30.3004 3.0325L29.3004 3.02225C29.2572 7.24466 29.183 11.4565 29.0349 15.6721L30.0343 15.7072L31.0337 15.7423C31.1826 11.504 31.257 7.27426 31.3003 3.04275L30.3004 3.0325ZM30.0343 15.7072V14.7072H30.0281V15.7072V16.7072H30.0343V15.7072Z" fill="#C5B39A" mask="url(#path-5-inside-3_113_9)"/>
<mask id="path-7-inside-4_113_9" fill="white">
<path d="M31.7176 17.6196C31.5567 13.5411 31.4701 9.45652 31.4453 5.3719L31.6557 5.32238L37.2937 3.94229L42.9503 2.63026L43.2907 2.5498C43.2721 6.78296 43.1855 11.0099 43.0184 15.2431C42.8575 11.1275 42.7709 7.01194 42.7461 2.89638L43.0865 3.16249L37.4484 4.54259L31.7919 5.85465L32.0023 5.5885C31.9713 9.59885 31.8909 13.6092 31.73 17.6196H31.7176Z"/>
</mask>
<path d="M31.7176 17.6196C31.5567 13.5411 31.4701 9.45652 31.4453 5.3719L31.6557 5.32238L37.2937 3.94229L42.9503 2.63026L43.2907 2.5498C43.2721 6.78296 43.1855 11.0099 43.0184 15.2431C42.8575 11.1275 42.7709 7.01194 42.7461 2.89638L43.0865 3.16249L37.4484 4.54259L31.7919 5.85465L32.0023 5.5885C31.9713 9.59885 31.8909 13.6092 31.73 17.6196H31.7176Z" fill="#4A4A4A"/>
<path d="M31.7176 17.6196L30.7184 17.659L30.7563 18.6196H31.7176V17.6196ZM31.4453 5.3719L31.2162 4.3985L30.4405 4.58108L30.4453 5.37796L31.4453 5.3719ZM31.6557 5.32238L31.8848 6.29582L31.8935 6.29371L31.6557 5.32238ZM37.2937 3.94229L37.0677 2.96808L37.0559 2.97097L37.2937 3.94229ZM42.9503 2.63026L43.1763 3.60441L43.1803 3.60344L42.9503 2.63026ZM43.2907 2.5498L44.2907 2.55419L44.2962 1.28456L43.0606 1.57662L43.2907 2.5498ZM43.0184 15.2431L42.0191 15.2821L44.0176 15.2825L43.0184 15.2431ZM42.7461 2.89638L43.362 2.10857L41.7337 0.8355L41.7461 2.90239L42.7461 2.89638ZM43.0865 3.16249L43.3242 4.13381L45.3258 3.64387L43.7024 2.37469L43.0865 3.16249ZM37.4484 4.54259L37.6744 5.51679L37.6862 5.51391L37.4484 4.54259ZM31.7919 5.85465L31.0074 5.2345L29.2372 7.47377L32.0178 6.82879L31.7919 5.85465ZM32.0023 5.5885L33.0023 5.59621L33.0247 2.68259L31.2178 4.96835L32.0023 5.5885ZM31.73 17.6196V18.6196H32.6907L32.7292 17.6596L31.73 17.6196ZM31.7176 17.6196L32.7168 17.5801C32.5564 13.5138 32.47 9.44039 32.4453 5.36584L31.4453 5.3719L30.4453 5.37796C30.4701 9.47265 30.557 13.5684 30.7184 17.659L31.7176 17.6196ZM31.4453 5.3719L31.6744 6.3453L31.8848 6.29578L31.6557 5.32238L31.4266 4.34898L31.2162 4.3985L31.4453 5.3719ZM31.6557 5.32238L31.8935 6.29371L37.5315 4.91361L37.2937 3.94229L37.0559 2.97097L31.4179 4.35106L31.6557 5.32238ZM37.2937 3.94229L37.5197 4.91643L43.1762 3.6044L42.9503 2.63026L42.7244 1.65612L37.0678 2.96815L37.2937 3.94229ZM42.9503 2.63026L43.1803 3.60344L43.5207 3.52299L43.2907 2.5498L43.0606 1.57662L42.7203 1.65708L42.9503 2.63026ZM43.2907 2.5498L42.2907 2.54542C42.2722 6.76784 42.1857 10.9831 42.0191 15.2036L43.0184 15.2431L44.0176 15.2825C44.1852 11.0368 44.2721 6.79807 44.2907 2.55419L43.2907 2.5498ZM43.0184 15.2431L44.0176 15.204C43.8572 11.1004 43.7708 6.99593 43.7461 2.89036L42.7461 2.89638L41.7461 2.90239C41.7709 7.02795 41.8578 11.1546 42.0191 15.2821L43.0184 15.2431ZM42.7461 2.89638L42.1302 3.68418L42.4706 3.9503L43.0865 3.16249L43.7024 2.37469L43.362 2.10857L42.7461 2.89638ZM43.0865 3.16249L42.8487 2.19117L37.2107 3.57126L37.4484 4.54259L37.6862 5.51391L43.3242 4.13381L43.0865 3.16249ZM37.4484 4.54259L37.2225 3.56845L31.5659 4.88051L31.7919 5.85465L32.0178 6.82879L37.6744 5.51672L37.4484 4.54259ZM31.7919 5.85465L32.5764 6.4748L32.7868 6.20865L32.0023 5.5885L31.2178 4.96835L31.0074 5.2345L31.7919 5.85465ZM32.0023 5.5885L31.0023 5.58078C30.9714 9.58305 30.8912 13.5823 30.7308 17.5795L31.73 17.6196L32.7292 17.6596C32.8906 13.6361 32.9712 9.61465 33.0023 5.59621L32.0023 5.5885ZM31.73 17.6196V16.6196H31.7176V17.6196V18.6196H31.73V17.6196Z" fill="#C5B39A" mask="url(#path-7-inside-4_113_9)"/>
<mask id="path-9-inside-5_113_9" fill="white">
<path d="M11.8821 10.7068C13.0518 15.6269 13.813 20.6151 14.141 25.659C12.9651 20.7389 12.2163 15.7507 11.8821 10.7068Z"/>
</mask>
<path d="M11.8821 10.7068C13.0518 15.6269 13.813 20.6151 14.141 25.659C12.9651 20.7389 12.2163 15.7507 11.8821 10.7068Z" fill="#4A4A4A"/>
<path d="M11.8821 10.7068L12.855 10.4755L10.8843 10.7729L11.8821 10.7068ZM14.141 25.659L13.1684 25.8914L15.1389 25.5941L14.141 25.659ZM11.8821 10.7068L10.9092 10.9381C12.0662 15.805 12.8189 20.7376 13.1431 25.7239L14.141 25.659L15.1389 25.5941C14.8072 20.4926 14.0373 15.4488 12.855 10.4755L11.8821 10.7068ZM14.141 25.659L15.1136 25.4265C13.951 20.5619 13.2104 15.6294 12.8799 10.6407L11.8821 10.7068L10.8843 10.7729C11.2221 15.8719 11.9793 20.9158 13.1684 25.8914L14.141 25.659Z" fill="#C5B39A" mask="url(#path-9-inside-5_113_9)"/>
<mask id="path-11-inside-6_113_9" fill="white">
<path d="M16.6784 28.2892C15.5954 22.9235 14.5804 17.5454 13.6273 12.1487C14.5557 12.4025 15.2117 13.077 15.7625 13.8011C16.2019 14.3829 16.6042 14.9708 16.9446 15.6206L16.6289 15.4659L17.8481 15.2927L17.6067 15.6206C17.2973 12.5572 15.0631 10.323 11.8821 10.7067C15.3973 9.8341 17.9038 12.4582 18.2256 15.8187C18.0523 15.8435 16.926 16.0291 16.7217 16.0601L16.5175 16.091C15.8058 14.9275 15.1127 13.4793 13.8811 12.8171L14.24 12.52C15.1065 17.7682 15.9296 23.0225 16.6784 28.283V28.2892Z"/>
</mask>
<path d="M16.6784 28.2892C15.5954 22.9235 14.5804 17.5454 13.6273 12.1487C14.5557 12.4025 15.2117 13.077 15.7625 13.8011C16.2019 14.3829 16.6042 14.9708 16.9446 15.6206L16.6289 15.4659L17.8481 15.2927L17.6067 15.6206C17.2973 12.5572 15.0631 10.323 11.8821 10.7067C15.3973 9.8341 17.9038 12.4582 18.2256 15.8187C18.0523 15.8435 16.926 16.0291 16.7217 16.0601L16.5175 16.091C15.8058 14.9275 15.1127 13.4793 13.8811 12.8171L14.24 12.52C15.1065 17.7682 15.9296 23.0225 16.6784 28.283V28.2892Z" fill="#4A4A4A"/>
<path d="M16.6784 28.2892L15.6982 28.487L17.6784 28.2892H16.6784ZM13.6273 12.1487L13.891 11.1841L12.368 10.7678L12.6426 12.3226L13.6273 12.1487ZM15.7625 13.8011L16.5604 13.1984L16.5584 13.1957L15.7625 13.8011ZM16.9446 15.6206L16.5044 16.5186L19.2483 17.8636L17.8304 15.1566L16.9446 15.6206ZM16.6289 15.4659L16.4882 14.4759L13.2702 14.9332L16.1888 16.3639L16.6289 15.4659ZM17.8481 15.2927L18.6535 15.8854L20.0649 13.9676L17.7074 14.3026L17.8481 15.2927ZM17.6067 15.6206L16.6118 15.7211L16.8728 18.3051L18.4121 16.2134L17.6067 15.6206ZM11.8821 10.7067L11.6412 9.73618L12.0018 11.6995L11.8821 10.7067ZM18.2256 15.8187L18.367 16.8086L19.3121 16.6736L19.2211 15.7234L18.2256 15.8187ZM16.7217 16.0601L16.8715 17.0488L16.8715 17.0488L16.7217 16.0601ZM16.5175 16.091L15.6645 16.6128L16.0109 17.1792L16.6673 17.0797L16.5175 16.091ZM13.8811 12.8171L13.2435 12.0468L12.0988 12.9942L13.4075 13.6979L13.8811 12.8171ZM14.24 12.52L15.2267 12.3572L14.9432 10.6399L13.6024 11.7497L14.24 12.52ZM16.6784 28.283H17.6784V28.2122L17.6684 28.142L16.6784 28.283ZM16.6784 28.2892L17.6586 28.0913C16.5773 22.7339 15.5638 17.3638 14.6121 11.9748L13.6273 12.1487L12.6426 12.3226C13.597 17.727 14.6135 23.1131 15.6982 28.487L16.6784 28.2892ZM13.6273 12.1487L13.3637 13.1133C13.9631 13.2772 14.4498 13.7272 14.9666 14.4066L15.7625 13.8011L16.5584 13.1957C15.9736 12.4269 15.1482 11.5277 13.891 11.1841L13.6273 12.1487ZM15.7625 13.8011L14.9645 14.4038C15.3863 14.9623 15.7534 15.5018 16.0587 16.0847L16.9446 15.6206L17.8304 15.1566C17.4549 14.4399 17.0174 13.8034 16.5604 13.1984L15.7625 13.8011ZM16.9446 15.6206L17.3847 14.7227L17.0691 14.568L16.6289 15.4659L16.1888 16.3639L16.5044 16.5186L16.9446 15.6206ZM16.6289 15.4659L16.7696 16.456L17.9888 16.2827L17.8481 15.2927L17.7074 14.3026L16.4882 14.4759L16.6289 15.4659ZM17.8481 15.2927L17.0427 14.6999L16.8013 15.0279L17.6067 15.6206L18.4121 16.2134L18.6535 15.8854L17.8481 15.2927ZM17.6067 15.6206L18.6017 15.5202C18.4256 13.7768 17.6948 12.2096 16.4895 11.127C15.2718 10.0334 13.6278 9.4889 11.7623 9.71392L11.8821 10.7067L12.0018 11.6995C13.3174 11.5408 14.381 11.9216 15.1531 12.615C15.9374 13.3194 16.4785 14.401 16.6118 15.7211L17.6067 15.6206ZM11.8821 10.7067L12.123 11.6773C13.5671 11.3188 14.736 11.6788 15.5933 12.4282C16.4759 13.1997 17.0893 14.4433 17.2302 15.914L18.2256 15.8187L19.2211 15.7234C19.0401 13.8336 18.2394 12.0849 16.9095 10.9224C15.5543 9.73775 13.7123 9.22204 11.6412 9.73618L11.8821 10.7067ZM18.2256 15.8187L18.0842 14.8287C17.9228 14.8518 16.7252 15.0481 16.5719 15.0714L16.7217 16.0601L16.8715 17.0488C17.1267 17.0101 18.1819 16.8351 18.367 16.8086L18.2256 15.8187ZM16.7217 16.0601L16.5719 15.0714L16.3677 15.1023L16.5175 16.091L16.6673 17.0797L16.8715 17.0488L16.7217 16.0601ZM16.5175 16.091L17.3706 15.5692C17.056 15.0548 16.651 14.3131 16.2115 13.6898C15.7553 13.0428 15.1665 12.3729 14.3547 11.9364L13.8811 12.8171L13.4075 13.6979C13.8272 13.9236 14.2008 14.3089 14.577 14.8424C14.9699 15.3996 15.2674 15.9637 15.6645 16.6128L16.5175 16.091ZM13.8811 12.8171L14.5187 13.5875L14.8776 13.2904L14.24 12.52L13.6024 11.7497L13.2435 12.0468L13.8811 12.8171ZM14.24 12.52L13.2534 12.6829C14.1189 17.9258 14.9408 23.1725 15.6884 28.4239L16.6784 28.283L17.6684 28.142C16.9183 22.8724 16.094 17.6106 15.2267 12.3572L14.24 12.52ZM16.6784 28.283H15.6784V28.2892H16.6784H17.6784V28.283H16.6784Z" fill="#C5B39A" mask="url(#path-11-inside-6_113_9)"/>
<mask id="path-13-inside-7_113_9" fill="white">
<path d="M16.8275 29.0071C17.4463 32.6894 13.1142 35.4125 10.0507 33.2093C8.0579 31.8787 7.59373 28.8462 9.10999 26.9895C11.3875 23.9818 16.3324 25.3062 16.8275 29.0071ZM16.8275 29.0071C16.3385 25.4423 11.5236 24.3407 9.53702 27.3052C8.31163 29.0009 8.68916 31.5259 10.3601 32.7823C13.1327 35.0288 17.4092 32.5533 16.8213 29.0071H16.8275Z"/>
</mask>
<path d="M16.8275 29.0071C17.4463 32.6894 13.1142 35.4125 10.0507 33.2093C8.0579 31.8787 7.59373 28.8462 9.10999 26.9895C11.3875 23.9818 16.3324 25.3062 16.8275 29.0071ZM16.8275 29.0071C16.3385 25.4423 11.5236 24.3407 9.53702 27.3052C8.31163 29.0009 8.68916 31.5259 10.3601 32.7823C13.1327 35.0288 17.4092 32.5533 16.8213 29.0071H16.8275Z" fill="#4A4A4A"/>
<path d="M10.0507 33.2093L10.6346 32.3975L10.6205 32.3873L10.606 32.3776L10.0507 33.2093ZM9.10999 26.9895L9.88452 27.6221L9.89613 27.6079L9.90722 27.5932L9.10999 26.9895ZM9.53702 27.3052L10.3475 27.8909L10.3579 27.8766L10.3677 27.8619L9.53702 27.3052ZM10.3601 32.7823L10.9897 32.0053L10.9756 31.9939L10.9611 31.983L10.3601 32.7823ZM16.8213 29.0071V28.0071H15.6418L15.8347 29.1707L16.8213 29.0071ZM16.8275 29.0071L15.8413 29.1728C16.3125 31.9763 12.9714 34.0781 10.6346 32.3975L10.0507 33.2093L9.46682 34.0211C13.2569 36.7469 18.5802 33.4026 17.8136 28.8414L16.8275 29.0071ZM10.0507 33.2093L10.606 32.3776C9.10063 31.3725 8.74416 29.0184 9.88452 27.6221L9.10999 26.9895L8.33545 26.357C6.44329 28.6739 7.01517 32.3849 9.4954 34.0409L10.0507 33.2093ZM9.10999 26.9895L9.90722 27.5932C11.6446 25.2987 15.4594 26.3222 15.8363 29.1397L16.8275 29.0071L17.8186 28.8745C17.2053 24.2902 11.1303 22.6648 8.31275 26.3859L9.10999 26.9895ZM16.8275 29.0071L17.8182 28.8712C17.2046 24.3975 11.2059 23.0186 8.7063 26.7485L9.53702 27.3052L10.3677 27.8619C11.8414 25.6629 15.4725 26.4872 15.8367 29.143L16.8275 29.0071ZM9.53702 27.3052L8.72649 26.7195C7.18332 28.855 7.65081 31.9964 9.75919 33.5816L10.3601 32.7823L10.9611 31.983C9.7275 31.0555 9.43994 29.1469 10.3475 27.8909L9.53702 27.3052ZM10.3601 32.7823L9.73059 33.5592C13.2184 36.3853 18.5462 33.297 17.8078 28.8435L16.8213 29.0071L15.8347 29.1707C16.2723 31.8096 13.0471 33.6724 10.9897 32.0053L10.3601 32.7823ZM16.8213 29.0071V30.0071H16.8275V29.0071V28.0071H16.8213V29.0071Z" fill="#C5B39A" mask="url(#path-13-inside-7_113_9)"/>
<mask id="path-15-inside-8_113_9" fill="white">
<path d="M21.3948 26.2405C22.7254 26.2281 23.9446 26.6242 25.0152 27.4226C23.6846 27.435 22.4654 27.0327 21.3948 26.2405Z"/>
</mask>
<path d="M21.3948 26.2405C22.7254 26.2281 23.9446 26.6242 25.0152 27.4226C23.6846 27.435 22.4654 27.0327 21.3948 26.2405Z" fill="#4A4A4A"/>
<path d="M21.3948 26.2405L21.3855 25.2406L18.3995 25.2683L20.8 27.0444L21.3948 26.2405ZM25.0152 27.4226L25.0245 28.4226L27.9921 28.395L25.613 26.6209L25.0152 27.4226ZM21.3948 26.2405L21.4041 27.2405C22.5168 27.2301 23.5226 27.557 24.4174 28.2243L25.0152 27.4226L25.613 26.6209C24.3665 25.6915 22.934 25.2262 21.3855 25.2406L21.3948 26.2405ZM25.0152 27.4226L25.0059 26.4226C23.8962 26.433 22.8884 26.1017 21.9896 25.4366L21.3948 26.2405L20.8 27.0444C22.0425 27.9637 23.4731 28.437 25.0245 28.4226L25.0152 27.4226Z" fill="#C5B39A" mask="url(#path-15-inside-8_113_9)"/>
<mask id="path-17-inside-9_113_9" fill="white">
<path d="M23.7961 25.0212C23.8085 26.3518 23.4124 27.571 22.614 28.6417C22.6017 27.3111 23.0039 26.0919 23.7961 25.0212Z"/>
</mask>
<path d="M23.7961 25.0212C23.8085 26.3518 23.4124 27.571 22.614 28.6417C22.6017 27.3111 23.0039 26.0919 23.7961 25.0212Z" fill="#4A4A4A"/>
<path d="M23.7961 25.0212L24.7961 25.0119L24.7683 22.026L22.9922 24.4265L23.7961 25.0212ZM22.614 28.6417L21.6141 28.651L21.6417 31.6186L23.4157 29.2395L22.614 28.6417ZM23.7961 25.0212L22.7961 25.0305C22.8065 26.1432 22.4796 27.1491 21.8124 28.0439L22.614 28.6417L23.4157 29.2395C24.3452 27.993 24.8105 26.5604 24.7961 25.0119L23.7961 25.0212ZM22.614 28.6417L23.614 28.6324C23.6037 27.5226 23.935 26.5148 24.6 25.616L23.7961 25.0212L22.9922 24.4265C22.0729 25.669 21.5997 27.0995 21.6141 28.651L22.614 28.6417Z" fill="#C5B39A" mask="url(#path-17-inside-9_113_9)"/>
<mask id="path-19-inside-10_113_9" fill="white">
<path d="M2.62427 18.8636C3.95486 18.8512 5.17404 19.2473 6.24471 20.0456C4.91411 20.058 3.69493 19.6557 2.62427 18.8636Z"/>
</mask>
<path d="M2.62427 18.8636C3.95486 18.8512 5.17404 19.2473 6.24471 20.0456C4.91411 20.058 3.69493 19.6557 2.62427 18.8636Z" fill="#4A4A4A"/>
<path d="M2.62427 18.8636L2.61497 17.8636L-0.370981 17.8914L2.02948 19.6674L2.62427 18.8636ZM6.24471 20.0456L6.25401 21.0456L9.22159 21.018L6.84248 19.244L6.24471 20.0456ZM2.62427 18.8636L2.63357 19.8635C3.74626 19.8532 4.75206 20.18 5.64694 20.8473L6.24471 20.0456L6.84248 19.244C5.59603 18.3145 4.16347 17.8492 2.61497 17.8636L2.62427 18.8636ZM6.24471 20.0456L6.23541 19.0457C5.12568 19.056 4.11788 18.7247 3.21905 18.0597L2.62427 18.8636L2.02948 19.6674C3.27198 20.5868 4.70255 21.06 6.25401 21.0456L6.24471 20.0456Z" fill="#C5B39A" mask="url(#path-19-inside-10_113_9)"/>
<mask id="path-21-inside-11_113_9" fill="white">
<path d="M5.02514 17.6443C5.03751 18.9749 4.64141 20.1941 3.84305 21.2647C3.83067 19.9341 4.23297 18.715 5.02514 17.6443Z"/>
</mask>
<path d="M5.02514 17.6443C5.03751 18.9749 4.64141 20.1941 3.84305 21.2647C3.83067 19.9341 4.23297 18.715 5.02514 17.6443Z" fill="#4A4A4A"/>
<path d="M5.02514 17.6443L6.02509 17.635L5.99732 14.649L4.22125 17.0495L5.02514 17.6443ZM3.84305 21.2647L2.84309 21.274L2.8707 24.2416L4.64472 21.8625L3.84305 21.2647ZM5.02514 17.6443L4.02518 17.6536C4.03553 18.7663 3.70866 19.7721 3.04139 20.667L3.84305 21.2647L4.64472 21.8625C5.57416 20.616 6.0395 19.1835 6.02509 17.635L5.02514 17.6443ZM3.84305 21.2647L4.84301 21.2554C4.83268 20.1457 5.16399 19.1379 5.82902 18.2391L5.02514 17.6443L4.22125 17.0495C3.30195 18.292 2.82866 19.7226 2.84309 21.274L3.84305 21.2647Z" fill="#C5B39A" mask="url(#path-21-inside-11_113_9)"/>
<mask id="path-23-inside-12_113_9" fill="white">
<path d="M0 8.98608C1.8814 9.15318 3.64521 9.72872 5.26049 10.7066C3.37909 10.5395 1.62147 9.96392 0 8.98608Z"/>
</mask>
<path d="M0 8.98608C1.8814 9.15318 3.64521 9.72872 5.26049 10.7066C3.37909 10.5395 1.62147 9.96392 0 8.98608Z" fill="#4A4A4A"/>
<path d="M0 8.98608L0.0884676 7.99L-0.516417 9.84242L0 8.98608ZM5.26049 10.7066L5.17203 11.7026L5.77836 9.85109L5.26049 10.7066ZM0 8.98608L-0.0884676 9.98216C1.6417 10.1358 3.25852 10.6636 4.74263 11.562L5.26049 10.7066L5.77836 9.85109C4.03191 8.79385 2.1211 8.17054 0.0884676 7.99L0 8.98608ZM5.26049 10.7066L5.34896 9.71048C3.61974 9.55689 2.00837 9.02947 0.516417 8.12975L0 8.98608L-0.516417 9.84242C1.23457 10.8984 3.13845 11.522 5.17203 11.7026L5.26049 10.7066Z" fill="#C5B39A" mask="url(#path-23-inside-12_113_9)"/>
<mask id="path-25-inside-13_113_9" fill="white">
<path d="M3.48443 7.21631C3.31733 9.09771 2.74175 10.8615 1.76392 12.4768C1.93101 10.5954 2.50659 8.83778 3.48443 7.21631Z"/>
</mask>
<path d="M3.48443 7.21631C3.31733 9.09771 2.74175 10.8615 1.76392 12.4768C1.93101 10.5954 2.50659 8.83778 3.48443 7.21631Z" fill="#4A4A4A"/>
<path d="M3.48443 7.21631L4.4805 7.30478L2.62809 6.69989L3.48443 7.21631ZM1.76392 12.4768L0.767837 12.3883L2.61938 12.9947L1.76392 12.4768ZM3.48443 7.21631L2.48835 7.12784C2.33468 8.85799 1.80689 10.4748 0.908454 11.9589L1.76392 12.4768L2.61938 12.9947C3.67661 11.2482 4.29997 9.33743 4.4805 7.30478L3.48443 7.21631ZM1.76392 12.4768L2.76 12.5653C2.91358 10.8361 3.44103 9.22469 4.34076 7.73273L3.48443 7.21631L2.62809 6.69989C1.57215 8.45087 0.948452 10.3547 0.767837 12.3883L1.76392 12.4768Z" fill="#C5B39A" mask="url(#path-25-inside-13_113_9)"/>
<mask id="path-27-inside-14_113_9" fill="white">
<path d="M46.8804 27.6951C48.211 27.6827 49.4301 28.0788 50.5008 28.8772C49.1702 28.8895 47.951 28.4873 46.8804 27.6951Z"/>
</mask>
<path d="M46.8804 27.6951C48.211 27.6827 49.4301 28.0788 50.5008 28.8772C49.1702 28.8895 47.951 28.4873 46.8804 27.6951Z" fill="#4A4A4A"/>
<path d="M46.8804 27.6951L46.8711 26.6951L43.8851 26.7229L46.2856 28.499L46.8804 27.6951ZM50.5008 28.8772L50.5101 29.8771L53.4777 29.8495L51.0986 28.0755L50.5008 28.8772ZM46.8804 27.6951L46.8897 28.6951C48.0024 28.6847 49.0082 29.0116 49.903 29.6788L50.5008 28.8772L51.0986 28.0755C49.8521 27.146 48.4196 26.6807 46.8711 26.6951L46.8804 27.6951ZM50.5008 28.8772L50.4915 27.8772C49.3818 27.8875 48.374 27.5562 47.4752 26.8912L46.8804 27.6951L46.2856 28.499C47.5281 29.4183 48.9587 29.8915 50.5101 29.8771L50.5008 28.8772Z" fill="#C5B39A" mask="url(#path-27-inside-14_113_9)"/>
<mask id="path-29-inside-15_113_9" fill="white">
<path d="M49.2815 26.4756C49.2939 27.8062 48.8978 29.0254 48.0994 30.0961C48.087 28.7655 48.4893 27.5463 49.2815 26.4756Z"/>
</mask>
<path d="M49.2815 26.4756C49.2939 27.8062 48.8978 29.0254 48.0994 30.0961C48.087 28.7655 48.4893 27.5463 49.2815 26.4756Z" fill="#4A4A4A"/>
<path d="M49.2815 26.4756L50.2814 26.4663L50.2537 23.4803L48.4776 25.8808L49.2815 26.4756ZM48.0994 30.0961L47.0994 30.1054L47.127 33.0729L48.9011 30.6938L48.0994 30.0961ZM49.2815 26.4756L48.2815 26.4849C48.2919 27.5976 47.965 28.6034 47.2977 29.4983L48.0994 30.0961L48.9011 30.6938C49.8305 29.4474 50.2958 28.0148 50.2814 26.4663L49.2815 26.4756ZM48.0994 30.0961L49.0994 30.0868C49.089 28.977 49.4203 27.9692 50.0854 27.0704L49.2815 26.4756L48.4776 25.8808C47.5583 27.1233 47.085 28.5539 47.0994 30.1054L48.0994 30.0961Z" fill="#C5B39A" mask="url(#path-29-inside-15_113_9)"/>
<mask id="path-31-inside-16_113_9" fill="white">
<path d="M48.6501 14.649C49.9807 14.6366 51.1999 15.0327 52.2706 15.831C50.94 15.8434 49.7208 15.4411 48.6501 14.649Z"/>
</mask>
<path d="M48.6501 14.649C49.9807 14.6366 51.1999 15.0327 52.2706 15.831C50.94 15.8434 49.7208 15.4411 48.6501 14.649Z" fill="#4A4A4A"/>
<path d="M48.6501 14.649L48.6408 13.649L45.6549 13.6768L48.0554 15.4528L48.6501 14.649ZM52.2706 15.831L52.2799 16.831L55.2475 16.8034L52.8684 15.0294L52.2706 15.831ZM48.6501 14.649L48.6594 15.6489C49.7721 15.6386 50.7779 15.9654 51.6728 16.6327L52.2706 15.831L52.8684 15.0294C51.6219 14.0999 50.1894 13.6346 48.6408 13.649L48.6501 14.649ZM52.2706 15.831L52.2613 14.8311C51.1516 14.8414 50.1438 14.5101 49.2449 13.8451L48.6501 14.649L48.0554 15.4528C49.2979 16.3722 50.7284 16.8454 52.2799 16.831L52.2706 15.831Z" fill="#C5B39A" mask="url(#path-31-inside-16_113_9)"/>
<mask id="path-33-inside-17_113_9" fill="white">
<path d="M51.0515 13.4297C51.0639 14.7603 50.6678 15.9795 49.8694 17.0501C49.857 15.7195 50.2593 14.5004 51.0515 13.4297Z"/>
</mask>
<path d="M51.0515 13.4297C51.0639 14.7603 50.6678 15.9795 49.8694 17.0501C49.857 15.7195 50.2593 14.5004 51.0515 13.4297Z" fill="#4A4A4A"/>
<path d="M51.0515 13.4297L52.0515 13.4204L52.0237 10.4344L50.2476 12.8349L51.0515 13.4297ZM49.8694 17.0501L48.8695 17.0594L48.8971 20.027L50.6711 17.6479L49.8694 17.0501ZM51.0515 13.4297L50.0515 13.439C50.0619 14.5517 49.735 15.5575 49.0678 16.4524L49.8694 17.0501L50.6711 17.6479C51.6005 16.4014 52.0659 14.9689 52.0515 13.4204L51.0515 13.4297ZM49.8694 17.0501L50.8694 17.0408C50.8591 15.9311 51.1904 14.9233 51.8554 14.0245L51.0515 13.4297L50.2476 12.8349C49.3283 14.0774 48.855 15.508 48.8695 17.0594L49.8694 17.0501Z" fill="#C5B39A" mask="url(#path-33-inside-17_113_9)"/>
<mask id="path-35-inside-18_113_9" fill="white">
<path d="M20.5779 9.84619C22.4593 10.0133 24.2231 10.5889 25.8384 11.5667C23.957 11.3996 22.1994 10.824 20.5779 9.84619Z"/>
</mask>
<path d="M20.5779 9.84619C22.4593 10.0133 24.2231 10.5889 25.8384 11.5667C23.957 11.3996 22.1994 10.824 20.5779 9.84619Z" fill="#4A4A4A"/>
<path d="M20.5779 9.84619L20.6663 8.85011L20.0615 10.7025L20.5779 9.84619ZM25.8384 11.5667L25.7499 12.5628L26.3562 10.7112L25.8384 11.5667ZM20.5779 9.84619L20.4894 10.8423C22.2196 10.9959 23.8364 11.5237 25.3205 12.4222L25.8384 11.5667L26.3562 10.7112C24.6098 9.65401 22.699 9.03064 20.6663 8.85011L20.5779 9.84619ZM25.8384 11.5667L25.9268 10.5706C24.1976 10.417 22.5863 9.88959 21.0943 8.98985L20.5779 9.84619L20.0615 10.7025C21.8124 11.7585 23.7163 12.3822 25.7499 12.5628L25.8384 11.5667Z" fill="#C5B39A" mask="url(#path-35-inside-18_113_9)"/>
<mask id="path-37-inside-19_113_9" fill="white">
<path d="M24.0681 8.07617C23.901 9.95757 23.3255 11.7214 22.3477 13.3367C22.5148 11.4553 23.0903 9.69764 24.0681 8.07617Z"/>
</mask>
<path d="M24.0681 8.07617C23.901 9.95757 23.3255 11.7214 22.3477 13.3367C22.5148 11.4553 23.0903 9.69764 24.0681 8.07617Z" fill="#4A4A4A"/>
<path d="M24.0681 8.07617L25.0642 8.16464L23.2118 7.55975L24.0681 8.07617ZM22.3477 13.3367L21.3516 13.2482L23.2031 13.8545L22.3477 13.3367ZM24.0681 8.07617L23.072 7.9877C22.9184 9.71787 22.3906 11.3347 21.4922 12.8188L22.3477 13.3367L23.2031 13.8545C24.2604 12.1081 24.8837 10.1973 25.0642 8.16464L24.0681 8.07617ZM22.3477 13.3367L23.3437 13.4251C23.4973 11.6959 24.0247 10.0845 24.9245 8.59259L24.0681 8.07617L23.2118 7.55975C22.1558 9.31075 21.5322 11.2146 21.3516 13.2482L22.3477 13.3367Z" fill="#C5B39A" mask="url(#path-37-inside-19_113_9)"/>
</svg>
