<svg width="52" height="51" viewBox="0 0 52 51" fill="none" xmlns="http://www.w3.org/2000/svg">
<path d="M18.2312 2.29729C21.2606 0.159717 24.6749 -0.456065 28.2245 0.324674C31.5331 1.05248 34.2886 2.90246 36.3969 5.58345C37.3548 6.80051 38.3359 8.1146 38.2182 9.87881C38.2123 9.96782 38.1352 10.0352 38.0462 10.0293C37.9572 10.0234 37.8898 9.94637 37.8957 9.85735C38.0042 8.23183 37.1078 7.00923 36.143 5.78337L36.1429 5.78321C34.0762 3.15506 31.3835 1.35041 28.1551 0.640242C24.6357 -0.133844 21.2644 0.49757 18.277 2.66193C15.598 4.60373 13.971 7.20615 13.4704 10.4582C13.1741 12.386 13.3648 14.297 13.9824 16.1668L14.0435 16.3476V16.3478C14.4044 17.3965 14.695 18.4819 14.787 19.6089L14.7942 19.7072C14.9219 21.6366 14.125 23.2586 13.1823 24.7987L12.9889 25.1108C12.4409 25.9862 11.8624 26.8414 11.2771 27.6887L11.2772 27.6888C11.1383 27.8906 11.0721 28.0766 11.0634 28.2538C11.0547 28.4307 11.1023 28.6132 11.2146 28.8094H11.2147C11.3821 29.101 11.444 29.37 11.4071 29.6453C11.371 29.9142 11.2427 30.1716 11.0666 30.4445L11.0664 30.4447C8.87572 33.8244 6.69628 37.2108 4.51998 40.5989L4.51982 40.599C4.16723 41.1475 3.91165 41.7675 3.73421 42.4598V42.4599C3.47104 43.4857 2.80286 44.4669 1.93406 45.1135C1.23672 45.6343 0.855435 46.3287 0.396925 47.0469L0.396767 47.0467C0.33525 47.1433 0.31897 47.2254 0.323871 47.2996C0.329032 47.3776 0.358649 47.4595 0.409547 47.5521C0.461263 47.6461 0.527177 47.7381 0.599519 47.8429C0.668849 47.9433 0.743787 48.0553 0.796276 48.1742C0.832306 48.2559 0.795372 48.3514 0.713755 48.3874C0.632121 48.4234 0.536623 48.3863 0.500589 48.3047C0.4618 48.2169 0.403191 48.1274 0.333496 48.0264C0.266789 47.9297 0.188109 47.8202 0.126325 47.7078C0.0637579 47.594 0.0110205 47.4646 0.00151825 47.3209C-0.00822217 47.1735 0.0284605 47.0236 0.124432 46.873L0.290105 46.6101C0.676992 45.9922 1.07889 45.3488 1.74093 44.8545L1.74109 44.8543C2.55259 44.2503 3.17699 43.3314 3.42117 42.3796L3.45683 42.2455C3.63963 41.5785 3.89692 40.9703 4.24796 40.4242C6.42436 37.036 8.60413 33.6492 10.7952 30.2689C10.9631 30.0088 11.0603 29.8 11.0868 29.6024C11.1124 29.4113 11.0741 29.2134 10.9345 28.9702L10.9344 28.97C10.7979 28.7317 10.7285 28.4885 10.7408 28.2381C10.7531 27.988 10.8462 27.745 11.011 27.5056L11.0112 27.5053C11.5956 26.6594 12.1708 25.8087 12.715 24.9393L12.9075 24.6286C13.8581 23.0749 14.618 21.5009 14.4649 19.6354V19.6352C14.376 18.5456 14.0944 17.4886 13.738 16.4532L13.6755 16.268C13.0433 14.3536 12.8464 12.391 13.1511 10.409C13.6652 7.06892 15.3408 4.39115 18.0873 2.40032L18.2312 2.29729Z" fill="#C5B39A"/>
<path d="M17.3995 4.597C20.5411 1.45158 24.3162 0.494705 28.5582 1.68416C31.7708 2.58427 34.3073 4.56006 36.1843 7.34939L36.2297 7.4185C36.4529 7.76682 36.614 8.15054 36.7802 8.499C36.9608 8.87768 37.1517 9.22582 37.4429 9.51024C37.5067 9.57259 37.5079 9.67489 37.4456 9.73871C37.3832 9.80253 37.2809 9.8037 37.2171 9.74139C36.883 9.41508 36.6723 9.02314 36.4886 8.63801C36.3016 8.24588 36.1458 7.86993 35.9163 7.53005V7.52989C34.0772 4.79683 31.6017 2.87246 28.4711 1.99531H28.471C24.3409 0.837268 20.6864 1.76298 17.6274 4.82611L17.4821 4.97363C16.1788 6.31507 15.3541 7.88777 14.8675 9.66992C14.4073 11.3567 14.4557 13.0633 14.8828 14.7416L14.9551 15.0182C15.1274 15.6625 15.3238 16.3016 15.5106 16.9505C15.7233 17.6894 15.922 18.4365 16.0504 19.1979C16.2899 20.6182 16.0048 22.0104 15.1744 23.2643C13.948 25.1152 12.7967 27.0131 11.614 28.8997C11.5666 28.9753 11.4668 28.9982 11.3912 28.9508C11.3156 28.9034 11.2927 28.8037 11.3401 28.7282C12.5195 26.8469 13.6755 24.9413 14.9049 23.0858C15.6902 21.9 15.9577 20.5907 15.7318 19.2515C15.6066 18.5087 15.4119 17.7757 15.2001 17.0398C15.0155 16.3984 14.8166 15.7512 14.6427 15.1005L14.5696 14.8214C14.1307 13.097 14.0789 11.333 14.5559 9.58487C15.0548 7.75756 15.9039 6.13434 17.2503 4.74848L17.3995 4.597Z" fill="#C5B39A"/>
<path d="M37.7591 7.61748C38.8424 7.22174 39.7964 7.76224 40.6177 8.12207H40.6179C44.0861 9.6392 46.7429 12.1022 48.7788 15.2577C50.1793 17.4285 51.1283 19.7897 51.4289 22.3468C51.5789 23.6222 51.6977 25.0235 50.98 26.3196L50.9802 26.3198C50.8598 26.5378 50.6927 26.7178 50.5572 26.8797C50.4169 27.0473 50.2998 27.2062 50.2346 27.4064L50.2345 27.4067C49.2917 30.2909 47.4186 32.2419 44.3996 33.0098C44.0551 33.0975 43.7507 33.0844 43.4783 32.9809C43.2079 32.8782 42.9829 32.6917 42.7863 32.4557L42.7861 32.4555C42.668 32.3132 42.5675 32.1583 42.474 32.0074C42.3788 31.8536 42.2929 31.7077 42.1971 31.568L42.1968 31.5675C41.6664 30.7885 41.063 30.17 40.3512 29.77C39.6417 29.3713 38.8156 29.1845 37.8289 29.2815C37.5975 29.3048 37.4121 29.3366 37.2615 29.4073C37.1181 29.4746 36.9999 29.5803 36.9101 29.7688C36.8717 29.8493 36.7754 29.8835 36.6949 29.8451C36.6143 29.8068 36.5802 29.7103 36.6185 29.6298C36.7404 29.374 36.913 29.2139 37.1242 29.1147C37.3283 29.019 37.5614 28.9838 37.7969 28.9601H37.797C38.846 28.8569 39.7391 29.0555 40.5095 29.4884C41.2776 29.92 41.9151 30.5796 42.4639 31.3856H42.4638C42.5651 31.5334 42.6587 31.6918 42.7487 31.8372C42.8406 31.9855 42.9315 32.1247 43.0347 32.249L43.1001 32.3239C43.2539 32.4922 43.4155 32.6115 43.5931 32.6789C43.7941 32.7553 44.0295 32.7705 44.32 32.6966C47.2208 31.9587 49.0152 30.0965 49.9273 27.3065C50.0124 27.0447 50.1636 26.8465 50.3093 26.6724C50.4597 26.4927 50.5965 26.3461 50.6974 26.1634C51.3594 24.9681 51.2585 23.665 51.108 22.3845C50.814 19.8844 49.8857 17.5697 48.5072 15.433C46.5319 12.3714 43.9716 9.98193 40.6472 8.4886L40.4883 8.41823C39.6132 8.03485 38.803 7.58013 37.8699 7.92106C37.7861 7.95163 37.6934 7.90858 37.6627 7.82481C37.6321 7.74099 37.6753 7.6481 37.7591 7.61748Z" fill="#C5B39A"/>
<path d="M20.1473 23.805C20.1913 23.7989 20.2359 23.8111 20.2706 23.8388C20.4533 23.985 20.6508 24.1089 20.855 24.229C21.0558 24.3471 21.2699 24.4654 21.4681 24.5924C21.8701 24.8498 22.2444 25.1651 22.454 25.6886C22.4871 25.7715 22.4469 25.8656 22.364 25.8988C22.2812 25.932 22.1872 25.8917 22.154 25.8089C21.9807 25.3759 21.6713 25.1063 21.2938 24.8645C21.1022 24.7419 20.9025 24.6319 20.691 24.5075C20.5295 24.4124 20.3649 24.3108 20.2052 24.1949C19.55 25.1214 18.9419 26.0385 18.3495 26.9585L18.0841 27.3724C15.2989 31.7264 12.4098 36.0197 9.59616 40.3491C7.54863 43.5005 5.41736 46.5793 3.46373 49.781L3.46357 49.7808C3.25302 50.126 2.95071 50.2537 2.66455 50.2679C2.3878 50.2817 2.12971 50.1904 1.97567 50.107L1.97535 50.1068C1.91577 50.0743 1.85151 50.0419 1.7827 50.0071C1.71469 49.9727 1.64245 49.9362 1.57048 49.8973C1.42702 49.8196 1.27714 49.7283 1.14746 49.6128C1.0167 49.4963 0.903423 49.3523 0.838046 49.1693C0.781702 49.0115 0.76403 48.8331 0.792604 48.6309C0.771616 48.6265 0.748051 48.6204 0.725704 48.6112C0.667038 48.5868 0.601751 48.5367 0.576756 48.445C0.553322 48.359 0.604136 48.2702 0.690202 48.2467C0.760433 48.2276 0.832401 48.2579 0.869287 48.3164C0.876547 48.3176 0.884896 48.3192 0.896426 48.3209C0.915347 48.3235 0.98056 48.3304 1.03354 48.3635C1.06692 48.3843 1.10081 48.4179 1.11922 48.4677C1.13666 48.515 1.13419 48.5606 1.12663 48.5962L1.12647 48.596C1.08567 48.7914 1.0998 48.9414 1.14241 49.0607C1.18528 49.1807 1.2613 49.2815 1.36236 49.3715C1.46452 49.4626 1.58909 49.5399 1.72432 49.6131C1.79166 49.6495 1.85986 49.684 1.92849 49.7187C1.99623 49.7529 2.06495 49.7877 2.12966 49.823L2.17732 49.8468C2.29684 49.9024 2.47145 49.954 2.64846 49.9452C2.84134 49.9356 3.03978 49.8555 3.18792 49.6126L3.55682 49.0127C5.41147 46.0196 7.41256 43.1169 9.32524 40.173C12.1439 35.8359 15.0263 31.5528 17.812 27.1982C18.5187 26.092 19.2425 24.9892 20.038 23.8713L20.0482 23.8583C20.0737 23.8294 20.1088 23.8104 20.1473 23.805Z" fill="#C5B39A"/>
<path d="M16.8393 22.6164C17.2074 22.5373 17.4613 22.6778 17.6661 22.8471C17.7597 22.9244 17.8618 23.0247 17.943 23.0969C18.0317 23.1757 18.1163 23.2415 18.2086 23.2873C18.2482 23.307 18.278 23.342 18.2911 23.3842C18.3042 23.4264 18.2994 23.4723 18.2779 23.5109C17.6547 24.6258 16.8971 25.6697 16.221 26.7262C13.5129 30.9556 10.7687 35.1542 8.07318 39.3898C6.93589 41.1776 5.73861 42.903 4.69755 44.745C4.21906 45.5925 3.6217 46.451 2.96224 47.2247L2.96209 47.2245C2.68185 47.5546 2.52329 47.9566 2.35036 48.3891C2.18081 48.8132 1.99752 49.2665 1.66226 49.6415C1.6028 49.7079 1.50077 49.7136 1.43427 49.6543C1.36774 49.5948 1.36201 49.4926 1.42148 49.4261C1.71313 49.0999 1.87808 48.6999 2.05025 48.2692C2.21898 47.8472 2.39546 47.3929 2.7161 47.0153L2.71626 47.015C3.3623 46.257 3.94775 45.4156 4.41607 44.5861C5.46248 42.7346 6.67263 40.9895 7.80053 39.2164L8.30639 38.4227C10.8385 34.4565 13.4133 30.5119 15.9488 26.552C16.611 25.5172 17.3167 24.5419 17.9181 23.4894C17.849 23.4418 17.7862 23.3897 17.7285 23.3384C17.6249 23.2464 17.5517 23.1717 17.4604 23.0962C17.3107 22.9725 17.1693 22.8974 16.9706 22.9217C15.3204 25.5068 13.5673 28.0159 12.0154 30.6664C11.1388 32.1636 10.1413 33.592 9.20165 35.0368V35.037C7.71957 37.3125 6.28113 39.6334 4.73337 41.8766L4.73321 41.8768C4.64616 42.0026 4.53029 42.1946 4.37551 42.3317C4.2082 42.4798 3.98692 42.5743 3.69136 42.5152C3.60388 42.4977 3.54717 42.4125 3.56466 42.325C3.58218 42.2376 3.66731 42.1808 3.75479 42.1983C3.93584 42.2345 4.05713 42.182 4.16124 42.0898C4.27786 41.9865 4.3623 41.8449 4.4675 41.6928C6.01213 39.4541 7.44322 37.1445 8.93074 34.8606C9.87825 33.4036 10.8649 31.9917 11.7365 30.5031C13.3037 27.8263 15.0864 25.2771 16.7371 22.6876L16.7464 22.6745C16.7696 22.645 16.8024 22.6244 16.8393 22.6164Z" fill="#C5B39A"/>
<path d="M43.5753 32.9191C43.6228 32.8436 43.7225 32.8208 43.7981 32.8683C43.8736 32.9158 43.8963 33.0156 43.8489 33.0911C43.5997 33.4872 43.5519 33.9033 43.5901 34.3308C43.6244 34.7143 43.7237 35.0837 43.8069 35.4607L43.8413 35.6229C44.0997 36.9036 43.8888 38.1403 43.748 39.3064V39.3065C43.4624 41.6562 42.945 43.9779 42.3365 46.2679C42.0377 47.3974 41.6964 48.5412 41.3944 49.6614V49.6616C41.3138 49.9596 41.1868 50.1641 40.9916 50.2708C40.8008 50.3749 40.5825 50.3641 40.3741 50.3261V50.326C37.6695 49.8394 34.9751 49.2886 32.3448 48.4173C31.0475 47.988 29.7198 47.5932 28.4588 47.0165C26.1894 45.9786 24.2127 44.6206 23.1085 42.1894V42.1892C21.9942 39.7331 23.0052 37.4994 24.8946 36.2692L25.0049 36.1986C27.3334 34.7385 30.3076 34.6751 32.6595 36.5977V36.5978C33.0995 36.9577 33.4497 37.4523 33.6114 38.0387C33.6351 38.1247 33.5845 38.2136 33.4986 38.2374C33.4125 38.2611 33.3235 38.2106 33.2997 38.1246C33.1665 37.6413 32.8865 37.225 32.5277 36.9096L32.455 36.8479C30.2232 35.0234 27.4018 35.0768 25.1766 36.4724L25.071 36.5399C23.2928 37.6977 22.365 39.7682 23.4027 42.0557L23.4529 42.1641C24.5196 44.4253 26.3898 45.7148 28.5932 46.7225C29.8333 47.2897 31.1361 47.6768 32.4464 48.1104V48.1105C34.8913 48.9204 37.3961 49.4524 39.9256 49.9162L40.4317 50.008L40.4321 50.0082C40.6228 50.043 40.7471 50.0361 40.8366 49.9872C40.9216 49.9408 41.0128 49.835 41.0824 49.5773L41.1992 49.1497C41.4735 48.1555 41.7598 47.1844 42.0242 46.1851V46.1849C42.6307 43.9026 43.1441 41.5968 43.4273 39.2675L43.4828 38.8221C43.6138 37.7839 43.7395 36.752 43.5246 35.6869L43.4923 35.535C43.4121 35.1731 43.3043 34.7631 43.2682 34.3595C43.226 33.8875 43.2767 33.3939 43.5753 32.9191Z" fill="#C5B39A"/>
<path d="M27.5927 5.76202C29.0236 5.36563 30.5227 5.99392 31.2505 7.28953L31.3033 7.38672C31.5581 7.87074 31.6704 8.32909 31.6165 8.77806C31.559 9.25719 31.3152 9.70191 30.9021 10.1377H30.9019C30.3032 10.768 29.6811 11.2871 29.3159 12.0347C29.2985 12.0701 29.2699 12.0962 29.2365 12.1111C29.3373 12.1993 29.418 12.2946 29.4765 12.4054C29.5655 12.5739 29.5949 12.7611 29.5893 12.9792C29.5838 13.1948 29.5437 13.4519 29.4847 13.7659C29.1165 15.7298 29.2435 17.6552 29.7646 19.5815V19.5817C30.1757 21.1034 30.9168 22.4449 31.6659 23.8572V23.8573C32.4529 25.3433 33.4227 26.6269 34.5571 27.795H34.557C35.9693 29.2489 37.628 30.4086 39.4967 31.2485L39.6846 31.3336C39.8622 31.4149 40.0087 31.486 40.1245 31.5561C40.281 31.6507 40.402 31.7553 40.471 31.9033C40.5389 32.049 40.5452 32.2128 40.5277 32.3996C40.5102 32.5859 40.4656 32.8212 40.4119 33.118V33.1181C40.3989 33.1888 40.4008 33.2646 40.4097 33.3534C40.4175 33.4318 40.4347 33.5465 40.4409 33.6424C40.455 33.8591 40.4268 34.1005 40.208 34.3362L40.2082 34.3364C39.594 34.9996 38.5411 35.2182 37.6598 34.7627L37.6596 34.7625C37.2084 34.5287 36.883 34.1818 36.7129 33.7654C36.5428 33.3489 36.5325 32.8739 36.6919 32.392C36.72 32.3073 36.8114 32.2614 36.8961 32.2894C36.9808 32.3175 37.0267 32.4089 36.9987 32.4936C36.8609 32.91 36.874 33.3052 37.0121 33.6432C37.1502 33.9813 37.4178 34.2733 37.8083 34.4757H37.8081C38.5586 34.8636 39.4543 34.6749 39.9712 34.1167L39.9713 34.1166C40.1095 33.9678 40.1291 33.8264 40.1185 33.6634C40.1124 33.5695 40.0992 33.4952 40.0882 33.3856C40.0783 33.2863 40.0729 33.1751 40.0939 33.0601C40.1492 32.7551 40.1901 32.538 40.206 32.3693C40.2218 32.2011 40.2094 32.107 40.1782 32.04C40.1481 31.9754 40.0893 31.9124 39.9573 31.8325C39.8232 31.7514 39.6345 31.6648 39.3642 31.5431V31.5433C37.4586 30.6868 35.7662 29.5036 34.3252 28.0201C33.1718 26.8325 32.1833 25.5244 31.3805 24.0085V24.0086C30.6599 22.6502 29.9228 21.3162 29.4932 19.812L29.4527 19.6659C28.9204 17.6984 28.7888 15.7235 29.1671 13.7063C29.226 13.3927 29.2615 13.1581 29.2663 12.9709C29.2711 12.7862 29.2454 12.6594 29.1909 12.5562C29.136 12.4522 29.0428 12.3553 28.8827 12.246C28.7212 12.1357 28.5028 12.0202 28.2073 11.8743H28.2071C28.059 11.801 27.9027 11.7386 27.739 11.6742C27.5773 11.6105 27.4077 11.5447 27.2434 11.4667V11.4665C26.1227 10.94 25.5576 10.0034 25.468 8.83186V8.83171C25.362 7.43173 26.3176 6.11407 27.5927 5.76218V5.76202ZM30.9687 7.44778C30.3133 6.28107 28.9656 5.71699 27.6789 6.07349H27.6787C26.553 6.38411 25.6959 7.56083 25.7902 8.80725L25.799 8.90665C25.9004 9.89339 26.3754 10.6659 27.2885 11.1292L27.3813 11.1745L27.3819 11.1746C27.5343 11.2469 27.6927 11.3087 27.8573 11.3734C28.02 11.4375 28.1885 11.5044 28.3505 11.5846H28.3504C28.617 11.7162 28.8362 11.8306 29.0106 11.9432C29.0127 11.9262 29.0176 11.9092 29.0255 11.8929C29.4196 11.0862 30.103 10.5096 30.6676 9.91521C31.0493 9.51249 31.249 9.12922 31.2957 8.73956C31.3425 8.34962 31.239 7.92949 30.9687 7.44778Z" fill="#C5B39A"/>
<path d="M28.4591 23.2631C28.5407 23.227 28.636 23.264 28.6721 23.3456C28.7082 23.4272 28.6713 23.5227 28.5897 23.5588C28.2477 23.71 27.8908 23.7774 27.5471 23.8324C27.1977 23.8882 26.8668 23.9307 26.5448 24.0277C25.1402 24.451 23.8237 25.0436 22.6006 25.8228L22.4824 25.8988C22.1914 26.0876 21.9678 26.3548 21.7613 26.6603C21.6581 26.8131 21.561 26.9724 21.4614 27.1352C21.3872 27.2565 21.3116 27.3796 21.2326 27.5L21.1524 27.6195C20.6363 28.3679 20.1569 29.1408 19.6734 29.9171C19.1905 30.6923 18.7035 31.4706 18.1755 32.2236L18.1752 32.2242L18.0433 32.1308L18.175 32.2242C18.0576 32.39 17.9329 32.556 17.9253 32.7669C17.9187 32.9572 17.868 33.1303 17.7604 33.2835C17.6538 33.435 17.4988 33.5564 17.3001 33.6566H17.3C17.064 33.7753 16.8763 33.968 16.7072 34.2008C16.5354 34.4373 16.396 34.6953 16.239 34.9522V34.9523C15.8032 35.6638 15.3177 36.3448 14.8521 37.025C14.3849 37.7076 13.9352 38.3926 13.5613 39.123C13.2917 39.6492 12.7721 39.7849 12.3465 39.9396L12.3463 39.9397C11.7421 40.1584 11.5089 40.34 11.4205 40.5551C11.3752 40.6653 11.3606 40.8008 11.375 40.986C11.3859 41.1257 11.4124 41.2857 11.4495 41.475L11.4899 41.6744V41.6746C11.5801 42.1122 11.4529 42.6199 11.2098 43.0326C10.9673 43.4443 10.5879 43.7968 10.1375 43.8838C9.68023 43.9721 9.44472 44.0921 9.32241 44.2673C9.19849 44.4448 9.16038 44.7216 9.21875 45.2086C9.22686 45.2763 9.19155 45.3419 9.13055 45.3724C8.93815 45.4686 8.73301 45.4958 8.55669 45.5199C8.37229 45.5451 8.21564 45.5673 8.07056 45.6357H8.0704C7.77955 45.7725 7.58451 45.9517 7.47981 46.1578C7.37608 46.3621 7.35197 46.6108 7.435 46.9065L7.45662 46.9923C7.55465 47.4258 7.49807 47.9275 7.32471 48.3629C7.14029 48.8259 6.81157 49.2423 6.35718 49.4132L6.35734 49.4134C5.42463 49.7654 4.42272 49.9658 3.39652 49.9326C3.30736 49.9298 3.23748 49.8552 3.24032 49.766C3.2432 49.6768 3.31775 49.6068 3.40694 49.6097C4.38421 49.6412 5.34376 49.4506 6.24326 49.1111H6.24342C6.58392 48.983 6.86029 48.6555 7.02445 48.2433C7.18809 47.8323 7.22814 47.3657 7.12385 46.9938C7.02272 46.6335 7.04541 46.2997 7.1917 46.0116C7.33701 45.7254 7.5951 45.5022 7.93265 45.3433C8.13009 45.2502 8.33709 45.2238 8.51298 45.1998C8.65298 45.1806 8.77435 45.1626 8.88488 45.125C8.8433 44.6866 8.87643 44.3417 9.0575 44.0823C9.25671 43.797 9.60458 43.6576 10.0763 43.5665C10.403 43.5033 10.716 43.2345 10.9315 42.8687C11.1464 42.5039 11.243 42.0779 11.1734 41.74L11.1327 41.5384C11.0945 41.3435 11.0651 41.1683 11.0528 41.0111C11.0364 40.8003 11.0494 40.6077 11.1216 40.4322C11.2682 40.0757 11.6304 39.855 12.2362 39.6358L12.4084 39.5741C12.7978 39.4346 13.0995 39.3154 13.2736 38.9757C13.6574 38.2261 14.1168 37.5272 14.5855 36.8426C15.0264 36.1984 15.4736 35.5695 15.8823 34.9148L15.9634 34.7835C16.1085 34.546 16.2641 34.2612 16.4457 34.011C16.6301 33.7571 16.8542 33.5192 17.1547 33.368L17.2143 33.3363C17.3473 33.2614 17.437 33.1816 17.4961 33.0976C17.5624 33.0032 17.5975 32.893 17.6023 32.7555V32.7552C17.614 32.4296 17.8091 32.1819 17.9114 32.0374C18.4334 31.2929 18.9158 30.5219 19.399 29.7463C19.8816 28.9715 20.3652 28.1918 20.8864 27.436C20.9894 27.2866 21.0863 27.1289 21.1857 26.9666C21.2843 26.8054 21.3855 26.6394 21.4937 26.4793C21.6966 26.1792 21.9311 25.8896 22.243 25.6707L22.3065 25.6278C23.5899 24.7934 24.974 24.1635 26.4516 23.7183C26.8002 23.6133 27.1608 23.5669 27.4961 23.5133C27.837 23.4588 28.1581 23.3962 28.4591 23.2631Z" fill="#C5B39A"/>
<path d="M38.0143 8.66188C38.5135 8.52541 39.0007 8.54417 39.4924 8.74393C40.1267 9.0011 40.8186 9.22426 41.4448 9.56614L41.445 9.5663C44.6765 11.3347 46.9575 13.9936 48.6153 17.2133L48.6155 17.2136C48.6829 17.345 48.7619 17.4735 48.8444 17.6133C48.9253 17.7502 49.008 17.8957 49.0732 18.0489C49.2059 18.3607 49.2686 18.7112 49.1138 19.1158C49.0819 19.1992 48.9885 19.241 48.9052 19.2091C48.8218 19.1772 48.7802 19.0837 48.8121 19.0004C48.9286 18.6958 48.8863 18.4348 48.776 18.1755C48.7196 18.0431 48.6461 17.9131 48.5661 17.7775C48.4877 17.6448 48.4011 17.5036 48.328 17.3611V17.361C46.6931 14.1859 44.4532 11.581 41.2899 9.84983V9.84968C40.7607 9.56078 40.1974 9.36647 39.6196 9.14186L39.3711 9.0434C38.9484 8.87165 38.5341 8.85487 38.0995 8.97366C38.0134 8.99718 37.9245 8.94644 37.901 8.86037C37.8775 8.7743 37.9282 8.68541 38.0143 8.66188Z" fill="#C5B39A"/>
<path d="M29.0336 24.4696C29.1172 24.4386 29.2102 24.4812 29.2412 24.5649C29.2722 24.6486 29.2296 24.7415 29.1459 24.7725C28.7015 24.9373 28.2442 25.0368 27.7942 25.125C27.3406 25.214 26.898 25.2911 26.4639 25.4117H26.4637C25.1182 25.785 24.005 26.4325 23.2419 27.5787L23.1692 27.6912C22.6448 28.5258 22.0735 29.329 21.5148 30.1321C20.9551 30.937 20.4068 31.7435 19.9219 32.5923V32.5925C19.6225 33.1157 19.3023 33.4456 18.9114 33.5726C18.5195 33.6999 18.0985 33.6097 17.6313 33.394C17.5503 33.3566 17.5149 33.2606 17.5523 33.1796C17.5897 33.0986 17.6857 33.0633 17.7667 33.1007C18.2059 33.3035 18.5345 33.3552 18.8115 33.2653C19.0895 33.1749 19.3574 32.9282 19.6413 32.432C20.1339 31.5698 20.6893 30.7533 21.2496 29.9477C21.8111 29.1405 22.3763 28.3456 22.8956 27.5192C23.7147 26.2154 24.9356 25.5004 26.3773 25.1004L26.5464 25.0554C26.9419 24.9552 27.3432 24.8841 27.732 24.8079C28.1799 24.72 28.6153 24.6247 29.0336 24.4696Z" fill="#C5B39A"/>
<path d="M28.0363 14.0022C28.1124 13.9557 28.2118 13.9797 28.2583 14.0558C28.4288 14.3351 28.4991 14.6519 28.4375 14.9765L28.4374 14.9773C28.006 17.1899 28.4735 19.3032 29.158 21.4291V21.4292C29.6994 23.1141 30.5582 24.645 31.5118 26.1301H31.512C31.7653 26.5238 31.7448 26.8674 31.7557 27.1945C31.7587 27.2837 31.6887 27.3583 31.5995 27.3613C31.5104 27.3642 31.4357 27.2944 31.4327 27.2052C31.421 26.8537 31.4361 26.6092 31.2403 26.3049L31.2401 26.3048C30.2807 24.8106 29.4045 23.2523 28.8505 21.5282L28.7864 21.3275C28.1318 19.2523 27.6867 17.1389 28.1202 14.9154C28.165 14.6781 28.1156 14.4425 27.9825 14.2243C27.936 14.1482 27.9601 14.0487 28.0363 14.0022Z" fill="#C5B39A"/>
<path d="M38.889 9.584C39.2003 9.5273 39.5364 9.52398 39.9108 9.69902L40.1508 9.81263C41.3461 10.3874 42.4725 11.0569 43.4917 11.9211C45.5876 13.6973 47.1571 15.8642 48.3002 18.3456C48.3696 18.4956 48.4687 18.6952 48.5651 18.8475C48.6127 18.9226 48.6546 18.9774 48.6869 19.0094C48.8635 18.9353 49.0207 18.9097 49.1606 18.9354C49.319 18.9645 49.431 19.0545 49.5086 19.1601C49.5836 19.262 49.6294 19.3818 49.6614 19.4838C49.6776 19.5356 49.6913 19.5863 49.7032 19.6299C49.7154 19.6751 49.7253 19.7108 49.7351 19.7401L49.8362 20.0433C50.338 21.5624 50.7707 23.1273 50.6625 24.7914C50.6521 24.9607 50.6368 25.0998 50.6568 25.231C50.6751 25.3505 50.7221 25.4522 50.8373 25.5386C50.9087 25.5922 50.9231 25.6935 50.8695 25.7649C50.816 25.8363 50.7148 25.8508 50.6434 25.7972C50.4485 25.651 50.3661 25.4668 50.3375 25.2797C50.3107 25.1044 50.331 24.9165 50.34 24.771V24.7705C50.4508 23.0653 49.9717 21.4572 49.4288 19.8431L49.4286 19.8428C49.4154 19.8031 49.4031 19.7575 49.3914 19.7145C49.3793 19.6699 49.3671 19.6254 49.3531 19.5806C49.3244 19.4893 49.2914 19.4102 49.2483 19.3516C49.2078 19.2966 49.1623 19.2644 49.1022 19.2533C49.0374 19.2414 48.9328 19.25 48.7694 19.3259L48.7686 19.3262C48.6979 19.3586 48.6292 19.3463 48.5804 19.3254C48.5342 19.3056 48.4955 19.2743 48.4654 19.2453C48.4045 19.1865 48.3452 19.1043 48.2921 19.0204C48.1842 18.85 48.0781 18.635 48.007 18.4813L48.0068 18.4811C46.8814 16.0379 45.3392 13.9103 43.2828 12.1676C42.2905 11.3262 41.1895 10.6706 40.0108 10.1039L39.774 9.99171C39.4779 9.8533 39.2144 9.85321 38.9469 9.90193C38.8102 9.92683 38.6751 9.9639 38.5305 10.0029C38.3883 10.0413 38.2376 10.0812 38.0813 10.1066C37.9932 10.1209 37.9102 10.061 37.8959 9.97294C37.8817 9.88488 37.9415 9.80199 38.0295 9.7877C38.1673 9.76537 38.3032 9.72962 38.4464 9.69098C38.5872 9.653 38.7363 9.61181 38.889 9.584Z" fill="#C5B39A"/>
<path d="M27.6184 4.6391C29.9775 4.36 32.0949 5.4956 32.72 7.89166C32.7425 7.978 32.6907 8.06637 32.6043 8.08889C32.518 8.11135 32.4298 8.05955 32.4073 7.97323C31.8302 5.76138 29.8858 4.6963 27.6564 4.96003H27.6562C25.9169 5.16448 24.5513 6.93836 24.4851 9.06683C24.4823 9.15602 24.4077 9.22613 24.3185 9.22336C24.2293 9.22057 24.1592 9.14605 24.1619 9.05689C24.2315 6.8198 25.674 4.86789 27.6184 4.63926V4.6391Z" fill="#C5B39A"/>
<path d="M38.1614 10.267C38.2078 10.1908 38.3073 10.1666 38.3835 10.2131C38.7871 10.4589 38.9319 10.8027 38.979 11.1525C39.002 11.3231 39.0021 11.4967 38.9995 11.6585C38.9975 11.783 38.9939 11.8986 38.996 12.0086L39.0003 12.1169C39.0775 13.3776 39.1448 14.7184 38.3641 15.9274L38.364 15.9275C38.1811 16.2099 38.1064 16.5325 38.0416 16.8925C37.9783 17.2442 37.9239 17.6383 37.7683 18.0118C36.9797 19.9053 35.6607 21.2848 34.1137 22.4866C33.3625 23.07 32.5576 23.5982 31.655 23.9646C31.5723 23.9981 31.4781 23.9582 31.4445 23.8756C31.411 23.7929 31.4508 23.6986 31.5335 23.6651C32.3984 23.314 33.1769 22.8049 33.9154 22.2315L34.0574 22.1201C35.5173 20.9643 36.7347 19.6534 37.4701 17.8877L37.4951 17.8252C37.6147 17.5115 37.6609 17.1829 37.7235 16.8352C37.7888 16.4727 37.8717 16.0932 38.0927 15.7519C38.8081 14.644 38.7557 13.4094 38.6778 12.1368L38.6748 12.077C38.6694 11.9365 38.6742 11.7904 38.6764 11.6535C38.6789 11.493 38.6782 11.3404 38.6587 11.1957C38.6209 10.9151 38.5146 10.6715 38.2153 10.4892C38.1391 10.4428 38.115 10.3432 38.1614 10.267Z" fill="#C5B39A"/>
<path d="M28.6437 12.182C28.7015 12.1141 28.8034 12.106 28.8713 12.1637C28.9393 12.2216 28.9476 12.3236 28.8898 12.3916C28.1196 13.2967 27.6962 14.377 27.5701 15.531C27.2506 18.4689 27.8156 21.2571 29.1454 23.9071L29.263 24.14C29.8522 25.3001 30.4695 26.3958 31.4568 27.2384C31.5247 27.2963 31.5327 27.3984 31.4748 27.4663C31.4169 27.5341 31.3148 27.5422 31.2469 27.4842C30.1382 26.5379 29.4811 25.2947 28.8567 24.0523L28.8565 24.0521C27.5011 21.351 26.9221 18.5004 27.2489 15.4958C27.3812 14.2845 27.8272 13.1415 28.6437 12.182Z" fill="#C5B39A"/>
<path d="M48.5997 19.144C48.6861 19.1218 48.7742 19.1739 48.7964 19.2603C49.117 20.5058 49.541 21.7662 49.7733 23.0609H49.7731C49.9125 23.834 49.8484 24.6208 49.8424 25.3603L49.8421 25.5075V25.5076C49.8437 26.0144 49.8894 26.4282 50.2111 26.7669C50.2726 26.8316 50.27 26.9339 50.2053 26.9954C50.1406 27.0568 50.0384 27.0542 49.977 26.9895C49.562 26.5527 49.5206 26.0229 49.5189 25.5086V25.5084C49.5156 24.6811 49.5972 23.9058 49.4552 23.1181V23.118C49.2254 21.8372 48.8124 20.619 48.4834 19.3408C48.4612 19.2544 48.5133 19.1663 48.5997 19.144Z" fill="#C5B39A"/>
<path d="M37.0339 16.067C37.0833 15.9927 37.1836 15.9725 37.2579 16.0219C37.3322 16.0713 37.3524 16.1716 37.303 16.2459C37.0141 16.6809 36.802 17.1583 36.5735 17.6493C36.3471 18.1355 36.1055 18.6323 35.7613 19.0778V19.078C34.51 20.6965 33.0124 22.0243 31.0917 22.8359C31.0095 22.8707 30.9147 22.8323 30.88 22.7501C30.8453 22.6679 30.8837 22.5731 30.9658 22.5384C32.8226 21.7537 34.2786 20.4674 35.5057 18.8803L35.5646 18.802C35.8541 18.4078 36.0683 17.9689 36.2806 17.5129C36.5048 17.0313 36.7282 16.5271 37.0339 16.067Z" fill="#C5B39A"/>
<path d="M23.5156 40.342C23.5156 38.6444 24.9241 36.8928 26.7059 36.4038L27.0281 36.3167C27.7902 36.1178 28.62 35.9782 29.4201 36.4968C29.4949 36.5453 29.5162 36.6453 29.4677 36.7202C29.4192 36.7951 29.3192 36.8164 29.2443 36.7678C28.4687 36.2651 27.6608 36.4765 26.7915 36.7155H26.7914C25.135 37.17 23.8388 38.8049 23.8388 40.342C23.8388 40.4312 23.7664 40.5035 23.6772 40.5035C23.588 40.5035 23.5156 40.4312 23.5156 40.342Z" fill="#C5B39A"/>
<path d="M31.7664 27.034C31.9102 27.0166 32.0387 27.0489 32.1516 27.1066C32.262 27.163 32.3581 27.2441 32.4422 27.3264C32.5254 27.4078 32.6065 27.5005 32.6779 27.5785H32.6778C33.9749 28.989 35.4317 30.1963 37.0847 31.1626L37.2453 31.2554V31.2555C37.417 31.3538 37.5986 31.4737 37.7269 31.6402C37.8546 31.8059 37.924 32.0105 37.8967 32.2649C37.8982 32.265 37.8999 32.2652 37.9015 32.2653C38.2998 32.2923 38.6992 32.4427 39.0826 32.5984C39.4744 32.7576 39.8507 32.9229 40.2333 33.0088C40.3203 33.0284 40.375 33.1149 40.3554 33.2019C40.3358 33.289 40.2495 33.3438 40.1624 33.3242C39.7468 33.2308 39.3387 33.0512 38.9611 32.8977C38.575 32.7409 38.2197 32.6108 37.8796 32.5877V32.5875C37.1596 32.5392 36.5806 32.2869 36.0588 31.9693C35.7989 31.8112 35.5518 31.636 35.3098 31.4624C35.0664 31.2878 34.8289 31.1153 34.5816 30.9565C33.445 30.2262 32.5579 29.2011 31.6512 28.2688V28.2687C31.4594 28.0718 31.2089 27.7502 31.2729 27.3305L31.276 27.3152C31.285 27.2798 31.3057 27.2483 31.3351 27.226C31.4813 27.1152 31.6244 27.0512 31.7664 27.034ZM32.0045 27.3942C31.9385 27.3605 31.8744 27.3464 31.8052 27.3548C31.7465 27.3619 31.6745 27.3866 31.5867 27.4439C31.5789 27.675 31.7182 27.8747 31.8827 28.0435H31.8829C32.8083 28.9951 33.6598 29.9801 34.756 30.6845H34.7561C35.0121 30.8488 35.2575 31.0271 35.4982 31.1998C35.7403 31.3735 35.9786 31.5423 36.2268 31.6934C36.6362 31.9425 37.0692 32.1409 37.5759 32.2267C37.5931 32.0587 37.5482 31.9377 37.471 31.8374C37.3836 31.724 37.2493 31.6299 37.085 31.5359C35.334 30.5365 33.7991 29.2751 32.4399 27.7971L32.4397 27.7967C32.3609 27.7107 32.291 27.6305 32.2161 27.5572C32.1422 27.4848 32.0731 27.4293 32.0045 27.3942Z" fill="#C5B39A"/>
<path d="M33.9743 30.806C34.0314 30.7374 34.1333 30.7281 34.2018 30.7852C34.2704 30.8423 34.2797 30.9441 34.2227 31.0127C33.0338 32.4412 32.5135 34.0336 32.8599 35.8695L32.8769 35.957L32.8771 35.9575C32.9291 36.2176 32.9183 36.5112 32.7905 36.7819C32.7524 36.8626 32.6559 36.8972 32.5753 36.8591C32.4946 36.821 32.4602 36.7247 32.4983 36.644C32.5901 36.4496 32.602 36.2294 32.5604 36.0211L32.5603 36.0212C32.1582 34.039 32.7133 32.3213 33.9743 30.806Z" fill="#C5B39A"/>
<path d="M37.999 9.94656C38.0449 9.87 38.1442 9.84504 38.2207 9.89087C38.2973 9.93669 38.3222 10.036 38.2764 10.1126C37.8859 10.765 37.6773 11.4484 37.7261 12.1999L37.7316 12.2728V12.2729C37.8141 13.2396 37.6672 14.1983 37.5681 15.1249C37.5453 15.343 37.5657 15.5001 37.627 15.6086C37.6836 15.7088 37.7904 15.7941 38.0069 15.8362C38.0945 15.8532 38.1517 15.9379 38.1347 16.0255C38.1177 16.1131 38.033 16.1703 37.9454 16.1533C37.6627 16.0984 37.4607 15.9713 37.3457 15.7677C37.2354 15.5726 37.2212 15.3347 37.2467 15.091V15.0905C37.348 14.1429 37.4886 13.2275 37.4096 12.3007L37.4036 12.2202C37.3498 11.3912 37.5819 10.6434 37.999 9.94656Z" fill="#C5B39A"/>
<path d="M14.8379 17.1162C14.8534 17.1164 14.8731 17.1179 14.8935 17.1225C14.9033 17.1248 14.9191 17.1291 14.9364 17.1377C14.9477 17.1433 14.9794 17.1601 15.0033 17.1965L15.0129 17.2134L15.017 17.222C15.5684 18.508 15.4245 19.876 15.4372 21.152C15.4381 21.2413 15.3664 21.3145 15.2772 21.3153C15.188 21.3162 15.115 21.2445 15.1141 21.1553C15.1015 19.885 15.226 18.6692 14.7838 17.5085C14.7231 17.5397 14.6468 17.53 14.5959 17.4791C14.5328 17.416 14.5328 17.3138 14.5959 17.2507C14.6098 17.2368 14.6078 17.2371 14.6319 17.2115C14.6485 17.1939 14.6742 17.1682 14.7093 17.1472L14.7111 17.1461C14.7404 17.129 14.7694 17.1228 14.7851 17.1202C14.8036 17.1171 14.8218 17.116 14.8379 17.1162Z" fill="#C5B39A"/>
<path d="M34.7922 31.4397C34.8554 31.3767 34.9577 31.3769 35.0207 31.44C35.0837 31.5032 35.0836 31.6055 35.0204 31.6685C34.0019 32.6839 33.5516 33.8951 33.6937 35.327C33.7025 35.4158 33.6376 35.495 33.5489 35.5038C33.4601 35.5125 33.381 35.4477 33.3721 35.3589C33.2202 33.8277 33.7071 32.5216 34.7922 31.4397Z" fill="#C5B39A"/>
<path d="M37.9481 11.16C38.036 11.1445 38.1198 11.2031 38.1353 11.2909C38.3228 12.3537 38.1974 13.4415 38.1911 14.4641C38.1913 14.604 38.2307 14.6579 38.2886 14.8093C38.3205 14.8927 38.2789 14.986 38.1956 15.0179C38.1122 15.0498 38.0189 15.0082 37.987 14.9248C37.9449 14.8149 37.868 14.6812 37.868 14.4632V14.4622C37.8746 13.3909 37.998 12.3717 37.8172 11.3471C37.8017 11.2592 37.8603 11.1755 37.9481 11.16Z" fill="#C5B39A"/>
<path d="M32.2657 10.2643C32.3137 10.1891 32.4136 10.1671 32.4888 10.2151C32.564 10.2631 32.5861 10.363 32.5381 10.4382C32.0625 11.183 31.5638 11.9392 30.8069 12.5036V12.5038C30.5875 12.6672 30.3606 12.782 30.1175 12.8297C29.8727 12.8778 29.6216 12.8557 29.3579 12.7603C29.274 12.73 29.2306 12.6374 29.2609 12.5535C29.2912 12.4696 29.3838 12.4261 29.4677 12.4564C29.6823 12.534 29.8739 12.5483 30.0553 12.5128C30.2154 12.4813 30.3754 12.4094 30.5419 12.2958L30.6137 12.2445C31.3173 11.7199 31.788 11.0124 32.2657 10.2643Z" fill="#C5B39A"/>
<path d="M2.02393 44.8545C2.11313 44.8531 2.1867 44.9242 2.18818 45.0134C2.18928 45.0815 2.19546 45.1533 2.20222 45.2334C2.20878 45.311 2.21589 45.3963 2.21611 45.4804C2.21654 45.6474 2.19085 45.8386 2.05832 45.9969L2.05848 45.997C1.80611 46.2989 1.6153 46.6419 1.4092 46.9991C1.20591 47.3514 0.988645 47.7157 0.68939 48.0294C0.627797 48.094 0.525483 48.0964 0.460919 48.0348C0.396365 47.9732 0.393966 47.8709 0.455554 47.8063C0.725007 47.5239 0.925441 47.191 1.12929 46.8377C1.33035 46.4892 1.53627 46.1181 1.8106 45.7899V45.7897C1.8702 45.7186 1.89333 45.6208 1.89297 45.4812C1.89278 45.4121 1.88701 45.3396 1.88034 45.2606C1.87388 45.1841 1.86636 45.1001 1.86504 45.0188C1.86359 44.9296 1.93473 44.856 2.02393 44.8545Z" fill="#C5B39A"/>
<path d="M28.6795 44.3717C28.7687 44.3681 28.8438 44.4375 28.8474 44.5267C28.8607 44.8595 28.9642 45.1631 29.102 45.47C29.1712 45.6242 29.2472 45.7754 29.3245 45.9327C29.401 46.0885 29.4781 46.2489 29.5451 46.4147H29.5449C29.5585 46.4479 29.5833 46.4864 29.6218 46.5457C29.6564 46.599 29.7016 46.6681 29.7333 46.7432C29.766 46.8203 29.7895 46.9147 29.772 47.0196C29.7542 47.1261 29.6973 47.2232 29.6054 47.3111C29.5409 47.3726 29.4387 47.3703 29.3771 47.3059C29.3154 47.2413 29.3177 47.139 29.3823 47.0774C29.4357 47.0263 29.4496 46.9892 29.4534 46.9663C29.4575 46.942 29.4538 46.9119 29.4357 46.8693C29.4168 46.8246 29.3878 46.7787 29.3509 46.7217C29.3179 46.6709 29.2732 46.6039 29.2456 46.5362L29.2455 46.5357C29.1832 46.3816 29.1106 46.2301 29.0345 46.0751C28.9591 45.9217 28.8793 45.7632 28.8071 45.6024C28.6622 45.2797 28.5403 44.9322 28.5245 44.5396C28.521 44.4504 28.5903 44.3753 28.6795 44.3717Z" fill="#C5B39A"/>
<path d="M33.339 45.9872C33.4264 45.9693 33.5118 46.0256 33.5298 46.113C33.6554 46.7238 33.9368 47.2752 34.2395 47.8435H34.2397C34.3766 48.1008 34.5868 48.4329 34.4989 48.8392C34.48 48.9263 34.3939 48.9817 34.3067 48.9629C34.2196 48.944 34.1642 48.858 34.183 48.7708C34.2262 48.5714 34.1644 48.401 34.0645 48.2038L33.9544 47.9955C33.6529 47.4296 33.3495 46.8403 33.2133 46.178C33.1953 46.0906 33.2517 46.0052 33.339 45.9872Z" fill="#C5B39A"/>
<path d="M29.622 44.858C29.7092 44.8396 29.7949 44.8955 29.8133 44.9828C29.9414 45.5895 30.2094 46.138 30.5313 46.6804L30.5964 46.7888C30.6532 46.8824 30.744 47.0138 30.794 47.152C30.8485 47.3028 30.8623 47.4766 30.7698 47.6658C30.7306 47.7459 30.6338 47.7791 30.5537 47.7399C30.4735 47.7007 30.4403 47.6039 30.4795 47.5237C30.526 47.4285 30.5212 47.3479 30.4901 47.262C30.4545 47.1635 30.3927 47.0759 30.3202 46.9562V46.9564C29.9631 46.3677 29.6449 45.7497 29.4971 45.0494C29.4788 44.9621 29.5347 44.8764 29.622 44.858Z" fill="#C5B39A"/>
<path d="M35.433 46.6335C35.5195 46.612 35.6073 46.6647 35.6288 46.7513C35.7754 47.3423 36.0777 47.8729 36.4259 48.3825C36.6313 48.6824 36.6908 48.9712 36.6837 49.2918C36.6817 49.3809 36.6078 49.4517 36.5187 49.4497C36.4295 49.4478 36.3586 49.3739 36.3606 49.2847C36.3664 49.0172 36.3191 48.7985 36.1594 48.5652L36.1592 48.565C35.8031 48.0439 35.4755 47.4758 35.3151 46.8293C35.2936 46.7427 35.3464 46.655 35.433 46.6335Z" fill="#C5B39A"/>
<path d="M34.4586 46.4731C34.5445 46.4489 34.6339 46.499 34.6581 46.5848C34.8361 47.2166 35.1095 47.8011 35.5265 48.2861L35.5268 48.2864C35.6503 48.4307 35.6883 48.5744 35.6994 48.7072C35.7046 48.7691 35.7041 48.8314 35.7045 48.8819C35.7049 48.9353 35.7062 48.9805 35.7125 49.024C35.7254 49.1123 35.6643 49.1945 35.5761 49.2074C35.4878 49.2203 35.4058 49.159 35.3929 49.0707C35.3831 49.0036 35.3818 48.9395 35.3813 48.8844C35.3809 48.8263 35.3813 48.7805 35.3774 48.7342C35.3704 48.6504 35.35 48.5768 35.2813 48.4966V48.4964C34.826 47.9667 34.534 47.3364 34.3469 46.6726C34.3227 46.5867 34.3728 46.4973 34.4586 46.4731Z" fill="#C5B39A"/>
<path d="M27.9898 44.7025C28.0747 44.675 28.1657 44.7216 28.1932 44.8064C28.2306 44.9222 28.2632 45.0396 28.2951 45.1514C28.3274 45.2645 28.3592 45.3732 28.3966 45.4786C28.4709 45.6884 28.5647 45.8779 28.7159 46.0427L28.7161 46.0428C28.8442 46.1827 28.8679 46.3506 28.8677 46.4924C28.8676 46.5628 28.8615 46.634 28.8563 46.6961C28.851 46.7609 28.8467 46.8168 28.8473 46.8688C28.8485 46.958 28.7772 47.0312 28.688 47.0325C28.5988 47.0336 28.5254 46.9623 28.5242 46.8731C28.5233 46.8032 28.5291 46.7322 28.5343 46.6694C28.5397 46.6039 28.5445 46.5465 28.5446 46.4917C28.5447 46.3831 28.5258 46.3134 28.4778 46.2611C28.2866 46.0526 28.1744 45.819 28.092 45.5865C28.051 45.4707 28.0168 45.3534 27.9844 45.2399C27.9517 45.1249 27.921 45.0147 27.8858 44.9058C27.8584 44.821 27.9049 44.7299 27.9898 44.7025Z" fill="#C5B39A"/>
<path d="M19.4272 25.3313C19.4803 25.2596 19.5814 25.2445 19.6532 25.2976C20.2754 25.7579 20.9612 26.1152 21.6542 26.4942C21.7325 26.537 21.7612 26.6352 21.7184 26.7135C21.6756 26.7918 21.5775 26.8205 21.4992 26.7777C20.8156 26.4038 20.1054 26.034 19.461 25.5573C19.3892 25.5042 19.3741 25.4031 19.4272 25.3313Z" fill="#C5B39A"/>
<path d="M32.5349 46.308C32.6227 46.2922 32.7067 46.3507 32.7225 46.4385C32.7807 46.7622 32.9386 47.0514 33.0958 47.3864C33.2484 47.7116 33.3944 48.0714 33.371 48.4908C33.366 48.5799 33.2899 48.6482 33.2008 48.6432C33.1117 48.6382 33.0435 48.5619 33.0485 48.4728C33.0671 48.1393 32.9528 47.8424 32.8033 47.5237C32.6584 47.2149 32.4723 46.8731 32.4044 46.4956C32.3887 46.4078 32.4471 46.3238 32.5349 46.308Z" fill="#C5B39A"/>
<path d="M31.7572 46.1455C31.8464 46.1464 31.918 46.2194 31.9172 46.3087C31.9145 46.5965 32.0577 46.8419 32.2212 47.1451C32.3772 47.4343 32.5476 47.7729 32.4806 48.1877C32.4664 48.2758 32.3835 48.3356 32.2954 48.3214C32.2073 48.3071 32.1474 48.2242 32.1616 48.1361C32.2094 47.84 32.0938 47.5897 31.9368 47.2984C31.7872 47.0212 31.5903 46.6946 31.594 46.3055C31.5949 46.2163 31.668 46.1447 31.7572 46.1455Z" fill="#C5B39A"/>
<path d="M30.9348 46.146C31.0237 46.1389 31.1017 46.2053 31.1088 46.2942C31.1288 46.544 31.2591 46.7571 31.4077 47.0214C31.5493 47.2734 31.7037 47.5687 31.6743 47.9326C31.6672 48.0215 31.5892 48.0878 31.5003 48.0806C31.4114 48.0734 31.345 47.9955 31.3522 47.9066C31.3729 47.6501 31.268 47.4323 31.126 47.1798C30.9911 46.9397 30.8136 46.6567 30.7867 46.3201C30.7795 46.2311 30.8459 46.1532 30.9348 46.146Z" fill="#C5B39A"/>
<path d="M27.2372 44.5333C27.3264 44.5364 27.3961 44.6111 27.3931 44.7002C27.3893 44.8088 27.4175 44.917 27.4661 45.0354C27.5176 45.1605 27.5789 45.2695 27.6459 45.4106C27.7724 45.6774 27.8856 46 27.6998 46.3784C27.6605 46.4585 27.5637 46.4915 27.4837 46.4523C27.4036 46.4129 27.3703 46.3161 27.4097 46.2359C27.5276 45.9956 27.4696 45.7931 27.3538 45.549C27.2995 45.4345 27.2221 45.2915 27.1673 45.1583C27.1097 45.0183 27.0642 44.8618 27.0701 44.6892C27.0732 44.6 27.148 44.5302 27.2372 44.5333Z" fill="#C5B39A"/>
<path d="M26.5799 21.7985C26.8153 21.7902 27.0515 21.8005 27.2773 21.8075C27.5059 21.8145 27.7265 21.8183 27.9447 21.799C28.0336 21.7911 28.112 21.8568 28.1199 21.9457C28.1277 22.0346 28.062 22.113 27.9731 22.1209C27.7341 22.142 27.4967 22.1376 27.2672 22.1305C27.035 22.1233 26.8131 22.1135 26.5913 22.1213C26.5021 22.1245 26.4273 22.0548 26.4242 21.9656C26.421 21.8764 26.4907 21.8017 26.5799 21.7985Z" fill="#C5B39A"/>
<path d="M26.4221 44.3716C26.5113 44.3706 26.5844 44.4422 26.5854 44.5314C26.5862 44.6113 26.6103 44.6933 26.6515 44.7872C26.672 44.834 26.6955 44.8813 26.7212 44.932C26.7463 44.9816 26.7741 45.0355 26.7993 45.0897C26.8498 45.198 26.8978 45.3224 26.9093 45.4601C26.9211 45.6022 26.8932 45.7497 26.8066 45.9023C26.7625 45.9798 26.6639 46.0071 26.5863 45.963C26.5087 45.9189 26.4817 45.8203 26.5257 45.7427C26.5804 45.6465 26.5936 45.5639 26.5873 45.487C26.5805 45.4058 26.5512 45.3224 26.5063 45.2261C26.4839 45.1781 26.4595 45.1302 26.4331 45.0781C26.4073 45.0273 26.38 44.9729 26.3555 44.9169C26.3065 44.8052 26.2638 44.6771 26.2622 44.5349C26.2613 44.4457 26.3328 44.3726 26.4221 44.3716Z" fill="#C5B39A"/>
<path d="M25.1345 43.5338C25.152 43.4463 25.237 43.3895 25.3245 43.407C25.412 43.4244 25.4688 43.5094 25.4513 43.5969C25.4208 43.7501 25.4851 43.8902 25.5695 44.1051C25.647 44.3025 25.7347 44.5578 25.6008 44.8426C25.5628 44.9234 25.4665 44.9581 25.3857 44.9201C25.305 44.8821 25.2703 44.7859 25.3082 44.7052C25.3795 44.5538 25.3444 44.4157 25.2688 44.2233C25.2001 44.0485 25.081 43.8023 25.1345 43.5338Z" fill="#C5B39A"/>
<path d="M26.9128 12.7327C26.9333 12.6459 27.0204 12.592 27.1072 12.6125C27.4698 12.6981 27.7975 12.7988 28.1449 12.8525C28.2331 12.8661 28.2936 12.9486 28.28 13.0368C28.2664 13.1249 28.1839 13.1854 28.0957 13.1718C27.7323 13.1157 27.3683 13.0063 27.033 12.9271C26.9462 12.9066 26.8923 12.8196 26.9128 12.7327Z" fill="#C5B39A"/>
<path d="M24.1644 42.4093C24.1799 42.3215 24.2637 42.2629 24.3515 42.2784C24.4394 42.2939 24.498 42.3776 24.4825 42.4655C24.4707 42.5322 24.4715 42.6043 24.4788 42.6866C24.4825 42.7276 24.4875 42.7693 24.493 42.8139C24.4984 42.8576 24.5042 42.9044 24.5087 42.9513C24.5266 43.1402 24.5256 43.3636 24.375 43.5787C24.3238 43.6517 24.2231 43.6694 24.15 43.6183C24.0769 43.5671 24.0591 43.4664 24.1103 43.3933C24.1939 43.2739 24.2026 43.1467 24.1869 42.9818C24.183 42.9403 24.1778 42.8984 24.1723 42.8535C24.1668 42.8094 24.1612 42.7625 24.157 42.7151C24.1486 42.6205 24.1455 42.5163 24.1644 42.4093Z" fill="#C5B39A"/>
<path d="M28.2819 22.6047C28.3711 22.6047 28.4435 22.6771 28.4435 22.7663C28.4435 22.8555 28.3711 22.9279 28.2819 22.9279H27.3933C27.304 22.9279 27.2317 22.8555 27.2317 22.7663C27.2317 22.6771 27.304 22.6047 27.3933 22.6047H28.2819Z" fill="#C5B39A"/>
<path d="M39.2217 49.1102C39.2762 49.0396 39.3778 49.0265 39.4484 49.081C39.6216 49.2148 39.6763 49.3812 39.6868 49.5399C39.6918 49.6147 39.687 49.6891 39.6822 49.7537C39.6772 49.8217 39.6724 49.8781 39.6728 49.9334C39.6733 50.0226 39.6015 50.0954 39.5123 50.0961C39.4231 50.0966 39.3502 50.0247 39.3496 49.9354C39.3492 49.8639 39.3556 49.7909 39.36 49.73C39.3647 49.6656 39.3676 49.6113 39.3643 49.5612C39.3582 49.4698 39.3329 49.4003 39.2508 49.337C39.1802 49.2824 39.1671 49.1808 39.2217 49.1102Z" fill="#C5B39A"/>
<path d="M2.52375 49.1467C2.55815 49.0644 2.65285 49.0255 2.73518 49.0599C2.81751 49.0943 2.85636 49.189 2.82196 49.2713C2.79402 49.3382 2.76059 49.4014 2.73013 49.4583C2.69856 49.5173 2.67055 49.5689 2.6465 49.6214C2.59965 49.7239 2.57644 49.8133 2.59049 49.9116C2.6031 49.9999 2.54169 50.0817 2.45337 50.0943C2.36506 50.1069 2.28315 50.0457 2.2705 49.9574C2.24416 49.773 2.29295 49.6175 2.35271 49.4869C2.38197 49.4229 2.41591 49.3608 2.44533 49.3059C2.47585 49.2488 2.50241 49.1977 2.52375 49.1467Z" fill="#C5B39A"/>
<path d="M16.6064 23.5488C16.6641 23.4807 16.7661 23.4723 16.8341 23.53C16.9005 23.5864 16.9598 23.6484 17.0132 23.7061C17.0686 23.7659 17.116 23.8192 17.1673 23.8694C17.2672 23.9671 17.3631 24.0341 17.4878 24.0586C17.5754 24.0758 17.6325 24.1607 17.6153 24.2482C17.5981 24.3358 17.5132 24.3929 17.4256 24.3757C17.2126 24.3339 17.062 24.2184 16.9414 24.1004C16.8825 24.0428 16.8262 23.9798 16.776 23.9256C16.724 23.8693 16.6759 23.8195 16.6252 23.7765C16.5572 23.7188 16.5487 23.6168 16.6064 23.5488Z" fill="#C5B39A"/>
<path d="M38.1369 48.9079C38.2139 48.8628 38.3129 48.8888 38.358 48.9658C38.4801 49.1744 38.5895 49.4244 38.5394 49.719C38.5244 49.807 38.4409 49.8662 38.3529 49.8512C38.265 49.8363 38.2057 49.7529 38.2207 49.6649C38.2514 49.4845 38.1895 49.3177 38.079 49.1289C38.034 49.0519 38.0599 48.9529 38.1369 48.9079Z" fill="#C5B39A"/>
<path d="M30.7864 20.9922C30.8756 20.9922 30.948 21.0645 30.948 21.1538C30.948 21.243 30.8756 21.3153 30.7864 21.3153H30.2209C30.1317 21.3153 30.0593 21.243 30.0593 21.1538C30.0593 21.0645 30.1317 20.9922 30.2209 20.9922H30.7864Z" fill="#C5B39A"/>
<path d="M27.6893 12.288C27.7997 12.2933 27.9256 12.3147 28.047 12.3938C28.1218 12.4425 28.1429 12.5427 28.0942 12.6174C28.0455 12.6921 27.9454 12.7133 27.8706 12.6646C27.8159 12.629 27.7543 12.6147 27.6737 12.6108C27.6324 12.6088 27.5897 12.6095 27.5405 12.6105C27.4932 12.6114 27.4394 12.6124 27.3851 12.6097C27.296 12.6051 27.2274 12.5293 27.2319 12.4402C27.2364 12.3511 27.3124 12.2825 27.4015 12.287C27.4426 12.2891 27.4851 12.2884 27.5342 12.2875C27.5814 12.2866 27.6351 12.2853 27.6893 12.288Z" fill="#C5B39A"/>
</svg>
