<svg xmlns="http://www.w3.org/2000/svg" width="54" height="43" viewBox="0 0 54 43" fill="none">
	<mask id="path-1-inside-1_34_278" fill="white">
		<path d="M48.1772 21.5036C48.3778 32.4703 38.8867 42.0044 27.9272 41.9328C16.8244 42.205 7.1757 32.6207 7.31896 21.5036C7.1757 10.3865 16.8244 0.80231 27.9272 1.07451C38.8867 1.01004 48.3778 10.5441 48.1772 21.5036ZM48.1772 21.5036C48.2417 7.24907 33.3425 -2.62167 20.2698 3.02285C7.30462 8.39517 3.85917 25.7084 13.823 35.6078C26.4229 48.2936 48.0841 39.4114 48.1772 21.5036Z" />
	</mask>
	<path d="M48.1772 21.5036C48.3778 32.4703 38.8867 42.0044 27.9272 41.9328C16.8244 42.205 7.1757 32.6207 7.31896 21.5036C7.1757 10.3865 16.8244 0.80231 27.9272 1.07451C38.8867 1.01004 48.3778 10.5441 48.1772 21.5036ZM48.1772 21.5036C48.2417 7.24907 33.3425 -2.62167 20.2698 3.02285C7.30462 8.39517 3.85917 25.7084 13.823 35.6078C26.4229 48.2936 48.0841 39.4114 48.1772 21.5036Z" fill="#4A4A4A" />
	<path d="M27.9272 41.9328L27.9337 40.9328L27.9182 40.9327L27.9027 40.9331L27.9272 41.9328ZM7.31896 21.5036L8.31888 21.5165L8.31904 21.5036L8.31888 21.4907L7.31896 21.5036ZM27.9272 1.07451L27.9027 2.07421L27.9179 2.07458L27.9331 2.07449L27.9272 1.07451ZM20.2698 3.02285L20.6526 3.94668L20.6594 3.94385L20.6662 3.94092L20.2698 3.02285ZM13.823 35.6078L14.5326 34.903L14.5278 34.8984L13.823 35.6078ZM48.1772 21.5036L47.1774 21.5219C47.3676 31.9226 38.3354 41.0008 27.9337 40.9328L27.9272 41.9328L27.9206 42.9328C39.438 43.008 49.388 33.0181 49.1771 21.4853L48.1772 21.5036ZM27.9272 41.9328L27.9027 40.9331C17.37 41.1913 8.18287 32.0701 8.31888 21.5165L7.31896 21.5036L6.31904 21.4907C6.16852 33.1713 16.2787 43.2187 27.9517 42.9325L27.9272 41.9328ZM7.31896 21.5036L8.31888 21.4907C8.18287 10.9371 17.37 1.81599 27.9027 2.07421L27.9272 1.07451L27.9517 0.074808C16.2787 -0.211368 6.16852 9.83589 6.31904 21.5165L7.31896 21.5036ZM27.9272 1.07451L27.9331 2.07449C38.3356 2.0133 47.3676 11.0922 47.1774 21.4853L48.1772 21.5036L49.1771 21.5219C49.388 9.99598 39.4378 0.00678062 27.9213 0.0745249L27.9272 1.07451ZM48.1772 21.5036L49.1772 21.5081C49.2449 6.53531 33.6105 -3.82665 19.8734 2.10477L20.2698 3.02285L20.6662 3.94092C33.0744 -1.41669 47.2385 7.96282 47.1772 21.4991L48.1772 21.5036ZM20.2698 3.02285L19.887 2.09902C6.26452 7.7437 2.64605 25.9127 13.1182 36.3172L13.823 35.6078L14.5278 34.8984C5.07229 25.504 8.34472 9.04664 20.6526 3.94668L20.2698 3.02285ZM13.823 35.6078L13.1135 36.3125C26.3431 49.6323 49.0795 40.3031 49.1772 21.5088L48.1772 21.5036L47.1772 21.4984C47.0887 38.5196 26.5028 46.9549 14.5325 34.9031L13.823 35.6078Z" fill="#C5B39A" mask="url(#path-1-inside-1_34_278)" />
	<mask id="path-3-inside-2_34_278" fill="white">
		<path d="M40.6345 21.5035C40.6489 32.8714 26.8599 38.6663 18.7155 30.7081C13.6154 25.8229 13.6082 17.177 18.7155 12.2918C26.8671 4.33362 40.6489 10.1357 40.6345 21.4964V21.5035ZM40.6345 21.5035C40.5557 10.2861 27.0032 4.7634 19.1452 12.7288C14.3961 17.3633 14.3889 25.6438 19.1452 30.2783C27.0032 38.2437 40.5629 32.721 40.6345 21.5035Z" />
	</mask>
	<path d="M40.6345 21.5035C40.6489 32.8714 26.8599 38.6663 18.7155 30.7081C13.6154 25.8229 13.6082 17.177 18.7155 12.2918C26.8671 4.33362 40.6489 10.1357 40.6345 21.4964V21.5035ZM40.6345 21.5035C40.5557 10.2861 27.0032 4.7634 19.1452 12.7288C14.3961 17.3633 14.3889 25.6438 19.1452 30.2783C27.0032 38.2437 40.5629 32.721 40.6345 21.5035Z" fill="#4A4A4A" />
	<path d="M18.7155 30.7081L19.4144 29.9929L19.4072 29.986L18.7155 30.7081ZM18.7155 12.2918L19.4067 13.0145L19.414 13.0074L18.7155 12.2918ZM40.6345 21.4964L39.6345 21.4951V21.4964H40.6345ZM19.1452 12.7288L19.8437 13.4444L19.8505 13.4378L19.8571 13.431L19.1452 12.7288ZM19.1452 30.2783L19.8571 29.576L19.8502 29.569L19.8431 29.5621L19.1452 30.2783ZM40.6345 21.5035L39.6345 21.5048C39.6477 31.9818 26.9287 37.3354 19.4144 29.9929L18.7155 30.7081L18.0166 31.4234C26.7912 39.9973 41.65 33.761 41.6345 21.5023L40.6345 21.5035ZM18.7155 30.7081L19.4072 29.986C14.7175 25.4938 14.7118 17.5053 19.4067 13.0145L18.7155 12.2918L18.0243 11.5692C12.5046 16.8488 12.5133 26.152 18.0237 31.4303L18.7155 30.7081ZM18.7155 12.2918L19.414 13.0074C26.9353 5.66452 39.6477 11.025 39.6345 21.4951L40.6345 21.4964L41.6345 21.4976C41.65 9.24639 26.7988 3.00273 18.0169 11.5763L18.7155 12.2918ZM40.6345 21.4964H39.6345V21.5035H40.6345H41.6345V21.4964H40.6345ZM40.6345 21.5035L41.6345 21.4965C41.5495 9.39393 26.9208 3.42299 18.4334 12.0265L19.1452 12.7288L19.8571 13.431C27.0855 6.10381 39.562 11.1784 39.6346 21.5106L40.6345 21.5035ZM19.1452 12.7288L18.4468 12.0131C13.2963 17.0393 13.2876 25.9669 18.4474 30.9946L19.1452 30.2783L19.8431 29.5621C15.4903 25.3208 15.496 17.6872 19.8437 13.4444L19.1452 12.7288ZM19.1452 30.2783L18.4334 30.9806C26.92 39.5834 41.5572 33.6142 41.6345 21.5099L40.6345 21.5035L39.6345 21.4972C39.5686 31.8277 27.0863 36.904 19.8571 29.576L19.1452 30.2783Z" fill="#C5B39A" mask="url(#path-3-inside-2_34_278)" />
	<mask id="path-5-inside-3_34_278" fill="white">
		<path d="M4.88348 12.8293C5.16284 22.5926 5.19866 32.3559 5.24164 42.1192C5.13419 42.1192 2.56263 42.1192 2.36206 42.1192H2.00391V41.7683C2.03972 32.1196 2.0827 22.478 2.36206 12.8293C2.50532 17.6501 2.57695 22.478 2.62709 27.2988C2.69156 32.1196 2.68439 36.9475 2.71305 41.7683L2.36206 41.4172H4.89063L4.53965 41.7683C4.57546 32.1196 4.61843 22.478 4.89063 12.8293H4.88348Z" />
	</mask>
	<path d="M4.88348 12.8293C5.16284 22.5926 5.19866 32.3559 5.24164 42.1192C5.13419 42.1192 2.56263 42.1192 2.36206 42.1192H2.00391V41.7683C2.03972 32.1196 2.0827 22.478 2.36206 12.8293C2.50532 17.6501 2.57695 22.478 2.62709 27.2988C2.69156 32.1196 2.68439 36.9475 2.71305 41.7683L2.36206 41.4172H4.89063L4.53965 41.7683C4.57546 32.1196 4.61843 22.478 4.89063 12.8293H4.88348Z" fill="#4A4A4A" />
	<path d="M4.88348 12.8293V11.8293H3.85446L3.88389 12.8579L4.88348 12.8293ZM5.24164 42.1192V43.1192H6.24605L6.24163 42.1148L5.24164 42.1192ZM2.00391 42.1192H1.00391V43.1192H2.00391V42.1192ZM2.00391 41.7683L1.00391 41.7645V41.7683H2.00391ZM2.36206 12.8293L3.36162 12.7996L1.36248 12.8004L2.36206 12.8293ZM2.62709 27.2988L1.62714 27.3092L1.62718 27.3122L2.62709 27.2988ZM2.71305 41.7683L2.00589 42.4753L3.7275 44.1971L3.71303 41.7623L2.71305 41.7683ZM2.36206 41.4172V40.4172H-0.05194L1.65491 42.1243L2.36206 41.4172ZM4.89063 41.4172L5.59778 42.1243L7.30463 40.4172H4.89063V41.4172ZM4.53965 41.7683L3.53965 41.7645L3.53065 44.1917L5.2468 42.4753L4.53965 41.7683ZM4.89063 12.8293L5.89023 12.8575L5.91924 11.8293H4.89063V12.8293ZM4.88348 12.8293L3.88389 12.8579C4.16284 22.6069 4.19866 32.3576 4.24165 42.1236L5.24164 42.1192L6.24163 42.1148C6.19866 32.3543 6.16285 22.5784 5.88307 12.8007L4.88348 12.8293ZM5.24164 42.1192V41.1192C5.24143 41.1192 5.24121 41.1192 5.24098 41.1192C5.24075 41.1192 5.24051 41.1192 5.24027 41.1192C5.24002 41.1192 5.23976 41.1192 5.2395 41.1192C5.23923 41.1192 5.23896 41.1192 5.23867 41.1192C5.23839 41.1192 5.23809 41.1192 5.23779 41.1192C5.23749 41.1192 5.23718 41.1192 5.23685 41.1192C5.23653 41.1192 5.2362 41.1192 5.23586 41.1192C5.23552 41.1192 5.23517 41.1192 5.23482 41.1192C5.23446 41.1192 5.23409 41.1192 5.23371 41.1192C5.23334 41.1192 5.23295 41.1192 5.23256 41.1192C5.23216 41.1192 5.23176 41.1192 5.23135 41.1192C5.23094 41.1192 5.23052 41.1192 5.23009 41.1192C5.22966 41.1192 5.22922 41.1192 5.22877 41.1192C5.22832 41.1192 5.22786 41.1192 5.2274 41.1192C5.22693 41.1192 5.22646 41.1192 5.22597 41.1192C5.22549 41.1192 5.225 41.1192 5.22449 41.1192C5.22399 41.1192 5.22348 41.1192 5.22296 41.1192C5.22244 41.1192 5.22192 41.1192 5.22138 41.1192C5.22084 41.1192 5.2203 41.1192 5.21974 41.1192C5.21919 41.1192 5.21863 41.1192 5.21806 41.1192C5.21748 41.1192 5.2169 41.1192 5.21632 41.1192C5.21573 41.1192 5.21513 41.1192 5.21452 41.1192C5.21392 41.1192 5.2133 41.1192 5.21268 41.1192C5.21206 41.1192 5.21142 41.1192 5.21078 41.1192C5.21014 41.1192 5.20949 41.1192 5.20884 41.1192C5.20818 41.1192 5.20751 41.1192 5.20684 41.1192C5.20617 41.1192 5.20548 41.1192 5.20479 41.1192C5.2041 41.1192 5.2034 41.1192 5.20269 41.1192C5.20198 41.1192 5.20127 41.1192 5.20054 41.1192C5.19982 41.1192 5.19909 41.1192 5.19834 41.1192C5.1976 41.1192 5.19685 41.1192 5.1961 41.1192C5.19534 41.1192 5.19457 41.1192 5.1938 41.1192C5.19302 41.1192 5.19224 41.1192 5.19145 41.1192C5.19066 41.1192 5.18986 41.1192 5.18905 41.1192C5.18824 41.1192 5.18743 41.1192 5.1866 41.1192C5.18578 41.1192 5.18495 41.1192 5.18411 41.1192C5.18327 41.1192 5.18242 41.1192 5.18156 41.1192C5.18071 41.1192 5.17984 41.1192 5.17897 41.1192C5.1781 41.1192 5.17722 41.1192 5.17633 41.1192C5.17544 41.1192 5.17455 41.1192 5.17364 41.1192C5.17274 41.1192 5.17183 41.1192 5.17091 41.1192C5.16999 41.1192 5.16906 41.1192 5.16812 41.1192C5.16719 41.1192 5.16624 41.1192 5.16529 41.1192C5.16434 41.1192 5.16338 41.1192 5.16241 41.1192C5.16144 41.1192 5.16047 41.1192 5.15949 41.1192C5.1585 41.1192 5.15751 41.1192 5.15651 41.1192C5.15552 41.1192 5.15451 41.1192 5.1535 41.1192C5.15248 41.1192 5.15146 41.1192 5.15043 41.1192C5.1494 41.1192 5.14837 41.1192 5.14732 41.1192C5.14628 41.1192 5.14522 41.1192 5.14416 41.1192C5.1431 41.1192 5.14204 41.1192 5.14096 41.1192C5.13989 41.1192 5.1388 41.1192 5.13771 41.1192C5.13662 41.1192 5.13553 41.1192 5.13442 41.1192C5.13332 41.1192 5.1322 41.1192 5.13108 41.1192C5.12996 41.1192 5.12884 41.1192 5.1277 41.1192C5.12657 41.1192 5.12542 41.1192 5.12428 41.1192C5.12313 41.1192 5.12197 41.1192 5.1208 41.1192C5.11964 41.1192 5.11847 41.1192 5.11729 41.1192C5.11611 41.1192 5.11492 41.1192 5.11373 41.1192C5.11254 41.1192 5.11134 41.1192 5.11013 41.1192C5.10892 41.1192 5.1077 41.1192 5.10648 41.1192C5.10526 41.1192 5.10403 41.1192 5.10279 41.1192C5.10155 41.1192 5.10031 41.1192 5.09906 41.1192C5.09781 41.1192 5.09655 41.1192 5.09528 41.1192C5.09402 41.1192 5.09275 41.1192 5.09147 41.1192C5.09019 41.1192 5.0889 41.1192 5.08761 41.1192C5.08631 41.1192 5.08501 41.1192 5.0837 41.1192C5.0824 41.1192 5.08108 41.1192 5.07976 41.1192C5.07844 41.1192 5.07711 41.1192 5.07577 41.1192C5.07444 41.1192 5.0731 41.1192 5.07175 41.1192C5.0704 41.1192 5.06904 41.1192 5.06768 41.1192C5.06632 41.1192 5.06495 41.1192 5.06357 41.1192C5.06219 41.1192 5.06081 41.1192 5.05942 41.1192C5.05803 41.1192 5.05663 41.1192 5.05523 41.1192C5.05382 41.1192 5.05241 41.1192 5.051 41.1192C5.04958 41.1192 5.04815 41.1192 5.04672 41.1192C5.04529 41.1192 5.04386 41.1192 5.04241 41.1192C5.04097 41.1192 5.03952 41.1192 5.03806 41.1192C5.0366 41.1192 5.03514 41.1192 5.03367 41.1192C5.0322 41.1192 5.03072 41.1192 5.02924 41.1192C5.02776 41.1192 5.02627 41.1192 5.02477 41.1192C5.02327 41.1192 5.02177 41.1192 5.02026 41.1192C5.01875 41.1192 5.01724 41.1192 5.01572 41.1192C5.01419 41.1192 5.01267 41.1192 5.01113 41.1192C5.0096 41.1192 5.00805 41.1192 5.00651 41.1192C5.00496 41.1192 5.00341 41.1192 5.00185 41.1192C5.00028 41.1192 4.99872 41.1192 4.99715 41.1192C4.99557 41.1192 4.99399 41.1192 4.99241 41.1192C4.99082 41.1192 4.98923 41.1192 4.98763 41.1192C4.98604 41.1192 4.98443 41.1192 4.98282 41.1192C4.98121 41.1192 4.9796 41.1192 4.97797 41.1192C4.97635 41.1192 4.97472 41.1192 4.97309 41.1192C4.97145 41.1192 4.96981 41.1192 4.96817 41.1192C4.96652 41.1192 4.96487 41.1192 4.96321 41.1192C4.96155 41.1192 4.95989 41.1192 4.95821 41.1192C4.95654 41.1192 4.95487 41.1192 4.95318 41.1192C4.9515 41.1192 4.94981 41.1192 4.94812 41.1192C4.94642 41.1192 4.94472 41.1192 4.94302 41.1192C4.94131 41.1192 4.9396 41.1192 4.93788 41.1192C4.93616 41.1192 4.93444 41.1192 4.93271 41.1192C4.93098 41.1192 4.92925 41.1192 4.9275 41.1192C4.92576 41.1192 4.92402 41.1192 4.92226 41.1192C4.92051 41.1192 4.91875 41.1192 4.91699 41.1192C4.91522 41.1192 4.91345 41.1192 4.91168 41.1192C4.9099 41.1192 4.90812 41.1192 4.90634 41.1192C4.90455 41.1192 4.90276 41.1192 4.90096 41.1192C4.89916 41.1192 4.89736 41.1192 4.89555 41.1192C4.89374 41.1192 4.89193 41.1192 4.89011 41.1192C4.88829 41.1192 4.88646 41.1192 4.88463 41.1192C4.8828 41.1192 4.88096 41.1192 4.87912 41.1192C4.87728 41.1192 4.87543 41.1192 4.87358 41.1192C4.87172 41.1192 4.86987 41.1192 4.868 41.1192C4.86614 41.1192 4.86427 41.1192 4.8624 41.1192C4.86052 41.1192 4.85864 41.1192 4.85676 41.1192C4.85487 41.1192 4.85298 41.1192 4.85109 41.1192C4.84919 41.1192 4.84729 41.1192 4.84539 41.1192C4.84348 41.1192 4.84157 41.1192 4.83965 41.1192C4.83774 41.1192 4.83581 41.1192 4.83389 41.1192C4.83196 41.1192 4.83003 41.1192 4.82809 41.1192C4.82616 41.1192 4.82421 41.1192 4.82227 41.1192C4.82032 41.1192 4.81837 41.1192 4.81641 41.1192C4.81445 41.1192 4.81249 41.1192 4.81052 41.1192C4.80856 41.1192 4.80658 41.1192 4.80461 41.1192C4.80263 41.1192 4.80065 41.1192 4.79866 41.1192C4.79667 41.1192 4.79468 41.1192 4.79268 41.1192C4.79069 41.1192 4.78869 41.1192 4.78668 41.1192C4.78467 41.1192 4.78266 41.1192 4.78064 41.1192C4.77863 41.1192 4.77661 41.1192 4.77458 41.1192C4.77255 41.1192 4.77052 41.1192 4.76849 41.1192C4.76645 41.1192 4.76441 41.1192 4.76237 41.1192C4.76032 41.1192 4.75827 41.1192 4.75622 41.1192C4.75416 41.1192 4.7521 41.1192 4.75004 41.1192C4.74798 41.1192 4.74591 41.1192 4.74384 41.1192C4.74176 41.1192 4.73969 41.1192 4.7376 41.1192C4.73552 41.1192 4.73343 41.1192 4.73134 41.1192C4.72925 41.1192 4.72716 41.1192 4.72506 41.1192C4.72295 41.1192 4.72085 41.1192 4.71874 41.1192C4.71663 41.1192 4.71452 41.1192 4.7124 41.1192C4.71028 41.1192 4.70816 41.1192 4.70603 41.1192C4.70391 41.1192 4.70177 41.1192 4.69964 41.1192C4.6975 41.1192 4.69536 41.1192 4.69322 41.1192C4.69107 41.1192 4.68892 41.1192 4.68677 41.1192C4.68462 41.1192 4.68246 41.1192 4.6803 41.1192C4.67814 41.1192 4.67597 41.1192 4.6738 41.1192C4.67163 41.1192 4.66946 41.1192 4.66728 41.1192C4.6651 41.1192 4.66292 41.1192 4.66073 41.1192C4.65855 41.1192 4.65635 41.1192 4.65416 41.1192C4.65196 41.1192 4.64977 41.1192 4.64756 41.1192C4.64536 41.1192 4.64315 41.1192 4.64094 41.1192C4.63873 41.1192 4.63651 41.1192 4.63429 41.1192C4.63208 41.1192 4.62985 41.1192 4.62762 41.1192C4.6254 41.1192 4.62317 41.1192 4.62093 41.1192C4.6187 41.1192 4.61646 41.1192 4.61421 41.1192C4.61197 41.1192 4.60972 41.1192 4.60747 41.1192C4.60522 41.1192 4.60297 41.1192 4.60071 41.1192C4.59845 41.1192 4.59619 41.1192 4.59392 41.1192C4.59166 41.1192 4.58939 41.1192 4.58712 41.1192C4.58484 41.1192 4.58256 41.1192 4.58028 41.1192C4.578 41.1192 4.57572 41.1192 4.57343 41.1192C4.57114 41.1192 4.56885 41.1192 4.56655 41.1192C4.56426 41.1192 4.56196 41.1192 4.55966 41.1192C4.55735 41.1192 4.55505 41.1192 4.55274 41.1192C4.55043 41.1192 4.54811 41.1192 4.5458 41.1192C4.54348 41.1192 4.54116 41.1192 4.53883 41.1192C4.53651 41.1192 4.53418 41.1192 4.53185 41.1192C4.52952 41.1192 4.52719 41.1192 4.52485 41.1192C4.52251 41.1192 4.52017 41.1192 4.51782 41.1192C4.51548 41.1192 4.51313 41.1192 4.51078 41.1192C4.50843 41.1192 4.50607 41.1192 4.50372 41.1192C4.50136 41.1192 4.499 41.1192 4.49663 41.1192C4.49427 41.1192 4.4919 41.1192 4.48953 41.1192C4.48716 41.1192 4.48478 41.1192 4.4824 41.1192C4.48003 41.1192 4.47765 41.1192 4.47526 41.1192C4.47288 41.1192 4.47049 41.1192 4.4681 41.1192C4.46571 41.1192 4.46332 41.1192 4.46092 41.1192C4.45852 41.1192 4.45612 41.1192 4.45372 41.1192C4.45132 41.1192 4.44891 41.1192 4.4465 41.1192C4.44409 41.1192 4.44168 41.1192 4.43927 41.1192C4.43685 41.1192 4.43444 41.1192 4.43201 41.1192C4.42959 41.1192 4.42717 41.1192 4.42474 41.1192C4.42232 41.1192 4.41989 41.1192 4.41746 41.1192C4.41502 41.1192 4.41259 41.1192 4.41015 41.1192C4.40771 41.1192 4.40527 41.1192 4.40283 41.1192C4.40038 41.1192 4.39794 41.1192 4.39549 41.1192C4.39304 41.1192 4.39059 41.1192 4.38813 41.1192C4.38568 41.1192 4.38322 41.1192 4.38076 41.1192C4.3783 41.1192 4.37583 41.1192 4.37337 41.1192C4.3709 41.1192 4.36843 41.1192 4.36596 41.1192C4.36349 41.1192 4.36102 41.1192 4.35854 41.1192C4.35607 41.1192 4.35359 41.1192 4.35111 41.1192C4.34863 41.1192 4.34614 41.1192 4.34366 41.1192C4.34117 41.1192 4.33868 41.1192 4.33619 41.1192C4.3337 41.1192 4.3312 41.1192 4.32871 41.1192C4.32621 41.1192 4.32371 41.1192 4.32121 41.1192C4.31871 41.1192 4.31621 41.1192 4.3137 41.1192C4.31119 41.1192 4.30869 41.1192 4.30617 41.1192C4.30366 41.1192 4.30115 41.1192 4.29864 41.1192C4.29612 41.1192 4.2936 41.1192 4.29108 41.1192C4.28856 41.1192 4.28604 41.1192 4.28352 41.1192C4.28099 41.1192 4.27847 41.1192 4.27594 41.1192C4.27341 41.1192 4.27088 41.1192 4.26834 41.1192C4.26581 41.1192 4.26327 41.1192 4.26074 41.1192C4.2582 41.1192 4.25566 41.1192 4.25312 41.1192C4.25058 41.1192 4.24803 41.1192 4.24549 41.1192C4.24294 41.1192 4.24039 41.1192 4.23784 41.1192C4.23529 41.1192 4.23274 41.1192 4.23019 41.1192C4.22763 41.1192 4.22508 41.1192 4.22252 41.1192C4.21996 41.1192 4.2174 41.1192 4.21484 41.1192C4.21228 41.1192 4.20972 41.1192 4.20715 41.1192C4.20459 41.1192 4.20202 41.1192 4.19945 41.1192C4.19688 41.1192 4.19431 41.1192 4.19174 41.1192C4.18916 41.1192 4.18659 41.1192 4.18401 41.1192C4.18144 41.1192 4.17886 41.1192 4.17628 41.1192C4.1737 41.1192 4.17112 41.1192 4.16853 41.1192C4.16595 41.1192 4.16337 41.1192 4.16078 41.1192C4.15819 41.1192 4.1556 41.1192 4.15301 41.1192C4.15042 41.1192 4.14783 41.1192 4.14524 41.1192C4.14265 41.1192 4.14005 41.1192 4.13746 41.1192C4.13486 41.1192 4.13226 41.1192 4.12966 41.1192C4.12706 41.1192 4.12446 41.1192 4.12186 41.1192C4.11926 41.1192 4.11666 41.1192 4.11405 41.1192C4.11144 41.1192 4.10884 41.1192 4.10623 41.1192C4.10362 41.1192 4.10101 41.1192 4.0984 41.1192C4.09579 41.1192 4.09318 41.1192 4.09057 41.1192C4.08795 41.1192 4.08534 41.1192 4.08272 41.1192C4.08011 41.1192 4.07749 41.1192 4.07487 41.1192C4.07225 41.1192 4.06963 41.1192 4.06701 41.1192C4.06439 41.1192 4.06177 41.1192 4.05914 41.1192C4.05652 41.1192 4.05389 41.1192 4.05127 41.1192C4.04864 41.1192 4.04602 41.1192 4.04339 41.1192C4.04076 41.1192 4.03813 41.1192 4.0355 41.1192C4.03287 41.1192 4.03024 41.1192 4.02761 41.1192C4.02497 41.1192 4.02234 41.1192 4.01971 41.1192C4.01707 41.1192 4.01444 41.1192 4.0118 41.1192C4.00916 41.1192 4.00653 41.1192 4.00389 41.1192C4.00125 41.1192 3.99861 41.1192 3.99597 41.1192C3.99333 41.1192 3.99069 41.1192 3.98805 41.1192C3.9854 41.1192 3.98276 41.1192 3.98012 41.1192C3.97747 41.1192 3.97483 41.1192 3.97219 41.1192C3.96954 41.1192 3.96689 41.1192 3.96425 41.1192C3.9616 41.1192 3.95895 41.1192 3.9563 41.1192C3.95366 41.1192 3.95101 41.1192 3.94836 41.1192C3.94571 41.1192 3.94306 41.1192 3.94041 41.1192C3.93776 41.1192 3.9351 41.1192 3.93245 41.1192C3.9298 41.1192 3.92715 41.1192 3.92449 41.1192C3.92184 41.1192 3.91919 41.1192 3.91653 41.1192C3.91388 41.1192 3.91122 41.1192 3.90857 41.1192C3.90591 41.1192 3.90325 41.1192 3.9006 41.1192C3.89794 41.1192 3.89528 41.1192 3.89263 41.1192C3.88997 41.1192 3.88731 41.1192 3.88465 41.1192C3.882 41.1192 3.87934 41.1192 3.87668 41.1192C3.87402 41.1192 3.87136 41.1192 3.8687 41.1192C3.86604 41.1192 3.86338 41.1192 3.86072 41.1192C3.85806 41.1192 3.8554 41.1192 3.85274 41.1192C3.85008 41.1192 3.84742 41.1192 3.84475 41.1192C3.84209 41.1192 3.83943 41.1192 3.83677 41.1192C3.83411 41.1192 3.83145 41.1192 3.82878 41.1192C3.82612 41.1192 3.82346 41.1192 3.8208 41.1192C3.81814 41.1192 3.81547 41.1192 3.81281 41.1192C3.81015 41.1192 3.80749 41.1192 3.80482 41.1192C3.80216 41.1192 3.7995 41.1192 3.79684 41.1192C3.79417 41.1192 3.79151 41.1192 3.78885 41.1192C3.78619 41.1192 3.78352 41.1192 3.78086 41.1192C3.7782 41.1192 3.77554 41.1192 3.77287 41.1192C3.77021 41.1192 3.76755 41.1192 3.76489 41.1192C3.76223 41.1192 3.75956 41.1192 3.7569 41.1192C3.75424 41.1192 3.75158 41.1192 3.74892 41.1192C3.74626 41.1192 3.7436 41.1192 3.74093 41.1192C3.73827 41.1192 3.73561 41.1192 3.73295 41.1192C3.73029 41.1192 3.72763 41.1192 3.72497 41.1192C3.72231 41.1192 3.71965 41.1192 3.717 41.1192C3.71434 41.1192 3.71168 41.1192 3.70902 41.1192C3.70636 41.1192 3.7037 41.1192 3.70105 41.1192C3.69839 41.1192 3.69573 41.1192 3.69308 41.1192C3.69042 41.1192 3.68776 41.1192 3.68511 41.1192C3.68245 41.1192 3.6798 41.1192 3.67714 41.1192C3.67449 41.1192 3.67184 41.1192 3.66918 41.1192C3.66653 41.1192 3.66388 41.1192 3.66122 41.1192C3.65857 41.1192 3.65592 41.1192 3.65327 41.1192C3.65062 41.1192 3.64797 41.1192 3.64532 41.1192C3.64267 41.1192 3.64002 41.1192 3.63737 41.1192C3.63472 41.1192 3.63208 41.1192 3.62943 41.1192C3.62678 41.1192 3.62414 41.1192 3.62149 41.1192C3.61885 41.1192 3.6162 41.1192 3.61356 41.1192C3.61092 41.1192 3.60827 41.1192 3.60563 41.1192C3.60299 41.1192 3.60035 41.1192 3.59771 41.1192C3.59507 41.1192 3.59243 41.1192 3.58979 41.1192C3.58716 41.1192 3.58452 41.1192 3.58188 41.1192C3.57925 41.1192 3.57661 41.1192 3.57398 41.1192C3.57134 41.1192 3.56871 41.1192 3.56608 41.1192C3.56345 41.1192 3.56081 41.1192 3.55818 41.1192C3.55555 41.1192 3.55293 41.1192 3.5503 41.1192C3.54767 41.1192 3.54504 41.1192 3.54242 41.1192C3.53979 41.1192 3.53717 41.1192 3.53454 41.1192C3.53192 41.1192 3.5293 41.1192 3.52668 41.1192C3.52406 41.1192 3.52144 41.1192 3.51882 41.1192C3.5162 41.1192 3.51358 41.1192 3.51097 41.1192C3.50835 41.1192 3.50574 41.1192 3.50313 41.1192C3.50051 41.1192 3.4979 41.1192 3.49529 41.1192C3.49268 41.1192 3.49007 41.1192 3.48746 41.1192C3.48486 41.1192 3.48225 41.1192 3.47965 41.1192C3.47704 41.1192 3.47444 41.1192 3.47184 41.1192C3.46923 41.1192 3.46663 41.1192 3.46403 41.1192C3.46144 41.1192 3.45884 41.1192 3.45624 41.1192C3.45365 41.1192 3.45105 41.1192 3.44846 41.1192C3.44587 41.1192 3.44328 41.1192 3.44069 41.1192C3.4381 41.1192 3.43551 41.1192 3.43292 41.1192C3.43034 41.1192 3.42775 41.1192 3.42517 41.1192C3.42259 41.1192 3.42001 41.1192 3.41743 41.1192C3.41485 41.1192 3.41227 41.1192 3.40969 41.1192C3.40712 41.1192 3.40454 41.1192 3.40197 41.1192C3.3994 41.1192 3.39683 41.1192 3.39426 41.1192C3.39169 41.1192 3.38913 41.1192 3.38656 41.1192C3.384 41.1192 3.38143 41.1192 3.37887 41.1192C3.37631 41.1192 3.37375 41.1192 3.37119 41.1192C3.36864 41.1192 3.36608 41.1192 3.36353 41.1192C3.36098 41.1192 3.35842 41.1192 3.35587 41.1192C3.35333 41.1192 3.35078 41.1192 3.34823 41.1192C3.34569 41.1192 3.34314 41.1192 3.3406 41.1192C3.33806 41.1192 3.33552 41.1192 3.33299 41.1192C3.33045 41.1192 3.32791 41.1192 3.32538 41.1192C3.32285 41.1192 3.32032 41.1192 3.31779 41.1192C3.31526 41.1192 3.31274 41.1192 3.31021 41.1192C3.30769 41.1192 3.30517 41.1192 3.30265 41.1192C3.30013 41.1192 3.29761 41.1192 3.2951 41.1192C3.29258 41.1192 3.29007 41.1192 3.28756 41.1192C3.28505 41.1192 3.28254 41.1192 3.28004 41.1192C3.27753 41.1192 3.27503 41.1192 3.27253 41.1192C3.27003 41.1192 3.26753 41.1192 3.26503 41.1192C3.26254 41.1192 3.26005 41.1192 3.25755 41.1192C3.25506 41.1192 3.25258 41.1192 3.25009 41.1192C3.2476 41.1192 3.24512 41.1192 3.24264 41.1192C3.24016 41.1192 3.23768 41.1192 3.23521 41.1192C3.23273 41.1192 3.23026 41.1192 3.22779 41.1192C3.22532 41.1192 3.22285 41.1192 3.22039 41.1192C3.21792 41.1192 3.21546 41.1192 3.213 41.1192C3.21054 41.1192 3.20808 41.1192 3.20563 41.1192C3.20317 41.1192 3.20072 41.1192 3.19827 41.1192C3.19583 41.1192 3.19338 41.1192 3.19094 41.1192C3.18849 41.1192 3.18605 41.1192 3.18362 41.1192C3.18118 41.1192 3.17874 41.1192 3.17631 41.1192C3.17388 41.1192 3.17145 41.1192 3.16903 41.1192C3.1666 41.1192 3.16418 41.1192 3.16176 41.1192C3.15934 41.1192 3.15692 41.1192 3.15451 41.1192C3.15209 41.1192 3.14968 41.1192 3.14727 41.1192C3.14487 41.1192 3.14246 41.1192 3.14006 41.1192C3.13766 41.1192 3.13526 41.1192 3.13286 41.1192C3.13047 41.1192 3.12807 41.1192 3.12569 41.1192C3.1233 41.1192 3.12091 41.1192 3.11853 41.1192C3.11614 41.1192 3.11376 41.1192 3.11139 41.1192C3.10901 41.1192 3.10664 41.1192 3.10427 41.1192C3.1019 41.1192 3.09953 41.1192 3.09716 41.1192C3.0948 41.1192 3.09244 41.1192 3.09008 41.1192C3.08773 41.1192 3.08537 41.1192 3.08302 41.1192C3.08067 41.1192 3.07832 41.1192 3.07598 41.1192C3.07364 41.1192 3.0713 41.1192 3.06896 41.1192C3.06662 41.1192 3.06429 41.1192 3.06196 41.1192C3.05963 41.1192 3.0573 41.1192 3.05498 41.1192C3.05266 41.1192 3.05034 41.1192 3.04802 41.1192C3.0457 41.1192 3.04339 41.1192 3.04108 41.1192C3.03877 41.1192 3.03647 41.1192 3.03417 41.1192C3.03186 41.1192 3.02957 41.1192 3.02727 41.1192C3.02498 41.1192 3.02269 41.1192 3.0204 41.1192C3.01811 41.1192 3.01583 41.1192 3.01355 41.1192C3.01127 41.1192 3.00899 41.1192 3.00672 41.1192C3.00445 41.1192 3.00218 41.1192 2.99991 41.1192C2.99765 41.1192 2.99539 41.1192 2.99313 41.1192C2.99087 41.1192 2.98862 41.1192 2.98637 41.1192C2.98412 41.1192 2.98187 41.1192 2.97963 41.1192C2.97739 41.1192 2.97515 41.1192 2.97292 41.1192C2.97068 41.1192 2.96845 41.1192 2.96623 41.1192C2.964 41.1192 2.96178 41.1192 2.95956 41.1192C2.95734 41.1192 2.95513 41.1192 2.95292 41.1192C2.95071 41.1192 2.9485 41.1192 2.9463 41.1192C2.9441 41.1192 2.9419 41.1192 2.93971 41.1192C2.93751 41.1192 2.93532 41.1192 2.93314 41.1192C2.93095 41.1192 2.92877 41.1192 2.92659 41.1192C2.92442 41.1192 2.92224 41.1192 2.92008 41.1192C2.91791 41.1192 2.91574 41.1192 2.91358 41.1192C2.91142 41.1192 2.90926 41.1192 2.90711 41.1192C2.90496 41.1192 2.90281 41.1192 2.90067 41.1192C2.89853 41.1192 2.89639 41.1192 2.89425 41.1192C2.89212 41.1192 2.88999 41.1192 2.88786 41.1192C2.88574 41.1192 2.88362 41.1192 2.8815 41.1192C2.87938 41.1192 2.87727 41.1192 2.87516 41.1192C2.87305 41.1192 2.87095 41.1192 2.86885 41.1192C2.86675 41.1192 2.86466 41.1192 2.86257 41.1192C2.86048 41.1192 2.85839 41.1192 2.85631 41.1192C2.85423 41.1192 2.85215 41.1192 2.85008 41.1192C2.84801 41.1192 2.84594 41.1192 2.84388 41.1192C2.84182 41.1192 2.83976 41.1192 2.83771 41.1192C2.83565 41.1192 2.83361 41.1192 2.83156 41.1192C2.82952 41.1192 2.82748 41.1192 2.82545 41.1192C2.82341 41.1192 2.82138 41.1192 2.81936 41.1192C2.81733 41.1192 2.81531 41.1192 2.8133 41.1192C2.81128 41.1192 2.80927 41.1192 2.80727 41.1192C2.80526 41.1192 2.80326 41.1192 2.80127 41.1192C2.79927 41.1192 2.79728 41.1192 2.79529 41.1192C2.79331 41.1192 2.79133 41.1192 2.78935 41.1192C2.78738 41.1192 2.7854 41.1192 2.78344 41.1192C2.78147 41.1192 2.77951 41.1192 2.77756 41.1192C2.7756 41.1192 2.77365 41.1192 2.7717 41.1192C2.76976 41.1192 2.76782 41.1192 2.76588 41.1192C2.76395 41.1192 2.76202 41.1192 2.76009 41.1192C2.75817 41.1192 2.75625 41.1192 2.75433 41.1192C2.75242 41.1192 2.75051 41.1192 2.7486 41.1192C2.7467 41.1192 2.7448 41.1192 2.74291 41.1192C2.74101 41.1192 2.73912 41.1192 2.73724 41.1192C2.73536 41.1192 2.73348 41.1192 2.7316 41.1192C2.72973 41.1192 2.72786 41.1192 2.726 41.1192C2.72414 41.1192 2.72228 41.1192 2.72043 41.1192C2.71858 41.1192 2.71674 41.1192 2.7149 41.1192C2.71305 41.1192 2.71122 41.1192 2.70939 41.1192C2.70756 41.1192 2.70574 41.1192 2.70392 41.1192C2.7021 41.1192 2.70029 41.1192 2.69848 41.1192C2.69667 41.1192 2.69487 41.1192 2.69307 41.1192C2.69128 41.1192 2.68949 41.1192 2.6877 41.1192C2.68592 41.1192 2.68414 41.1192 2.68236 41.1192C2.68059 41.1192 2.67882 41.1192 2.67706 41.1192C2.6753 41.1192 2.67354 41.1192 2.67179 41.1192C2.67004 41.1192 2.66829 41.1192 2.66655 41.1192C2.66481 41.1192 2.66308 41.1192 2.66135 41.1192C2.65962 41.1192 2.6579 41.1192 2.65618 41.1192C2.65447 41.1192 2.65276 41.1192 2.65105 41.1192C2.64935 41.1192 2.64765 41.1192 2.64596 41.1192C2.64426 41.1192 2.64258 41.1192 2.6409 41.1192C2.63922 41.1192 2.63754 41.1192 2.63587 41.1192C2.6342 41.1192 2.63254 41.1192 2.63088 41.1192C2.62923 41.1192 2.62757 41.1192 2.62593 41.1192C2.62428 41.1192 2.62265 41.1192 2.62101 41.1192C2.61938 41.1192 2.61775 41.1192 2.61613 41.1192C2.61451 41.1192 2.6129 41.1192 2.61129 41.1192C2.60968 41.1192 2.60808 41.1192 2.60648 41.1192C2.60489 41.1192 2.6033 41.1192 2.60171 41.1192C2.60013 41.1192 2.59855 41.1192 2.59698 41.1192C2.59541 41.1192 2.59385 41.1192 2.59229 41.1192C2.59073 41.1192 2.58918 41.1192 2.58763 41.1192C2.58609 41.1192 2.58455 41.1192 2.58301 41.1192C2.58148 41.1192 2.57995 41.1192 2.57843 41.1192C2.57691 41.1192 2.5754 41.1192 2.57389 41.1192C2.57238 41.1192 2.57088 41.1192 2.56939 41.1192C2.56789 41.1192 2.56641 41.1192 2.56492 41.1192C2.56344 41.1192 2.56197 41.1192 2.5605 41.1192C2.55903 41.1192 2.55757 41.1192 2.55611 41.1192C2.55466 41.1192 2.55321 41.1192 2.55177 41.1192C2.55033 41.1192 2.54889 41.1192 2.54746 41.1192C2.54603 41.1192 2.54461 41.1192 2.5432 41.1192C2.54178 41.1192 2.54037 41.1192 2.53897 41.1192C2.53757 41.1192 2.53617 41.1192 2.53478 41.1192C2.5334 41.1192 2.53201 41.1192 2.53064 41.1192C2.52927 41.1192 2.5279 41.1192 2.52654 41.1192C2.52518 41.1192 2.52382 41.1192 2.52247 41.1192C2.52113 41.1192 2.51979 41.1192 2.51845 41.1192C2.51712 41.1192 2.51579 41.1192 2.51447 41.1192C2.51315 41.1192 2.51184 41.1192 2.51053 41.1192C2.50923 41.1192 2.50793 41.1192 2.50664 41.1192C2.50535 41.1192 2.50406 41.1192 2.50278 41.1192C2.50151 41.1192 2.50023 41.1192 2.49897 41.1192C2.49771 41.1192 2.49645 41.1192 2.4952 41.1192C2.49395 41.1192 2.49271 41.1192 2.49148 41.1192C2.49024 41.1192 2.48901 41.1192 2.48779 41.1192C2.48657 41.1192 2.48536 41.1192 2.48415 41.1192C2.48295 41.1192 2.48175 41.1192 2.48056 41.1192C2.47936 41.1192 2.47818 41.1192 2.477 41.1192C2.47583 41.1192 2.47466 41.1192 2.47349 41.1192C2.47233 41.1192 2.47118 41.1192 2.47003 41.1192C2.46888 41.1192 2.46774 41.1192 2.46661 41.1192C2.46548 41.1192 2.46435 41.1192 2.46323 41.1192C2.46211 41.1192 2.461 41.1192 2.4599 41.1192C2.4588 41.1192 2.4577 41.1192 2.45661 41.1192C2.45553 41.1192 2.45445 41.1192 2.45337 41.1192C2.4523 41.1192 2.45124 41.1192 2.45018 41.1192C2.44912 41.1192 2.44807 41.1192 2.44703 41.1192C2.44598 41.1192 2.44495 41.1192 2.44392 41.1192C2.4429 41.1192 2.44188 41.1192 2.44086 41.1192C2.43985 41.1192 2.43885 41.1192 2.43785 41.1192C2.43686 41.1192 2.43587 41.1192 2.43489 41.1192C2.43391 41.1192 2.43293 41.1192 2.43197 41.1192C2.431 41.1192 2.43005 41.1192 2.4291 41.1192C2.42815 41.1192 2.42721 41.1192 2.42627 41.1192C2.42534 41.1192 2.42441 41.1192 2.42349 41.1192C2.42258 41.1192 2.42167 41.1192 2.42076 41.1192C2.41986 41.1192 2.41897 41.1192 2.41808 41.1192C2.4172 41.1192 2.41632 41.1192 2.41545 41.1192C2.41458 41.1192 2.41372 41.1192 2.41286 41.1192C2.41201 41.1192 2.41116 41.1192 2.41033 41.1192C2.40949 41.1192 2.40866 41.1192 2.40784 41.1192C2.40702 41.1192 2.4062 41.1192 2.4054 41.1192C2.40459 41.1192 2.40379 41.1192 2.40301 41.1192C2.40222 41.1192 2.40144 41.1192 2.40066 41.1192C2.39989 41.1192 2.39913 41.1192 2.39837 41.1192C2.39762 41.1192 2.39687 41.1192 2.39613 41.1192C2.39539 41.1192 2.39466 41.1192 2.39394 41.1192C2.39322 41.1192 2.3925 41.1192 2.3918 41.1192C2.39109 41.1192 2.39039 41.1192 2.3897 41.1192C2.38902 41.1192 2.38833 41.1192 2.38766 41.1192C2.38699 41.1192 2.38633 41.1192 2.38567 41.1192C2.38502 41.1192 2.38437 41.1192 2.38373 41.1192C2.3831 41.1192 2.38247 41.1192 2.38184 41.1192C2.38122 41.1192 2.38061 41.1192 2.38001 41.1192C2.3794 41.1192 2.37881 41.1192 2.37822 41.1192C2.37764 41.1192 2.37706 41.1192 2.37649 41.1192C2.37592 41.1192 2.37536 41.1192 2.37481 41.1192C2.37426 41.1192 2.37371 41.1192 2.37318 41.1192C2.37265 41.1192 2.37212 41.1192 2.3716 41.1192C2.37109 41.1192 2.37058 41.1192 2.37008 41.1192C2.36958 41.1192 2.36909 41.1192 2.36861 41.1192C2.36813 41.1192 2.36766 41.1192 2.36719 41.1192C2.36673 41.1192 2.36628 41.1192 2.36583 41.1192C2.36538 41.1192 2.36495 41.1192 2.36452 41.1192C2.36409 41.1192 2.36367 41.1192 2.36326 41.1192C2.36285 41.1192 2.36245 41.1192 2.36206 41.1192V42.1192V43.1192C2.36245 43.1192 2.36285 43.1192 2.36326 43.1192C2.36367 43.1192 2.36409 43.1192 2.36452 43.1192C2.36495 43.1192 2.36538 43.1192 2.36583 43.1192C2.36628 43.1192 2.36673 43.1192 2.36719 43.1192C2.36766 43.1192 2.36813 43.1192 2.36861 43.1192C2.36909 43.1192 2.36958 43.1192 2.37008 43.1192C2.37058 43.1192 2.37109 43.1192 2.3716 43.1192C2.37212 43.1192 2.37265 43.1192 2.37318 43.1192C2.37371 43.1192 2.37426 43.1192 2.37481 43.1192C2.37536 43.1192 2.37592 43.1192 2.37649 43.1192C2.37706 43.1192 2.37764 43.1192 2.37822 43.1192C2.37881 43.1192 2.3794 43.1192 2.38001 43.1192C2.38061 43.1192 2.38122 43.1192 2.38184 43.1192C2.38247 43.1192 2.3831 43.1192 2.38373 43.1192C2.38437 43.1192 2.38502 43.1192 2.38567 43.1192C2.38633 43.1192 2.38699 43.1192 2.38766 43.1192C2.38833 43.1192 2.38902 43.1192 2.3897 43.1192C2.39039 43.1192 2.39109 43.1192 2.3918 43.1192C2.3925 43.1192 2.39322 43.1192 2.39394 43.1192C2.39466 43.1192 2.39539 43.1192 2.39613 43.1192C2.39687 43.1192 2.39762 43.1192 2.39837 43.1192C2.39913 43.1192 2.39989 43.1192 2.40066 43.1192C2.40144 43.1192 2.40222 43.1192 2.40301 43.1192C2.40379 43.1192 2.40459 43.1192 2.4054 43.1192C2.4062 43.1192 2.40702 43.1192 2.40784 43.1192C2.40866 43.1192 2.40949 43.1192 2.41033 43.1192C2.41116 43.1192 2.41201 43.1192 2.41286 43.1192C2.41372 43.1192 2.41458 43.1192 2.41545 43.1192C2.41632 43.1192 2.4172 43.1192 2.41808 43.1192C2.41897 43.1192 2.41986 43.1192 2.42076 43.1192C2.42167 43.1192 2.42258 43.1192 2.42349 43.1192C2.42441 43.1192 2.42534 43.1192 2.42627 43.1192C2.42721 43.1192 2.42815 43.1192 2.4291 43.1192C2.43005 43.1192 2.431 43.1192 2.43197 43.1192C2.43293 43.1192 2.43391 43.1192 2.43489 43.1192C2.43587 43.1192 2.43686 43.1192 2.43785 43.1192C2.43885 43.1192 2.43985 43.1192 2.44086 43.1192C2.44188 43.1192 2.4429 43.1192 2.44392 43.1192C2.44495 43.1192 2.44598 43.1192 2.44703 43.1192C2.44807 43.1192 2.44912 43.1192 2.45018 43.1192C2.45124 43.1192 2.4523 43.1192 2.45337 43.1192C2.45445 43.1192 2.45553 43.1192 2.45661 43.1192C2.4577 43.1192 2.4588 43.1192 2.4599 43.1192C2.461 43.1192 2.46211 43.1192 2.46323 43.1192C2.46435 43.1192 2.46548 43.1192 2.46661 43.1192C2.46774 43.1192 2.46888 43.1192 2.47003 43.1192C2.47118 43.1192 2.47233 43.1192 2.47349 43.1192C2.47466 43.1192 2.47583 43.1192 2.477 43.1192C2.47818 43.1192 2.47936 43.1192 2.48056 43.1192C2.48175 43.1192 2.48295 43.1192 2.48415 43.1192C2.48536 43.1192 2.48657 43.1192 2.48779 43.1192C2.48901 43.1192 2.49024 43.1192 2.49148 43.1192C2.49271 43.1192 2.49395 43.1192 2.4952 43.1192C2.49645 43.1192 2.49771 43.1192 2.49897 43.1192C2.50023 43.1192 2.50151 43.1192 2.50278 43.1192C2.50406 43.1192 2.50535 43.1192 2.50664 43.1192C2.50793 43.1192 2.50923 43.1192 2.51053 43.1192C2.51184 43.1192 2.51315 43.1192 2.51447 43.1192C2.51579 43.1192 2.51712 43.1192 2.51845 43.1192C2.51979 43.1192 2.52113 43.1192 2.52247 43.1192C2.52382 43.1192 2.52518 43.1192 2.52654 43.1192C2.5279 43.1192 2.52927 43.1192 2.53064 43.1192C2.53201 43.1192 2.5334 43.1192 2.53478 43.1192C2.53617 43.1192 2.53757 43.1192 2.53897 43.1192C2.54037 43.1192 2.54178 43.1192 2.5432 43.1192C2.54461 43.1192 2.54603 43.1192 2.54746 43.1192C2.54889 43.1192 2.55033 43.1192 2.55177 43.1192C2.55321 43.1192 2.55466 43.1192 2.55611 43.1192C2.55757 43.1192 2.55903 43.1192 2.5605 43.1192C2.56197 43.1192 2.56344 43.1192 2.56492 43.1192C2.56641 43.1192 2.56789 43.1192 2.56939 43.1192C2.57088 43.1192 2.57238 43.1192 2.57389 43.1192C2.5754 43.1192 2.57691 43.1192 2.57843 43.1192C2.57995 43.1192 2.58148 43.1192 2.58301 43.1192C2.58455 43.1192 2.58609 43.1192 2.58763 43.1192C2.58918 43.1192 2.59073 43.1192 2.59229 43.1192C2.59385 43.1192 2.59541 43.1192 2.59698 43.1192C2.59855 43.1192 2.60013 43.1192 2.60171 43.1192C2.6033 43.1192 2.60489 43.1192 2.60648 43.1192C2.60808 43.1192 2.60968 43.1192 2.61129 43.1192C2.6129 43.1192 2.61451 43.1192 2.61613 43.1192C2.61775 43.1192 2.61938 43.1192 2.62101 43.1192C2.62265 43.1192 2.62428 43.1192 2.62593 43.1192C2.62757 43.1192 2.62923 43.1192 2.63088 43.1192C2.63254 43.1192 2.6342 43.1192 2.63587 43.1192C2.63754 43.1192 2.63922 43.1192 2.6409 43.1192C2.64258 43.1192 2.64426 43.1192 2.64596 43.1192C2.64765 43.1192 2.64935 43.1192 2.65105 43.1192C2.65276 43.1192 2.65447 43.1192 2.65618 43.1192C2.6579 43.1192 2.65962 43.1192 2.66135 43.1192C2.66308 43.1192 2.66481 43.1192 2.66655 43.1192C2.66829 43.1192 2.67004 43.1192 2.67179 43.1192C2.67354 43.1192 2.6753 43.1192 2.67706 43.1192C2.67882 43.1192 2.68059 43.1192 2.68236 43.1192C2.68414 43.1192 2.68592 43.1192 2.6877 43.1192C2.68949 43.1192 2.69128 43.1192 2.69307 43.1192C2.69487 43.1192 2.69667 43.1192 2.69848 43.1192C2.70029 43.1192 2.7021 43.1192 2.70392 43.1192C2.70574 43.1192 2.70756 43.1192 2.70939 43.1192C2.71122 43.1192 2.71305 43.1192 2.7149 43.1192C2.71674 43.1192 2.71858 43.1192 2.72043 43.1192C2.72228 43.1192 2.72414 43.1192 2.726 43.1192C2.72786 43.1192 2.72973 43.1192 2.7316 43.1192C2.73348 43.1192 2.73536 43.1192 2.73724 43.1192C2.73912 43.1192 2.74101 43.1192 2.74291 43.1192C2.7448 43.1192 2.7467 43.1192 2.7486 43.1192C2.75051 43.1192 2.75242 43.1192 2.75433 43.1192C2.75625 43.1192 2.75817 43.1192 2.76009 43.1192C2.76202 43.1192 2.76395 43.1192 2.76588 43.1192C2.76782 43.1192 2.76976 43.1192 2.7717 43.1192C2.77365 43.1192 2.7756 43.1192 2.77756 43.1192C2.77951 43.1192 2.78147 43.1192 2.78344 43.1192C2.7854 43.1192 2.78738 43.1192 2.78935 43.1192C2.79133 43.1192 2.79331 43.1192 2.79529 43.1192C2.79728 43.1192 2.79927 43.1192 2.80127 43.1192C2.80326 43.1192 2.80526 43.1192 2.80727 43.1192C2.80927 43.1192 2.81128 43.1192 2.8133 43.1192C2.81531 43.1192 2.81733 43.1192 2.81936 43.1192C2.82138 43.1192 2.82341 43.1192 2.82545 43.1192C2.82748 43.1192 2.82952 43.1192 2.83156 43.1192C2.83361 43.1192 2.83565 43.1192 2.83771 43.1192C2.83976 43.1192 2.84182 43.1192 2.84388 43.1192C2.84594 43.1192 2.84801 43.1192 2.85008 43.1192C2.85215 43.1192 2.85423 43.1192 2.85631 43.1192C2.85839 43.1192 2.86048 43.1192 2.86257 43.1192C2.86466 43.1192 2.86675 43.1192 2.86885 43.1192C2.87095 43.1192 2.87305 43.1192 2.87516 43.1192C2.87727 43.1192 2.87938 43.1192 2.8815 43.1192C2.88362 43.1192 2.88574 43.1192 2.88786 43.1192C2.88999 43.1192 2.89212 43.1192 2.89425 43.1192C2.89639 43.1192 2.89853 43.1192 2.90067 43.1192C2.90281 43.1192 2.90496 43.1192 2.90711 43.1192C2.90926 43.1192 2.91142 43.1192 2.91358 43.1192C2.91574 43.1192 2.91791 43.1192 2.92008 43.1192C2.92224 43.1192 2.92442 43.1192 2.92659 43.1192C2.92877 43.1192 2.93095 43.1192 2.93314 43.1192C2.93532 43.1192 2.93751 43.1192 2.93971 43.1192C2.9419 43.1192 2.9441 43.1192 2.9463 43.1192C2.9485 43.1192 2.95071 43.1192 2.95292 43.1192C2.95513 43.1192 2.95734 43.1192 2.95956 43.1192C2.96178 43.1192 2.964 43.1192 2.96623 43.1192C2.96845 43.1192 2.97068 43.1192 2.97292 43.1192C2.97515 43.1192 2.97739 43.1192 2.97963 43.1192C2.98187 43.1192 2.98412 43.1192 2.98637 43.1192C2.98862 43.1192 2.99087 43.1192 2.99313 43.1192C2.99539 43.1192 2.99765 43.1192 2.99991 43.1192C3.00218 43.1192 3.00445 43.1192 3.00672 43.1192C3.00899 43.1192 3.01127 43.1192 3.01355 43.1192C3.01583 43.1192 3.01811 43.1192 3.0204 43.1192C3.02269 43.1192 3.02498 43.1192 3.02727 43.1192C3.02957 43.1192 3.03186 43.1192 3.03417 43.1192C3.03647 43.1192 3.03877 43.1192 3.04108 43.1192C3.04339 43.1192 3.0457 43.1192 3.04802 43.1192C3.05034 43.1192 3.05266 43.1192 3.05498 43.1192C3.0573 43.1192 3.05963 43.1192 3.06196 43.1192C3.06429 43.1192 3.06662 43.1192 3.06896 43.1192C3.0713 43.1192 3.07364 43.1192 3.07598 43.1192C3.07832 43.1192 3.08067 43.1192 3.08302 43.1192C3.08537 43.1192 3.08773 43.1192 3.09008 43.1192C3.09244 43.1192 3.0948 43.1192 3.09716 43.1192C3.09953 43.1192 3.1019 43.1192 3.10427 43.1192C3.10664 43.1192 3.10901 43.1192 3.11139 43.1192C3.11376 43.1192 3.11614 43.1192 3.11853 43.1192C3.12091 43.1192 3.1233 43.1192 3.12569 43.1192C3.12807 43.1192 3.13047 43.1192 3.13286 43.1192C3.13526 43.1192 3.13766 43.1192 3.14006 43.1192C3.14246 43.1192 3.14487 43.1192 3.14727 43.1192C3.14968 43.1192 3.15209 43.1192 3.15451 43.1192C3.15692 43.1192 3.15934 43.1192 3.16176 43.1192C3.16418 43.1192 3.1666 43.1192 3.16903 43.1192C3.17145 43.1192 3.17388 43.1192 3.17631 43.1192C3.17874 43.1192 3.18118 43.1192 3.18362 43.1192C3.18605 43.1192 3.18849 43.1192 3.19094 43.1192C3.19338 43.1192 3.19583 43.1192 3.19827 43.1192C3.20072 43.1192 3.20317 43.1192 3.20563 43.1192C3.20808 43.1192 3.21054 43.1192 3.213 43.1192C3.21546 43.1192 3.21792 43.1192 3.22039 43.1192C3.22285 43.1192 3.22532 43.1192 3.22779 43.1192C3.23026 43.1192 3.23273 43.1192 3.23521 43.1192C3.23768 43.1192 3.24016 43.1192 3.24264 43.1192C3.24512 43.1192 3.2476 43.1192 3.25009 43.1192C3.25258 43.1192 3.25506 43.1192 3.25755 43.1192C3.26005 43.1192 3.26254 43.1192 3.26503 43.1192C3.26753 43.1192 3.27003 43.1192 3.27253 43.1192C3.27503 43.1192 3.27753 43.1192 3.28004 43.1192C3.28254 43.1192 3.28505 43.1192 3.28756 43.1192C3.29007 43.1192 3.29258 43.1192 3.2951 43.1192C3.29761 43.1192 3.30013 43.1192 3.30265 43.1192C3.30517 43.1192 3.30769 43.1192 3.31021 43.1192C3.31274 43.1192 3.31526 43.1192 3.31779 43.1192C3.32032 43.1192 3.32285 43.1192 3.32538 43.1192C3.32791 43.1192 3.33045 43.1192 3.33299 43.1192C3.33552 43.1192 3.33806 43.1192 3.3406 43.1192C3.34314 43.1192 3.34569 43.1192 3.34823 43.1192C3.35078 43.1192 3.35333 43.1192 3.35587 43.1192C3.35842 43.1192 3.36098 43.1192 3.36353 43.1192C3.36608 43.1192 3.36864 43.1192 3.37119 43.1192C3.37375 43.1192 3.37631 43.1192 3.37887 43.1192C3.38143 43.1192 3.384 43.1192 3.38656 43.1192C3.38913 43.1192 3.39169 43.1192 3.39426 43.1192C3.39683 43.1192 3.3994 43.1192 3.40197 43.1192C3.40454 43.1192 3.40712 43.1192 3.40969 43.1192C3.41227 43.1192 3.41485 43.1192 3.41743 43.1192C3.42001 43.1192 3.42259 43.1192 3.42517 43.1192C3.42775 43.1192 3.43034 43.1192 3.43292 43.1192C3.43551 43.1192 3.4381 43.1192 3.44069 43.1192C3.44328 43.1192 3.44587 43.1192 3.44846 43.1192C3.45105 43.1192 3.45365 43.1192 3.45624 43.1192C3.45884 43.1192 3.46144 43.1192 3.46403 43.1192C3.46663 43.1192 3.46923 43.1192 3.47184 43.1192C3.47444 43.1192 3.47704 43.1192 3.47965 43.1192C3.48225 43.1192 3.48486 43.1192 3.48746 43.1192C3.49007 43.1192 3.49268 43.1192 3.49529 43.1192C3.4979 43.1192 3.50051 43.1192 3.50313 43.1192C3.50574 43.1192 3.50835 43.1192 3.51097 43.1192C3.51358 43.1192 3.5162 43.1192 3.51882 43.1192C3.52144 43.1192 3.52406 43.1192 3.52668 43.1192C3.5293 43.1192 3.53192 43.1192 3.53454 43.1192C3.53717 43.1192 3.53979 43.1192 3.54242 43.1192C3.54504 43.1192 3.54767 43.1192 3.5503 43.1192C3.55293 43.1192 3.55555 43.1192 3.55818 43.1192C3.56081 43.1192 3.56345 43.1192 3.56608 43.1192C3.56871 43.1192 3.57134 43.1192 3.57398 43.1192C3.57661 43.1192 3.57925 43.1192 3.58188 43.1192C3.58452 43.1192 3.58716 43.1192 3.58979 43.1192C3.59243 43.1192 3.59507 43.1192 3.59771 43.1192C3.60035 43.1192 3.60299 43.1192 3.60563 43.1192C3.60827 43.1192 3.61092 43.1192 3.61356 43.1192C3.6162 43.1192 3.61885 43.1192 3.62149 43.1192C3.62414 43.1192 3.62678 43.1192 3.62943 43.1192C3.63208 43.1192 3.63472 43.1192 3.63737 43.1192C3.64002 43.1192 3.64267 43.1192 3.64532 43.1192C3.64797 43.1192 3.65062 43.1192 3.65327 43.1192C3.65592 43.1192 3.65857 43.1192 3.66122 43.1192C3.66388 43.1192 3.66653 43.1192 3.66918 43.1192C3.67184 43.1192 3.67449 43.1192 3.67714 43.1192C3.6798 43.1192 3.68245 43.1192 3.68511 43.1192C3.68776 43.1192 3.69042 43.1192 3.69308 43.1192C3.69573 43.1192 3.69839 43.1192 3.70105 43.1192C3.7037 43.1192 3.70636 43.1192 3.70902 43.1192C3.71168 43.1192 3.71434 43.1192 3.717 43.1192C3.71965 43.1192 3.72231 43.1192 3.72497 43.1192C3.72763 43.1192 3.73029 43.1192 3.73295 43.1192C3.73561 43.1192 3.73827 43.1192 3.74093 43.1192C3.7436 43.1192 3.74626 43.1192 3.74892 43.1192C3.75158 43.1192 3.75424 43.1192 3.7569 43.1192C3.75956 43.1192 3.76223 43.1192 3.76489 43.1192C3.76755 43.1192 3.77021 43.1192 3.77287 43.1192C3.77554 43.1192 3.7782 43.1192 3.78086 43.1192C3.78352 43.1192 3.78619 43.1192 3.78885 43.1192C3.79151 43.1192 3.79417 43.1192 3.79684 43.1192C3.7995 43.1192 3.80216 43.1192 3.80482 43.1192C3.80749 43.1192 3.81015 43.1192 3.81281 43.1192C3.81547 43.1192 3.81814 43.1192 3.8208 43.1192C3.82346 43.1192 3.82612 43.1192 3.82878 43.1192C3.83145 43.1192 3.83411 43.1192 3.83677 43.1192C3.83943 43.1192 3.84209 43.1192 3.84475 43.1192C3.84742 43.1192 3.85008 43.1192 3.85274 43.1192C3.8554 43.1192 3.85806 43.1192 3.86072 43.1192C3.86338 43.1192 3.86604 43.1192 3.8687 43.1192C3.87136 43.1192 3.87402 43.1192 3.87668 43.1192C3.87934 43.1192 3.882 43.1192 3.88465 43.1192C3.88731 43.1192 3.88997 43.1192 3.89263 43.1192C3.89528 43.1192 3.89794 43.1192 3.9006 43.1192C3.90325 43.1192 3.90591 43.1192 3.90857 43.1192C3.91122 43.1192 3.91388 43.1192 3.91653 43.1192C3.91919 43.1192 3.92184 43.1192 3.92449 43.1192C3.92715 43.1192 3.9298 43.1192 3.93245 43.1192C3.9351 43.1192 3.93776 43.1192 3.94041 43.1192C3.94306 43.1192 3.94571 43.1192 3.94836 43.1192C3.95101 43.1192 3.95366 43.1192 3.9563 43.1192C3.95895 43.1192 3.9616 43.1192 3.96425 43.1192C3.96689 43.1192 3.96954 43.1192 3.97219 43.1192C3.97483 43.1192 3.97747 43.1192 3.98012 43.1192C3.98276 43.1192 3.9854 43.1192 3.98805 43.1192C3.99069 43.1192 3.99333 43.1192 3.99597 43.1192C3.99861 43.1192 4.00125 43.1192 4.00389 43.1192C4.00653 43.1192 4.00916 43.1192 4.0118 43.1192C4.01444 43.1192 4.01707 43.1192 4.01971 43.1192C4.02234 43.1192 4.02497 43.1192 4.02761 43.1192C4.03024 43.1192 4.03287 43.1192 4.0355 43.1192C4.03813 43.1192 4.04076 43.1192 4.04339 43.1192C4.04602 43.1192 4.04864 43.1192 4.05127 43.1192C4.05389 43.1192 4.05652 43.1192 4.05914 43.1192C4.06177 43.1192 4.06439 43.1192 4.06701 43.1192C4.06963 43.1192 4.07225 43.1192 4.07487 43.1192C4.07749 43.1192 4.08011 43.1192 4.08272 43.1192C4.08534 43.1192 4.08795 43.1192 4.09057 43.1192C4.09318 43.1192 4.09579 43.1192 4.0984 43.1192C4.10101 43.1192 4.10362 43.1192 4.10623 43.1192C4.10884 43.1192 4.11144 43.1192 4.11405 43.1192C4.11666 43.1192 4.11926 43.1192 4.12186 43.1192C4.12446 43.1192 4.12706 43.1192 4.12966 43.1192C4.13226 43.1192 4.13486 43.1192 4.13746 43.1192C4.14005 43.1192 4.14265 43.1192 4.14524 43.1192C4.14783 43.1192 4.15042 43.1192 4.15301 43.1192C4.1556 43.1192 4.15819 43.1192 4.16078 43.1192C4.16337 43.1192 4.16595 43.1192 4.16853 43.1192C4.17112 43.1192 4.1737 43.1192 4.17628 43.1192C4.17886 43.1192 4.18144 43.1192 4.18401 43.1192C4.18659 43.1192 4.18916 43.1192 4.19174 43.1192C4.19431 43.1192 4.19688 43.1192 4.19945 43.1192C4.20202 43.1192 4.20459 43.1192 4.20715 43.1192C4.20972 43.1192 4.21228 43.1192 4.21484 43.1192C4.2174 43.1192 4.21996 43.1192 4.22252 43.1192C4.22508 43.1192 4.22763 43.1192 4.23019 43.1192C4.23274 43.1192 4.23529 43.1192 4.23784 43.1192C4.24039 43.1192 4.24294 43.1192 4.24549 43.1192C4.24803 43.1192 4.25058 43.1192 4.25312 43.1192C4.25566 43.1192 4.2582 43.1192 4.26074 43.1192C4.26327 43.1192 4.26581 43.1192 4.26834 43.1192C4.27088 43.1192 4.27341 43.1192 4.27594 43.1192C4.27847 43.1192 4.28099 43.1192 4.28352 43.1192C4.28604 43.1192 4.28856 43.1192 4.29108 43.1192C4.2936 43.1192 4.29612 43.1192 4.29864 43.1192C4.30115 43.1192 4.30366 43.1192 4.30617 43.1192C4.30869 43.1192 4.31119 43.1192 4.3137 43.1192C4.31621 43.1192 4.31871 43.1192 4.32121 43.1192C4.32371 43.1192 4.32621 43.1192 4.32871 43.1192C4.3312 43.1192 4.3337 43.1192 4.33619 43.1192C4.33868 43.1192 4.34117 43.1192 4.34366 43.1192C4.34614 43.1192 4.34863 43.1192 4.35111 43.1192C4.35359 43.1192 4.35607 43.1192 4.35854 43.1192C4.36102 43.1192 4.36349 43.1192 4.36596 43.1192C4.36843 43.1192 4.3709 43.1192 4.37337 43.1192C4.37583 43.1192 4.3783 43.1192 4.38076 43.1192C4.38322 43.1192 4.38568 43.1192 4.38813 43.1192C4.39059 43.1192 4.39304 43.1192 4.39549 43.1192C4.39794 43.1192 4.40038 43.1192 4.40283 43.1192C4.40527 43.1192 4.40771 43.1192 4.41015 43.1192C4.41259 43.1192 4.41502 43.1192 4.41746 43.1192C4.41989 43.1192 4.42232 43.1192 4.42474 43.1192C4.42717 43.1192 4.42959 43.1192 4.43201 43.1192C4.43444 43.1192 4.43685 43.1192 4.43927 43.1192C4.44168 43.1192 4.44409 43.1192 4.4465 43.1192C4.44891 43.1192 4.45132 43.1192 4.45372 43.1192C4.45612 43.1192 4.45852 43.1192 4.46092 43.1192C4.46332 43.1192 4.46571 43.1192 4.4681 43.1192C4.47049 43.1192 4.47288 43.1192 4.47526 43.1192C4.47765 43.1192 4.48003 43.1192 4.4824 43.1192C4.48478 43.1192 4.48716 43.1192 4.48953 43.1192C4.4919 43.1192 4.49427 43.1192 4.49663 43.1192C4.499 43.1192 4.50136 43.1192 4.50372 43.1192C4.50607 43.1192 4.50843 43.1192 4.51078 43.1192C4.51313 43.1192 4.51548 43.1192 4.51782 43.1192C4.52017 43.1192 4.52251 43.1192 4.52485 43.1192C4.52719 43.1192 4.52952 43.1192 4.53185 43.1192C4.53418 43.1192 4.53651 43.1192 4.53883 43.1192C4.54116 43.1192 4.54348 43.1192 4.5458 43.1192C4.54811 43.1192 4.55043 43.1192 4.55274 43.1192C4.55505 43.1192 4.55735 43.1192 4.55966 43.1192C4.56196 43.1192 4.56426 43.1192 4.56655 43.1192C4.56885 43.1192 4.57114 43.1192 4.57343 43.1192C4.57572 43.1192 4.578 43.1192 4.58028 43.1192C4.58256 43.1192 4.58484 43.1192 4.58712 43.1192C4.58939 43.1192 4.59166 43.1192 4.59392 43.1192C4.59619 43.1192 4.59845 43.1192 4.60071 43.1192C4.60297 43.1192 4.60522 43.1192 4.60747 43.1192C4.60972 43.1192 4.61197 43.1192 4.61421 43.1192C4.61646 43.1192 4.6187 43.1192 4.62093 43.1192C4.62317 43.1192 4.6254 43.1192 4.62762 43.1192C4.62985 43.1192 4.63208 43.1192 4.63429 43.1192C4.63651 43.1192 4.63873 43.1192 4.64094 43.1192C4.64315 43.1192 4.64536 43.1192 4.64756 43.1192C4.64977 43.1192 4.65196 43.1192 4.65416 43.1192C4.65635 43.1192 4.65855 43.1192 4.66073 43.1192C4.66292 43.1192 4.6651 43.1192 4.66728 43.1192C4.66946 43.1192 4.67163 43.1192 4.6738 43.1192C4.67597 43.1192 4.67814 43.1192 4.6803 43.1192C4.68246 43.1192 4.68462 43.1192 4.68677 43.1192C4.68892 43.1192 4.69107 43.1192 4.69322 43.1192C4.69536 43.1192 4.6975 43.1192 4.69964 43.1192C4.70177 43.1192 4.70391 43.1192 4.70603 43.1192C4.70816 43.1192 4.71028 43.1192 4.7124 43.1192C4.71452 43.1192 4.71663 43.1192 4.71874 43.1192C4.72085 43.1192 4.72295 43.1192 4.72506 43.1192C4.72716 43.1192 4.72925 43.1192 4.73134 43.1192C4.73343 43.1192 4.73552 43.1192 4.7376 43.1192C4.73969 43.1192 4.74176 43.1192 4.74384 43.1192C4.74591 43.1192 4.74798 43.1192 4.75004 43.1192C4.7521 43.1192 4.75416 43.1192 4.75622 43.1192C4.75827 43.1192 4.76032 43.1192 4.76237 43.1192C4.76441 43.1192 4.76645 43.1192 4.76849 43.1192C4.77052 43.1192 4.77255 43.1192 4.77458 43.1192C4.77661 43.1192 4.77863 43.1192 4.78064 43.1192C4.78266 43.1192 4.78467 43.1192 4.78668 43.1192C4.78869 43.1192 4.79069 43.1192 4.79268 43.1192C4.79468 43.1192 4.79667 43.1192 4.79866 43.1192C4.80065 43.1192 4.80263 43.1192 4.80461 43.1192C4.80658 43.1192 4.80856 43.1192 4.81052 43.1192C4.81249 43.1192 4.81445 43.1192 4.81641 43.1192C4.81837 43.1192 4.82032 43.1192 4.82227 43.1192C4.82421 43.1192 4.82616 43.1192 4.82809 43.1192C4.83003 43.1192 4.83196 43.1192 4.83389 43.1192C4.83581 43.1192 4.83774 43.1192 4.83965 43.1192C4.84157 43.1192 4.84348 43.1192 4.84539 43.1192C4.84729 43.1192 4.84919 43.1192 4.85109 43.1192C4.85298 43.1192 4.85487 43.1192 4.85676 43.1192C4.85864 43.1192 4.86052 43.1192 4.8624 43.1192C4.86427 43.1192 4.86614 43.1192 4.868 43.1192C4.86987 43.1192 4.87172 43.1192 4.87358 43.1192C4.87543 43.1192 4.87728 43.1192 4.87912 43.1192C4.88096 43.1192 4.8828 43.1192 4.88463 43.1192C4.88646 43.1192 4.88829 43.1192 4.89011 43.1192C4.89193 43.1192 4.89374 43.1192 4.89555 43.1192C4.89736 43.1192 4.89916 43.1192 4.90096 43.1192C4.90276 43.1192 4.90455 43.1192 4.90634 43.1192C4.90812 43.1192 4.9099 43.1192 4.91168 43.1192C4.91345 43.1192 4.91522 43.1192 4.91699 43.1192C4.91875 43.1192 4.92051 43.1192 4.92226 43.1192C4.92402 43.1192 4.92576 43.1192 4.9275 43.1192C4.92925 43.1192 4.93098 43.1192 4.93271 43.1192C4.93444 43.1192 4.93616 43.1192 4.93788 43.1192C4.9396 43.1192 4.94131 43.1192 4.94302 43.1192C4.94472 43.1192 4.94642 43.1192 4.94812 43.1192C4.94981 43.1192 4.9515 43.1192 4.95318 43.1192C4.95487 43.1192 4.95654 43.1192 4.95821 43.1192C4.95989 43.1192 4.96155 43.1192 4.96321 43.1192C4.96487 43.1192 4.96652 43.1192 4.96817 43.1192C4.96981 43.1192 4.97145 43.1192 4.97309 43.1192C4.97472 43.1192 4.97635 43.1192 4.97797 43.1192C4.9796 43.1192 4.98121 43.1192 4.98282 43.1192C4.98443 43.1192 4.98604 43.1192 4.98763 43.1192C4.98923 43.1192 4.99082 43.1192 4.99241 43.1192C4.99399 43.1192 4.99557 43.1192 4.99715 43.1192C4.99872 43.1192 5.00028 43.1192 5.00185 43.1192C5.00341 43.1192 5.00496 43.1192 5.00651 43.1192C5.00805 43.1192 5.0096 43.1192 5.01113 43.1192C5.01267 43.1192 5.01419 43.1192 5.01572 43.1192C5.01724 43.1192 5.01875 43.1192 5.02026 43.1192C5.02177 43.1192 5.02327 43.1192 5.02477 43.1192C5.02627 43.1192 5.02776 43.1192 5.02924 43.1192C5.03072 43.1192 5.0322 43.1192 5.03367 43.1192C5.03514 43.1192 5.0366 43.1192 5.03806 43.1192C5.03952 43.1192 5.04097 43.1192 5.04241 43.1192C5.04386 43.1192 5.04529 43.1192 5.04672 43.1192C5.04815 43.1192 5.04958 43.1192 5.051 43.1192C5.05241 43.1192 5.05382 43.1192 5.05523 43.1192C5.05663 43.1192 5.05803 43.1192 5.05942 43.1192C5.06081 43.1192 5.06219 43.1192 5.06357 43.1192C5.06495 43.1192 5.06632 43.1192 5.06768 43.1192C5.06904 43.1192 5.0704 43.1192 5.07175 43.1192C5.0731 43.1192 5.07444 43.1192 5.07577 43.1192C5.07711 43.1192 5.07844 43.1192 5.07976 43.1192C5.08108 43.1192 5.0824 43.1192 5.0837 43.1192C5.08501 43.1192 5.08631 43.1192 5.08761 43.1192C5.0889 43.1192 5.09019 43.1192 5.09147 43.1192C5.09275 43.1192 5.09402 43.1192 5.09528 43.1192C5.09655 43.1192 5.09781 43.1192 5.09906 43.1192C5.10031 43.1192 5.10155 43.1192 5.10279 43.1192C5.10403 43.1192 5.10526 43.1192 5.10648 43.1192C5.1077 43.1192 5.10892 43.1192 5.11013 43.1192C5.11134 43.1192 5.11254 43.1192 5.11373 43.1192C5.11492 43.1192 5.11611 43.1192 5.11729 43.1192C5.11847 43.1192 5.11964 43.1192 5.1208 43.1192C5.12197 43.1192 5.12313 43.1192 5.12428 43.1192C5.12542 43.1192 5.12657 43.1192 5.1277 43.1192C5.12884 43.1192 5.12996 43.1192 5.13108 43.1192C5.1322 43.1192 5.13332 43.1192 5.13442 43.1192C5.13553 43.1192 5.13662 43.1192 5.13771 43.1192C5.1388 43.1192 5.13989 43.1192 5.14096 43.1192C5.14204 43.1192 5.1431 43.1192 5.14416 43.1192C5.14522 43.1192 5.14628 43.1192 5.14732 43.1192C5.14837 43.1192 5.1494 43.1192 5.15043 43.1192C5.15146 43.1192 5.15248 43.1192 5.1535 43.1192C5.15451 43.1192 5.15552 43.1192 5.15651 43.1192C5.15751 43.1192 5.1585 43.1192 5.15949 43.1192C5.16047 43.1192 5.16144 43.1192 5.16241 43.1192C5.16338 43.1192 5.16434 43.1192 5.16529 43.1192C5.16624 43.1192 5.16719 43.1192 5.16812 43.1192C5.16906 43.1192 5.16999 43.1192 5.17091 43.1192C5.17183 43.1192 5.17274 43.1192 5.17364 43.1192C5.17455 43.1192 5.17544 43.1192 5.17633 43.1192C5.17722 43.1192 5.1781 43.1192 5.17897 43.1192C5.17984 43.1192 5.18071 43.1192 5.18156 43.1192C5.18242 43.1192 5.18327 43.1192 5.18411 43.1192C5.18495 43.1192 5.18578 43.1192 5.1866 43.1192C5.18743 43.1192 5.18824 43.1192 5.18905 43.1192C5.18986 43.1192 5.19066 43.1192 5.19145 43.1192C5.19224 43.1192 5.19302 43.1192 5.1938 43.1192C5.19457 43.1192 5.19534 43.1192 5.1961 43.1192C5.19685 43.1192 5.1976 43.1192 5.19834 43.1192C5.19909 43.1192 5.19982 43.1192 5.20054 43.1192C5.20127 43.1192 5.20198 43.1192 5.20269 43.1192C5.2034 43.1192 5.2041 43.1192 5.20479 43.1192C5.20548 43.1192 5.20617 43.1192 5.20684 43.1192C5.20751 43.1192 5.20818 43.1192 5.20884 43.1192C5.20949 43.1192 5.21014 43.1192 5.21078 43.1192C5.21142 43.1192 5.21206 43.1192 5.21268 43.1192C5.2133 43.1192 5.21392 43.1192 5.21452 43.1192C5.21513 43.1192 5.21573 43.1192 5.21632 43.1192C5.2169 43.1192 5.21748 43.1192 5.21806 43.1192C5.21863 43.1192 5.21919 43.1192 5.21974 43.1192C5.2203 43.1192 5.22084 43.1192 5.22138 43.1192C5.22192 43.1192 5.22244 43.1192 5.22296 43.1192C5.22348 43.1192 5.22399 43.1192 5.22449 43.1192C5.225 43.1192 5.22549 43.1192 5.22597 43.1192C5.22646 43.1192 5.22693 43.1192 5.2274 43.1192C5.22786 43.1192 5.22832 43.1192 5.22877 43.1192C5.22922 43.1192 5.22966 43.1192 5.23009 43.1192C5.23052 43.1192 5.23094 43.1192 5.23135 43.1192C5.23176 43.1192 5.23216 43.1192 5.23256 43.1192C5.23295 43.1192 5.23334 43.1192 5.23371 43.1192C5.23409 43.1192 5.23446 43.1192 5.23482 43.1192C5.23517 43.1192 5.23552 43.1192 5.23586 43.1192C5.2362 43.1192 5.23653 43.1192 5.23685 43.1192C5.23718 43.1192 5.23749 43.1192 5.23779 43.1192C5.23809 43.1192 5.23839 43.1192 5.23867 43.1192C5.23896 43.1192 5.23923 43.1192 5.2395 43.1192C5.23976 43.1192 5.24002 43.1192 5.24027 43.1192C5.24051 43.1192 5.24075 43.1192 5.24098 43.1192C5.24121 43.1192 5.24143 43.1192 5.24164 43.1192V42.1192ZM2.36206 42.1192V41.1192H2.00391V42.1192V43.1192H2.36206V42.1192ZM2.00391 42.1192H3.00391V41.7683H2.00391H1.00391V42.1192H2.00391ZM2.00391 41.7683L3.0039 41.772C3.03972 32.1219 3.0827 22.4925 3.36164 12.8583L2.36206 12.8293L1.36248 12.8004C1.0827 22.4635 1.03972 32.1172 1.00391 41.7645L2.00391 41.7683ZM2.36206 12.8293L1.3625 12.8591C1.50548 17.6704 1.57703 22.4909 1.62715 27.3092L2.62709 27.2988L3.62704 27.2884C3.57687 22.4652 3.50516 17.6298 3.36162 12.7996L2.36206 12.8293ZM2.62709 27.2988L1.62718 27.3122C1.69159 32.1286 1.68435 36.9429 1.71306 41.7742L2.71305 41.7683L3.71303 41.7623C3.68444 36.9521 3.69153 32.1105 3.627 27.2854L2.62709 27.2988ZM2.71305 41.7683L3.4202 41.0612L3.06921 40.7102L2.36206 41.4172L1.65491 42.1243L2.00589 42.4753L2.71305 41.7683ZM2.36206 41.4172V42.4172H4.89063V41.4172V40.4172H2.36206V41.4172ZM4.89063 41.4172L4.18348 40.7102L3.8325 41.0612L4.53965 41.7683L5.2468 42.4753L5.59778 42.1243L4.89063 41.4172ZM4.53965 41.7683L5.53964 41.772C5.57546 32.122 5.61843 22.4922 5.89023 12.8575L4.89063 12.8293L3.89103 12.8011C3.61844 22.4639 3.57547 32.1172 3.53965 41.7645L4.53965 41.7683ZM4.89063 12.8293V11.8293H4.88348V12.8293V13.8293H4.89063V12.8293Z" fill="#C5B39A" mask="url(#path-5-inside-3_34_278)" />
	<mask id="path-7-inside-4_34_278" fill="white">
		<path d="M2.82756 13.173C-1.54909 12.12 0.162896 3.08021 1.33764 0.0144043C1.16573 1.18915 1.06544 2.36392 0.95083 3.53151C0.907852 6.38242 -0.238247 11.6329 2.82756 13.173Z" />
	</mask>
	<path d="M2.82756 13.173C-1.54909 12.12 0.162896 3.08021 1.33764 0.0144043C1.16573 1.18915 1.06544 2.36392 0.95083 3.53151C0.907852 6.38242 -0.238247 11.6329 2.82756 13.173Z" fill="#4A4A4A" />
	<path d="M2.82756 13.173L2.59364 14.1453L3.27644 12.2794L2.82756 13.173ZM1.33764 0.0144043L2.3271 0.159203L0.403849 -0.343405L1.33764 0.0144043ZM0.95083 3.53151L-0.0443866 3.43382L-0.0484319 3.47503L-0.0490561 3.51643L0.95083 3.53151ZM2.82756 13.173L3.06147 12.2007C2.35689 12.0312 1.85479 11.5523 1.50566 10.7179C1.14383 9.85313 0.987525 8.68315 1.00078 7.35852C1.02724 4.71348 1.72258 1.80461 2.27144 0.372213L1.33764 0.0144043L0.403849 -0.343405C-0.222037 1.29 -0.970066 4.43395 -0.999124 7.33851C-1.01363 8.78869 -0.850729 10.2677 -0.339339 11.4899C0.184754 12.7424 1.1099 13.7883 2.59364 14.1453L2.82756 13.173ZM1.33764 0.0144043L0.348182 -0.130395C0.171813 1.0748 0.0685044 2.28374 -0.0443866 3.43382L0.95083 3.53151L1.94605 3.6292C2.06238 2.44411 2.15965 1.30351 2.3271 0.159203L1.33764 0.0144043ZM0.95083 3.53151L-0.0490561 3.51643C-0.0592352 4.19165 -0.134614 5.00145 -0.202644 5.95282C-0.268718 6.87683 -0.324174 7.89865 -0.275398 8.89283C-0.181273 10.8113 0.322335 13.0336 2.37867 14.0666L2.82756 13.173L3.27644 12.2794C2.26698 11.7723 1.81073 10.5993 1.7222 8.79482C1.67965 7.9275 1.72716 7.00588 1.79226 6.09547C1.85541 5.21243 1.93941 4.29682 1.95072 3.54658L0.95083 3.53151Z" fill="#C5B39A" mask="url(#path-7-inside-4_34_278)" />
	<mask id="path-9-inside-5_34_278" fill="white">
		<path d="M4.41772 13.173C7.48353 11.6329 6.33743 6.38242 6.29445 3.53151C6.18701 2.36392 6.07957 1.18915 5.90766 0.0144043C7.08241 3.06588 8.79437 12.12 4.41772 13.173Z" />
	</mask>
	<path d="M4.41772 13.173C7.48353 11.6329 6.33743 6.38242 6.29445 3.53151C6.18701 2.36392 6.07957 1.18915 5.90766 0.0144043C7.08241 3.06588 8.79437 12.12 4.41772 13.173Z" fill="#4A4A4A" />
	<path d="M4.41772 13.173L3.96884 12.2794L4.65164 14.1453L4.41772 13.173ZM6.29445 3.53151L7.29434 3.51643L7.29376 3.47807L7.29024 3.43987L6.29445 3.53151ZM5.90766 0.0144043L6.84089 -0.344868L4.9182 0.159203L5.90766 0.0144043ZM4.41772 13.173L4.86661 14.0666C6.92295 13.0336 7.42656 10.8113 7.52068 8.89283C7.56946 7.89865 7.514 6.87683 7.44793 5.95282C7.3799 5.00145 7.30452 4.19165 7.29434 3.51643L6.29445 3.53151L5.29457 3.54658C5.30588 4.29682 5.38988 5.21243 5.45302 6.09547C5.51812 7.00588 5.56564 7.9275 5.52308 8.79482C5.43455 10.5993 4.97831 11.7723 3.96884 12.2794L4.41772 13.173ZM6.29445 3.53151L7.29024 3.43987C7.18324 2.27714 7.07358 1.0754 6.89712 -0.130395L5.90766 0.0144043L4.9182 0.159203C5.08557 1.30291 5.19077 2.45071 5.29866 3.62315L6.29445 3.53151ZM5.90766 0.0144043L4.97443 0.373677C5.5226 1.79758 6.21806 4.70596 6.24452 7.35314C6.25777 8.6787 6.10146 9.85019 5.73948 10.7162C5.39011 11.5521 4.88784 12.0314 4.18381 12.2007L4.41772 13.173L4.65164 14.1453C6.13594 13.7882 7.06091 12.7408 7.58477 11.4875C8.09602 10.2644 8.25892 8.78418 8.24442 7.33315C8.21537 4.42714 7.46747 1.28271 6.84089 -0.344868L5.90766 0.0144043Z" fill="#C5B39A" mask="url(#path-9-inside-5_34_278)" />
	<mask id="path-11-inside-6_34_278" fill="white">
		<path d="M2.86344 0.0144043C2.83478 2.85099 2.5984 5.67325 2.30472 8.48119L1.58841 8.46685C1.395 5.65891 1.2589 2.84383 1.33769 0.0144043C1.82478 2.80085 2.08982 5.60881 2.30472 8.41674L1.58841 8.4024C1.90358 5.59447 2.27606 2.79368 2.86344 0.0144043Z" />
	</mask>
	<path d="M2.86344 0.0144043C2.83478 2.85099 2.5984 5.67325 2.30472 8.48119L1.58841 8.46685C1.395 5.65891 1.2589 2.84383 1.33769 0.0144043C1.82478 2.80085 2.08982 5.60881 2.30472 8.41674L1.58841 8.4024C1.90358 5.59447 2.27606 2.79368 2.86344 0.0144043Z" fill="#4A4A4A" />
	<path d="M2.86344 0.0144043L3.86339 0.0245048L1.88505 -0.192369L2.86344 0.0144043ZM2.30472 8.48119L2.2847 9.48099L3.20368 9.49938L3.29929 8.58521L2.30472 8.48119ZM1.58841 8.46685L0.59077 8.53556L0.65364 9.44833L1.56839 9.46665L1.58841 8.46685ZM1.33769 0.0144043L2.32276 -0.157792L0.338081 -0.013433L1.33769 0.0144043ZM2.30472 8.41674L2.2847 9.41654L3.38584 9.43859L3.3018 8.34044L2.30472 8.41674ZM1.58841 8.4024L0.594647 8.29086L0.472367 9.38026L1.56839 9.4022L1.58841 8.4024ZM2.86344 0.0144043L1.86349 0.0043038C1.8353 2.7944 1.60265 5.58053 1.31014 8.37716L2.30472 8.48119L3.29929 8.58521C3.59416 5.76598 3.83426 2.90757 3.86339 0.0245048L2.86344 0.0144043ZM2.30472 8.48119L2.32473 7.48139L1.60842 7.46705L1.58841 8.46685L1.56839 9.46665L2.2847 9.48099L2.30472 8.48119ZM1.58841 8.46685L2.58604 8.39813C2.3934 5.60124 2.25985 2.82363 2.33731 0.0422416L1.33769 0.0144043L0.338081 -0.013433C0.25795 2.86402 0.396606 5.71658 0.59077 8.53556L1.58841 8.46685ZM1.33769 0.0144043L0.352631 0.1866C0.831218 2.9244 1.0934 5.69375 1.30763 8.49305L2.30472 8.41674L3.3018 8.34044C3.08625 5.52387 2.81835 2.6773 2.32276 -0.157792L1.33769 0.0144043ZM2.30472 8.41674L2.32473 7.41694L1.60842 7.4026L1.58841 8.4024L1.56839 9.4022L2.2847 9.41654L2.30472 8.41674ZM1.58841 8.4024L2.58217 8.51395C2.89611 5.71701 3.26437 2.9535 3.84183 0.221177L2.86344 0.0144043L1.88505 -0.192369C1.28775 2.63386 0.911058 5.47193 0.594647 8.29086L1.58841 8.4024Z" fill="#C5B39A" mask="url(#path-11-inside-6_34_278)" />
	<mask id="path-13-inside-7_34_278" fill="white">
		<path d="M4.38907 0.0144043C4.36042 2.85099 4.12404 5.67325 3.83035 8.48119L3.11404 8.46685C2.92064 5.65891 2.78453 2.84383 2.86333 0.0144043C3.35042 2.80085 3.61546 5.60881 3.83035 8.41674L3.11404 8.4024C3.42922 5.59447 3.8017 2.79368 4.38907 0.0144043Z" />
	</mask>
	<path d="M4.38907 0.0144043C4.36042 2.85099 4.12404 5.67325 3.83035 8.48119L3.11404 8.46685C2.92064 5.65891 2.78453 2.84383 2.86333 0.0144043C3.35042 2.80085 3.61546 5.60881 3.83035 8.41674L3.11404 8.4024C3.42922 5.59447 3.8017 2.79368 4.38907 0.0144043Z" fill="#4A4A4A" />
	<path d="M4.38907 0.0144043L5.38902 0.0245048L3.41068 -0.192369L4.38907 0.0144043ZM3.83035 8.48119L3.81034 9.48099L4.72931 9.49938L4.82493 8.58521L3.83035 8.48119ZM3.11404 8.46685L2.11641 8.53556L2.17927 9.44833L3.09403 9.46665L3.11404 8.46685ZM2.86333 0.0144043L3.84839 -0.157792L1.86372 -0.013433L2.86333 0.0144043ZM3.83035 8.41674L3.81034 9.41654L4.91148 9.43859L4.82744 8.34044L3.83035 8.41674ZM3.11404 8.4024L2.12028 8.29086L1.998 9.38026L3.09403 9.4022L3.11404 8.4024ZM4.38907 0.0144043L3.38912 0.0043038C3.36094 2.7944 3.12828 5.58053 2.83578 8.37716L3.83035 8.48119L4.82493 8.58521C5.11979 5.76598 5.3599 2.90757 5.38902 0.0245048L4.38907 0.0144043ZM3.83035 8.48119L3.85037 7.48139L3.13406 7.46705L3.11404 8.46685L3.09403 9.46665L3.81034 9.48099L3.83035 8.48119ZM3.11404 8.46685L4.11168 8.39813C3.91903 5.60124 3.78548 2.82363 3.86294 0.0422416L2.86333 0.0144043L1.86372 -0.013433C1.78358 2.86402 1.92224 5.71658 2.11641 8.53556L3.11404 8.46685ZM2.86333 0.0144043L1.87827 0.1866C2.35685 2.9244 2.61903 5.69375 2.83327 8.49305L3.83035 8.41674L4.82744 8.34044C4.61188 5.52387 4.34399 2.6773 3.84839 -0.157792L2.86333 0.0144043ZM3.83035 8.41674L3.85037 7.41694L3.13406 7.4026L3.11404 8.4024L3.09403 9.4022L3.81034 9.41654L3.83035 8.41674ZM3.11404 8.4024L4.1078 8.51395C4.42174 5.71701 4.79001 2.9535 5.36746 0.221177L4.38907 0.0144043L3.41068 -0.192369C2.81339 2.63386 2.43669 5.47193 2.12028 8.29086L3.11404 8.4024Z" fill="#C5B39A" mask="url(#path-13-inside-7_34_278)" />
	<mask id="path-15-inside-8_34_278" fill="white">
		<path d="M5.90787 0.0144043C5.87922 2.85099 5.64284 5.67325 5.34915 8.48119L4.63284 8.46685C4.43944 5.65891 4.30333 2.84383 4.38213 0.0144043C4.86922 2.80085 5.13426 5.60881 5.34915 8.41674L4.63284 8.4024C4.94802 5.59447 5.3205 2.79368 5.90787 0.0144043Z" />
	</mask>
	<path d="M5.90787 0.0144043C5.87922 2.85099 5.64284 5.67325 5.34915 8.48119L4.63284 8.46685C4.43944 5.65891 4.30333 2.84383 4.38213 0.0144043C4.86922 2.80085 5.13426 5.60881 5.34915 8.41674L4.63284 8.4024C4.94802 5.59447 5.3205 2.79368 5.90787 0.0144043Z" fill="#4A4A4A" />
	<path d="M5.90787 0.0144043L6.90782 0.0245048L4.92948 -0.192369L5.90787 0.0144043ZM5.34915 8.48119L5.32913 9.48099L6.24811 9.49938L6.34372 8.58521L5.34915 8.48119ZM4.63284 8.46685L3.6352 8.53556L3.69807 9.44833L4.61282 9.46665L4.63284 8.46685ZM4.38213 0.0144043L5.36719 -0.157792L3.38252 -0.013433L4.38213 0.0144043ZM5.34915 8.41674L5.32913 9.41654L6.43028 9.43859L6.34623 8.34044L5.34915 8.41674ZM4.63284 8.4024L3.63908 8.29086L3.5168 9.38026L4.61282 9.4022L4.63284 8.4024ZM5.90787 0.0144043L4.90792 0.0043038C4.87974 2.7944 4.64708 5.58053 4.35457 8.37716L5.34915 8.48119L6.34372 8.58521C6.63859 5.76598 6.8787 2.90757 6.90782 0.0245048L5.90787 0.0144043ZM5.34915 8.48119L5.36917 7.48139L4.65286 7.46705L4.63284 8.46685L4.61282 9.46665L5.32913 9.48099L5.34915 8.48119ZM4.63284 8.46685L5.63048 8.39813C5.43783 5.60124 5.30428 2.82363 5.38174 0.0422416L4.38213 0.0144043L3.38252 -0.013433C3.30238 2.86402 3.44104 5.71658 3.6352 8.53556L4.63284 8.46685ZM4.38213 0.0144043L3.39706 0.1866C3.87565 2.9244 4.13783 5.69375 4.35207 8.49305L5.34915 8.41674L6.34623 8.34044C6.13068 5.52387 5.86278 2.6773 5.36719 -0.157792L4.38213 0.0144043ZM5.34915 8.41674L5.36917 7.41694L4.65286 7.4026L4.63284 8.4024L4.61282 9.4022L5.32913 9.41654L5.34915 8.41674ZM4.63284 8.4024L5.6266 8.51395C5.94054 5.71701 6.30881 2.9535 6.88626 0.221177L5.90787 0.0144043L4.92948 -0.192369C4.33218 2.63386 3.95549 5.47193 3.63908 8.29086L4.63284 8.4024Z" fill="#C5B39A" mask="url(#path-15-inside-8_34_278)" />
	<mask id="path-17-inside-9_34_278" fill="white">
		<path d="M53.5924 0.0142965C52.5036 2.05578 51.3289 3.9755 50.7487 6.21039C50.1541 8.37364 50.0467 10.7876 50.3619 12.9222L51.5223 17.7788C51.5223 17.7931 51.5294 17.8218 51.5223 17.8361C51.6154 25.8086 51.5939 33.7883 51.6297 41.7608L51.2716 41.4027H53.5781L53.2271 41.7537C53.2271 27.7928 53.4993 14.054 53.5781 0L53.5924 0.0142965ZM53.5924 0.0142965C53.6784 13.9179 53.9506 28.1295 53.9506 42.119C53.8145 42.1333 51.5008 42.1118 51.2859 42.119H50.9278V41.7608C50.9707 33.8814 50.9277 25.5579 51.0423 17.8862L49.9751 13.0082C49.667 10.7088 49.8604 8.34497 50.5338 6.13873C51.1426 3.92534 52.475 1.94836 53.5996 0L53.5924 0.0142965Z" />
	</mask>
	<path d="M53.5924 0.0142965C52.5036 2.05578 51.3289 3.9755 50.7487 6.21039C50.1541 8.37364 50.0467 10.7876 50.3619 12.9222L51.5223 17.7788C51.5223 17.7931 51.5294 17.8218 51.5223 17.8361C51.6154 25.8086 51.5939 33.7883 51.6297 41.7608L51.2716 41.4027H53.5781L53.2271 41.7537C53.2271 27.7928 53.4993 14.054 53.5781 0L53.5924 0.0142965ZM53.5924 0.0142965C53.6784 13.9179 53.9506 28.1295 53.9506 42.119C53.8145 42.1333 51.5008 42.1118 51.2859 42.119H50.9278V41.7608C50.9707 33.8814 50.9277 25.5579 51.0423 17.8862L49.9751 13.0082C49.667 10.7088 49.8604 8.34497 50.5338 6.13873C51.1426 3.92534 52.475 1.94836 53.5996 0L53.5924 0.0142965Z" fill="#4A4A4A" />
	<path d="M50.7487 6.21039L51.7129 6.4754L51.7148 6.46855L51.7166 6.46168L50.7487 6.21039ZM50.3619 12.9222L49.3726 13.0683L49.379 13.1118L49.3892 13.1546L50.3619 12.9222ZM51.5223 17.7788H52.5223V17.6609L52.4949 17.5464L51.5223 17.7788ZM51.5223 17.8361L50.6279 17.3889L50.5195 17.6055L50.5224 17.8478L51.5223 17.8361ZM51.6297 41.7608L50.9226 42.4679L52.6406 44.1859L52.6297 41.7563L51.6297 41.7608ZM51.2716 41.4027V40.4027H48.8574L50.5645 42.1098L51.2716 41.4027ZM53.5781 41.4027L54.2852 42.1098L55.9923 40.4027H53.5781V41.4027ZM53.2271 41.7537H52.2271V44.1679L53.9342 42.4608L53.2271 41.7537ZM53.5781 0L54.2841 -0.708185L52.5915 -2.39564L52.5781 -0.00560644L53.5781 0ZM53.9506 42.119L54.0553 43.1135L54.9506 43.0192V42.119H53.9506ZM51.2859 42.119V43.119H51.3026L51.3192 43.1184L51.2859 42.119ZM50.9278 42.119H49.9278V43.119H50.9278V42.119ZM50.9278 41.7608L49.9278 41.7554V41.7608H50.9278ZM51.0423 17.8862L52.0422 17.9012L52.044 17.7855L52.0192 17.6725L51.0423 17.8862ZM49.9751 13.0082L48.9839 13.1409L48.9894 13.1817L48.9982 13.2219L49.9751 13.0082ZM50.5338 6.13873L51.4902 6.43064L51.4943 6.41735L51.498 6.40396L50.5338 6.13873ZM53.5996 0L54.494 0.447214L52.7335 -0.499906L53.5996 0ZM53.5924 0.0142965L52.7101 -0.456292C51.6601 1.51234 50.3994 3.57629 49.7808 5.95911L50.7487 6.21039L51.7166 6.46168C52.2584 4.37472 53.3471 2.59922 54.4748 0.484885L53.5924 0.0142965ZM50.7487 6.21039L49.7844 5.94538C49.1507 8.25111 49.0385 10.8056 49.3726 13.0683L50.3619 12.9222L51.3511 12.7761C51.0549 10.7696 51.1575 8.49618 51.7129 6.4754L50.7487 6.21039ZM50.3619 12.9222L49.3892 13.1546L50.5497 18.0112L51.5223 17.7788L52.4949 17.5464L51.3345 12.6898L50.3619 12.9222ZM51.5223 17.7788H50.5223C50.5223 17.8191 50.5247 17.8514 50.526 17.8678C50.5275 17.8853 50.5291 17.8996 50.5297 17.9046C50.5319 17.9245 50.5296 17.9048 50.5284 17.8904C50.5271 17.8742 50.523 17.8227 50.5276 17.7551C50.5316 17.6962 50.5461 17.5524 50.6279 17.3889L51.5223 17.8361L52.4167 18.2833C52.502 18.1126 52.5183 17.9598 52.523 17.8911C52.5283 17.8137 52.5238 17.7514 52.5215 17.7244C52.5194 17.6992 52.5158 17.6688 52.5169 17.6789C52.5169 17.679 52.518 17.6886 52.5191 17.7017C52.5201 17.7137 52.5223 17.742 52.5223 17.7788H51.5223ZM51.5223 17.8361L50.5224 17.8478C50.6154 25.8161 50.5939 33.7826 50.6297 41.7653L51.6297 41.7608L52.6297 41.7563C52.5939 33.794 52.6154 25.8011 52.5222 17.8244L51.5223 17.8361ZM51.6297 41.7608L52.3368 41.0537L51.9787 40.6956L51.2716 41.4027L50.5645 42.1098L50.9226 42.4679L51.6297 41.7608ZM51.2716 41.4027V42.4027H53.5781V41.4027V40.4027H51.2716V41.4027ZM53.5781 41.4027L52.871 40.6956L52.52 41.0466L53.2271 41.7537L53.9342 42.4608L54.2852 42.1098L53.5781 41.4027ZM53.2271 41.7537H54.2271C54.2271 27.789 54.4991 14.0858 54.5781 0.00560644L53.5781 0L52.5781 -0.00560644C52.4995 14.0221 52.2271 27.7966 52.2271 41.7537H53.2271ZM53.5781 0L52.8721 0.708185L52.8864 0.722482L53.5924 0.0142965L54.2985 -0.693889L54.2841 -0.708185L53.5781 0ZM53.5924 0.0142965L52.5924 0.0204787C52.6785 13.9469 52.9506 28.1282 52.9506 42.119H53.9506H54.9506C54.9506 28.1308 54.6782 13.8888 54.5924 0.0081142L53.5924 0.0142965ZM53.9506 42.119L53.8459 41.1245C53.8882 41.12 53.8975 41.1218 53.7954 41.1229C53.7237 41.1236 53.6252 41.124 53.5066 41.124C53.2698 41.1241 52.9634 41.123 52.6521 41.1217C52.0518 41.1191 51.3851 41.1151 51.2526 41.1195L51.2859 42.119L51.3192 43.1184C51.3191 43.1184 51.3298 43.1182 51.3581 43.1179C51.3837 43.1177 51.4171 43.1176 51.458 43.1175C51.5398 43.1174 51.6465 43.1176 51.7706 43.118C52.0191 43.1188 52.3312 43.1203 52.6435 43.1217C52.9545 43.123 53.2654 43.1241 53.5075 43.124C53.6282 43.124 53.7345 43.1236 53.8162 43.1227C53.8676 43.1222 53.9789 43.1215 54.0553 43.1135L53.9506 42.119ZM51.2859 42.119V41.119H50.9278V42.119V43.119H51.2859V42.119ZM50.9278 42.119H51.9278V41.7608H50.9278H49.9278V42.119H50.9278ZM50.9278 41.7608L51.9277 41.7663C51.9708 33.8705 51.9277 25.568 52.0422 17.9012L51.0423 17.8862L50.0425 17.8713C49.9278 25.5478 49.9707 33.8924 49.9278 41.7554L50.9278 41.7608ZM51.0423 17.8862L52.0192 17.6725L50.9519 12.7944L49.9751 13.0082L48.9982 13.2219L50.0655 18.1L51.0423 17.8862ZM49.9751 13.0082L50.9662 12.8754C50.6772 10.7181 50.8589 8.49912 51.4902 6.43064L50.5338 6.13873L49.5773 5.84683C48.862 8.19081 48.6569 10.6995 48.9839 13.1409L49.9751 13.0082ZM50.5338 6.13873L51.498 6.40396C52.0625 4.35173 53.2896 2.53749 54.4657 0.499906L53.5996 0L52.7335 -0.499906C51.6604 1.35923 50.2228 3.49895 49.5696 5.8735L50.5338 6.13873ZM53.5996 0L52.7052 -0.447214L52.698 -0.432917L53.5924 0.0142965L54.4869 0.46151L54.494 0.447214L53.5996 0Z" fill="#C5B39A" mask="url(#path-17-inside-9_34_278)" />
</svg>
